<svg width="18" height="18" viewBox="0 0 18 18" fill="none" xmlns="http://www.w3.org/2000/svg">
<path id="insta" fill-rule="evenodd" clip-rule="evenodd" d="M3.10505 0.472536C3.67721 0.250081 4.33152 0.0981422 5.28971 0.0545234C6.25009 0.0101777 6.55616 0 9.00109 0C11.4453 0 11.7521 0.0109047 12.7117 0.0545234C13.6692 0.0974152 14.3235 0.250081 14.8964 0.472536C15.4875 0.702262 15.9898 1.0105 16.49 1.51066C16.9902 2.01155 17.2977 2.51317 17.5282 3.10493C17.7506 3.67706 17.9026 4.33134 17.9462 5.2895C17.9898 6.24911 18 6.5559 18 9C18 11.4441 17.9898 11.7502 17.9462 12.7105C17.9033 13.6687 17.7506 14.3229 17.5282 14.8951C17.2977 15.4868 16.9902 15.9892 16.49 16.4893C15.9891 16.9895 15.4875 17.297 14.8957 17.5275C14.3235 17.7499 13.6692 17.9019 12.711 17.9455C11.7514 17.9898 11.4453 18 9.00036 18C6.55616 18 6.25009 17.9891 5.28971 17.9455C4.33152 17.9019 3.67794 17.7499 3.10505 17.5275C2.51254 17.297 2.01091 16.9895 1.51072 16.4893C1.00981 15.9892 0.70229 15.4868 0.472555 14.8951C0.250091 14.3229 0.0981461 13.6687 0.0545256 12.7105C0.0101781 11.7509 0 11.4441 0 9C0 6.5559 0.0101781 6.24911 0.0545256 5.2895C0.0981461 4.33134 0.250091 3.67706 0.472555 3.10493C0.70229 2.51244 1.01054 2.01082 1.51072 1.51066C2.01163 1.0105 2.51327 0.702262 3.10505 0.472536ZM5.36387 16.3258C4.48637 16.2858 4.00945 16.1397 3.69248 16.0161C3.27226 15.8525 2.97274 15.6577 2.65722 15.3429C2.34242 15.0281 2.14686 14.7286 1.98401 14.3084C1.86041 13.9914 1.71429 13.5145 1.6743 12.6371C1.63068 11.6884 1.62196 11.4034 1.62196 9C1.62196 6.59661 1.63141 6.31236 1.6743 5.36292C1.71429 4.48546 1.86114 4.00929 1.98401 3.6916C2.14758 3.27141 2.34242 2.97189 2.65722 2.65638C2.97201 2.3416 3.27154 2.14604 3.69248 1.9832C4.00945 1.85961 4.48637 1.71349 5.36387 1.67351C6.31261 1.62989 6.5976 1.62116 9.00036 1.62116C11.4039 1.62116 11.6881 1.63061 12.6376 1.67351C13.5151 1.71349 13.9913 1.86034 14.309 1.9832C14.7292 2.14604 15.0287 2.3416 15.3442 2.65638C15.659 2.97116 15.8539 3.27141 16.0174 3.6916C16.141 4.00856 16.2872 4.48546 16.3272 5.36292C16.3708 6.31236 16.3795 6.59661 16.3795 9C16.3795 11.4027 16.3708 11.6876 16.3272 12.6371C16.2872 13.5145 16.1403 13.9914 16.0174 14.3084C15.8539 14.7286 15.659 15.0281 15.3442 15.3429C15.0294 15.6577 14.7292 15.8525 14.309 16.0161C13.992 16.1397 13.5151 16.2858 12.6376 16.3258C11.6888 16.3694 11.4039 16.3781 9.00036 16.3781C6.5976 16.3781 6.31261 16.3694 5.36387 16.3258ZM13.8049 5.27704C13.2081 5.27704 12.7246 4.79287 12.7246 4.19675C12.7246 3.60063 13.2081 3.11719 13.8049 3.11719C14.4018 3.11719 14.8853 3.60063 14.8853 4.19675C14.8853 4.79287 14.4011 5.27704 13.8049 5.27704ZM4.37877 9C4.37877 11.5524 6.44784 13.6214 9.00036 13.6214C11.5529 13.6214 13.622 11.5524 13.622 9C13.622 6.44758 11.5529 4.37859 9.00036 4.37859C6.44784 4.37859 4.37877 6.44758 4.37877 9ZM6.00073 9C6.00073 7.34321 7.34351 5.99976 9.00036 5.99976C10.6572 5.99976 12.0007 7.34321 12.0007 9C12.0007 10.6568 10.6572 12.0002 9.00036 12.0002C7.34351 12.0002 6.00073 10.6568 6.00073 9Z" fill="#339E75"/>
</svg>
