<?xml version="1.0" encoding="utf-8"?>
<!-- Generator: Adobe Illustrator 16.0.2, SVG Export Plug-In . SVG Version: 6.00 Build 0)  -->
<!DOCTYPE svg PUBLIC "-//W3C//DTD SVG 1.1//EN" "http://www.w3.org/Graphics/SVG/1.1/DTD/svg11.dtd">
<svg version="1.1" id="Layer_1" xmlns="http://www.w3.org/2000/svg" xmlns:xlink="http://www.w3.org/1999/xlink" x="0px" y="0px"
	 width="308px" height="66px" viewBox="0 25 308 66" enable-background="new 0 25 308 66" xml:space="preserve">
<title>Group 2</title>
<desc>Created with Sketch.</desc>
<g id="trustage-logo" transform="translate(59.000000, 39.000000)">
	<polygon id="Fill-1" fill="#515251" points="-44.357,51.153 6.319,51.153 6.319,41.405 -44.357,41.405 	"/>
	<polygon id="Fill-3" fill="#515251" points="-34.611,37.509 6.319,37.509 6.319,27.764 -34.611,27.764 	"/>
	<polygon id="Fill-4" fill="#515251" points="-13.172,10.222 6.319,10.222 6.319,0.476 -13.172,0.476 	"/>
	<polygon id="Fill-5" fill="#515251" points="-3.427,-3.422 6.319,-3.422 6.319,-13.167 -3.427,-13.167 	"/>
	<polygon id="Fill-6" fill="#515251" points="-22.918,23.866 6.319,23.866 6.319,14.12 -22.918,14.12 	"/>
	<polyline id="Fill-7" fill="#515251" points="31.656,0.476 31.656,8.188 42.499,8.188 42.499,37.509 50.05,37.509 50.05,8.188 
		60.893,8.188 60.893,0.476 31.656,0.476 	"/>
	<path id="Fill-8" fill="#515251" d="M89.667,37.509c-5.745,0-11.234-4.183-11.234-9.792V12.171h7.524V26.24
		c0,2.314,1.627,4.185,4.221,4.185h-0.102c2.593,0,4.22-1.87,4.22-4.185V12.171h7.526v15.546c0,5.609-5.492,9.792-11.237,9.792
		H89.667"/>
	<path id="Fill-9" fill="#515251" d="M72.586,12.171l-6.899,0.017c-4.63,0-8.399,3.615-8.615,8.15
		c-0.05,0.4-0.079,17.171-0.079,17.171h7.348v-14.07c0-2.313,1.588-4.183,4.12-4.183l4.125-0.086V12.171"/>
	<path id="Fill-10" fill="#515251" d="M118.215,4.958c-4.479,0-7.367,2.609-7.367,6.008c0,2.215,1.291,3.94,3.484,4.775
		c2.588,0.936,6.372,0.493,9.857,1.577c4.279,1.28,6.869,4.531,6.869,9.062c0,6.4-4.929,11.129-12.596,11.129
		c-7.316,0-12.742-4.433-12.742-10.934h4.729c0,3.842,3.481,6.451,8.112,6.451c4.828,0,7.768-2.709,7.768-6.351
		c0-2.561-1.447-4.138-3.587-4.927c-2.736-0.984-6.668-0.64-9.904-1.574c-4.38-1.331-6.771-4.729-6.771-8.963
		c0-6.155,4.931-10.735,12.147-10.735c7.066,0,12.296,4.285,12.344,10.44h-4.827C125.581,7.37,122.596,4.958,118.215,4.958"/>
	<path id="Fill-11" fill="#515251" d="M142.469,12.992h8.079v4.135h-8.079v12.501c0,2.236,1.37,3.746,3.59,3.746h4.489v4.134h-5.388
		c-4.156,0-6.943-2.919-6.943-7.15V17.127h-3.261v-2.288l5.15-6.567h2.362V12.992"/>
	<path id="Fill-12" fill="#515251" d="M169.622,28.405v-2.747l-6.206,0.626c-3.152,0.338-4.604,1.734-4.604,3.807
		c0,1.977,1.597,3.612,4.604,3.612c1.864,0,3.42-0.604,4.501-1.564C169.004,31.175,169.622,29.849,169.622,28.405 M173.936,21.034
		v15.943h-4.313v-2.215c-1.551,1.686-3.879,2.746-6.838,2.746c-5.042,0-8.339-3.035-8.339-7.371c0-4.433,3.202-6.889,8.388-7.418
		l6.789-0.626v-1.011c0-2.65-2.229-4.672-5.238-4.672c-2.665,0-4.753,1.589-5.091,3.853h-4.266c0.339-4.624,4.072-8.093,9.356-8.093
		C170.01,12.171,173.936,15.927,173.936,21.034"/>
	<g id="Group-16" transform="translate(0.000000, 15.732484)">
		<path id="Fill-13" fill="#515251" d="M212.043,7.583h15.708c-0.604-4.128-3.612-6.763-7.828-6.763
			C215.658,0.82,212.646,3.455,212.043,7.583 M232.219,11.561h-20.125c0.751,3.927,3.915,6.663,8.28,6.663
			c3.062,0,5.573-1.444,7.025-3.68l3.716,2.388c-2.209,3.428-6.073,5.668-10.741,5.668c-7.628,0-12.999-5.718-12.999-13.078
			c0-7.359,5.17-13.078,12.548-13.078c7.376,0,12.396,5.669,12.396,13.078C232.318,10.219,232.318,10.915,232.219,11.561"/>
		<polygon id="Fill-15" fill="#F9D666" points="-58,35.411 -47.64,35.411 -47.64,25.162 -58,25.162 		"/>
	</g>
	<polygon id="Fill-17" fill="#F9D666" points="-58,37.509 -38.509,37.509 -38.509,27.764 -58,27.764 	"/>
	<polygon id="Fill-18" fill="#F9D666" points="-58,10.222 -17.07,10.222 -17.07,0.476 -58,0.476 	"/>
	<polygon id="Fill-19" fill="#F9D666" points="-58,-3.422 -7.325,-3.422 -7.325,-13.167 -58,-13.167 	"/>
	<polygon id="Fill-20" fill="#F9D666" points="-58,23.866 -28.764,23.866 -28.764,14.12 -58,14.12 	"/>
	<polyline id="Fill-21" fill="#515251" points="238.256,10.866 235.776,10.866 235.776,16.068 234.886,16.068 234.886,10.866 
		232.407,10.866 232.407,10.222 238.256,10.222 238.256,10.866 	"/>
	<polyline id="Fill-22" fill="#515251" points="240.204,10.222 241.537,10.222 244.096,14.805 244.118,14.805 246.699,10.222 
		248,10.222 248,16.068 247.105,16.068 247.105,11.164 247.083,11.164 244.375,16.068 243.829,16.068 241.12,11.164 241.101,11.164 
		241.101,16.068 240.204,16.068 240.204,10.222 	"/>
	<path id="Fill-23" fill="#515251" d="M196.829,24.867c0-4.818-3.369-8.281-8.174-8.281c-4.749,0-8.172,3.463-8.172,8.281
		c0,4.665,3.423,8.129,8.172,8.129C193.46,32.996,196.829,29.532,196.829,24.867z M201.222,12.722V37.21
		c0,6.876-5.158,11.993-12.462,11.993c-5.825,0-10.371-3.312-11.854-8.229l4.342-1.505c0.923,3.159,3.73,5.367,7.512,5.367
		c4.597,0,7.865-3.313,7.865-7.729v-3.01c-2.094,2.107-5.007,3.313-8.325,3.313c-7.152,0-12.415-5.521-12.415-12.596
		c0-7.075,5.263-12.645,12.415-12.645c3.37,0,6.281,1.304,8.378,3.362v-2.811H201.222L201.222,12.722z"/>
</g>
</svg>
