<svg width="72" height="72" viewBox="0 0 72 72" fill="none" xmlns="http://www.w3.org/2000/svg">
<path d="M6.1875 36C6.1875 25.1871 8.94375 17.3211 10.8343 13.203C11.7487 11.2035 13.2367 9.52092 15.1093 8.36888L20.9925 4.75481C21.8628 4.22044 22.8642 3.93754 23.8854 3.9375H27.4292C28.1005 3.9375 28.7444 4.20418 29.2191 4.67889C29.6938 5.15359 29.9604 5.79742 29.9604 6.46875V19.8816C29.9604 20.5529 29.6938 21.1967 29.2191 21.6714C28.7444 22.1461 28.1005 22.4128 27.4292 22.4128H23.2431C22.6386 22.4128 22.0426 22.2712 21.5027 21.9994L18.2126 20.3428C17.5174 21.7367 15.0323 27.3218 15.0323 36C15.0323 44.6782 17.5174 50.2633 18.2126 51.6572L21.5027 50.0006C22.0424 49.7288 22.6382 49.5872 23.2425 49.5872H27.4275C28.0988 49.5872 28.7427 49.8539 29.2174 50.3286C29.6921 50.8033 29.9587 51.4471 29.9587 52.1184V65.5312C29.9587 66.2026 29.6921 66.8464 29.2174 67.3211C28.7427 67.7958 28.0988 68.0625 27.4275 68.0625H23.8837C22.8625 68.0625 21.8611 67.7796 20.9908 67.2452L15.1071 63.6311C13.2344 62.4791 11.7464 60.7965 10.8321 58.797C8.94375 54.6789 6.1875 46.8129 6.1875 36Z" fill="#339E75"/>
<path d="M47.8878 53.928C57.7885 53.928 65.8147 45.9018 65.8147 36.0011C65.8147 26.1004 57.7885 18.0742 47.8878 18.0742C37.9871 18.0742 29.9609 26.1004 29.9609 36.0011C29.9609 45.9018 37.9871 53.928 47.8878 53.928Z" fill="#D6ECE3"/>
<path d="M58.1019 42.6096V50.7321C55.1017 52.8124 51.5378 53.9272 47.8869 53.9272C44.236 53.9272 40.6721 52.8124 37.6719 50.7321V42.6096C37.6722 41.7823 37.9443 40.978 38.4463 40.3204C38.9484 39.6629 39.6526 39.1885 40.4506 38.9702L45.6256 37.5527H50.1481L55.3231 38.9702C56.1211 39.1885 56.8254 39.6629 57.3274 40.3204C57.8295 40.978 58.1016 41.7823 58.1019 42.6096Z" fill="#98CCB4"/>
<path d="M51.8336 36.3977C54.0143 34.217 54.0143 30.6814 51.8336 28.5008C49.6529 26.3201 46.1174 26.3201 43.9367 28.5008C41.7561 30.6814 41.7561 34.217 43.9367 36.3977C46.1174 38.5783 49.6529 38.5783 51.8336 36.3977Z" fill="#FEEEDA"/>
<path d="M27.4275 48.6028H23.2425C22.4844 48.6038 21.737 48.7814 21.0594 49.1214L18.6789 50.3201C17.7266 48.1162 16.0172 43.1589 16.0172 36C16.0172 28.8411 17.7266 23.8837 18.6789 21.6799L21.0594 22.8786C21.737 23.2186 22.4844 23.3962 23.2425 23.3972H27.4275C28.3596 23.3961 29.2532 23.0254 29.9123 22.3663C30.5714 21.7073 30.9421 20.8136 30.9431 19.8816V6.46875C30.9421 5.53667 30.5714 4.64306 29.9123 3.98398C29.2532 3.3249 28.3596 2.95417 27.4275 2.95313H23.8838C22.6803 2.95276 21.5004 3.28611 20.475 3.91613L14.5913 7.53019C12.5512 8.78255 10.9309 10.6149 9.9377 12.7929C8.17089 16.65 5.20314 24.795 5.20314 36C5.20152 38.6981 5.37494 41.3934 5.72232 44.0691C5.75619 44.328 5.89152 44.5628 6.09854 44.722C6.30556 44.8811 6.56732 44.9515 6.82623 44.9176C7.08514 44.8837 7.31999 44.7484 7.47912 44.5414C7.63825 44.3344 7.70863 44.0726 7.67476 43.8137C7.33845 41.2227 7.17048 38.6127 7.17189 36C7.17189 25.1691 10.0271 17.325 11.7281 13.6125C12.5596 11.7895 13.9155 10.2557 15.6229 9.207L21.5066 5.59294C22.2225 5.15359 23.0461 4.9213 23.886 4.92188H27.4298C27.8399 4.92232 28.2331 5.08544 28.5231 5.37544C28.8131 5.66544 28.9762 6.05863 28.9766 6.46875V19.8816C28.976 20.2916 28.8129 20.6847 28.5229 20.9747C28.2329 21.2647 27.8398 21.4278 27.4298 21.4284H23.2425C22.792 21.428 22.3479 21.3225 21.9454 21.1202L18.6559 19.4625C18.5401 19.4043 18.414 19.3695 18.2848 19.3601C18.1556 19.3507 18.0258 19.3669 17.9028 19.4078C17.7799 19.4487 17.6662 19.5134 17.5683 19.5983C17.4704 19.6831 17.3902 19.7865 17.3323 19.9024C16.5617 21.4464 14.0484 27.1688 14.0484 36C14.0484 44.8312 16.5617 50.5536 17.3323 52.0965C17.3902 52.2124 17.4704 52.3158 17.5683 52.4006C17.6662 52.4855 17.7799 52.5502 17.9028 52.5911C18.0258 52.6319 18.1556 52.6481 18.2848 52.6387C18.414 52.6294 18.5401 52.5946 18.6559 52.5364L21.9454 50.8798C22.3479 50.6775 22.792 50.572 23.2425 50.5716H27.4275C27.8376 50.5722 28.2307 50.7353 28.5207 51.0253C28.8106 51.3153 28.9738 51.7084 28.9744 52.1184V65.5312C28.9739 65.9414 28.8108 66.3346 28.5208 66.6246C28.2308 66.9146 27.8376 67.0777 27.4275 67.0781H23.8838C23.0441 67.0784 22.2208 66.8457 21.5055 66.4059L15.6218 62.7924C13.9145 61.7434 12.5586 60.2095 11.727 58.3864C11.4227 57.7243 11.1268 57.0279 10.8456 56.3181C10.7999 56.1953 10.7302 56.0829 10.6406 55.9875C10.5509 55.892 10.4431 55.8154 10.3235 55.7621C10.2038 55.7088 10.0748 55.6799 9.94383 55.6772C9.8129 55.6744 9.68273 55.6978 9.56094 55.7459C9.43916 55.7941 9.32821 55.8661 9.2346 55.9577C9.14098 56.0493 9.06659 56.1586 9.01576 56.2793C8.96494 56.4 8.93871 56.5296 8.93861 56.6606C8.93852 56.7916 8.96455 56.9212 9.0152 57.042C9.30882 57.7851 9.61876 58.5135 9.9377 59.2071C10.9311 61.385 12.5513 63.2173 14.5913 64.4698L20.475 68.0833C21.5002 68.7137 22.6802 69.0473 23.8838 69.0469H27.4275C28.3596 69.0458 29.2532 68.6751 29.9123 68.016C30.5714 67.3569 30.9421 66.4633 30.9431 65.5312V52.1184C30.9421 51.1864 30.5714 50.2928 29.9123 49.6337C29.2532 48.9746 28.3596 48.6039 27.4275 48.6028Z" fill="#282B29"/>
<path d="M9.20576 51.3876C8.98582 50.5911 8.78163 49.7817 8.59994 48.9829C8.54214 48.7284 8.38559 48.5073 8.16475 48.3682C7.94391 48.2291 7.67686 48.1834 7.42235 48.2412C7.16784 48.2991 6.94672 48.4556 6.80764 48.6764C6.66855 48.8973 6.62289 49.1643 6.6807 49.4188C6.86857 50.2474 7.08007 51.0861 7.30845 51.913C7.36597 52.1204 7.48983 52.3032 7.6611 52.4335C7.83236 52.5639 8.0416 52.6345 8.25682 52.6347C8.3458 52.6348 8.43438 52.6226 8.52007 52.5987C8.64463 52.5642 8.76118 52.5055 8.86306 52.426C8.96494 52.3465 9.05015 52.2477 9.11383 52.1352C9.17751 52.0227 9.2184 51.8988 9.23417 51.7705C9.24995 51.6423 9.24029 51.5121 9.20576 51.3876Z" fill="#282B29"/>
<path d="M54.8482 18.4124C54.728 18.3648 54.5996 18.3414 54.4704 18.3434C54.3411 18.3454 54.2135 18.3728 54.0949 18.4241C53.9762 18.4755 53.8688 18.5496 53.7789 18.6425C53.6889 18.7353 53.6181 18.8449 53.5705 18.9651C53.4743 19.2078 53.4785 19.4788 53.5822 19.7184C53.6858 19.958 53.8804 20.1467 54.1231 20.2428C56.8189 21.3087 59.1959 23.049 61.0264 25.2969C62.8569 27.5447 64.0796 30.225 64.5773 33.0808C65.0751 35.9367 64.8312 38.8725 63.8691 41.6071C62.907 44.3417 61.2589 46.7835 59.0827 48.6986V42.6117C59.0802 41.5699 58.7368 40.5576 58.1048 39.7293C57.4728 38.9011 56.587 38.3025 55.5828 38.0251L52.4469 37.1651C53.3885 36.2559 54.037 35.0861 54.3091 33.8059C54.5813 32.5256 54.4648 31.1932 53.9745 29.9796C53.4843 28.766 52.6426 27.7265 51.5575 26.9946C50.4724 26.2627 49.1933 25.8716 47.8844 25.8716C46.5755 25.8716 45.2965 26.2627 44.2114 26.9946C43.1263 27.7265 42.2846 28.766 41.7943 29.9796C41.304 31.1932 41.1875 32.5256 41.4597 33.8059C41.7319 35.0861 42.3804 36.2559 43.322 37.1651L40.1855 38.0251C39.1811 38.3026 38.2952 38.9015 37.6632 39.73C37.0313 40.5586 36.6881 41.5714 36.6862 42.6134V48.6986C34.1027 46.4248 32.2735 43.4177 31.4423 40.078C30.6112 36.7383 30.8175 33.2246 32.0338 30.0051C33.2501 26.7856 35.4186 24.0132 38.2504 22.0574C41.0823 20.1016 44.4429 19.0552 47.8844 19.0576C48.3609 19.0576 48.8407 19.0779 49.3171 19.1172C49.4459 19.128 49.5756 19.1133 49.6988 19.0739C49.8219 19.0345 49.9361 18.9713 50.0348 18.8878C50.1335 18.8043 50.2147 18.7022 50.274 18.5873C50.3332 18.4724 50.3692 18.3469 50.38 18.2181C50.3907 18.0893 50.376 17.9596 50.3366 17.8364C50.2972 17.7133 50.234 17.5991 50.1505 17.5004C50.067 17.4017 49.9649 17.3205 49.85 17.2612C49.7351 17.202 49.6096 17.166 49.4808 17.1552C48.9521 17.1114 48.4121 17.0889 47.8844 17.0889C43.1813 17.0929 38.6488 18.8508 35.1729 22.0189C31.6969 25.187 29.5274 29.5375 29.0884 34.2201C28.6494 38.9027 29.9725 43.5806 32.799 47.3396C35.6256 51.0985 39.7524 53.6683 44.3727 54.5464C48.9931 55.4246 53.7749 54.5481 57.7834 52.0882C61.7919 49.6284 64.739 45.762 66.0485 41.2449C67.3581 36.7278 66.9359 31.8847 64.8646 27.6623C62.7934 23.4399 59.2218 20.1417 54.8482 18.4124ZM47.8844 27.8489C48.7942 27.8489 49.6835 28.1187 50.4399 28.6241C51.1963 29.1296 51.7858 29.848 52.1339 30.6884C52.482 31.5289 52.5731 32.4538 52.3956 33.346C52.2181 34.2383 51.7799 35.0578 51.1366 35.7011C50.4933 36.3443 49.6737 36.7823 48.7814 36.9597C47.8892 37.1372 46.9643 37.046 46.1239 36.6978C45.2834 36.3496 44.5651 35.7599 44.0598 35.0035C43.5544 34.247 43.2848 33.3577 43.2849 32.4479C43.2864 31.2286 43.7715 30.0596 44.6337 29.1974C45.496 28.3352 46.6651 27.8503 47.8844 27.8489ZM38.6549 50.1971V42.6117C38.6561 42.0009 38.8573 41.4071 39.2277 40.9214C39.5982 40.4356 40.1175 40.0846 40.7064 39.9219L45.5709 38.5876C47.0603 39.1591 48.7086 39.1591 50.198 38.5876L55.0625 39.9219C55.6513 40.0846 56.1707 40.4356 56.5411 40.9214C56.9116 41.4071 57.1128 42.0009 57.1139 42.6117V50.1971C54.3691 51.9887 51.1622 52.9426 47.8844 52.9426C44.6067 52.9426 41.3997 51.9887 38.6549 50.1971Z" fill="#282B29"/>
</svg>
