<svg width="72" height="72" viewBox="0 0 72 72" fill="none" xmlns="http://www.w3.org/2000/svg">
<path d="M4.59375 29.1123H67.4112V67.4089H4.59375V29.1123Z" fill="#F8A846"/>
<path d="M58.8151 22.3896L67.4112 29.1122L42.8904 48.233H29.1146L4.59375 29.1122L13.1898 22.3896H58.8151Z" fill="#F87146"/>
<path d="M13.1914 35.8352V4.5918H58.8167V35.8352L42.8919 48.2334H29.1162L13.1914 35.8352Z" fill="#FCF9F3"/>
<path d="M36.7709 18.2559H35.228C31.1503 18.2559 27.7891 21.562 27.7891 25.6948V27.1825C27.7891 31.2602 31.0952 34.6215 35.228 34.6215C35.779 34.6215 36.2198 34.1806 36.2198 33.6296C36.2198 33.0786 35.779 32.6928 35.228 32.6928C32.1973 32.6928 29.7177 30.2132 29.7177 27.1825V25.6397C29.7177 22.609 32.1973 20.1294 35.228 20.1294H36.7709C39.8015 20.1294 42.2812 22.609 42.2812 25.6397V31.3704C42.2812 32.0867 41.7301 32.6377 41.0138 32.6377C40.2974 32.6377 39.7464 32.0867 39.7464 31.3704V29.1663V25.5295C39.7464 23.9315 38.479 22.6641 36.8811 22.6641H35.1178C33.5198 22.6641 32.2524 23.9315 32.2524 25.5295V27.2928C32.2524 28.8907 33.5198 30.1581 35.1178 30.1581H37.8178V31.4255C37.8178 33.1888 39.2505 34.6215 41.0138 34.6215C42.7771 34.6215 44.2098 33.1888 44.2098 31.4255V25.6397C44.1547 21.562 40.8485 18.2559 36.7709 18.2559V18.2559ZM34.181 27.2928V25.5295C34.181 25.0335 34.6218 24.5927 35.1178 24.5927H36.8811C37.377 24.5927 37.8178 25.0335 37.8178 25.5295V28.2295H35.1178C34.6218 28.2295 34.181 27.8438 34.181 27.2928V27.2928Z" fill="#282B29"/>
<path d="M22.7723 66.416H20.2926C19.7416 66.416 19.3008 66.8568 19.3008 67.4079C19.3008 67.9589 19.7416 68.3997 20.2926 68.3997H22.7723C23.3233 68.3997 23.7641 67.9589 23.7641 67.4079C23.7641 66.8568 23.2682 66.416 22.7723 66.416Z" fill="#282B29"/>
<path d="M68.0135 28.3409L59.748 21.8938V16.8243C59.748 16.2733 59.3072 15.8325 58.7562 15.8325C58.2052 15.8325 57.7643 16.2733 57.7643 16.8243V35.3389L42.5559 47.2963H29.4414L14.1779 35.3389V5.52821H57.8194V11.6998C57.8194 12.2508 58.2603 12.6916 58.8113 12.6916C59.3623 12.6916 59.8031 12.2508 59.8031 11.6998V4.59146C59.8031 4.04043 59.3623 3.59961 58.8113 3.59961H13.186C12.635 3.59961 12.1941 4.04043 12.1941 4.59146V21.8938L3.92869 28.3409C3.70828 28.5062 3.54297 28.7817 3.54297 29.1123V67.4089C3.54297 67.9599 3.98379 68.4008 4.53482 68.4008H15.1146C15.6656 68.4008 16.1065 67.9599 16.1065 67.4089C16.1065 66.8579 15.6656 66.417 15.1146 66.417H7.40018L29.4414 49.1698H42.5008L64.542 66.417H28.0638C27.5128 66.417 27.072 66.8579 27.072 67.4089C27.072 67.9599 27.5128 68.4008 28.0638 68.4008H67.4074C67.9584 68.4008 68.3992 67.9599 68.3992 67.4089V29.1123C68.3992 28.8368 68.2339 28.5062 68.0135 28.3409V28.3409ZM66.4706 31.096V65.4252L44.4294 48.2331L66.4706 31.096ZM59.748 24.3734L65.8094 29.1123L59.748 33.8512V24.3734ZM5.58178 31.096L27.5679 48.2882L5.58178 65.4252V31.096ZM12.2492 33.8512L6.18791 29.1123L12.2492 24.3734V33.8512Z" fill="#282B29"/>
</svg>
