<svg width="30" height="12" viewBox="0 0 30 12" fill="none" xmlns="http://www.w3.org/2000/svg">
<path fill-rule="evenodd" clip-rule="evenodd" d="M29.7669 6.60539C29.7907 6.8324 29.8137 7.05236 29.8485 7.25L29.8818 7.43848L29.9316 7.7212C29.9275 7.69764 29.9132 7.68802 29.8989 7.67839C29.8846 7.66876 29.8703 7.65914 29.8661 7.63558C29.8265 7.98266 29.5905 8.07287 29.0694 8.26191C28.3979 8.52608 27.7123 8.71073 27.0267 8.89539C26.7982 8.95694 26.5697 9.01849 26.3416 9.08299C24.7048 9.51737 23.0679 9.95175 21.5952 10.7459C21.6036 10.793 21.5547 10.8016 21.5547 10.8016C21.4855 10.8381 21.4041 10.8767 21.3228 10.9154C21.2414 10.954 21.16 10.9926 21.0908 11.0291L20.8914 9.89825C20.8633 9.78985 20.833 9.67869 20.8031 9.56883C20.6663 9.06663 20.537 8.59165 20.6505 8.53177C21.521 8.03819 22.5058 7.6216 23.4584 7.30788C16.868 7.42177 10.2838 7.57075 3.73185 7.71899C2.69143 7.74254 1.65182 7.76606 0.613126 7.78942C0.532405 7.80365 0.436731 7.04014 0.350722 6.35375C0.280496 5.79332 0.216713 5.28431 0.172774 5.29206C8.50229 5.08655 16.889 4.91954 25.2268 4.76116C24.8021 4.49595 24.3672 4.24468 23.9323 3.99342C23.4975 3.74215 23.0626 3.49088 22.6378 3.22568C22.5097 3.13942 22.4664 2.57757 22.4388 2.22008C22.4295 2.09887 22.4219 2.00116 22.4135 1.95344C22.4051 1.90571 22.3976 1.808 22.3882 1.6868C22.3606 1.32931 22.3173 0.767457 22.1892 0.681197L27.2611 3.72227C27.4856 3.85272 27.7123 3.99495 27.939 4.13717C28.1656 4.2794 28.3923 4.42163 28.6169 4.55208C28.6967 4.60579 28.7872 4.65383 28.8799 4.70299C29.1193 4.83 29.3729 4.9645 29.4913 5.22384C29.6638 5.62124 29.7169 6.12884 29.7669 6.60539ZM27.4407 6.17012L27.5384 6.15289L27.4241 6.07588L27.4407 6.17012Z" fill="#FFFFFF"/>
</svg>
