<svg width="263" height="263" viewBox="0 0 263 263" fill="none" xmlns="http://www.w3.org/2000/svg">
<path opacity="0.3" d="M47.0886 216.464C46.3773 211.247 45.6348 206.038 44.9235 200.821C44.0377 194.453 43.2452 188.062 42.2892 181.674C41.874 178.954 41.1792 176.299 40.733 173.586C40.1462 170.002 39.5905 166.411 39.1901 162.783C38.8979 159.888 38.7219 156.93 38.7566 154.03C38.7672 152.691 39.2291 151.316 39.7545 150.071C40.4933 148.342 41.8456 147.262 43.61 146.953C46.8903 146.392 50.1949 145.934 53.4995 145.476C56.8041 145.018 60.1168 144.595 63.4457 144.239C66.7747 143.884 70.0725 143.536 73.411 143.359C81.5037 142.887 89.6289 142.552 97.7297 142.114C99.6441 142.021 101.541 141.716 103.477 142.269C104.609 142.615 105.573 143.218 106.346 144.264C108.262 146.81 108.804 149.79 109.012 152.885C109.308 157.73 109.58 162.618 109.875 167.463C109.952 169.035 108.885 169.794 107.562 169.06C107.038 168.786 106.52 168.403 106.042 168.046C104.168 166.647 102.251 166.451 100.315 167.56C97.0388 169.385 94.5019 171.974 93.4499 175.982C92.691 178.873 92.2834 181.861 93.0363 184.9C94.3246 190.197 99.3646 194.568 104.215 194.539C106.348 194.539 108.264 193.76 109.348 191.551C109.524 191.184 109.739 190.844 110.001 190.565C110.509 189.939 111.159 189.496 112.002 189.73C112.845 189.964 113.28 190.692 113.42 191.562C113.814 193.637 114.238 195.705 114.499 197.776C114.992 202.069 115.383 206.35 115.805 210.623C115.9 211.576 115.901 212.552 115.824 213.474C115.566 215.848 114.503 217.04 112.357 217.259C108.226 217.696 104.08 218.064 99.9581 218.535C98.0761 218.764 96.2347 219.165 94.3757 219.352C93.4502 219.463 92.445 219.376 91.5236 219.089C90.29 218.73 89.9224 217.733 90.3775 216.469C90.6882 215.564 91.1474 214.732 91.4891 213.82C93.0774 209.721 92.169 205.888 89.6759 202.431C88.4529 200.733 86.5533 199.918 84.6725 199.46C80.4193 198.408 76.3284 198.871 72.6444 201.19C71.1273 202.128 70.4209 203.994 69.8618 205.789C69.1434 208.02 69.0477 210.247 69.6776 212.628C69.952 213.647 69.7995 214.804 69.7632 215.897C69.6769 217.471 69.8163 219.029 70.546 220.446C71.1014 221.543 70.8435 222.255 69.7627 222.403C65.057 222.904 60.3514 223.404 55.6295 223.837C54.6649 223.921 53.6286 223.841 52.6761 223.561C50.1306 222.791 48.5632 220.885 47.7589 218.184C47.5981 217.644 47.4913 217.055 47.3615 216.508C47.2129 216.434 47.1507 216.449 47.0886 216.464ZM67.9754 171.936C67.3391 172.159 66.6865 172.314 66.0975 172.598C64.0427 173.483 62.6581 175.257 61.3519 177.084C59.6998 179.391 59.5083 182.184 60.1964 184.948C60.9169 187.85 62.6911 190.212 64.8044 192.205C66.7056 193.996 68.8836 194.6 71.2951 194.39C72.0342 194.323 72.6772 193.99 72.7933 193.095C72.9094 192.2 72.5215 191.533 71.6933 191.223C71.115 190.999 70.5138 190.816 69.9058 190.743C68.1359 190.476 66.5942 189.649 65.4281 188.19C63.7255 185.991 62.643 183.501 63.4181 180.679C64.2391 177.773 65.925 175.747 68.9026 175.295C72.1059 174.824 76.2687 176.187 77.2488 181.015C77.5341 182.357 77.7572 183.714 78.0424 185.056C78.1736 185.748 78.5695 186.449 79.2693 186.355C79.6814 186.294 80.1663 185.709 80.3568 185.266C81.1631 183.268 80.7156 181.242 80.0115 179.24C78.2355 174.239 73.0295 170.413 67.9754 171.936ZM89.5392 179.837C89.2675 179.106 89.0499 178.327 88.685 177.618C86.9809 174.443 84.5555 172.38 81.2481 171.718C80.2496 171.521 79.2133 171.441 78.365 172.293C77.7639 172.941 77.8099 173.689 78.6084 174.151C79.0624 174.405 79.5934 174.568 80.1082 174.663C84.9815 175.423 87.818 180.606 85.9718 185.417C85.8732 185.694 85.7665 185.936 85.6598 186.178C84.1511 189.644 80.217 191.046 77.1094 189.289C73.618 187.297 71.9921 182.514 73.6899 179.292C74.187 178.343 74.1247 177.527 73.5829 177.041C73.0492 176.589 72.2791 176.663 71.5861 177.478C69.753 179.575 69.3426 182.274 70.1158 184.983C71.1796 188.779 73.6875 191.329 77.172 192.599C79.4378 193.436 81.7062 193.729 83.9232 192.698C88.4111 190.586 90.7274 185.266 89.5392 179.837ZM74.8578 162.895C72.9528 163.166 72.4626 164.837 71.7359 166.202C71.6981 166.319 72.0698 166.918 72.194 166.888C73.36 166.684 74.5732 166.541 75.604 166.044C76.0457 165.831 76.1523 164.757 76.309 164.033C76.5155 162.828 76.225 162.571 75.1604 162.788C75.0132 162.859 74.8578 162.895 74.8578 162.895ZM80.3326 165.501C80.8365 165.274 81.3566 165.114 81.8524 164.852C81.9916 164.747 82.1118 164.285 82.0401 164.121C81.3793 162.579 80.3456 161.956 78.7744 162.112C77.1639 162.24 77.0113 162.566 77.8816 164.022C77.9451 164.152 78.0478 164.308 78.1113 164.438C78.8086 165.718 78.9262 165.799 80.3326 165.501ZM74.1329 167.73C74.141 167.764 74.141 167.764 74.1491 167.798C73.7452 167.894 73.325 167.921 72.9765 168.112C72.8292 168.183 72.678 168.653 72.7496 168.817C73.3942 170.29 74.1225 170.732 75.5924 170.565C77.288 170.38 77.5324 169.888 76.6527 168.253C76.4784 167.933 76.0163 167.645 75.642 167.589C75.1664 167.521 74.6463 167.68 74.1329 167.73ZM82.5404 166.785C81.6581 166.525 81.0285 166.638 79.5087 167.287C78.9115 167.537 78.1241 169.061 78.3863 169.613C78.8309 170.52 79.5333 169.883 80.117 169.854C80.475 169.841 80.8087 169.726 81.1032 169.584C81.3667 169.449 81.676 169.231 81.7746 168.955C82.1109 168.297 82.2986 167.565 82.5404 166.785Z" fill="white"/>
<g opacity="0.2">
<path fill-rule="evenodd" clip-rule="evenodd" d="M157.525 131.814L157.525 131.814L157.525 131.814C157.309 131.276 157.09 130.732 156.792 130.222C155.845 128.604 154.876 127.022 153.903 125.435L153.903 125.434L153.903 125.434L153.903 125.434L153.903 125.434L153.902 125.434C153.422 124.649 152.94 123.864 152.461 123.072C151.48 121.455 150.495 119.84 149.51 118.224L149.507 118.219L149.504 118.214C147.554 115.017 145.602 111.814 143.671 108.577C143.289 107.939 142.904 107.301 142.519 106.662C141.01 104.161 139.494 101.647 138.082 99.094C136.891 96.9138 135.77 94.6881 134.649 92.4624L134.649 92.4618C133.976 91.1263 133.304 89.7907 132.616 88.465C131.085 85.4748 129.553 82.4845 128.079 79.5035C127.019 77.3191 126.053 75.1206 125.874 72.6427C123.253 68.6016 132.424 63.6553 137.337 61.6873L137.338 61.6869C139.469 60.49 141.6 59.293 143.752 58.1287C144.62 57.6582 145.545 57.1971 146.435 56.7592C150.818 53.9159 153.502 58.799 154.625 62.6525C154.8 63.1584 154.922 63.6958 155.019 64.2535C155.585 67.4068 157.192 69.8847 160.151 71.3006C161.204 71.8223 162.573 72.0458 163.809 71.9852C166.839 71.7802 169.845 70.9884 172.636 69.5491C175.426 68.1098 178.011 66.4329 180.343 64.3648C184.941 60.3637 185.538 55.622 182.985 50.9783C177.143 41.97 178.054 40.0987 182.864 36.8509C183.399 36.49 183.894 36.1686 184.608 35.7054C185.315 35.2583 188.073 33.7321 190.414 32.4369C190.984 32.1214 191.529 31.8196 192.014 31.5505C192.684 31.1827 193.349 30.7949 194.015 30.4062C195.671 29.441 197.337 28.4696 199.109 27.7822C204.046 25.8771 205.407 26.245 207.869 30.6699C209.853 34.2004 211.693 37.8241 213.533 41.4478L213.533 41.4479C214.603 43.5684 215.611 45.7281 216.62 47.8878L216.62 47.8879C216.956 48.6078 217.292 49.3277 217.631 50.0461C219.097 53.1715 216.13 56.0686 213.056 56.4413C212.067 56.5539 211.093 56.5112 210.111 56.4681C209.629 56.447 209.145 56.4258 208.656 56.4228C208.267 56.4254 207.867 56.4052 207.465 56.3848C206.452 56.3335 205.427 56.2817 204.534 56.5952C201.877 57.5315 200.401 59.7393 199.451 62.2079C198.692 64.1828 198.904 66.0832 199.288 68.0115C200.076 71.9008 201.502 75.5152 204.349 78.2539C207.501 81.3047 213.192 82.2921 217.784 79.7768C219.757 78.7287 221.255 77.3407 222.703 75.7989C222.758 75.7416 222.812 75.6838 222.867 75.6257L222.868 75.6255C223.393 75.0701 223.941 74.4909 224.61 74.0988C226.592 72.9064 228.324 73.2184 229.479 75.156C230.216 76.3494 230.793 77.6229 231.373 78.9046C231.597 79.3988 231.821 79.8942 232.055 80.3867L232.06 80.3958L232.06 80.3975C234.31 85.2799 236.559 90.1622 238.787 95.012C238.811 95.0765 238.842 95.1421 238.873 95.2089C238.933 95.3354 238.995 95.4665 239.017 95.6036C240.35 99.232 239.895 100.732 236.503 103.21C235.672 103.818 234.784 104.385 233.908 104.945L233.907 104.946L233.906 104.946L233.906 104.946L233.905 104.947L233.904 104.947C233.615 105.132 233.326 105.317 233.041 105.501C232.262 106.007 231.482 106.502 230.703 106.997L230.703 106.997L230.703 106.997L230.703 106.997L230.703 106.997L230.703 106.997L230.702 106.998L230.702 106.998C229.149 107.985 227.601 108.968 226.075 110.02C221.37 113.321 216.273 115.826 211.157 118.339C210.592 118.617 210.028 118.894 209.464 119.173C207.284 120.243 205.134 121.447 203.004 122.639L203.003 122.64L203.002 122.64L203.001 122.641C202.259 123.056 201.519 123.47 200.782 123.877C196.75 126.076 192.774 128.283 188.763 130.515C187.966 130.951 187.169 131.395 186.371 131.84L186.37 131.84L186.369 131.84C184.417 132.928 182.457 134.02 180.461 135.019C179.993 135.256 179.526 135.495 179.059 135.733L179.052 135.737L179.052 135.737L179.052 135.737L179.052 135.737L179.052 135.737L179.051 135.737C175.921 137.335 172.801 138.928 169.555 140.147C167.269 141.028 164.744 140.674 162.901 139.09C162.234 138.534 161.677 137.867 161.119 137.199C160.84 136.865 160.561 136.531 160.269 136.212C160.106 136.039 159.947 135.853 159.788 135.667C159.629 135.48 159.47 135.294 159.307 135.122C158.907 134.269 158.421 133.519 157.913 132.737L157.913 132.737C157.774 132.436 157.65 132.126 157.525 131.815L157.525 131.815L157.525 131.814L157.525 131.814L157.525 131.814ZM194.837 89.0158C195.305 88.1941 195.606 87.4474 194.694 86.6458C194.826 86.5597 194.948 86.4789 195.062 86.4025C195.381 86.1895 195.648 86.0116 195.966 85.8531C197.484 84.9983 197.451 84.1768 196.562 82.971C196.49 82.8878 196.412 82.8088 196.334 82.7298C196.256 82.6508 196.178 82.5718 196.106 82.4887C195.7 81.9737 195.16 81.9674 194.567 82.3198C194.308 82.4715 194.046 82.6175 193.783 82.7635C193.521 82.9095 193.258 83.0555 192.999 83.2072C192.557 83.4616 192.292 83.4389 192.046 82.95C191.511 81.8223 190.964 80.7027 190.416 79.5831C189.869 78.4635 189.321 77.3439 188.786 76.2161C188.566 75.7109 188.237 75.535 187.683 75.5059C186.949 75.4743 186.218 75.4368 185.487 75.3993C184.35 75.3409 183.217 75.2827 182.084 75.2475L182.084 75.2475C180.21 75.1667 178.336 75.086 176.46 75.1683C174.939 75.2472 174.442 76.0233 174.825 77.3304C174.834 77.3445 174.824 77.3711 174.81 77.4078C174.802 77.4305 174.792 77.457 174.784 77.4869L174.457 77.699C171.485 79.5617 168.538 81.4082 165.577 83.2318C164.973 83.6232 164.805 84.0243 165.095 84.5816C165.286 84.9597 165.48 85.3279 165.675 85.6962C165.869 86.0645 166.063 86.4329 166.255 86.811C166.545 87.3684 166.885 87.3421 167.468 87.0289C169.543 85.8773 171.648 84.7712 173.728 83.6815C174.502 83.2769 174.87 83.4593 175.174 84.2025L175.174 84.2028C175.403 84.8318 175.633 85.4608 175.912 86.0571C176.402 87.198 176.344 87.4946 175.158 88.1993C174.256 88.736 173.352 89.2571 172.449 89.7783C171.545 90.2995 170.642 90.8207 169.739 91.3573C168.819 91.9217 168.778 92.0782 169.25 92.9713C169.491 93.3982 169.736 93.8309 169.981 94.2636C170.226 94.6962 170.471 95.1289 170.712 95.5559C171.188 96.3815 171.661 97.2089 172.134 98.0363C173.081 99.6914 174.027 101.346 174.996 102.987C175.7 104.183 176.703 104.408 178.055 103.628C179.748 102.638 181.427 101.629 183.106 100.619C183.945 100.114 184.785 99.6088 185.626 99.1063C186.194 98.7703 186.288 98.4182 185.987 97.8999C184.417 95.0937 182.862 92.3103 181.317 89.4877C180.879 88.7022 180.451 87.8776 180.089 87.0432C180.047 86.942 180.11 86.7868 180.176 86.6255C180.209 86.5425 180.244 86.4578 180.265 86.3781C180.333 86.4095 180.412 86.4338 180.491 86.458C180.65 86.5065 180.808 86.555 180.877 86.6614C181.618 87.9514 182.342 89.2665 183.064 90.5779C183.413 91.2115 183.761 91.8442 184.111 92.4727C184.355 92.9143 184.598 93.3581 184.842 93.8029C185.626 95.2328 186.417 96.6732 187.251 98.0852C187.955 99.2814 189.091 99.1603 189.838 97.8331C190.674 96.3674 191.506 94.8959 192.338 93.4245C193.17 91.953 194.002 90.4816 194.837 89.0158Z" fill="white"/>
</g>
</svg>
