<svg width="177" height="149" viewBox="0 0 177 149" fill="none" xmlns="http://www.w3.org/2000/svg">
<path fill-rule="evenodd" clip-rule="evenodd" d="M0.998428 125.729C27.2437 112.8 40.3661 97.6096 40.3661 80.1562C29.1796 78.8633 19.9294 74.2846 12.6151 66.4197C5.30086 58.5549 1.64381 49.4512 1.64381 39.1085C1.64381 28.1193 5.19331 18.854 12.2924 11.3124C19.3916 3.77075 28.3191 0 39.0753 0C51.1223 0 61.5557 4.90198 70.3759 14.7061C79.196 24.5102 83.606 36.415 83.606 50.4208C83.606 92.4384 60.1577 125.298 13.2605 149L0.998428 125.729ZM93.619 125.729C120.079 112.8 133.309 97.6096 133.309 80.1562C121.908 78.8633 112.55 74.2846 105.236 66.4197C97.9215 58.5549 94.2644 49.4512 94.2644 39.1085C94.2644 28.1193 97.8677 18.854 105.074 11.3124C112.281 3.77075 121.262 0 132.019 0C144.066 0 154.445 4.90198 163.158 14.7061C171.87 24.5102 176.227 36.415 176.227 50.4208C176.227 92.4384 152.886 125.298 106.204 149L93.619 125.729Z" fill="#FCF9F3"/>
</svg>
