<svg width="40" height="40" viewBox="0 0 40 40" fill="none" xmlns="http://www.w3.org/2000/svg">
<circle cx="20" cy="20" r="19.5" fill="white" stroke="#BABABA"/>
<path d="M24.295 15.705C23.9056 15.3156 23.2744 15.3156 22.885 15.705L20 18.59L17.115 15.705C16.7256 15.3156 16.0944 15.3156 15.705 15.705C15.3156 16.0944 15.3156 16.7256 15.705 17.115L18.59 20L15.705 22.885C15.3156 23.2744 15.3156 23.9056 15.705 24.295C16.0944 24.6844 16.7256 24.6844 17.115 24.295L20 21.41L22.885 24.295C23.2744 24.6844 23.9056 24.6844 24.295 24.295C24.6844 23.9056 24.6844 23.2744 24.295 22.885L21.41 20L24.295 17.115C24.6844 16.7256 24.6844 16.0944 24.295 15.705Z" fill="#282B29"/>
</svg>
