<svg width="768" height="515" viewBox="0 0 768 515" fill="none" xmlns="http://www.w3.org/2000/svg">
<rect opacity="0.3" width="768" height="515" fill="url(#paint0_linear_1650_83)"/>
<mask id="mask0_1650_83" style="mask-type:alpha" maskUnits="userSpaceOnUse" x="0" y="0" width="768" height="515">
<rect opacity="0.3" width="768" height="515" fill="url(#paint1_linear_1650_83)"/>
</mask>
<g mask="url(#mask0_1650_83)">
<path d="M521.355 126.327H481.391L478.121 110.629C473.804 89.3709 454.966 74 433.316 74H336.97C315.32 74 296.482 89.3709 292.1 110.629L288.895 126.327H246.641C221.394 126.327 200.855 146.865 200.855 172.112V348.714C200.855 373.962 221.394 394.5 246.641 394.5H521.355C546.603 394.5 567.141 373.962 567.141 348.714V172.112C567.141 146.865 546.603 126.327 521.355 126.327ZM554.06 348.714C554.06 366.767 539.408 381.418 521.355 381.418H246.641C228.589 381.418 213.937 366.767 213.937 348.714V309.469H253.182V296.388H213.937V276.765H253.182V263.684H213.937V244.061H253.182V230.98H213.937V211.357H253.182V198.276H213.937V172.112C213.937 154.06 228.589 139.408 246.641 139.408H294.258C297.333 139.408 300.014 137.25 300.668 134.176L304.92 113.245C308.059 98.0702 321.534 87.0816 336.97 87.0816H433.316C448.752 87.0816 462.226 98.0702 465.366 113.245L469.618 134.176C470.206 137.25 472.888 139.408 476.028 139.408H521.355C539.408 139.408 554.06 154.06 554.06 172.112V198.276H514.815V211.357H554.06V230.98H514.815V244.061H554.06V263.684H514.815V276.765H554.06V296.388H514.815V309.469H554.06V348.714Z" fill="#6D459C"/>
<path d="M383.995 185.194C423.666 185.194 455.944 217.473 455.944 257.143C455.944 296.813 423.666 329.092 383.995 329.092C344.325 329.092 312.046 296.813 312.046 257.143C312.046 217.473 344.325 185.194 383.995 185.194ZM383.995 172.112C337.032 172.112 298.965 210.18 298.965 257.143C298.965 304.106 337.032 342.173 383.995 342.173C430.959 342.173 469.026 304.106 469.026 257.143C469.026 210.18 430.959 172.112 383.995 172.112Z" fill="#6D459C"/>
<path d="M384 198.275C351.486 198.275 325.133 224.628 325.133 257.143C325.133 289.657 351.486 316.01 384 316.01" fill="#6D459C"/>
<path d="M259.396 429.406V455H255.986L243.102 435.26V455H239.709V429.406H243.102L256.039 449.199V429.406H259.396ZM285.113 441.395V443.012C285.113 444.934 284.873 446.656 284.393 448.18C283.912 449.703 283.221 450.998 282.318 452.064C281.416 453.131 280.332 453.945 279.066 454.508C277.812 455.07 276.406 455.352 274.848 455.352C273.336 455.352 271.947 455.07 270.682 454.508C269.428 453.945 268.338 453.131 267.412 452.064C266.498 450.998 265.789 449.703 265.285 448.18C264.781 446.656 264.529 444.934 264.529 443.012V441.395C264.529 439.473 264.775 437.756 265.268 436.244C265.771 434.721 266.48 433.426 267.395 432.359C268.309 431.281 269.393 430.461 270.646 429.898C271.912 429.336 273.301 429.055 274.812 429.055C276.371 429.055 277.777 429.336 279.031 429.898C280.297 430.461 281.381 431.281 282.283 432.359C283.197 433.426 283.895 434.721 284.375 436.244C284.867 437.756 285.113 439.473 285.113 441.395ZM281.756 443.012V441.359C281.756 439.836 281.598 438.488 281.281 437.316C280.977 436.145 280.525 435.16 279.928 434.363C279.33 433.566 278.598 432.963 277.73 432.553C276.875 432.143 275.902 431.938 274.812 431.938C273.758 431.938 272.803 432.143 271.947 432.553C271.104 432.963 270.377 433.566 269.768 434.363C269.17 435.16 268.707 436.145 268.379 437.316C268.051 438.488 267.887 439.836 267.887 441.359V443.012C267.887 444.547 268.051 445.906 268.379 447.09C268.707 448.262 269.176 449.252 269.785 450.061C270.406 450.857 271.139 451.461 271.982 451.871C272.838 452.281 273.793 452.486 274.848 452.486C275.949 452.486 276.928 452.281 277.783 451.871C278.639 451.461 279.359 450.857 279.945 450.061C280.543 449.252 280.994 448.262 281.299 447.09C281.604 445.906 281.756 444.547 281.756 443.012ZM302.762 429.406V455H299.369V429.406H302.762ZM310.004 429.406H313.291L321.676 450.271L330.043 429.406H333.348L322.941 455H320.375L310.004 429.406ZM308.932 429.406H311.832L312.307 445.016V455H308.932V429.406ZM331.502 429.406H334.402V455H331.027V445.016L331.502 429.406ZM350.152 431.674L341.68 455H338.217L347.973 429.406H350.205L350.152 431.674ZM357.254 455L348.764 431.674L348.711 429.406H350.943L360.734 455H357.254ZM356.814 445.525V448.303H342.436V445.525H356.814ZM382.865 442.256V451.625C382.549 452.094 382.045 452.621 381.354 453.207C380.662 453.781 379.707 454.285 378.488 454.719C377.281 455.141 375.723 455.352 373.812 455.352C372.254 455.352 370.818 455.082 369.506 454.543C368.205 453.992 367.074 453.195 366.113 452.152C365.164 451.098 364.426 449.82 363.898 448.32C363.383 446.809 363.125 445.098 363.125 443.188V441.201C363.125 439.291 363.348 437.586 363.793 436.086C364.25 434.586 364.918 433.314 365.797 432.271C366.676 431.217 367.754 430.42 369.031 429.881C370.309 429.33 371.773 429.055 373.426 429.055C375.383 429.055 377.018 429.395 378.33 430.074C379.654 430.742 380.686 431.668 381.424 432.852C382.174 434.035 382.654 435.383 382.865 436.895H379.473C379.32 435.969 379.016 435.125 378.559 434.363C378.113 433.602 377.475 432.992 376.643 432.535C375.811 432.066 374.738 431.832 373.426 431.832C372.242 431.832 371.217 432.049 370.35 432.482C369.482 432.916 368.768 433.537 368.205 434.346C367.643 435.154 367.221 436.133 366.939 437.281C366.67 438.43 366.535 439.725 366.535 441.166V443.188C366.535 444.664 366.705 445.982 367.045 447.143C367.396 448.303 367.895 449.293 368.539 450.113C369.184 450.922 369.951 451.537 370.842 451.959C371.744 452.381 372.74 452.592 373.83 452.592C375.037 452.592 376.016 452.492 376.766 452.293C377.516 452.082 378.102 451.836 378.523 451.555C378.945 451.262 379.268 450.986 379.49 450.729V444.998H373.566V442.256H382.865ZM404.75 452.24V455H391.197V452.24H404.75ZM391.883 429.406V455H388.49V429.406H391.883ZM402.957 440.41V443.17H391.197V440.41H402.957ZM404.574 429.406V432.184H391.197V429.406H404.574ZM421.273 429.406V455H417.881V429.406H421.273ZM431.996 440.92V443.697H420.535V440.92H431.996ZM433.736 429.406V432.184H420.535V429.406H433.736ZM457.484 441.395V443.012C457.484 444.934 457.244 446.656 456.764 448.18C456.283 449.703 455.592 450.998 454.689 452.064C453.787 453.131 452.703 453.945 451.438 454.508C450.184 455.07 448.777 455.352 447.219 455.352C445.707 455.352 444.318 455.07 443.053 454.508C441.799 453.945 440.709 453.131 439.783 452.064C438.869 450.998 438.16 449.703 437.656 448.18C437.152 446.656 436.9 444.934 436.9 443.012V441.395C436.9 439.473 437.146 437.756 437.639 436.244C438.143 434.721 438.852 433.426 439.766 432.359C440.68 431.281 441.764 430.461 443.018 429.898C444.283 429.336 445.672 429.055 447.184 429.055C448.742 429.055 450.148 429.336 451.402 429.898C452.668 430.461 453.752 431.281 454.654 432.359C455.568 433.426 456.266 434.721 456.746 436.244C457.238 437.756 457.484 439.473 457.484 441.395ZM454.127 443.012V441.359C454.127 439.836 453.969 438.488 453.652 437.316C453.348 436.145 452.896 435.16 452.299 434.363C451.701 433.566 450.969 432.963 450.102 432.553C449.246 432.143 448.273 431.938 447.184 431.938C446.129 431.938 445.174 432.143 444.318 432.553C443.475 432.963 442.748 433.566 442.139 434.363C441.541 435.16 441.078 436.145 440.75 437.316C440.422 438.488 440.258 439.836 440.258 441.359V443.012C440.258 444.547 440.422 445.906 440.75 447.09C441.078 448.262 441.547 449.252 442.156 450.061C442.777 450.857 443.51 451.461 444.354 451.871C445.209 452.281 446.164 452.486 447.219 452.486C448.32 452.486 449.299 452.281 450.154 451.871C451.01 451.461 451.73 450.857 452.316 450.061C452.914 449.252 453.365 448.262 453.67 447.09C453.975 445.906 454.127 444.547 454.127 443.012ZM477.207 429.406H480.582V446.721C480.582 448.643 480.154 450.242 479.299 451.52C478.443 452.797 477.307 453.758 475.889 454.402C474.482 455.035 472.953 455.352 471.301 455.352C469.566 455.352 467.996 455.035 466.59 454.402C465.195 453.758 464.088 452.797 463.268 451.52C462.459 450.242 462.055 448.643 462.055 446.721V429.406H465.412V446.721C465.412 448.057 465.658 449.158 466.15 450.025C466.643 450.893 467.328 451.537 468.207 451.959C469.098 452.381 470.129 452.592 471.301 452.592C472.484 452.592 473.516 452.381 474.395 451.959C475.285 451.537 475.977 450.893 476.469 450.025C476.961 449.158 477.207 448.057 477.207 446.721V429.406ZM505.596 429.406V455H502.186L489.301 435.26V455H485.908V429.406H489.301L502.238 449.199V429.406H505.596ZM518.533 455H513.189L513.225 452.24H518.533C520.361 452.24 521.885 451.859 523.104 451.098C524.322 450.324 525.236 449.246 525.846 447.863C526.467 446.469 526.777 444.84 526.777 442.977V441.412C526.777 439.947 526.602 438.646 526.25 437.51C525.898 436.361 525.383 435.395 524.703 434.609C524.023 433.812 523.191 433.209 522.207 432.799C521.234 432.389 520.115 432.184 518.85 432.184H513.084V429.406H518.85C520.525 429.406 522.055 429.688 523.438 430.25C524.82 430.801 526.01 431.604 527.006 432.658C528.014 433.701 528.787 434.967 529.326 436.455C529.865 437.932 530.135 439.596 530.135 441.447V442.977C530.135 444.828 529.865 446.498 529.326 447.986C528.787 449.463 528.008 450.723 526.988 451.766C525.98 452.809 524.762 453.611 523.332 454.174C521.914 454.725 520.314 455 518.533 455ZM515 429.406V455H511.607V429.406H515Z" fill="#6D459C"/>
</g>
<defs>
<linearGradient id="paint0_linear_1650_83" x1="384" y1="0" x2="384" y2="579.067" gradientUnits="userSpaceOnUse">
<stop offset="0.0698835" stop-color="#E1F3FF"/>
<stop offset="0.977231" stop-color="#D8CEFF" stop-opacity="0.77"/>
</linearGradient>
<linearGradient id="paint1_linear_1650_83" x1="384" y1="0" x2="384" y2="579.067" gradientUnits="userSpaceOnUse">
<stop offset="0.0698835" stop-color="#E1F3FF"/>
<stop offset="0.977231" stop-color="#D8CEFF" stop-opacity="0.77"/>
</linearGradient>
</defs>
</svg>
