<svg width="25" height="17" viewBox="0 0 25 17" fill="none" xmlns="http://www.w3.org/2000/svg">
<path id="youtube" fill-rule="evenodd" clip-rule="evenodd" d="M7.92483 16.8855L13.0539 16.9777C13.062 16.9777 13.0784 16.9777 13.0783 16.9902C15.9345 17.0426 18.7173 16.8779 21.5655 16.6733C23.8387 16.5168 24.3773 14.8959 24.6589 12.963C25.0098 10.6285 25.0873 8.26594 24.9037 5.91544C24.8949 5.804 24.8863 5.69156 24.8777 5.57841C24.7066 3.32942 24.5143 0.801856 21.8103 0.335919C21.235 0.235582 20.6475 0.147432 20.064 0.131304C14.5392 -0.0446258 8.96531 -0.0893162 3.42825 0.287782C1.788 0.39169 0.727354 1.34656 0.45784 2.9468C-0.0195705 5.79873 -0.117507 8.72688 0.135475 11.6028C0.138631 11.638 0.141784 11.6733 0.144946 11.7086C0.325786 13.7317 0.537103 16.0958 2.97126 16.5846C4.28172 16.8526 5.61596 16.8633 6.95268 16.874C7.27668 16.8766 7.60084 16.8792 7.92483 16.8855ZM12.7004 10.5794C11.8167 11.0787 10.9309 11.5792 10.0381 12.0831V4.87109C11.0224 5.42613 11.9998 5.9786 12.9783 6.53167C14.1211 7.17765 15.2654 7.82445 16.4239 8.4771C15.1776 9.17985 13.941 9.87849 12.7004 10.5794Z" fill="#339E75"/>
</svg>
