<svg width="117" height="98" viewBox="0 0 117 98" fill="none" xmlns="http://www.w3.org/2000/svg">
<path d="M66.6406 36.1221C64.9278 34.9751 62.9672 34.5209 61.0185 33.9537C52.5986 31.6104 44.0564 32.0783 35.3737 34.0843C29.5579 35.4053 23.9261 37.2573 18.3116 39.3599C17.8121 39.5412 17.2861 39.7668 16.7284 39.6728C16.1297 39.5542 15.7866 39.2884 16.457 38.7288C16.604 38.5766 16.9564 38.5475 16.6809 38.2622C15.8252 37.2685 16.6162 36.6009 17.272 35.9724C18.4896 34.7794 20.0409 34.147 21.5102 33.4654C25.6065 31.4742 29.7996 29.6011 34.0827 28.3228C38.0955 27.1228 42.1984 26.5176 46.3038 26.0943C48.9322 25.8071 51.5606 25.5198 54.067 26.181C55.7017 26.6201 57.408 26.381 59.0281 26.7513C62.1333 27.5311 65.2384 28.3109 68.0282 29.803C70.3663 31.0243 72.2102 32.7907 73.4247 35.1413C73.8433 35.933 74.4327 36.3464 75.2753 36.4308C77.5181 36.6936 79.7489 37.0695 81.9387 37.4207C85.5433 38.0192 88.9942 39.2466 92.3245 40.5819C97.6882 42.7156 102.749 45.4487 107.026 49.3948C109.529 51.7369 111.845 54.2065 112.617 57.8542C112.821 58.8177 112.834 59.727 112.277 60.6553C112.039 61.0531 111.73 61.2887 111.281 61.1998C110.764 61.1304 110.909 60.7964 110.889 60.3639C110.753 57.518 108.776 55.9727 106.988 54.2998C102.104 49.6895 96.1749 46.9163 89.9805 44.5851C85.2328 42.8207 80.3433 41.5721 75.2589 40.9279C74.8509 40.8636 74.4402 40.6174 74.2891 41.4282C73.8821 44.2489 72.3399 46.4492 70.2492 48.2606C67.0324 51.0194 63.4474 52.7162 59.3209 51.6847C57.1285 51.1517 56.2529 49.7254 56.1922 47.4055C56.0233 41.3552 60.3517 37.5802 65.2508 36.6711C65.6973 36.5782 66.1172 36.5295 66.5636 36.4366C66.5491 36.3677 66.5876 36.2105 66.6406 36.1221ZM59.5733 44.7452C58.8843 45.8946 59.6209 46.1558 60.3309 46.4612C62.6783 47.3877 64.847 46.2841 66.9071 45.1755C68.3883 44.3808 69.8933 43.3601 70.8884 41.7933C71.2594 41.1744 71.4012 40.6585 70.4236 40.6133C67.7369 40.6252 65.1231 40.9813 62.6311 42.2516C61.3911 42.8303 60.3445 43.6451 59.5733 44.7452ZM58.2447 31.69C61.3525 32.6516 64.4987 33.456 67.462 34.7517C64.7465 32.7633 61.4943 32.1357 58.2447 31.69ZM74.8642 39.9101C77.6528 40.38 80.4824 40.8744 83.271 41.3442C80.5566 40.3781 77.7681 39.9083 74.8642 39.9101Z" fill="#F8A846"/>
<path d="M14.0416 32.0514C12.4901 34.5466 10.5809 36.7071 8.7538 38.9169C8.50073 39.2459 8.01586 39.4961 8.21451 40.0959C8.43966 40.6515 8.95368 40.539 9.37364 40.4903C11.529 40.3402 13.5718 40.8436 15.6649 41.0768C16.983 41.206 18.366 41.1336 19.7398 41.3562C21.821 41.7024 23.967 41.8472 26.0456 42.0116C27.1054 42.1061 28.0909 42.6969 29.2395 42.3638C30.3881 42.0308 31.0358 42.7195 31.1297 44.5185C31.1839 45.4524 30.8447 46.3908 29.7345 46.5666C28.8271 46.6836 27.8785 46.776 26.9684 46.7111C20.8706 46.3607 14.7993 45.9662 8.74249 45.6404C7.39786 45.5555 6.00023 45.5589 4.64368 45.587C2.13326 45.5844 1.53851 44.8072 1.77195 42.1829C1.91922 40.168 2.80569 38.5962 4.30547 37.2117C7.19903 34.6197 10.0369 31.9342 12.4616 28.8207C12.9412 28.2069 13.3652 27.4996 13.8037 26.8611C14.3629 26.1146 14.7974 26.1347 15.1483 26.9461C15.9351 28.7998 15.8463 29.2273 14.0416 32.0514ZM12.6228 44.6615C9.99583 44.1083 7.33315 43.8942 4.58423 44.2894C7.25891 44.3905 9.9481 44.5604 12.6228 44.6615Z" fill="#F8A846"/>
</svg>
