<svg width="118" height="98" viewBox="0 0 118 98" fill="none" xmlns="http://www.w3.org/2000/svg">
<path d="M50.6212 36.1221C52.334 34.9751 54.2946 34.5209 56.2432 33.9537C64.6632 31.6104 73.2053 32.0783 81.888 34.0843C87.7038 35.4053 93.3356 37.2573 98.9502 39.3599C99.4496 39.5412 99.9756 39.7668 100.533 39.6728C101.132 39.5542 101.475 39.2884 100.805 38.7288C100.658 38.5766 100.305 38.5475 100.581 38.2622C101.436 37.2685 100.646 36.6009 99.9897 35.9724C98.7721 34.7794 97.2208 34.147 95.7516 33.4654C91.6552 31.4742 87.4621 29.6011 83.179 28.3228C79.1662 27.1228 75.0633 26.5176 70.9579 26.0943C68.3295 25.8071 65.7011 25.5198 63.1948 26.181C61.5601 26.6201 59.8537 26.381 58.2336 26.7513C55.1284 27.5311 52.0233 28.3109 49.2335 29.803C46.8954 31.0243 45.0516 32.7907 43.837 35.1413C43.4185 35.933 42.829 36.3464 41.9864 36.4308C39.7437 36.6936 37.5128 37.0695 35.323 37.4207C31.7184 38.0192 28.2675 39.2466 24.9372 40.5819C19.5735 42.7156 14.5132 45.4487 10.236 49.3948C7.73242 51.7369 5.41701 54.2065 4.64507 57.8542C4.44116 58.8177 4.428 59.727 4.9845 60.6553C5.223 61.0531 5.53173 61.2887 5.98081 61.1998C6.49746 61.1304 6.35302 60.7964 6.37284 60.3639C6.50899 57.518 8.48534 55.9727 10.2736 54.2998C15.1575 49.6895 21.0868 46.9163 27.2812 44.5851C32.0289 42.8207 36.9184 41.5721 42.0028 40.9279C42.4108 40.8636 42.8215 40.6174 42.9726 41.4282C43.3796 44.2489 44.9219 46.4492 47.0125 48.2606C50.2293 51.0194 53.8143 52.7162 57.9408 51.6847C60.1333 51.1517 61.0088 49.7254 61.0695 47.4055C61.2384 41.3552 56.91 37.5802 52.0109 36.6711C51.5645 36.5782 51.1445 36.5295 50.6981 36.4366C50.7126 36.3677 50.6742 36.2105 50.6212 36.1221ZM57.6884 44.7452C58.3774 45.8946 57.6409 46.1558 56.9308 46.4612C54.5834 47.3877 52.4147 46.2841 50.3546 45.1755C48.8734 44.3808 47.3684 43.3601 46.3733 41.7933C46.0023 41.1744 45.8605 40.6585 46.8382 40.6133C49.5248 40.6252 52.1386 40.9813 54.6306 42.2516C55.8706 42.8303 56.9173 43.6451 57.6884 44.7452ZM59.017 31.69C55.9093 32.6516 52.763 33.456 49.7997 34.7517C52.5152 32.7633 55.7675 32.1357 59.017 31.69ZM42.3975 39.9101C39.6089 40.38 36.7793 40.8744 33.9908 41.3442C36.7051 40.3781 39.4936 39.9083 42.3975 39.9101Z" fill="#F8A846"/>
<path d="M103.22 32.0514C104.772 34.5466 106.681 36.7071 108.508 38.9169C108.761 39.2459 109.246 39.4961 109.047 40.0959C108.822 40.6515 108.308 40.539 107.888 40.4903C105.733 40.3402 103.69 40.8436 101.597 41.0768C100.279 41.206 98.8957 41.1336 97.5219 41.3562C95.4408 41.7024 93.2947 41.8472 91.2161 42.0116C90.1563 42.1061 89.1708 42.6969 88.0222 42.3638C86.8736 42.0308 86.2259 42.7195 86.132 44.5185C86.0778 45.4524 86.417 46.3908 87.5272 46.5666C88.4347 46.6836 89.3832 46.776 90.2933 46.7111C96.3912 46.3607 102.462 45.9662 108.519 45.6404C109.864 45.5555 111.261 45.5589 112.618 45.587C115.128 45.5844 115.723 44.8072 115.49 42.1829C115.343 40.168 114.456 38.5962 112.956 37.2117C110.063 34.6197 107.225 31.9342 104.8 28.8207C104.321 28.2069 103.897 27.4996 103.458 26.8611C102.899 26.1146 102.464 26.1347 102.113 26.9461C101.327 28.7998 101.415 29.2273 103.22 32.0514ZM104.639 44.6615C107.266 44.1083 109.929 43.8942 112.677 44.2894C110.003 44.3905 107.314 44.5604 104.639 44.6615Z" fill="#F8A846"/>
</svg>
