<?xml version="1.0" encoding="UTF-8"?>
<svg width="65px" height="74px" viewBox="0 0 65 74" version="1.1" xmlns="http://www.w3.org/2000/svg" xmlns:xlink="http://www.w3.org/1999/xlink">
    <!-- Generator: Sketch 58 (84663) - https://sketch.com -->
    <title>logo-ap-white</title>
    <desc>Created with Sketch.</desc>
    <g id="Landing-Page" stroke="none" stroke-width="1" fill="none" fill-rule="evenodd">
        <g id="NoExam-Landing-Page---Top-5---Desktop" transform="translate(-405.000000, -498.000000)" fill-rule="nonzero">
            <g id="Group-5" transform="translate(137.000000, 463.000000)">
                <g id="Group-4" transform="translate(60.000000, 35.000000)">
                    <g id="logo-ap-white" transform="translate(208.045455, 0.000000)">
                        <path d="M64.3468296,-7.10542736e-15 L64.3468296,66.4318182 L0.190985485,66.4318182 L0.190985485,-7.10542736e-15 L64.3468296,-7.10542736e-15 Z M46.7316455,17.6590909 L35.4200249,17.6590909 L35.4203634,49.6136364 L43.2427365,49.6136364 L43.2427365,24.1056042 L46.3951776,24.1056042 C50.0529976,24.1056042 52.1351049,25.8128334 52.1351049,28.8982393 C52.1351049,31.9286374 50.0529976,33.6915371 46.3951776,33.6915371 L45.8884446,33.6915371 L45.8884446,40.1373877 L46.731984,40.1373877 C55.1734718,40.1373877 60.1260504,35.9776734 60.1260504,28.8982393 C60.1260504,21.6809544 55.1734718,17.6590909 46.7316455,17.6590909 Z M23.4706722,17.6594223 L14.4496743,17.6594223 L3.56760886,49.6136364 L11.4461728,49.6136364 L18.8369855,27.028 L22.5421695,38.3188175 L17.7503779,38.3188175 L15.8365046,44.764668 L24.6567727,44.764668 L26.2473794,49.6126422 L34.3517221,49.6126422 L23.4706722,17.6594223 Z" id="Combined-Shape" fill="#FFFFFF"></path>
                        <polygon id="Path" fill="#8E8E8E" points="0.190985485 66.4318182 0.191993169 74 64.3468296 74 64.3468296 66.4318182"></polygon>
                    </g>
                </g>
            </g>
        </g>
    </g>
</svg>