<?xml version="1.0" encoding="UTF-8"?>
<svg width="173px" height="34px" viewBox="0 0 173 34" version="1.1" xmlns="http://www.w3.org/2000/svg" xmlns:xlink="http://www.w3.org/1999/xlink">
    <!-- Generator: Sketch 58 (84663) - https://sketch.com -->
    <title>logo-qb-white</title>
    <desc>Created with Sketch.</desc>
    <g id="Landing-Page" stroke="none" stroke-width="1" fill="none" fill-rule="evenodd">
        <g id="NoExam-Landing-Page---Top-5---Desktop" transform="translate(-517.000000, -518.000000)" fill="#FFFFFF" fill-rule="nonzero">
            <g id="Group-5" transform="translate(137.000000, 463.000000)">
                <g id="Group-4" transform="translate(60.000000, 35.000000)">
                    <g id="logo-qb-white" transform="translate(320.045455, 20.000000)">
                        <path d="M171.993092,25.8081134 C171.993092,25.4526135 171.695313,25.3231413 171.39009,25.3231413 L170.818993,25.3231413 L170.818993,26.9799462 L171.110391,26.9799462 L171.110391,26.2865021 L171.319899,26.2865021 L171.70063,26.978849 L172.055838,26.978849 L171.618741,26.2546826 C171.846329,26.2031132 171.993092,26.0473077 171.993092,25.8081134 Z M171.110391,26.0473077 L171.110391,25.5755023 L171.376264,25.5755023 C171.529408,25.5755023 171.70063,25.6204884 171.70063,25.80153 C171.70063,26.0023216 171.510265,26.0473077 171.345423,26.0473077 L171.111454,26.0473077 L171.110391,26.0473077 Z M171.383709,24.6889471 C170.58396,24.6889471 169.937355,25.3428913 169.937355,26.1581271 C169.937355,26.9722657 170.58396,27.6130432 171.383709,27.6130432 C172.183457,27.6130432 172.830062,26.9722657 172.830062,26.1581271 C172.830062,25.3428913 172.183457,24.6889471 171.383709,24.6889471 Z M171.383709,27.3990896 C170.716075,27.4009308 170.17195,26.8468983 170.164943,26.1581271 C170.169627,25.4681662 170.714949,24.9124236 171.383709,24.9160542 C172.055838,24.9160542 172.601411,25.4723635 172.601411,26.1581271 C172.601411,26.8362102 172.055838,27.3990896 171.383709,27.3990896 Z M78.3023559,24.9380165 C76.1860005,24.9380165 75.1182513,23.0101978 75.1182513,21.1471151 C75.1182513,19.2840325 76.2763976,17.4385055 78.2002603,17.4385055 C79.1021043,17.4385055 80.2411076,17.8993386 80.6888391,18.5466995 L82.92856,16.2710615 C81.8437949,15.1069091 80.1156152,14.4112705 78.2002603,14.4112705 C74.303614,14.4112705 71.4757803,17.2618528 71.4757803,21.1877124 C71.4757803,25.178308 74.2727726,27.9641542 78.276832,27.9641542 C80.1826154,27.9641542 81.9426999,27.3957933 82.9870522,26.2524882 L80.8068871,23.8682252 C80.3038538,24.4936416 79.2488666,24.9380165 78.3023559,24.9380165 L78.3023559,24.9380165 Z M65.7711921,27.6031682 L69.2488213,27.6031682 L69.2488213,14.7722565 L65.7711921,14.7722565 L65.7711921,27.6031682 L65.7711921,27.6031682 Z M59.4508402,21.8065454 C59.4508402,23.3152254 58.48625,24.9380165 56.6889432,24.9380165 C55.3032089,24.9380165 54.5630163,23.9307669 54.5630163,21.8592121 L54.5630163,14.7722565 L51.087514,14.7722565 L51.087514,22.7358923 C51.087514,25.385683 52.3849781,27.9641542 55.8530359,27.9641542 C57.489755,27.9641542 58.8595368,26.6518769 59.5508087,25.6830301 L59.6018565,25.6830301 L59.6018565,27.6031682 L62.9263424,27.6031682 L62.9263424,14.7722565 L59.4508402,14.7722565 L59.4508402,21.8065454 L59.4508402,21.8065454 Z M44.8160829,16.4027281 L44.7384477,16.4027281 C44.2471129,15.8497283 42.9166805,14.4123677 40.7567217,14.4123677 C37.2120923,14.4123677 34.4810366,17.2410055 34.4810366,21.1383374 C34.4810366,25.093822 37.0015202,27.9652514 40.589753,27.9652514 C42.2190276,27.9652514 43.7504607,27.0852795 44.6374157,26.0615716 L44.6884634,26.0615716 L44.6884634,33.9220686 L48.1660927,33.9220686 L48.1660927,14.7722565 L44.8160829,14.7722565 L44.8160829,16.4016309 L44.8160829,16.4027281 Z M41.4405491,24.9391137 C39.2912254,24.9391137 38.0692694,23.0266561 38.0692694,21.1372402 C38.0692694,19.3312131 39.1912568,17.3880333 41.4405491,17.3880333 C43.5090473,17.3880333 44.790559,19.3608381 44.790559,21.1888096 C44.790559,23.0321422 43.5366981,24.9391137 41.4405491,24.9391137 Z M120.624147,14.4123677 C116.667945,14.4123677 113.797571,17.2410055 113.797571,21.1383374 C113.797571,25.1695303 116.732818,28.0003625 120.624147,28.0003625 C124.515476,28.0003625 127.449659,25.1431969 127.449659,21.1372402 C127.449659,17.2410055 124.578222,14.4123677 120.624147,14.4123677 L120.624147,14.4123677 Z M120.624147,24.9391137 C118.356775,24.9391137 117.324121,22.9685033 117.324121,21.1372402 C117.324121,19.3312131 118.356775,17.3880333 120.624147,17.3880333 C122.890455,17.3880333 123.923109,19.3312131 123.923109,21.1372402 C123.923109,22.9685033 122.891519,24.9391137 120.624147,24.9391137 Z M164.084941,19.7075601 C162.296142,19.2719631 161.66549,19.0382548 161.66549,18.2998246 C161.66549,17.2816027 162.931049,17.0577695 163.505336,17.0577695 C164.583721,17.0577695 165.802486,17.7139081 166.259789,18.3371301 L168.310208,16.3336031 C167.36157,15.1200758 165.497263,14.413465 163.529797,14.413465 C161.013567,14.413465 158.371845,15.7027006 158.371845,18.5829078 C158.371845,21.057143 160.274438,21.8032538 162.136618,22.2586008 C164.097703,22.7238229 164.798547,23.0639616 164.798547,23.8693224 C164.798547,25.0576136 163.476622,25.2518219 163.021446,25.2518219 C161.883506,25.2518219 160.565836,24.5869055 159.855421,23.7266836 L157.745447,25.9079605 C158.898275,27.2103628 160.872122,27.9948764 162.89489,27.9948764 C166.292757,27.9948764 168.310208,26.3435576 168.310208,23.6191559 C168.310208,21.0121569 165.841835,20.1365739 164.084941,19.7075601 Z M157.512541,14.7733537 L153.029909,14.7733537 L148.541959,20.0981711 L148.464324,20.0981711 L148.464324,7.70175921 L144.987758,7.70175921 L144.987758,27.602071 L148.464324,27.602071 L148.464324,21.2743929 L148.541959,21.2743929 L153.197941,27.6031682 L157.773097,27.6031682 L152.36097,20.5919209 L157.513605,14.7722565 L157.512541,14.7733537 Z M105.963866,14.4123677 C104.37394,14.4123677 103.203032,15.121173 102.096997,16.1767004 L102.031061,16.1767004 L102.031061,7.70285643 L98.5555583,7.70285643 L98.5555583,27.6031682 L101.880044,27.6031682 L101.880044,25.7894606 L101.932155,25.7894606 C102.715951,27.0995434 104.272908,27.9641542 105.888358,27.9641542 C109.47659,27.9641542 112.197011,25.0927247 112.197011,21.1361429 C112.197011,17.2399083 109.508495,14.4112705 105.963866,14.4112705 L105.963866,14.4123677 Z M105.280038,24.9391137 C103.182826,24.9391137 101.930029,23.0321422 101.930029,21.1888096 C101.930029,19.3608381 103.21154,17.3880333 105.280038,17.3880333 C107.529331,17.3880333 108.649191,19.3312131 108.649191,21.1372402 C108.649191,23.0266561 107.430426,24.9391137 105.280038,24.9391137 Z M97.2474592,14.7733537 L92.764827,14.7733537 L88.2768773,20.0981711 L88.1992421,20.0981711 L88.1992421,7.70175921 L84.7216129,7.70175921 L84.7216129,27.602071 L88.1992421,27.602071 L88.1992421,21.2743929 L88.2758138,21.2743929 L92.9328592,27.6031682 L97.506952,27.6031682 L92.0958885,20.5919209 L97.2474592,14.7722565 L97.2474592,14.7733537 Z M135.900192,14.4123677 C131.94399,14.4123677 129.072553,17.2410055 129.072553,21.1383374 C129.072553,25.1695303 132.007799,28.0003625 135.900192,28.0003625 C139.791521,28.0003625 142.725704,25.1431969 142.725704,21.1372402 C142.725704,17.2410055 139.854267,14.4123677 135.900192,14.4123677 Z M135.900192,24.9391137 C133.63282,24.9391137 132.600166,22.9685033 132.600166,21.1372402 C132.600166,19.3312131 133.631757,17.3880333 135.900192,17.3880333 C138.1665,17.3880333 139.199154,19.3312131 139.199154,21.1372402 C139.199154,22.9685033 138.1665,24.9391137 135.900192,24.9391137 Z" id="Shape"></path>
                        <g id="Group">
                            <path d="M14.6791172,0.0738852881 C22.7195989,0.0738852881 29.2376971,6.69077226 29.2376971,14.853116 C29.2376971,23.0154597 22.7195989,29.6323467 14.6791172,29.6323467 C6.63863554,29.6323467 0.120537302,23.0154597 0.120537302,14.853116 C0.120537302,6.69077226 6.63863554,0.0738852881 14.6791172,0.0738852881 Z M13.8713058,9.10527521 L9.82484744,9.10527521 C6.69722166,9.10527521 4.16276629,11.6782217 4.16276629,14.853116 C4.16276629,18.0269237 6.69722166,20.6009568 9.82484744,20.6009568 L10.6337162,20.6009568 L10.6337162,18.4648027 L9.82484744,18.4648027 C7.86241558,18.4648027 6.26582501,16.8447591 6.26582501,14.853116 C6.26582501,12.8603863 7.86241558,11.2403427 9.82484744,11.2403427 L11.7682471,11.2403427 L11.7682471,22.4068002 C11.7682471,23.5857051 12.7092839,24.5407811 13.8713058,24.5407811 L13.8713058,9.10527521 Z M15.4858712,5.16545087 L15.4858712,20.6009568 L19.533387,20.6009568 C22.6599554,20.6009568 25.1954681,18.0280103 25.1954681,14.853116 C25.1954681,11.6803948 22.6599554,9.10527521 19.533387,9.10527521 L18.7245182,9.10527521 L18.7245182,11.2414293 L19.533387,11.2414293 C21.4958188,11.2414293 23.0924094,12.8614729 23.0924094,14.853116 C23.0924094,16.8458457 21.4958188,18.4658893 19.533387,18.4658893 L17.5899873,18.4658893 L17.5899873,7.29943184 C17.5899873,6.12052688 16.6489505,5.16545087 15.4858712,5.16545087 Z" id="Combined-Shape"></path>
                        </g>
                        <path d="M47.9016276,3.63149775 C48.4399076,3.63149775 48.8754543,3.1994146 48.8754543,2.66522224 C48.873757,2.40752295 48.7702028,2.16105619 48.5875737,1.98004473 C48.4049445,1.79903327 48.1582013,1.6983055 47.9016276,1.70002157 C47.6450539,1.6983055 47.3983107,1.79903327 47.2156816,1.98004473 C47.0330524,2.16105619 46.9294982,2.40752295 46.9278009,2.66522224 C46.9278009,3.1994146 47.3644177,3.63257258 47.9016276,3.63257258 L47.9016276,3.63149775 Z" id="Path"></path>
                        <path d="M42.0907717,4.28284697 C41.1383478,4.28284697 40.3731983,4.85573334 40.0917517,5.4952594 L40.063928,5.4952594 L40.063928,4.46986804 L38.533629,4.46986804 L38.533629,10.8640538 L40.1452586,10.8640538 L40.1452586,7.34612304 C40.1452586,6.49485474 40.6289615,5.61564077 41.6488042,5.61564077 C42.6825587,5.61564077 42.8580615,6.56149443 42.8580615,7.32032703 L42.8580615,10.8640538 L44.468621,10.8640538 L44.468621,6.86674721 C44.468621,5.56189909 43.7708903,4.28284697 42.0918418,4.28284697 L42.0907717,4.28284697 Z" id="Path"></path>
                        <polygon id="Path" points="35.2718447 10.8640538 36.8824042 10.8640538 36.8824042 4.46879321 35.2718447 4.46879321"></polygon>
                        <path d="M64.5722562,3.63149775 C65.1105362,3.63149775 65.5460829,3.1994146 65.5460829,2.66522224 C65.5443856,2.40752295 65.4408314,2.16105619 65.2582023,1.98004473 C65.0755731,1.79903327 64.8288299,1.6983055 64.5722562,1.70002157 C64.3156825,1.6983055 64.0689393,1.79903327 63.8863102,1.98004473 C63.703681,2.16105619 63.6001268,2.40752295 63.5984295,2.66522224 C63.5984295,3.1994146 64.0350463,3.63257258 64.5722562,3.63257258 L64.5722562,3.63149775 Z" id="Path"></path>
                        <polygon id="Path" points="61.9611165 4.4655687 61.9611165 5.88219953 63.7675115 5.88219953 63.7675115 10.8640538 65.378071 10.8640538 65.378071 5.88219953 67.184466 5.88219953 67.184466 4.4655687 61.9600464 4.4655687"></polygon>
                        <polygon id="Path" points="59.22049 10.8640538 60.8321197 10.8640538 60.8321197 4.46879321 59.22049 4.46879321"></polygon>
                        <polygon id="Path" points="45.2894178 5.88219953 47.0958128 5.88219953 47.0958128 10.8640538 48.7074424 10.8640538 48.7074424 5.88219953 50.5138374 5.88219953 50.5138374 4.4655687 45.2894178 4.4655687 45.2894178 5.88219953"></polygon>
                        <path d="M55.9587057,7.98672393 C55.9587057,8.83906706 55.4760729,9.7172062 54.4562303,9.7172062 C53.4214056,9.7172062 53.246973,8.77135254 53.246973,8.01251994 L53.246973,4.46986804 L51.6353433,4.46986804 L51.6353433,8.46609977 C51.6353433,9.77202272 52.3341442,11.05 54.0121225,11.05 C54.9656165,11.05 55.7318362,10.4771136 56.0132828,9.83758758 L56.0400363,9.83758758 L56.0400363,10.8640538 L57.5703354,10.8640538 L57.5703354,4.46879321 L55.9597759,4.46879321 L55.9597759,7.98672393 L55.9587057,7.98672393 Z" id="Path"></path>
                    </g>
                </g>
            </g>
        </g>
    </g>
</svg>