<?xml version="1.0" encoding="UTF-8"?>
<svg width="127px" height="29px" viewBox="0 0 127 29" version="1.1" xmlns="http://www.w3.org/2000/svg" xmlns:xlink="http://www.w3.org/1999/xlink">
    <!-- Generator: Sketch 58 (84663) - https://sketch.com -->
    <title>logo-bankrate-white</title>
    <desc>Created with Sketch.</desc>
    <g id="Landing-Page" stroke="none" stroke-width="1" fill="none" fill-rule="evenodd">
        <g id="NoExam-Landing-Page---Top-5---Desktop" transform="translate(-738.000000, -521.000000)" fill="#FFFFFF" fill-rule="nonzero">
            <g id="Group-5" transform="translate(137.000000, 463.000000)">
                <g id="Group-4" transform="translate(60.000000, 35.000000)">
                    <path d="M541.045455,51.5246097 L541.045455,25.4498596 L545.036207,25.4498596 C546.464835,25.4143657 547.89251,25.5508418 549.28729,25.8562345 C550.286221,26.0875054 551.213677,26.5514744 551.99118,27.2088821 C552.757918,27.9012167 553.363359,28.747747 553.766163,29.6906712 C554.203592,30.6466593 554.432337,31.6818707 554.437698,32.7297743 C554.459971,34.5510832 553.659552,36.2886708 552.251511,37.4756517 C553.61861,37.9199435 554.793852,38.8021797 555.588478,39.9806622 C556.424519,41.1834712 556.857779,42.6120145 556.828008,44.0676318 C556.864972,46.017061 556.065207,47.8919787 554.624071,49.2343974 C553.797156,50.0676773 552.774126,50.6886934 551.645059,51.0427653 C550.164918,51.4011159 548.64302,51.5660599 547.118853,51.5333178 L541.045455,51.5333178 L541.045455,51.5246097 Z M545.053957,36.6483886 L546.311236,36.6483886 C547.802221,36.6483886 548.894822,36.3242563 549.589037,35.6759917 C550.283253,35.0277271 550.63036,34.0737139 550.63036,32.8139519 C550.63036,31.587087 550.274378,30.6553276 549.562412,30.0186737 C548.850447,29.3820198 547.817999,29.0636929 546.465068,29.0636929 L545.053957,29.0636929 L545.053957,36.6483886 L545.053957,36.6483886 Z M545.053957,47.8295015 L547.533016,47.8295015 C549.34547,47.8295015 550.676707,47.4802127 551.526726,46.781635 C552.398788,46.0769801 552.893711,45.019106 552.869796,43.9108872 C552.887653,42.8250972 552.415542,41.7870708 551.579976,41.0749715 C550.74179,40.3202754 549.243902,39.9429273 547.086312,39.9429273 L545.053957,39.9429273 L545.053957,47.8178908 L545.053957,47.8295015 Z M571.743777,35.0751375 L575.633947,35.0751375 L575.633947,51.5246097 L571.743777,51.5246097 L571.743777,49.8033221 C570.148265,51.2662715 568.432449,51.9977461 566.596328,51.9977461 C564.403084,52.0512799 562.298315,51.148888 560.848343,49.5333731 C559.345524,47.8556256 558.594115,45.7618278 558.594115,43.2519795 C558.594115,40.7866389 559.345524,38.7315434 560.848343,37.0866929 C562.262707,35.4825097 564.331425,34.5793043 566.492787,34.6223199 C568.443296,34.6223199 570.193626,35.4108805 571.743777,36.9880019 L571.743777,35.0751375 L571.743777,35.0751375 Z M562.549368,43.2490768 C562.549368,44.8261981 562.979308,46.110149 563.839189,47.1009295 C564.660662,48.0755179 565.890407,48.6291317 567.179114,48.6045164 C568.500277,48.6529726 569.774654,48.1208815 570.655121,47.1531777 C571.538668,46.1507865 571.980442,44.8784463 571.980442,43.3361571 C571.980442,41.7938679 571.538668,40.5215277 570.655121,39.5191365 C569.790107,38.5473093 568.525956,38.0081063 567.211655,38.0503818 C565.927498,38.0290648 564.701442,38.5746244 563.87173,39.5365525 C562.977751,40.5707708 562.506567,41.8936181 562.549368,43.2490768 L562.549368,43.2490768 Z M577.8793,35.0751375 L581.778345,35.0751375 L581.778345,36.5961404 C583.131276,35.2783249 584.657761,34.6194172 586.3578,34.6194172 C588.308309,34.6194172 589.828877,35.2222065 590.919505,36.4277851 C591.860246,37.4533978 592.330616,39.1253399 592.330616,41.4436115 L592.330616,51.5246097 L588.428613,51.5246097 L588.428613,42.3492468 C588.428613,40.7295529 588.198852,39.6110546 587.739328,38.9937519 C587.279805,38.3764492 586.465285,38.0619925 585.295769,38.0503818 C584.009893,38.0503818 583.097749,38.4664322 582.559338,39.298533 C582.020926,40.1306338 581.760595,41.5635888 581.778345,43.5973981 L581.778345,51.5246097 L577.8793,51.5246097 L577.8793,35.0751375 Z M598.436556,23 L598.436556,40.395745 L603.891669,35.0751375 L609.08941,35.0751375 L601.809023,41.9835095 L609.621905,51.5246097 L604.592787,51.5246097 L599.054842,44.5843083 L598.436556,45.2054813 L598.436556,51.5391231 L594.564136,51.5391231 L594.564136,23 L598.436556,23 Z M611.237139,35.0751375 L615.109559,35.0751375 L615.109559,36.5438922 C615.651634,35.9434691 616.291413,35.4353843 617.002874,35.0403054 C617.624926,34.7462439 618.309475,34.6019579 618.999729,34.6194172 C620.137514,34.6537151 621.244207,34.9919244 622.200614,35.5976194 L620.425632,39.0808322 C619.810806,38.6045593 619.057719,38.3321628 618.274944,38.3029147 C616.162715,38.3029147 615.106601,39.8674577 615.106601,42.9965439 L615.106601,51.5246097 L611.237139,51.5246097 L611.237139,35.0751375 L611.237139,35.0751375 Z M635.65794,35.0751375 L639.54811,35.0751375 L639.54811,51.5246097 L635.65794,51.5246097 L635.65794,49.8033221 C634.062428,51.2662715 632.346611,51.9977461 630.510491,51.9977461 C628.317246,52.0512799 626.212478,51.148888 624.762506,49.5333731 C623.259687,47.8556256 622.508278,45.7618278 622.508278,43.2519795 C622.508278,40.7866389 623.259687,38.7315434 624.762506,37.0866929 C626.17687,35.4825097 628.245588,34.5793043 630.40695,34.6223199 C632.357459,34.6223199 634.107789,35.4108805 635.65794,36.9880019 L635.65794,35.0751375 Z M626.466489,43.2490768 C626.466489,44.8261981 626.896429,46.110149 627.756309,47.1009295 C628.577783,48.0755179 629.807528,48.6291317 631.096235,48.6045164 C632.417398,48.6529726 633.691775,48.1208815 634.572242,47.1531777 C635.455789,46.1507865 635.897563,44.8784463 635.897563,43.3361571 C635.897563,41.7938679 635.455789,40.5215277 634.572242,39.5191365 C633.707228,38.5473093 632.443077,38.0081063 631.128776,38.0503818 C629.844619,38.0290648 628.618563,38.5746244 627.788851,39.5365525 C626.894872,40.5707708 626.423688,41.8936181 626.466489,43.2490768 L626.466489,43.2490768 Z M647.550323,38.6222092 L647.550323,51.5246097 L643.674944,51.5246097 L643.674944,38.6222092 L642.024211,38.6222092 L642.024211,35.0751375 L643.674944,35.0751375 L643.674944,29.0462768 L647.547365,29.0462768 L647.547365,35.0751375 L650.558918,35.0751375 L650.558918,38.6222092 L647.550323,38.6222092 L647.550323,38.6222092 Z M667.891623,44.1953496 L655.874991,44.1953496 C655.977546,45.5499323 656.425236,46.6248905 657.218061,47.4202241 C658.021694,48.2132785 659.126058,48.6414575 660.265114,48.6016137 C661.11623,48.6345116 661.955484,48.3973432 662.658383,47.9252899 C663.277654,47.4744074 663.983703,46.641339 664.776528,45.4260848 L668.045455,47.2170366 C667.590874,47.9937268 667.054454,48.7214488 666.445012,49.3882393 C665.915682,49.963501 665.30734,50.4636882 664.637488,50.87441 C663.99656,51.2626408 663.297916,51.5505538 662.566675,51.7277972 C661.772086,51.9132178 660.957593,52.0038563 660.140866,51.9977461 C657.640113,51.9977461 655.63241,51.2091855 654.117758,49.6320641 C652.603107,48.0549428 651.84085,45.9505018 651.830989,43.318741 C651.830989,40.7179422 652.565635,38.6125336 654.034926,37.0025153 C655.504217,35.3924969 657.466559,34.5990985 659.921951,34.6223199 C662.389177,34.6223199 664.339685,35.3963672 665.773477,36.9444617 C667.207268,38.4925563 667.918247,40.6144134 667.906414,43.310033 L667.891623,44.1953496 Z M663.915662,41.0894849 C663.375278,39.0634161 662.072638,38.0503818 660.007742,38.0503818 C659.556977,38.0475024 659.108937,38.1191362 658.682422,38.2622772 C658.274317,38.4001935 657.893155,38.605351 657.555308,38.8689368 C657.213112,39.1374106 656.919136,39.4601984 656.685566,39.8239176 C656.436174,40.2151205 656.250526,40.642113 656.135322,41.0894849 L663.915662,41.0894849 L663.915662,41.0894849 Z" id="logo-bankrate-white"></path>
                </g>
            </g>
        </g>
    </g>
</svg>