<?xml version="1.0" encoding="UTF-8"?>
<svg width="160px" height="50px" viewBox="0 0 160 50" version="1.1" xmlns="http://www.w3.org/2000/svg" xmlns:xlink="http://www.w3.org/1999/xlink">
    <!-- Generator: Sketch 58 (84663) - https://sketch.com -->
    <title>logo-cheapism-white</title>
    <desc>Created with Sketch.</desc>
    <g id="Landing-Page" stroke="none" stroke-width="1" fill="none" fill-rule="evenodd">
        <g id="NoExam-Landing-Page---Top-5---Desktop" transform="translate(-1083.000000, -510.000000)">
            <g id="Group-5" transform="translate(137.000000, 463.000000)">
                <g id="Group-4" transform="translate(60.000000, 35.000000)">
                    <g id="logo-cheapism-white" transform="translate(887.045455, 13.000000)">
                        <path d="M39.8391176,31.7361474 C36.3805097,38.8109431 29.3354895,43.6563565 21.2057098,43.6563565 C17.8630726,43.6563565 14.7058307,42.8330411 11.9036009,41.3769559 C11.9682921,41.7231136 12.0045821,42.0795924 12.0045821,42.4455986 C12.0045821,45.5141751 9.62205577,48 6.68492138,48 C3.74699808,48 1.36526059,45.5141751 1.36526059,42.4455986 C1.36526059,39.5802706 3.44484324,37.2222701 6.11374617,36.9253366 C2.51471124,33.004069 0.299435028,27.6878494 0.299435028,21.8285752 C0.299435028,9.77260247 9.65913482,0 21.2057098,0 C29.3339117,0 36.3789318,4.84382547 39.8375397,11.9170334" id="Path" stroke="#FFFFFF" stroke-width="1.5"></path>
                        <path d="M32.1087379,26.2944581 C30.3872174,25.4668746 28.5774343,24.9077608 26.9553087,23.7784459 C26.1704862,25.8058275 24.3845577,27.3532898 22.1406174,27.6676923 C18.8208261,28.1333564 15.7634375,25.7313846 15.3125821,22.2998831 C14.8625217,18.8691733 17.1875683,15.7108931 20.5073596,15.2452289 C22.8427433,14.9173634 25.0429498,16.0134164 26.3032778,17.8832007 C27.6876507,16.45849 28.6911421,14.7344238 30.0142876,13.2629883 C28.0208225,11.0091104 25.2353784,9.56222517 22.1883269,9.33097696 L21.8503841,6.75398501 C21.0067198,6.71438772 20.1519233,6.74052193 19.2851993,6.86248159 C18.0375939,7.03750164 16.8575771,7.38991756 15.745944,7.8650851 L16.1005852,10.5664125 C11.6993768,12.8202906 8.96482304,17.7849995 9.66138284,23.0926209 C10.3587378,28.4002423 14.2772842,32.4312468 19.1015175,33.3910853 L19.4569538,36.0924127 C20.6504883,36.2436744 21.8782148,36.2587214 23.1266153,36.0844933 C23.992544,35.9617417 24.8226907,35.751084 25.626597,35.4818225 L25.287859,32.9064145 C28.3921621,31.7573009 30.8325068,29.3236512 32.1087379,26.2944581 L32.1087379,26.2944581 Z M152.668608,14.6410535 L151.97841,14.6410535 L151.97841,11.2681558 L150.741937,11.2681558 L150.741937,10.6124246 L153.905081,10.6124246 L153.905081,11.2681558 L152.668608,11.2681558 L152.668608,14.6410535 Z M156.54342,13.6511211 L156.521156,13.6511211 L155.301381,11.7631221 L155.301381,14.6410535 L154.627086,14.6410535 L154.627086,10.6124246 L155.357043,10.6124246 L156.54342,12.5170545 L157.729003,10.6124246 L158.458165,10.6124246 L158.458165,14.6410535 L157.773532,14.6410535 L157.773532,11.7520348 L156.54342,13.6511211 Z M40.0393416,17.1089945 C41.3728242,15.4831295 42.6729101,14.7775057 44.3817081,14.7775057 C45.7493826,14.7775057 47.2538245,15.3770087 48.1762096,16.2972499 C49.2027606,17.2855983 49.5788712,18.5566715 49.5788712,20.9237978 L49.5788712,31.6990137 L45.2365047,31.6990137 L45.2365047,21.5597303 C45.2365047,19.7224159 44.3133244,18.5566715 42.8772662,18.5566715 C42.1250452,18.5566715 41.4420031,18.8401881 40.9291252,19.369208 C40.2444928,20.0399862 40.0393416,20.6759187 40.0393416,21.9485758 L40.0393416,31.6990137 L35.6985654,31.6990137 L35.6985654,8.13545544 L40.0393416,8.13545544 L40.0393416,17.1089945 Z" id="Shape" fill="#FFFFFF" fill-rule="nonzero"></path>
                        <path d="M63.149194,22.4816021 C62.7752436,20.301708 61.279442,18.9803174 59.1377259,18.9803174 C57.0640009,18.9803174 55.6709764,20.230433 55.2622399,22.4816021 L63.149194,22.4816021 Z M55.2622399,25.089947 C55.6361903,27.3763532 57.2339784,28.8050567 59.376485,28.8050567 C60.972692,28.8050567 62.3333022,27.9833921 63.0124215,26.6612006 L66.9891034,27.8048041 C65.4253108,31.019387 62.6732572,32.8421053 59.3416989,32.8421053 C54.3451521,32.8421053 50.7756255,29.1261947 50.7756255,23.9815807 C50.7756255,18.8017294 54.2083795,15.1578947 59.0705255,15.1578947 C64.1010678,15.1578947 67.6010223,18.8730045 67.6010223,24.1962065 L67.5678174,25.089947 L55.2622399,25.089947 L55.2622399,25.089947 Z" id="Shape" fill="#FFFFFF" fill-rule="nonzero"></path>
                        <path d="M73.9858817,24.1253376 C73.9858817,27.0189136 75.8167952,29.1981055 78.2025309,29.1981055 C80.6582225,29.1981055 82.6282437,26.8411185 82.6282437,23.982781 C82.6282437,21.0523646 80.831906,18.9812913 78.238715,18.9812913 C75.7484476,18.9812913 73.9858817,21.0884042 73.9858817,24.1253376 L73.9858817,24.1253376 Z M82.559896,15.7305232 L86.9502287,15.7305232 L86.9502287,32.2710785 L82.559896,32.2710785 L82.559896,29.9845687 C81.072329,31.9499259 79.343535,32.8421053 76.9931792,32.8421053 C72.4991188,32.8421053 69.283562,29.2341451 69.283562,24.1966158 C69.283562,18.9812913 72.6719982,15.1578947 77.338938,15.1578947 C79.5180226,15.1578947 81.0047854,15.9443579 82.559896,17.8368352 L82.559896,15.7305232 Z" id="Shape" fill="#FFFFFF" fill-rule="nonzero"></path>
                        <path d="M93.0055788,24.1638612 C93.0055788,27.1541453 94.6925432,29.1484661 97.2422144,29.1484661 C99.7910846,29.1484661 101.615826,27.047207 101.615826,24.127949 C101.615826,21.1017529 99.8591721,18.9661776 97.3791901,18.9661776 C94.7966768,18.9661776 93.0055788,21.1017529 93.0055788,24.1638612 Z M93.0055788,15.7269027 L93.0055788,17.7571356 C94.313657,15.9407794 95.8644467,15.1578947 98.241096,15.1578947 C99.9280604,15.1578947 101.340272,15.5848502 102.683596,16.5097873 C105.094689,18.2192051 106.299435,20.7107095 106.299435,24.0226068 C106.299435,29.2913166 103.130569,32.7795823 98.3428265,32.7795823 C96.0358666,32.7795823 94.3489023,32.0318119 93.0055788,30.4301304 L93.0055788,39.5789474 L88.6327684,39.5789474 L88.6327684,15.7269027 L93.0055788,15.7269027 L93.0055788,15.7269027 Z" id="Shape" fill="#FFFFFF" fill-rule="nonzero"></path>
                        <path d="M107.392919,32 L111.936942,32 L111.936942,15.6082268 L107.392919,15.6082268 L107.392919,32 Z M112.188324,10.9710074 C112.188324,12.3511417 111.11454,13.4130277 109.683659,13.4130277 C108.215322,13.4130277 107.140705,12.3511417 107.140705,10.9352938 C107.140705,9.48373221 108.215322,8.42105263 109.683659,8.42105263 C111.150333,8.42105263 112.188324,9.48373221 112.188324,10.9710074 Z" id="Shape" fill="#FFFFFF" fill-rule="nonzero"></path>
                        <path d="M121.221233,20.5165765 L121.221233,20.2314636 C121.221233,19.2303648 120.350506,18.5151798 119.165215,18.5151798 C118.084509,18.5151798 117.386469,19.1230469 117.386469,20.0152263 C117.386469,20.4452983 117.560776,20.8737686 117.839669,21.0876033 C118.32854,21.4808349 118.363402,21.4808349 120.594536,22.195219 C124.21932,23.3380735 125.648641,24.8036821 125.648641,27.4834235 C125.648641,30.698953 123.138615,32.8421053 119.374385,32.8421053 C115.539621,32.8421053 113.20309,30.8407085 113.029594,27.4113443 L117.283506,27.4113443 C117.491864,28.8409135 118.119371,29.4832185 119.410057,29.4832185 C120.45428,29.4832185 121.187181,28.8409135 121.187181,27.9110929 C121.187181,26.9115958 120.559675,26.4462851 118.189094,25.6966624 C114.703755,24.6250861 113.134177,23.016921 113.134177,20.4092587 C113.134177,17.2650076 115.608533,15.1578947 119.374385,15.1578947 C123.06808,15.1578947 125.299216,17.1584906 125.404611,20.5165765 L121.221233,20.5165765 L121.221233,20.5165765 Z" id="Path" fill="#FFFFFF" fill-rule="nonzero"></path>
                        <path d="M131.642821,15.7199026 L131.642821,17.7598412 C132.626758,15.9658303 133.951838,15.1578947 135.95446,15.1578947 C137.991828,15.1578947 139.486688,16.1061351 140.233723,17.865464 C141.285573,16.0013006 142.745687,15.1578947 144.986003,15.1578947 C146.581151,15.1578947 147.905441,15.6852205 148.78909,16.6689312 C149.739862,17.7598412 150.045467,18.8846451 150.045467,21.3462865 L150.045467,32 L145.733827,32 L145.733827,22.1896924 C145.733827,19.9739786 144.952836,18.9201154 143.322152,18.9201154 C141.727003,18.9201154 140.808608,20.1158599 140.808608,22.1896924 L140.808608,32 L136.497758,32 L136.497758,22.3307855 C136.497758,20.0796013 135.68281,18.9201154 134.121618,18.9201154 C132.490144,18.9201154 131.642821,20.0796013 131.642821,22.3307855 L131.642821,32 L127.331181,32 L127.331181,15.7199026 L131.642821,15.7199026 L131.642821,15.7199026 Z" id="Path" fill="#FFFFFF" fill-rule="nonzero"></path>
                    </g>
                </g>
            </g>
        </g>
    </g>
</svg>