<?xml version="1.0" encoding="UTF-8"?>
<svg width="125px" height="40px" viewBox="0 0 125 40" version="1.1" xmlns="http://www.w3.org/2000/svg" xmlns:xlink="http://www.w3.org/1999/xlink">
    <!-- Generator: Sketch 58 (84663) - https://sketch.com -->
    <title>logo-simpledollar-white</title>
    <desc>Created with Sketch.</desc>
    <g id="Landing-Page" stroke="none" stroke-width="1" fill="none" fill-rule="evenodd">
        <g id="NoExam-Landing-Page---Top-5---Desktop" transform="translate(-912.000000, -515.000000)" fill="#FFFFFF">
            <g id="Group-5" transform="translate(137.000000, 463.000000)">
                <g id="Group-4" transform="translate(60.000000, 35.000000)">
                    <g id="logo-simpledollar-white" transform="translate(715.045455, 17.000000)">
                        <path d="M119.804121,31.2238637 C119.363753,31.2238637 118.951866,31.3556633 118.580512,31.6149764 C118.285336,31.8251247 118.024083,32.0774267 117.805486,32.3634483 L117.73976,32.0007314 C117.722518,31.9095298 117.696852,31.8200465 117.663079,31.7333818 C117.629659,31.6482648 117.573935,31.5732462 117.501501,31.5158588 C117.429171,31.4603504 117.345488,31.4207006 117.256122,31.3995965 C117.1516,31.376171 117.044565,31.3651973 116.937348,31.3669145 L115.440426,31.3669145 L115.440426,39.0525475 L118.007595,39.0525475 L118.007595,34.4063426 C118.32363,33.8518198 118.739351,33.582327 119.275022,33.582327 C119.4366,33.582327 119.570791,33.5919709 119.673763,33.6117944 C119.961864,33.666443 120.170546,33.6584065 120.313501,33.5603604 C120.403875,33.498211 120.462481,33.3980218 120.489867,33.2592572 L120.798782,31.5485408 L120.731412,31.4971068 C120.495892,31.3160163 120.183691,31.2238637 119.804121,31.2238637 L119.804121,31.2238637 Z M111.60364,36.0543738 L111.60364,36.8692812 C111.404817,37.0594799 111.208185,37.1993161 111.017578,37.2855752 C110.817112,37.3766562 110.578306,37.4227325 110.306636,37.4227325 C110.065639,37.4227325 109.883796,37.3798709 109.768227,37.2957548 C109.665255,37.2207469 109.612674,37.0782319 109.612674,36.8708885 C109.612674,36.7653417 109.638964,36.671046 109.692093,36.5815723 C109.744675,36.4947774 109.844907,36.4133402 109.990601,36.3399396 C110.14944,36.259574 110.371267,36.1915311 110.651153,36.1368825 C110.9042,36.0870558 111.224069,36.0597315 111.60364,36.0543738 L111.60364,36.0543738 Z M113.273642,32.0918125 C112.99319,31.8124699 112.655531,31.5942836 112.282814,31.4515663 C111.897218,31.3010147 111.460137,31.2238637 110.983072,31.2238637 C110.326902,31.2238637 109.704143,31.3240529 109.130131,31.5212165 C108.548619,31.7222421 108.012125,32.0309306 107.549956,32.4304197 L107.461225,32.5059634 L107.93117,33.2972969 C108.00566,33.4242746 108.108084,33.5319646 108.236251,33.6182237 C108.512302,33.8030646 108.949383,33.7827053 109.235294,33.6551919 C109.365104,33.5962571 109.499295,33.530893 109.637321,33.4580282 C109.763845,33.390521 109.911182,33.3289074 110.073855,33.2747945 C110.229955,33.2228248 110.436446,33.196572 110.688946,33.196572 C110.987454,33.196572 111.209281,33.2769376 111.365381,33.4430266 C111.523125,33.6101871 111.60364,33.8973603 111.60364,34.2959738 L111.60364,34.4743855 C110.784797,34.4824221 110.091382,34.5601088 109.540922,34.7074458 C108.954313,34.8638909 108.479439,35.0621261 108.129445,35.2967938 C107.771783,35.5368191 107.515997,35.8095265 107.36866,36.1074151 C107.222419,36.4015533 107.148476,36.6946199 107.148476,36.9775069 C107.148476,37.3289726 107.206535,37.6445417 107.321009,37.9151059 C107.436578,38.1899564 107.603633,38.4230167 107.817792,38.6078577 C108.030307,38.7926986 108.29157,38.9336063 108.593912,39.0273662 C108.891325,39.1200546 109.225435,39.1666667 109.585835,39.1666667 C109.854219,39.1666667 110.101789,39.1452358 110.323616,39.1034457 C110.546538,39.060584 110.760149,38.99522 110.958425,38.9078893 C111.153413,38.822166 111.345116,38.7150118 111.528054,38.5917845 C111.65896,38.5033823 111.795342,38.4042647 111.935011,38.2944317 L112.024838,38.5210628 C112.111377,38.733228 112.225851,38.8768146 112.366615,38.9502152 C112.499164,39.0187939 112.681555,39.0525475 112.923648,39.0525475 L114.111655,39.0525475 L114.111655,34.2847226 C114.111655,33.846462 114.039356,33.4360616 113.896401,33.0647724 C113.759795,32.7018338 113.547746,32.3705417 113.273642,32.0918125 L113.273642,32.0918125 Z M103.399325,39.0525475 L105.966494,39.0525475 L105.966494,28.0821034 L103.399325,28.0821034 L103.399325,39.0525475 Z M99.2098066,39.0525475 L101.776428,39.0525475 L101.776428,28.0821034 L99.2098066,28.0821034 L99.2098066,39.0525475 Z M94.1494112,37.2443208 C93.6564622,37.2443208 93.3086593,37.0878757 93.0846414,36.7664132 C92.8529553,36.4320922 92.7346476,35.9070368 92.7346476,35.2062485 C92.7346476,34.5043887 92.8524076,33.9814763 93.0846414,33.6492984 C93.3086593,33.3299789 93.6564622,33.1751412 94.1494112,33.1751412 C94.627024,33.1751412 94.9660634,33.3305147 95.1873427,33.6487626 C95.4173856,33.9809405 95.5335025,34.5043887 95.5335025,35.2062485 C95.5335025,35.9075725 95.4173856,36.4331638 95.1873427,36.766949 C94.9660634,37.0884115 94.6264763,37.2437851 94.1494112,37.2437851 L94.1494112,37.2443208 Z M97.0550717,32.3146932 C96.6915262,31.9674701 96.2574954,31.6987883 95.7810724,31.5260385 C95.2919575,31.3444121 94.7425932,31.2527953 94.1488635,31.2527953 C93.550752,31.2527953 92.9986491,31.3438764 92.5062479,31.5260385 C92.0268937,31.6988889 91.589372,31.9670579 91.2212941,32.3136216 C90.8553896,32.6657323 90.5709343,33.090505 90.3871149,33.5592889 C90.1926739,34.0420184 90.0940841,34.5917193 90.0940841,35.1917827 C90.0940841,35.7972037 90.1926739,36.350655 90.3865671,36.8382065 C90.5698633,37.31052 90.854495,37.7389311 91.2212941,38.0945892 C91.5888571,38.4433464 92.0261374,38.7140354 92.5057001,38.8896731 C92.9986491,39.0734425 93.5518475,39.1666667 94.1488635,39.1666667 C94.7420455,39.1666667 95.2919575,39.0734425 95.7816201,38.8896731 C96.2584377,38.7144241 96.6924277,38.4433949 97.0556194,38.0940534 C97.4184557,37.7369351 97.7002672,37.3090185 97.8826783,36.8382065 C98.0760239,36.350655 98.1746137,35.7972037 98.1746137,35.1917827 C98.1746137,34.5917193 98.0760239,34.0420184 97.8821306,33.5592889 C97.6992112,33.0918788 97.417366,32.6675629 97.0550717,32.3141574 L97.0550717,32.3146932 Z M85.2199139,36.6951557 C84.8671815,36.8414211 84.4585815,36.9158933 84.003973,36.9158933 L82.4873332,36.9158933 L82.4873332,30.5043234 L84.0045207,30.5043234 C84.4580338,30.5043234 84.8671815,30.5782598 85.2199139,30.725061 C85.5623191,30.8649699 85.8676396,31.0793448 86.1126993,31.3519129 C86.354792,31.6240845 86.5448512,31.9621559 86.6757566,32.3570191 C86.8072097,32.7556326 86.8745794,33.2088947 86.8745794,33.7066259 C86.8745794,34.2081074 86.8072097,34.6645841 86.6757566,35.0631977 C86.5443035,35.457525 86.354792,35.7955964 86.1121516,36.067768 C85.8706066,36.3388681 85.5699077,36.549426 85.2193662,36.6946199 L85.2199139,36.6951557 Z M88.1332425,29.8855081 C87.6370072,29.4129582 87.0306799,29.0379186 86.3323355,28.7700332 C85.6350865,28.5026835 84.8518453,28.3671335 84.0045207,28.3671335 L79.6994328,28.3671335 L79.6994328,39.0525475 L84.0045207,39.0525475 C84.8518453,39.0525475 85.6350865,38.9186048 86.3323355,38.653934 C87.0306799,38.3887274 87.6370072,38.0126162 88.1343379,37.5373875 C88.6356465,37.0553955 89.0304846,36.4778838 89.2944112,35.8406012 C89.5682718,35.1912469 89.7062975,34.4727782 89.7062975,33.7066259 C89.7062975,32.9447597 89.5677241,32.2284341 89.2944112,31.5790798 C89.0304633,30.9426477 88.6351746,30.3662991 88.1332425,29.8860439 L88.1332425,29.8855081 Z M119.32596,19.7385438 C119.406475,19.396722 119.544501,19.127765 119.737846,18.9381022 C119.956935,18.7237938 120.258181,18.6187827 120.656922,18.6187827 C120.879297,18.6187827 121.067713,18.6552151 121.218884,18.7259369 C121.369507,18.7977302 121.492745,18.8909543 121.583666,19.0045377 C121.676779,19.1202643 121.745244,19.2536712 121.786323,19.4010082 C121.816996,19.511377 121.836714,19.6238889 121.845477,19.7385438 L119.32596,19.7385438 L119.32596,19.7385438 Z M123.451395,22.4404363 C123.331444,22.2754188 123.148506,22.1880882 122.921201,22.1880882 C122.762362,22.1880882 122.607905,22.2250564 122.462759,22.2963139 C122.336783,22.3584633 122.199853,22.4281135 122.049229,22.504193 C121.907917,22.5765221 121.743053,22.6434934 121.559567,22.7024282 C121.384296,22.7592199 121.170137,22.7881515 120.921472,22.7881515 C120.459195,22.7881515 120.094413,22.6633169 119.805764,22.4066827 C119.546692,22.1763012 119.374159,21.8066193 119.293097,21.3040663 L123.52479,21.3040663 C123.645289,21.3040663 123.744974,21.2896005 123.82768,21.2601331 C123.924221,21.2253277 124.00575,21.1593732 124.058818,21.073149 C124.108661,20.9938549 124.142072,20.8942016 124.159599,20.769367 C124.174935,20.6568551 124.182603,20.5175546 124.182603,20.3428933 C124.182603,19.7947998 124.09442,19.2954613 123.919697,18.8604154 C123.756637,18.4415657 123.505045,18.0610932 123.181369,17.7438689 C122.858689,17.4361315 122.472765,17.1990731 122.049229,17.0484383 C121.615982,16.8909217 121.132344,16.8105561 120.613105,16.8105561 C120.012802,16.8105561 119.465081,16.9134241 118.986373,17.1154097 C118.523599,17.3064714 118.105001,17.5869195 117.755644,17.9399611 C117.415644,18.2886067 117.150447,18.7003122 116.975689,19.1508032 C116.794366,19.6157097 116.702627,20.109443 116.705065,20.6070284 C116.705065,21.278885 116.811372,21.8778769 117.020602,22.3879307 C117.230379,22.8990561 117.521219,23.3330305 117.884358,23.6780669 C118.249278,24.0247755 118.684899,24.2922393 119.162739,24.4629712 C119.644734,24.636561 120.166712,24.7249632 120.716076,24.7249632 C120.981721,24.7249632 121.263797,24.7062112 121.554089,24.6703146 C121.85567,24.631929 122.152797,24.5653679 122.441398,24.4715436 C122.737167,24.3751048 123.02965,24.2411621 123.310083,24.0718585 C123.60652,23.8894807 123.873774,23.665249 124.103184,23.4064311 L124.183151,23.3174932 L123.451395,22.4404363 L123.451395,22.4404363 Z M113.088512,24.610844 L115.655681,24.610844 L115.655681,13.6398641 L113.088512,13.6398641 L113.088512,24.610844 Z M109.336622,21.7160741 C109.267609,21.9828879 109.172306,22.2009467 109.05345,22.3654283 C108.938429,22.522945 108.802594,22.6386715 108.650328,22.7083217 C108.327172,22.8567302 107.903236,22.8449433 107.549408,22.7147509 C107.372143,22.6460235 107.213007,22.5390733 107.083845,22.4018608 L107.083845,19.3656473 C107.166004,19.2729589 107.249257,19.1883072 107.332511,19.113835 C107.420146,19.0350767 107.516545,18.9691769 107.619517,18.9177429 C107.723584,18.8663089 107.838605,18.8255903 107.961842,18.7977302 C108.211603,18.7398669 108.558858,18.7259369 108.809167,18.8470211 C108.931309,18.9064917 109.03921,19.0082881 109.130131,19.1497316 C109.225435,19.2986759 109.302116,19.5011973 109.357436,19.7514023 C109.413851,20.0064293 109.442332,20.3278918 109.442332,20.7072175 C109.442332,21.103688 109.406731,21.4428309 109.336622,21.7160741 L109.336622,21.7160741 Z M108.674975,24.7249632 C109.180522,24.7249632 109.648823,24.6215594 110.066735,24.416895 C110.484298,24.2124855 110.851513,23.9218325 111.143007,23.5650193 C111.439871,23.2071244 111.673201,22.7790434 111.836969,22.2930993 C112.00019,21.809834 112.083444,21.2762062 112.083444,20.7072175 C112.083444,20.1017965 112.010597,19.5515598 111.868189,19.0720449 C111.724139,18.5893153 111.52203,18.1740929 111.268435,17.8387004 C111.026002,17.5116666 110.709829,17.2436409 110.344429,17.0554034 C109.982776,16.8731252 109.581325,16.7793643 109.174497,16.7820995 C108.899541,16.7820995 108.641564,16.8100203 108.40933,16.8646689 C107.963953,16.9685899 107.546642,17.1650182 107.185721,17.4406226 C107.074678,17.5250627 106.968444,17.615386 106.867496,17.7111869 L106.768906,17.3956179 C106.727748,17.2513247 106.635797,17.1258952 106.509286,17.0414733 C106.378807,16.9611724 106.226838,16.9206983 106.072752,16.925211 L104.517224,16.925211 L104.517224,26.9601992 L107.084393,26.9601992 L107.084393,24.2642003 C107.251448,24.3772479 107.430553,24.4731509 107.619517,24.5503019 C107.906522,24.6660284 108.260898,24.7249632 108.674975,24.7249632 L108.674975,24.7249632 Z M102.455054,17.5954604 C102.204383,17.3341356 101.894974,17.1334644 101.551314,17.0093271 C101.007975,16.8068057 100.30251,16.7446563 99.6003317,16.8850282 C99.3546993,16.9338116 99.1161172,17.0119037 98.8899375,17.1175528 C98.6653718,17.2225639 98.4539515,17.3624001 98.2600582,17.5327752 C98.1281905,17.649494 98.0105622,17.7807365 97.9095167,17.9238879 C97.7602852,17.6379307 97.5499562,17.386694 97.2927827,17.187203 C96.9663409,16.9375338 96.551716,16.8110919 96.0604102,16.8110919 C95.8292719,16.8110919 95.612922,16.8352015 95.418481,16.8828851 C95.0480881,16.9728918 94.7020251,17.1403203 94.4041015,17.3736513 C94.3223314,17.4377001 94.243039,17.5047183 94.1663906,17.5745653 L94.1099753,17.3956179 C94.0689384,17.2511219 93.976726,17.1256008 93.8498078,17.0414733 C93.7194855,16.9612753 93.5677226,16.9208054 93.4138218,16.925211 L91.8582938,16.925211 L91.8582938,24.610844 L94.4254627,24.610844 L94.4254627,19.1749129 C94.5634884,19.0516856 94.7113731,18.9509607 94.8641873,18.8748812 C95.0274082,18.7955871 95.2021312,18.7548685 95.3834269,18.7548685 C95.6748145,18.7548685 95.8949984,18.8266618 96.0379536,18.9691769 C96.1814565,19.1127635 96.2543035,19.3801131 96.2543035,19.7642608 L96.2543035,24.610844 L98.8214723,24.610844 L98.8214723,19.7642608 C98.8214723,19.4331544 98.9096554,19.179199 99.0843785,19.0098955 C99.2612924,18.8384488 99.4787377,18.7548685 99.7504073,18.7548685 C100.344137,18.7548685 100.621284,19.0752595 100.621284,19.7642608 L100.621284,24.610844 L103.188453,24.610844 L103.188453,19.7642608 C103.188453,19.3088556 103.12656,18.8941689 103.004418,18.5319878 C102.880634,18.164449 102.696051,17.84888 102.455054,17.5954604 L102.455054,17.5954604 Z M87.7416219,24.610844 L90.3087908,24.610844 L90.3087908,16.925211 L87.7416219,16.925211 L87.7416219,24.610844 Z M87.5356787,15.0366188 C87.5356787,15.2321751 87.5762101,15.4186234 87.6550819,15.5906058 C87.7328583,15.7604452 87.8424026,15.9120684 87.9804283,16.0406534 C88.1168108,16.1681668 88.2751023,16.2710348 88.4531116,16.3471143 C88.8296205,16.4993085 89.2524152,16.4995011 89.6290688,16.3476501 C89.8088087,16.2749754 89.9738774,16.1715638 90.1165406,16.0422607 C90.2567572,15.9136757 90.3690401,15.7625883 90.4506505,15.5922132 C90.532261,15.4196949 90.5733687,15.2332467 90.5733687,15.0371545 C90.5746238,14.8422887 90.5327689,14.6494603 90.4506505,14.4719163 C90.2868341,14.1228949 89.9917933,13.849067 89.626878,13.7073713 C89.2599048,13.5627131 88.8162507,13.5589627 88.4547548,13.7084428 C88.2761977,13.7818434 88.1168108,13.8852472 87.9798806,14.0159753 C87.8424011,14.14664 87.73194,14.3019862 87.6545342,14.4735236 C87.5756624,14.6476491 87.5356787,14.8378478 87.5356787,15.0371545 L87.5356787,15.0366188 Z M80.6661605,24.3338505 C80.9969841,24.4570778 81.3420484,24.5551238 81.6936853,24.622631 C82.0382111,24.6896648 82.3885591,24.7239352 82.7398327,24.7249632 C83.3620438,24.7249632 83.9278398,24.6317391 84.4196933,24.4479697 C84.9137378,24.2631287 85.3360307,24.0059587 85.6750701,23.6812816 C86.0139201,23.3574 86.2794536,22.9675161 86.4544773,22.536875 C86.6313912,22.1034364 86.7212174,21.6314223 86.7212174,21.1358342 C86.7212174,20.6857867 86.6483705,20.2930667 86.5037722,19.9694611 C86.3691267,19.661023 86.1751917,19.3807418 85.932499,19.1438382 C85.6972317,18.918643 85.4267229,18.7316277 85.1311831,18.5898511 C84.8419863,18.4505507 84.5412874,18.3267876 84.2362067,18.2223123 C83.9434983,18.1218409 83.6483748,18.0282328 83.3510894,17.9415684 C83.0717517,17.8601312 82.8208954,17.7701217 82.605641,17.6736829 C82.4209479,17.5954843 82.2525478,17.4846983 82.1088579,17.3468627 C81.9971228,17.2343508 81.9434462,17.0955862 81.9434462,16.9225322 C81.9434462,16.6332159 82.0387496,16.4124783 82.2353815,16.2458536 C82.4352997,16.07655 82.7535257,15.9913624 83.1812959,15.9913624 C83.4337953,15.9913624 83.6610996,16.0235087 83.8549929,16.0872654 C84.0571019,16.1531652 84.2383976,16.2281732 84.3955936,16.3101461 C84.5599099,16.3958694 84.7066992,16.4730204 84.8359614,16.5421349 C85.16076,16.7141173 85.4702224,16.6889361 85.6663066,16.5501714 C85.7616101,16.4826643 85.8525318,16.3830109 85.9346899,16.2538902 L86.6100301,15.0285822 L86.5278719,14.9557174 C86.3211673,14.7719596 86.094308,14.6111425 85.8514363,14.4762025 C85.3198775,14.1812554 84.738446,13.9821763 84.1348783,13.8884618 C83.8098501,13.8366233 83.4810388,13.8108206 83.1517189,13.811304 C82.548678,13.811304 82.0042432,13.9023919 81.533203,14.0818751 C81.0616152,14.2618941 80.657397,14.5062056 80.3320506,14.8073088 C80.0126727,15.0996623 79.7586706,15.453563 79.5860545,15.8467043 C79.4191554,16.2246625 79.3326845,16.6319067 79.3319119,17.0436164 C79.3319119,17.5456337 79.4047588,17.9758577 79.5482617,18.3208941 C79.677855,18.6460786 79.871805,18.9430371 80.1189871,19.1947364 C80.352864,19.4267252 80.6217951,19.6163881 80.9197554,19.7578316 C81.2089521,19.8960605 81.509651,20.01393 81.8136363,20.1087615 C82.1148829,20.2019856 82.4084614,20.2871732 82.6943718,20.3637884 C82.9473371,20.4296986 83.1944353,20.5155234 83.4332476,20.6204227 C83.6369998,20.7115037 83.8024116,20.8266944 83.9256489,20.963316 C84.0395749,21.0908295 84.0954424,21.2547753 84.0954424,21.4642618 C84.0954424,21.8419802 83.9908277,22.1061152 83.7750256,22.2722042 C83.5521031,22.4436509 83.2289476,22.5309815 82.813775,22.5309815 C82.4988354,22.5309815 82.2244271,22.4886556 81.9971228,22.4045396 C81.7796748,22.3261759 81.5696459,22.2293687 81.3694344,22.1152233 C81.1810184,22.0064619 81.0134157,21.9068085 80.8644356,21.816799 C80.5566163,21.6303507 80.2290791,21.611063 79.9579571,21.7557211 C79.8432091,21.8151696 79.7464883,21.9031278 79.6775239,22.010748 L78.8811374,23.2339129 L78.9627479,23.3126712 C79.1801931,23.5243007 79.4392652,23.7193213 79.732296,23.8902322 C80.0214928,24.0600716 80.335337,24.2095516 80.6667082,24.3338505 L80.6661605,24.3338505 Z M99.1544868,6.93201301 C99.2350018,6.58965543 99.3730275,6.32123423 99.566373,6.13157135 C99.7854615,5.917263 100.086708,5.81278769 100.485449,5.81278769 C100.707824,5.81278769 100.89624,5.84814856 101.047411,5.91994186 C101.198034,5.99066361 101.321271,6.08442351 101.412193,6.19800693 C101.505306,6.31373344 101.573771,6.44714038 101.61485,6.59447737 C101.645522,6.70431039 101.66524,6.81735804 101.674004,6.93201301 L99.1544868,6.93201301 L99.1544868,6.93201301 Z M97.7123371,10.8715361 C98.0774684,11.2181154 98.5132781,11.485398 98.9912659,11.6559047 C99.4727127,11.8300302 99.9952387,11.9184324 100.544603,11.9184324 C100.810248,11.9184324 101.092324,11.8996804 101.382616,11.8637838 C101.684242,11.8253703 101.981383,11.7586265 102.269924,11.664477 C102.565694,11.568574 102.858177,11.4340955 103.13861,11.2653277 C103.435142,11.0828625 103.702409,10.8584394 103.93171,10.5993645 L104.011678,10.5104266 L103.279922,9.63336967 C103.159971,9.46835225 102.977032,9.38155737 102.749728,9.38155737 C102.590889,9.38155737 102.436432,9.41745402 102.291286,9.48978308 C102.16531,9.55139673 102.028379,9.62104694 101.877756,9.69766218 C101.736992,9.76945547 101.57158,9.83642683 101.388641,9.89589739 C101.212823,9.9526891 100.998664,9.98162073 100.749998,9.98162073 C100.288269,9.98162073 99.9229395,9.85678612 99.6342905,9.60015188 C99.3746706,9.36977041 99.2026862,8.99955275 99.1216235,8.49753545 L103.353317,8.49753545 C103.473815,8.49753545 103.573501,8.48306964 103.656207,8.45306647 C103.752708,8.41847378 103.834249,8.35269849 103.887345,8.26661821 C103.937188,8.18732413 103.970599,8.08767075 103.988126,7.96230037 C104.00537,7.82079173 104.013054,7.67832473 104.01113,7.53582676 C104.01113,6.98773318 103.922947,6.48893051 103.748224,6.0533488 C103.58514,5.63466852 103.333546,5.25437573 103.009896,4.9373381 C102.68717,4.62926604 102.301032,4.39200777 101.877208,4.24137176 C101.444509,4.08385513 100.960871,4.00402527 100.441631,4.00402527 C99.841329,4.00402527 99.2936079,4.1063575 98.8148997,4.30887889 C98.3521656,4.49976916 97.9335684,4.78003435 97.5841703,5.13289447 C97.2442407,5.48159371 96.9790532,5.89328446 96.8042155,6.34373661 C96.6228259,6.80881125 96.5310865,7.30273226 96.5335893,7.80049757 C96.5335893,8.47235422 96.6398991,9.07134604 96.8491286,9.58086413 C97.0589058,10.0925253 97.3497457,10.5264997 97.7123371,10.8715361 L97.7123371,10.8715361 Z M91.0734094,6.44981924 C91.2492279,6.30194648 91.4349054,6.18139804 91.6249646,6.09085276 C91.8251198,5.99573014 92.0449162,5.94679133 92.2674415,5.94780194 C92.5577336,5.94780194 92.769154,6.03084642 92.9137524,6.20068579 C93.0621848,6.37641863 93.1377703,6.63090979 93.1377703,6.95773001 L93.1377703,11.8043132 L95.7049392,11.8043132 L95.7049392,6.95719424 C95.7049392,6.54090028 95.6457853,6.14818024 95.528573,5.79028531 C95.4196514,5.44467473 95.2402176,5.1242572 95.0011175,4.84840014 C94.7638617,4.58162116 94.4692906,4.36940073 94.1384568,4.22690595 C93.7999651,4.07849742 93.4077968,4.0034895 92.9723585,4.0034895 C92.5084387,4.0034895 92.101482,4.07849742 91.763538,4.22637018 C91.5202057,4.3328895 91.2889087,4.46397111 91.0734094,4.6174829 L91.0734094,0.833333333 L88.5062406,0.833333333 L88.5062406,11.8043132 L91.0734094,11.8043132 L91.0734094,6.44981924 L91.0734094,6.44981924 Z M82.0349156,11.8380668 L84.7959777,11.8380668 L84.7959777,3.32252474 L87.7974894,3.32252474 L87.7974894,1.1226496 L79.0339516,1.1226496 L79.0339516,3.32252474 L82.0349156,3.32252474 L82.0349156,11.8380668 Z" id="Shape"></path>
                        <path d="M7.422873,32.3643104 L67.2851662,32.3643104 L67.2851662,7.63623477 L7.422873,7.63623477 L7.422873,32.3643104 Z M0.0220770046,40 L74.6865065,40 L74.6865065,0 L0.0220770046,0 L0.0220770046,40 Z" id="Shape"></path>
                    </g>
                </g>
            </g>
        </g>
    </g>
</svg>