<?xml version="1.0" encoding="UTF-8"?>
<svg width="161px" height="19px" viewBox="0 0 161 19" version="1.1" xmlns="http://www.w3.org/2000/svg" xmlns:xlink="http://www.w3.org/1999/xlink">
    <!-- Generator: Sketch 58 (84663) - https://sketch.com -->
    <title>logo-huffpo-white</title>
    <desc>Created with Sketch.</desc>
    <g id="Landing-Page" stroke="none" stroke-width="1" fill="none" fill-rule="evenodd">
        <g id="NoExam-Landing-Page---Top-5---Desktop" transform="translate(-197.000000, -526.000000)" fill="#FFFFFF" fill-rule="nonzero">
            <g id="Group-5" transform="translate(137.000000, 463.000000)">
                <g id="Group-4" transform="translate(60.000000, 35.000000)">
                    <g id="logo-huffpo-white" transform="translate(0.045455, 28.000000)">
                        <g id="Group">
                            <polygon id="Path" points="20.7893204 18.4255814 26.6621359 18.4255814 29.8106796 0.596511628 23.9378641 0.596511628 22.776699 6.98139535 17.6854369 6.98139535 18.8466019 0.596511628 12.9737864 0.596511628 9.82524272 18.4255814 15.6980583 18.4255814 16.8815534 11.7534884 21.9728155 11.7534884"></polygon>
                            <path d="M33.1378641,0.574418605 L31.3514563,10.494186 C31.1951456,11.2674419 31.1281553,12.0186047 31.1281553,12.7255814 C31.1281553,17.9837209 35.7728155,18.7790698 38.5640777,18.7790698 C44.4145631,18.7790698 46.9378641,16.8569767 47.8533981,11.6651163 L49.8184466,0.552325581 L43.9456311,0.552325581 L42.2708738,9.8755814 C41.7349515,12.7918605 41.3553398,14.3162791 39.1669903,14.3162791 C37.7378641,14.3162791 37.0456311,13.5651163 37.0456311,12.0186047 C37.0456311,11.422093 37.1349515,10.6930233 37.3135922,9.7872093 L39.0106796,0.552325581 L33.1378641,0.552325581 L33.1378641,0.574418605 Z" id="Path"></path>
                            <path d="M80.8572816,18.4255814 L86.7300971,18.4255814 L87.5563107,13.8302326 L90.3252427,13.8302326 C95.438835,13.8302326 98.2747573,11.0906977 98.2747573,6.09767442 C98.2747573,2.58488372 95.8184466,0.574418605 91.5087379,0.574418605 L84.0058252,0.574418605 L80.8572816,18.4255814 Z M90.0126214,9.43372093 L88.315534,9.43372093 L89.0970874,5.23604651 L90.6825243,5.23604651 C91.9776699,5.23604651 92.6699029,5.87674419 92.6699029,7.04767442 C92.6699029,8.52790698 91.6650485,9.43372093 90.0126214,9.43372093 Z" id="Shape"></path>
                            <path d="M109.685437,0.198837209 C103.299029,0.198837209 99.4805825,4.28604651 99.4805825,11.1569767 C99.4805825,15.9290698 102.517476,18.8011628 107.608738,18.8011628 C113.995146,18.8011628 117.813715,14.7139535 117.813715,7.84302326 C117.835922,3.04883721 114.799029,0.198837209 109.685437,0.198837209 Z M107.966019,14.1837209 C106.447573,14.1837209 105.554369,13.1011628 105.554369,11.2895349 C105.554369,10.6046512 105.621359,10.0081395 105.75534,9.32325581 C106.201942,6.98139535 106.961165,4.83837209 109.350485,4.83837209 C110.868932,4.83837209 111.762136,5.92093023 111.762136,7.73255814 C111.762136,8.41744186 111.695146,9.01395349 111.561165,9.69883721 C111.114563,12.0186047 110.35534,14.1837209 107.966019,14.1837209 Z" id="Shape"></path>
                            <polygon id="Path" points="138.245631 18.4255814 144.118447 18.4255814 146.440777 5.36860465 150.862136 5.36860465 151.71068 0.596511628 136.682524 0.596511628 135.833981 5.36860465 140.523301 5.36860465"></polygon>
                            <path d="M128.509709,7.18023256 C126.656311,6.60581395 125.897087,6.3627907 125.897087,5.50116279 C125.897087,4.92674419 126.276699,4.24186047 127.393204,4.24186047 C128.219417,4.24186047 128.91165,4.70581395 129.179612,5.39069767 L134.360194,3.99883721 C133.757282,1.48023256 131.568932,0.198837209 127.795146,0.198837209 C120.694175,0.198837209 120.135922,4.90465116 120.135922,6.34069767 C120.135922,9.25697674 121.699029,11.0465116 125.093204,11.9744186 C125.986408,12.2174419 127.013592,12.4825581 127.013592,13.4546512 C127.013592,14.227907 126.43301,14.7139535 125.428155,14.7139535 C124.512621,14.7139535 123.530097,14.1837209 123.195146,13.255814 L118.081553,14.6255814 C118.639806,17.2767442 121.163107,18.7790698 125.115534,18.7790698 C128.130097,18.7790698 133.176699,17.9837209 133.176699,12.5930233 C133.199029,9.89767442 131.658252,8.13023256 128.509709,7.18023256 Z" id="Path"></path>
                            <polygon id="Path" points="6.54271845 18.4255814 9.71359223 0.596511628 0 0.596511628 0 18.4255814"></polygon>
                            <polygon id="Path" points="154.233981 0.596511628 151.085437 18.4255814 160.799029 18.4255814 160.799029 0.596511628"></polygon>
                            <polygon id="Path" points="53.1679612 0.574418605 50.0194175 18.4255814 55.892233 18.4255814 56.8300971 13.1674419 61.7650485 13.1674419 62.568932 8.68255814 57.6339806 8.68255814 58.192233 5.36860465 65.092233 5.36860465 65.9407767 0.574418605"></polygon>
                            <polygon id="Path" points="68.5757282 0.574418605 65.4271845 18.4255814 71.3 18.4255814 72.215534 13.1674419 77.1728155 13.1674419 77.976699 8.68255814 73.0417476 8.68255814 73.6 5.36860465 80.5 5.36860465 81.3485437 0.574418605"></polygon>
                        </g>
                    </g>
                </g>
            </g>
        </g>
    </g>
</svg>