<svg width="125" height="18" viewBox="0 0 125 18" fill="none" xmlns="http://www.w3.org/2000/svg">
	<path d="M17.9529 6.90396C17.8344 6.53949 17.5111 6.28144 17.1302 6.24697L11.9341 5.77524L9.88059 0.967539C9.72898 0.614323 9.384 0.386353 9.00002 0.386353C8.61605 0.386353 8.27093 0.614323 8.12028 0.967539L6.06676 5.77524L0.869868 6.24697C0.488911 6.28213 0.166319 6.54017 0.0471156 6.90396C-0.0714014 7.26844 0.0380517 7.66821 0.326173 7.9209L4.25399 11.365L3.09587 16.4658C3.01114 16.8409 3.15671 17.2287 3.4679 17.4536C3.63517 17.5752 3.83169 17.6359 4.0289 17.6359C4.19837 17.6359 4.36797 17.5908 4.51945 17.5002L9.00002 14.8211L13.4798 17.5002C13.8084 17.6966 14.2216 17.6786 14.5321 17.4536C14.8433 17.2287 14.9889 16.8409 14.9042 16.4658L13.7461 11.365L17.6739 7.9209C17.9619 7.66821 18.0714 7.26927 17.9529 6.90396Z" fill="#12A3E1"/>
	<path d="M44.5929 6.90396C44.4744 6.53949 44.1512 6.28144 43.7702 6.24697L38.5741 5.77524L36.5206 0.967539C36.369 0.614323 36.024 0.386353 35.64 0.386353C35.2561 0.386353 34.9109 0.614323 34.7603 0.967539L32.7068 5.77524L27.5099 6.24697C27.1289 6.28213 26.8063 6.54017 26.6871 6.90396C26.5686 7.26844 26.6781 7.66821 26.9662 7.9209L30.894 11.365L29.7359 16.4658C29.6512 16.8409 29.7967 17.2287 30.1079 17.4536C30.2752 17.5752 30.4717 17.6359 30.6689 17.6359C30.8384 17.6359 31.008 17.5908 31.1595 17.5002L35.64 14.8211L40.1198 17.5002C40.4484 17.6966 40.8617 17.6786 41.1722 17.4536C41.4834 17.2287 41.6289 16.8409 41.5442 16.4658L40.3861 11.365L44.3139 7.9209C44.6019 7.66821 44.7115 7.26927 44.5929 6.90396Z" fill="#12A3E1"/>
	<path d="M71.233 6.90396C71.1144 6.53949 70.7912 6.28144 70.4102 6.24697L65.2141 5.77524L63.1606 0.967539C63.009 0.614323 62.664 0.386353 62.2801 0.386353C61.8961 0.386353 61.551 0.614323 61.4003 0.967539L59.3468 5.77524L54.1499 6.24697C53.7689 6.28213 53.4463 6.54017 53.3271 6.90396C53.2086 7.26844 53.3181 7.66821 53.6062 7.9209L57.534 11.365L56.3759 16.4658C56.2912 16.8409 56.4367 17.2287 56.7479 17.4536C56.9152 17.5752 57.1117 17.6359 57.3089 17.6359C57.4784 17.6359 57.648 17.5908 57.7995 17.5002L62.2801 14.8211L66.7598 17.5002C67.0884 17.6966 67.5017 17.6786 67.8122 17.4536C68.1234 17.2287 68.2689 16.8409 68.1842 16.4658L67.0261 11.365L70.9539 7.9209C71.2419 7.66821 71.3515 7.26927 71.233 6.90396Z" fill="#DBD9D9"/>
	<path d="M97.873 6.90396C97.7545 6.53949 97.4312 6.28144 97.0502 6.24697L91.8542 5.77524L89.8006 0.967539C89.649 0.614323 89.304 0.386353 88.9201 0.386353C88.5361 0.386353 88.191 0.614323 88.0403 0.967539L85.9868 5.77524L80.7899 6.24697C80.409 6.28213 80.0864 6.54017 79.9672 6.90396C79.8486 7.26844 79.9581 7.66821 80.2462 7.9209L84.174 11.365L83.0159 16.4658C82.9312 16.8409 83.0768 17.2287 83.3879 17.4536C83.5552 17.5752 83.7517 17.6359 83.9489 17.6359C84.1184 17.6359 84.288 17.5908 84.4395 17.5002L88.9201 14.8211L93.3998 17.5002C93.7285 17.6966 94.1417 17.6786 94.4522 17.4536C94.7634 17.2287 94.909 16.8409 94.8242 16.4658L93.6661 11.365L97.5939 7.9209C97.8819 7.66821 97.9915 7.26927 97.873 6.90396Z" fill="#DBD9D9"/>
	<path d="M124.513 6.90396C124.394 6.53949 124.071 6.28144 123.69 6.24697L118.494 5.77524L116.441 0.967539C116.289 0.614323 115.944 0.386353 115.56 0.386353C115.176 0.386353 114.831 0.614323 114.68 0.967539L112.627 5.77524L107.43 6.24697C107.049 6.28213 106.726 6.54017 106.607 6.90396C106.489 7.26844 106.598 7.66821 106.886 7.9209L110.814 11.365L109.656 16.4658C109.571 16.8409 109.717 17.2287 110.028 17.4536C110.195 17.5752 110.392 17.6359 110.589 17.6359C110.758 17.6359 110.928 17.5908 111.08 17.5002L115.56 14.8211L120.04 17.5002C120.368 17.6966 120.782 17.6786 121.092 17.4536C121.403 17.2287 121.549 16.8409 121.464 16.4658L120.306 11.365L124.234 7.9209C124.522 7.66821 124.632 7.26927 124.513 6.90396Z" fill="#DBD9D9"/>
</svg>
