<svg width="19" height="18" viewBox="0 0 19 18" fill="none" xmlns="http://www.w3.org/2000/svg">
	<path d="M18.873 6.90396C18.7545 6.53949 18.4312 6.28144 18.0502 6.24697L12.8542 5.77524L10.8006 0.967539C10.649 0.614323 10.304 0.386353 9.92007 0.386353C9.53609 0.386353 9.19098 0.614323 9.04032 0.967539L6.98681 5.77524L1.78991 6.24697C1.40895 6.28213 1.08636 6.54017 0.96716 6.90396C0.848643 7.26844 0.958096 7.66821 1.24622 7.9209L5.17403 11.365L4.01592 16.4658C3.93118 16.8409 4.07675 17.2287 4.38795 17.4536C4.55522 17.5752 4.75174 17.6359 4.94895 17.6359C5.11841 17.6359 5.28802 17.5908 5.43949 17.5002L9.92007 14.8211L14.3998 17.5002C14.7285 17.6966 15.1417 17.6786 15.4522 17.4536C15.7634 17.2287 15.909 16.8409 15.8242 16.4658L14.6661 11.365L18.5939 7.9209C18.8819 7.66821 18.9915 7.26927 18.873 6.90396Z" fill="#12A3E1"/>
</svg>
