<svg width="19" height="18" viewBox="0 0 19 18" fill="none" xmlns="http://www.w3.org/2000/svg">
	<path d="M18.513 6.90396C18.3945 6.53949 18.0712 6.28144 17.6902 6.24697L12.4942 5.77524L10.4407 0.967539C10.289 0.614323 9.94406 0.386353 9.56008 0.386353C9.1761 0.386353 8.83099 0.614323 8.68034 0.967539L6.62682 5.77524L1.42993 6.24697C1.04897 6.28213 0.726378 6.54017 0.607174 6.90396C0.488657 7.26844 0.59811 7.66821 0.886232 7.9209L4.81405 11.365L3.65593 16.4658C3.5712 16.8409 3.71677 17.2287 4.02796 17.4536C4.19523 17.5752 4.39175 17.6359 4.58896 17.6359C4.75843 17.6359 4.92803 17.5908 5.07951 17.5002L9.56008 14.8211L14.0398 17.5002C14.3685 17.6966 14.7817 17.6786 15.0922 17.4536C15.4034 17.2287 15.549 16.8409 15.4642 16.4658L14.3061 11.365L18.2339 7.9209C18.5219 7.66821 18.6315 7.26927 18.513 6.90396Z" fill="#DBD9D9"/>
</svg>
