<svg width="226" height="226" viewBox="0 0 226 226" fill="none" xmlns="http://www.w3.org/2000/svg">
<path opacity="0.2" fill-rule="evenodd" clip-rule="evenodd" d="M113 226C50.5918 226 0 175.408 0 113C0 50.5918 50.5918 0 113 0C175.408 0 226 50.5918 226 113C226 175.408 175.408 226 113 226ZM113 216C169.885 216 216 169.885 216 113C216 56.1147 169.885 10 113 10C56.1147 10 10 56.1147 10 113C10 169.885 56.1147 216 113 216Z" fill="#339E75"/>
<path fill-rule="evenodd" clip-rule="evenodd" d="M113 0C110.239 0 108 2.23857 108 5C108 7.76143 110.239 10 113 10C169.885 10 216 56.1147 216 113C216 169.885 169.885 216 113 216C59.1971 216 14.5664 174.587 10.3279 121.283C10.109 118.53 7.70005 116.476 4.94731 116.695C2.19458 116.914 0.140486 119.323 0.359373 122.075C5.01053 180.568 53.9716 226 113 226C175.408 226 226 175.408 226 113C226 50.5918 175.408 0 113 0Z" fill="#339E75"/>
<path opacity="0.2" fill-rule="evenodd" clip-rule="evenodd" d="M113 210C59.4284 210 16 166.572 16 113C16 59.4284 59.4284 16 113 16C166.572 16 210 59.4284 210 113C210 166.572 166.572 210 113 210ZM113 200C161.049 200 200 161.049 200 113C200 64.9512 161.049 26 113 26C64.9512 26 26 64.9512 26 113C26 161.049 64.9512 200 113 200Z" fill="#F87146"/>
<path fill-rule="evenodd" clip-rule="evenodd" d="M113 16C110.239 16 108 18.2386 108 21C108 23.7614 110.239 26 113 26C161.049 26 200 64.9512 200 113C200 161.049 161.049 200 113 200C64.9512 200 26 161.049 26 113C26 94.5741 31.7359 77.0243 42.2407 62.3705C43.8495 60.1262 43.3344 57.0026 41.0901 55.3937C38.8458 53.7848 35.7221 54.3 34.1132 56.5443C22.4006 72.883 16 92.4666 16 113C16 166.572 59.4284 210 113 210C166.572 210 210 166.572 210 113C210 59.4284 166.572 16 113 16Z" fill="#F87146"/>
<path opacity="0.2" fill-rule="evenodd" clip-rule="evenodd" d="M113 195C67.7127 195 31 158.287 31 113C31 67.7127 67.7127 31 113 31C158.287 31 195 67.7127 195 113C195 158.287 158.287 195 113 195ZM113 185C152.765 185 185 152.765 185 113C185 73.2355 152.765 41 113 41C73.2355 41 41 73.2355 41 113C41 152.765 73.2355 185 113 185Z" fill="#F8A846"/>
<path fill-rule="evenodd" clip-rule="evenodd" d="M113 31C110.239 31 108 33.2386 108 36C108 38.7614 110.239 41 113 41C152.765 41 185 73.2355 185 113C185 152.765 152.765 185 113 185C73.2355 185 41 152.765 41 113C41 87.9649 53.8742 65.1447 74.6684 52.0399C77.0046 50.5676 77.7049 47.4802 76.2326 45.144C74.7603 42.8078 71.6729 42.1075 69.3367 43.5798C45.6663 58.4972 31 84.4941 31 113C31 158.287 67.7127 195 113 195C158.287 195 195 158.287 195 113C195 67.7126 158.287 31 113 31Z" fill="#F8A846"/>
<path d="M66.0073 97.668C66.1273 95.268 66.9673 93.42 68.5273 92.124C70.1113 90.804 72.1873 90.144 74.7553 90.144C76.5073 90.144 78.0073 90.456 79.2553 91.08C80.5033 91.68 81.4393 92.508 82.0633 93.564C82.7113 94.596 83.0353 95.772 83.0353 97.092C83.0353 98.604 82.6393 99.888 81.8473 100.944C81.0793 101.976 80.1553 102.672 79.0753 103.032V103.176C80.4673 103.608 81.5473 104.376 82.3153 105.48C83.1073 106.584 83.5033 108 83.5033 109.728C83.5033 111.168 83.1673 112.452 82.4953 113.58C81.8473 114.708 80.8753 115.596 79.5793 116.244C78.3073 116.868 76.7713 117.18 74.9713 117.18C72.2593 117.18 70.0513 116.496 68.3473 115.128C66.6433 113.76 65.7433 111.744 65.6473 109.08H70.5433C70.5913 110.256 70.9873 111.204 71.7313 111.924C72.4993 112.62 73.5433 112.968 74.8633 112.968C76.0873 112.968 77.0233 112.632 77.6713 111.96C78.3433 111.264 78.6793 110.376 78.6793 109.296C78.6793 107.856 78.2233 106.824 77.3113 106.2C76.3993 105.576 74.9833 105.264 73.0633 105.264H72.0193V101.124H73.0633C76.4713 101.124 78.1753 99.984 78.1753 97.704C78.1753 96.672 77.8633 95.868 77.2393 95.292C76.6393 94.716 75.7633 94.428 74.6113 94.428C73.4833 94.428 72.6073 94.74 71.9833 95.364C71.3833 95.964 71.0353 96.732 70.9393 97.668H66.0073ZM93.5701 111.708L89.3581 121.824H86.1181L88.4581 111.708H93.5701ZM102.459 109.62C102.651 110.676 103.083 111.492 103.755 112.068C104.451 112.62 105.375 112.896 106.527 112.896C108.015 112.896 109.095 112.284 109.767 111.06C110.439 109.812 110.775 107.724 110.775 104.796C110.223 105.564 109.443 106.164 108.435 106.596C107.451 107.028 106.383 107.244 105.231 107.244C103.695 107.244 102.303 106.932 101.055 106.308C99.8308 105.66 98.8588 104.712 98.1388 103.464C97.4188 102.192 97.0588 100.656 97.0588 98.856C97.0588 96.192 97.8508 94.08 99.4348 92.52C101.019 90.936 103.179 90.144 105.915 90.144C109.323 90.144 111.723 91.236 113.115 93.42C114.531 95.604 115.239 98.892 115.239 103.284C115.239 106.404 114.963 108.96 114.411 110.952C113.883 112.944 112.959 114.456 111.639 115.488C110.343 116.52 108.567 117.036 106.311 117.036C104.535 117.036 103.023 116.7 101.775 116.028C100.527 115.332 99.5668 114.432 98.8948 113.328C98.2468 112.2 97.8748 110.964 97.7788 109.62H102.459ZM106.275 103.14C107.523 103.14 108.507 102.756 109.227 101.988C109.947 101.22 110.307 100.188 110.307 98.892C110.307 97.476 109.923 96.384 109.155 95.616C108.411 94.824 107.391 94.428 106.095 94.428C104.799 94.428 103.767 94.836 102.999 95.652C102.255 96.444 101.883 97.5 101.883 98.82C101.883 100.092 102.243 101.136 102.963 101.952C103.707 102.744 104.811 103.14 106.275 103.14ZM136.802 95.112H125.138V101.268C125.642 100.644 126.362 100.14 127.298 99.756C128.234 99.348 129.23 99.144 130.286 99.144C132.206 99.144 133.778 99.564 135.002 100.404C136.226 101.244 137.114 102.324 137.666 103.644C138.218 104.94 138.494 106.332 138.494 107.82C138.494 110.58 137.702 112.8 136.118 114.48C134.558 116.16 132.326 117 129.422 117C126.686 117 124.502 116.316 122.87 114.948C121.238 113.58 120.314 111.792 120.098 109.584H124.994C125.21 110.544 125.69 111.312 126.434 111.888C127.202 112.464 128.174 112.752 129.35 112.752C130.766 112.752 131.834 112.308 132.554 111.42C133.274 110.532 133.634 109.356 133.634 107.892C133.634 106.404 133.262 105.276 132.518 104.508C131.798 103.716 130.73 103.32 129.314 103.32C128.306 103.32 127.466 103.572 126.794 104.076C126.122 104.58 125.642 105.252 125.354 106.092H120.53V90.684H136.802V95.112ZM142.402 97.668C142.522 95.268 143.362 93.42 144.922 92.124C146.506 90.804 148.582 90.144 151.15 90.144C152.902 90.144 154.402 90.456 155.65 91.08C156.898 91.68 157.834 92.508 158.458 93.564C159.106 94.596 159.43 95.772 159.43 97.092C159.43 98.604 159.034 99.888 158.242 100.944C157.474 101.976 156.55 102.672 155.47 103.032V103.176C156.862 103.608 157.942 104.376 158.71 105.48C159.502 106.584 159.898 108 159.898 109.728C159.898 111.168 159.562 112.452 158.89 113.58C158.242 114.708 157.27 115.596 155.974 116.244C154.702 116.868 153.166 117.18 151.366 117.18C148.654 117.18 146.446 116.496 144.742 115.128C143.038 113.76 142.138 111.744 142.042 109.08H146.938C146.986 110.256 147.382 111.204 148.126 111.924C148.894 112.62 149.938 112.968 151.258 112.968C152.482 112.968 153.418 112.632 154.066 111.96C154.738 111.264 155.074 110.376 155.074 109.296C155.074 107.856 154.618 106.824 153.706 106.2C152.794 105.576 151.378 105.264 149.458 105.264H148.414V101.124H149.458C152.866 101.124 154.57 99.984 154.57 97.704C154.57 96.672 154.258 95.868 153.634 95.292C153.034 94.716 152.158 94.428 151.006 94.428C149.878 94.428 149.002 94.74 148.378 95.364C147.778 95.964 147.43 96.732 147.334 97.668H142.402Z" fill="#282B29"/>
<path d="M84.5443 143.848C85.3963 143.848 86.0623 144.046 86.5423 144.442C87.0223 144.826 87.2623 145.342 87.2623 145.99C87.2623 146.578 87.0643 147.088 86.6683 147.52C86.2843 147.952 85.7623 148.282 85.1023 148.51C84.4543 148.75 83.7223 148.87 82.9063 148.87C81.4903 148.87 80.4283 148.63 79.7203 148.15C79.0243 147.67 78.6763 147.094 78.6763 146.422C78.6763 146.014 78.7903 145.642 79.0183 145.306C79.2463 144.97 79.6243 144.73 80.1523 144.586C79.8643 144.454 79.6303 144.274 79.4503 144.046C79.2703 143.806 79.1803 143.488 79.1803 143.092C79.1803 142.72 79.2883 142.384 79.5043 142.084C79.7203 141.772 80.0443 141.532 80.4763 141.364C80.0203 141.1 79.6723 140.752 79.4323 140.32C79.1923 139.888 79.0723 139.402 79.0723 138.862C79.0723 138.262 79.2283 137.734 79.5403 137.278C79.8643 136.822 80.3023 136.468 80.8543 136.216C81.4063 135.952 82.0423 135.82 82.7623 135.82C83.5183 135.82 84.1963 135.97 84.7963 136.27C84.8803 135.67 85.1443 135.202 85.5883 134.866C86.0443 134.518 86.5783 134.344 87.1903 134.344H87.2803L87.6043 135.622H87.4783C86.9263 135.622 86.4943 135.724 86.1823 135.928C85.8703 136.132 85.6963 136.45 85.6603 136.882C86.1883 137.434 86.4523 138.094 86.4523 138.862C86.4523 139.45 86.2963 139.978 85.9843 140.446C85.6723 140.902 85.2343 141.262 84.6703 141.526C84.1183 141.778 83.4823 141.904 82.7623 141.904C82.3183 141.904 81.9043 141.862 81.5203 141.778C81.1603 141.886 80.9023 142.036 80.7463 142.228C80.5903 142.42 80.5123 142.63 80.5123 142.858C80.5123 143.518 80.9803 143.848 81.9163 143.848H84.5443ZM82.7623 136.99C82.1383 136.99 81.6163 137.164 81.1963 137.512C80.7763 137.848 80.5663 138.298 80.5663 138.862C80.5663 139.414 80.7763 139.864 81.1963 140.212C81.6163 140.56 82.1383 140.734 82.7623 140.734C83.3863 140.734 83.9083 140.56 84.3283 140.212C84.7483 139.864 84.9583 139.414 84.9583 138.862C84.9583 138.298 84.7483 137.848 84.3283 137.512C83.9083 137.164 83.3863 136.99 82.7623 136.99ZM82.8883 147.664C83.9323 147.664 84.7003 147.508 85.1923 147.196C85.6843 146.896 85.9303 146.548 85.9303 146.152C85.9303 145.828 85.7983 145.57 85.5343 145.378C85.2823 145.186 84.8203 145.09 84.1483 145.09H81.3763C80.9923 145.09 80.6683 145.186 80.4043 145.378C80.1403 145.582 80.0083 145.858 80.0083 146.206C80.0083 146.65 80.2603 147.004 80.7643 147.268C81.2803 147.532 81.9883 147.664 82.8883 147.664ZM92.5404 145.18C91.9644 145.18 91.4184 145.072 90.9024 144.856C90.3984 144.64 89.9844 144.292 89.6604 143.812C89.3484 143.32 89.1924 142.684 89.1924 141.904V136H90.6324V141.526C90.6324 142.438 90.8304 143.068 91.2264 143.416C91.6224 143.752 92.1804 143.92 92.9004 143.92C93.3564 143.92 93.7884 143.818 94.1964 143.614C94.6044 143.398 94.9404 143.068 95.2044 142.624C95.4684 142.18 95.6004 141.604 95.6004 140.896V136H97.0404V145H95.7804L95.6904 143.632C95.3784 144.172 94.9524 144.568 94.4124 144.82C93.8844 145.06 93.2604 145.18 92.5404 145.18ZM104.154 145.18C103.302 145.18 102.54 144.994 101.868 144.622C101.208 144.25 100.692 143.716 100.32 143.02C99.9478 142.312 99.7618 141.472 99.7618 140.5C99.7618 139.528 99.9478 138.694 100.32 137.998C100.692 137.29 101.202 136.75 101.85 136.378C102.498 136.006 103.236 135.82 104.064 135.82C104.904 135.82 105.618 136 106.206 136.36C106.806 136.72 107.262 137.212 107.574 137.836C107.886 138.448 108.042 139.138 108.042 139.906C108.042 140.11 108.036 140.296 108.024 140.464C108.012 140.632 107.994 140.782 107.97 140.914H101.184C101.256 141.862 101.55 142.6 102.066 143.128C102.582 143.656 103.266 143.92 104.118 143.92C104.778 143.92 105.312 143.794 105.72 143.542C106.14 143.29 106.476 142.948 106.728 142.516L107.862 143.182C107.526 143.794 107.04 144.28 106.404 144.64C105.78 145 105.03 145.18 104.154 145.18ZM104.028 137.08C103.272 137.08 102.648 137.308 102.156 137.764C101.676 138.208 101.37 138.832 101.238 139.636H106.602C106.566 138.82 106.314 138.19 105.846 137.746C105.378 137.302 104.772 137.08 104.028 137.08ZM114.02 145.18C113.144 145.18 112.334 144.994 111.59 144.622C110.858 144.25 110.294 143.722 109.898 143.038L111.122 142.156C111.386 142.708 111.77 143.14 112.274 143.452C112.79 143.764 113.408 143.92 114.128 143.92C114.764 143.92 115.262 143.8 115.622 143.56C115.982 143.308 116.162 142.984 116.162 142.588C116.162 142.336 116.078 142.108 115.91 141.904C115.754 141.688 115.448 141.532 114.992 141.436L112.832 140.986C111.956 140.806 111.326 140.506 110.942 140.086C110.57 139.666 110.384 139.144 110.384 138.52C110.384 138.028 110.522 137.578 110.798 137.17C111.086 136.762 111.488 136.438 112.004 136.198C112.532 135.946 113.15 135.82 113.858 135.82C114.746 135.82 115.496 135.994 116.108 136.342C116.72 136.69 117.176 137.182 117.476 137.818L116.27 138.61C116.066 138.082 115.736 137.698 115.28 137.458C114.824 137.206 114.35 137.08 113.858 137.08C113.21 137.08 112.706 137.212 112.346 137.476C111.986 137.74 111.806 138.07 111.806 138.466C111.806 138.73 111.896 138.976 112.076 139.204C112.256 139.42 112.592 139.576 113.084 139.672L115.334 140.14C116.174 140.308 116.762 140.584 117.098 140.968C117.434 141.352 117.602 141.82 117.602 142.372C117.602 143.224 117.272 143.908 116.612 144.424C115.952 144.928 115.088 145.18 114.02 145.18ZM123.513 145.18C122.637 145.18 121.827 144.994 121.083 144.622C120.351 144.25 119.787 143.722 119.391 143.038L120.615 142.156C120.879 142.708 121.263 143.14 121.767 143.452C122.283 143.764 122.901 143.92 123.621 143.92C124.257 143.92 124.755 143.8 125.115 143.56C125.475 143.308 125.655 142.984 125.655 142.588C125.655 142.336 125.571 142.108 125.403 141.904C125.247 141.688 124.941 141.532 124.485 141.436L122.325 140.986C121.449 140.806 120.819 140.506 120.435 140.086C120.063 139.666 119.877 139.144 119.877 138.52C119.877 138.028 120.015 137.578 120.291 137.17C120.579 136.762 120.981 136.438 121.497 136.198C122.025 135.946 122.643 135.82 123.351 135.82C124.239 135.82 124.989 135.994 125.601 136.342C126.213 136.69 126.669 137.182 126.969 137.818L125.763 138.61C125.559 138.082 125.229 137.698 124.773 137.458C124.317 137.206 123.843 137.08 123.351 137.08C122.703 137.08 122.199 137.212 121.839 137.476C121.479 137.74 121.299 138.07 121.299 138.466C121.299 138.73 121.389 138.976 121.569 139.204C121.749 139.42 122.085 139.576 122.577 139.672L124.827 140.14C125.667 140.308 126.255 140.584 126.591 140.968C126.927 141.352 127.095 141.82 127.095 142.372C127.095 143.224 126.765 143.908 126.105 144.424C125.445 144.928 124.581 145.18 123.513 145.18ZM133.527 145.18C132.675 145.18 131.913 144.994 131.241 144.622C130.581 144.25 130.065 143.716 129.693 143.02C129.321 142.312 129.135 141.472 129.135 140.5C129.135 139.528 129.321 138.694 129.693 137.998C130.065 137.29 130.575 136.75 131.223 136.378C131.871 136.006 132.609 135.82 133.437 135.82C134.277 135.82 134.991 136 135.579 136.36C136.179 136.72 136.635 137.212 136.947 137.836C137.259 138.448 137.415 139.138 137.415 139.906C137.415 140.11 137.409 140.296 137.397 140.464C137.385 140.632 137.367 140.782 137.343 140.914H130.557C130.629 141.862 130.923 142.6 131.439 143.128C131.955 143.656 132.639 143.92 133.491 143.92C134.151 143.92 134.685 143.794 135.093 143.542C135.513 143.29 135.849 142.948 136.101 142.516L137.235 143.182C136.899 143.794 136.413 144.28 135.777 144.64C135.153 145 134.403 145.18 133.527 145.18ZM133.401 137.08C132.645 137.08 132.021 137.308 131.529 137.764C131.049 138.208 130.743 138.832 130.611 139.636H135.975C135.939 138.82 135.687 138.19 135.219 137.746C134.751 137.302 134.145 137.08 133.401 137.08ZM143.393 145.18C142.517 145.18 141.707 144.994 140.963 144.622C140.231 144.25 139.667 143.722 139.271 143.038L140.495 142.156C140.759 142.708 141.143 143.14 141.647 143.452C142.163 143.764 142.781 143.92 143.501 143.92C144.137 143.92 144.635 143.8 144.995 143.56C145.355 143.308 145.535 142.984 145.535 142.588C145.535 142.336 145.451 142.108 145.283 141.904C145.127 141.688 144.821 141.532 144.365 141.436L142.205 140.986C141.329 140.806 140.699 140.506 140.315 140.086C139.943 139.666 139.757 139.144 139.757 138.52C139.757 138.028 139.895 137.578 140.171 137.17C140.459 136.762 140.861 136.438 141.377 136.198C141.905 135.946 142.523 135.82 143.231 135.82C144.119 135.82 144.869 135.994 145.481 136.342C146.093 136.69 146.549 137.182 146.849 137.818L145.643 138.61C145.439 138.082 145.109 137.698 144.653 137.458C144.197 137.206 143.723 137.08 143.231 137.08C142.583 137.08 142.079 137.212 141.719 137.476C141.359 137.74 141.179 138.07 141.179 138.466C141.179 138.73 141.269 138.976 141.449 139.204C141.629 139.42 141.965 139.576 142.457 139.672L144.707 140.14C145.547 140.308 146.135 140.584 146.471 140.968C146.807 141.352 146.975 141.82 146.975 142.372C146.975 143.224 146.645 143.908 145.985 144.424C145.325 144.928 144.461 145.18 143.393 145.18Z" fill="#757575"/>
</svg>
