<svg width="96" height="16" viewBox="0 0 96 16" fill="none" xmlns="http://www.w3.org/2000/svg">
<path d="M7.52447 1.46352C7.67415 1.00287 8.32585 1.00287 8.47553 1.46353L9.68386 5.18237C9.75079 5.38838 9.94277 5.52786 10.1594 5.52786H14.0696C14.554 5.52786 14.7554 6.14767 14.3635 6.43237L11.2001 8.73075C11.0248 8.85807 10.9515 9.08375 11.0184 9.28976L12.2268 13.0086C12.3764 13.4693 11.8492 13.8523 11.4573 13.5676L8.29389 11.2693C8.11865 11.1419 7.88135 11.1419 7.70611 11.2693L4.54267 13.5676C4.15081 13.8523 3.62357 13.4693 3.77325 13.0086L4.98157 9.28976C5.04851 9.08375 4.97518 8.85807 4.79994 8.73075L1.6365 6.43237C1.24464 6.14767 1.44603 5.52786 1.93039 5.52786H5.84062C6.05723 5.52786 6.24921 5.38838 6.31614 5.18237L7.52447 1.46352Z" fill="#F8A846"/>
<path d="M27.5245 1.46352C27.6741 1.00287 28.3259 1.00287 28.4755 1.46353L29.6839 5.18237C29.7508 5.38838 29.9428 5.52786 30.1594 5.52786H34.0696C34.554 5.52786 34.7554 6.14767 34.3635 6.43237L31.2001 8.73075C31.0248 8.85807 30.9515 9.08375 31.0184 9.28976L32.2268 13.0086C32.3764 13.4693 31.8492 13.8523 31.4573 13.5676L28.2939 11.2693C28.1186 11.1419 27.8814 11.1419 27.7061 11.2693L24.5427 13.5676C24.1508 13.8523 23.6236 13.4693 23.7732 13.0086L24.9816 9.28976C25.0485 9.08375 24.9752 8.85807 24.7999 8.73075L21.6365 6.43237C21.2446 6.14767 21.446 5.52786 21.9304 5.52786H25.8406C26.0572 5.52786 26.2492 5.38838 26.3161 5.18237L27.5245 1.46352Z" fill="#E4E4E4"/>
<path d="M47.5245 1.46352C47.6741 1.00287 48.3259 1.00287 48.4755 1.46353L49.6839 5.18237C49.7508 5.38838 49.9428 5.52786 50.1594 5.52786H54.0696C54.554 5.52786 54.7554 6.14767 54.3635 6.43237L51.2001 8.73075C51.0248 8.85807 50.9515 9.08375 51.0184 9.28976L52.2268 13.0086C52.3764 13.4693 51.8492 13.8523 51.4573 13.5676L48.2939 11.2693C48.1186 11.1419 47.8814 11.1419 47.7061 11.2693L44.5427 13.5676C44.1508 13.8523 43.6236 13.4693 43.7732 13.0086L44.9816 9.28976C45.0485 9.08375 44.9752 8.85807 44.7999 8.73075L41.6365 6.43237C41.2446 6.14767 41.446 5.52786 41.9304 5.52786H45.8406C46.0572 5.52786 46.2492 5.38838 46.3161 5.18237L47.5245 1.46352Z" fill="#E4E4E4"/>
<path d="M67.5245 1.46352C67.6741 1.00287 68.3259 1.00287 68.4755 1.46353L69.6839 5.18237C69.7508 5.38838 69.9428 5.52786 70.1594 5.52786H74.0696C74.554 5.52786 74.7554 6.14767 74.3635 6.43237L71.2001 8.73075C71.0248 8.85807 70.9515 9.08375 71.0184 9.28976L72.2268 13.0086C72.3764 13.4693 71.8492 13.8523 71.4573 13.5676L68.2939 11.2693C68.1186 11.1419 67.8814 11.1419 67.7061 11.2693L64.5427 13.5676C64.1508 13.8523 63.6236 13.4693 63.7732 13.0086L64.9816 9.28976C65.0485 9.08375 64.9752 8.85807 64.7999 8.73075L61.6365 6.43237C61.2446 6.14767 61.446 5.52786 61.9304 5.52786H65.8406C66.0572 5.52786 66.2492 5.38838 66.3161 5.18237L67.5245 1.46352Z" fill="#E4E4E4"/>
<path d="M87.5245 1.46352C87.6741 1.00287 88.3259 1.00287 88.4755 1.46353L89.6839 5.18237C89.7508 5.38838 89.9428 5.52786 90.1594 5.52786H94.0696C94.554 5.52786 94.7554 6.14767 94.3635 6.43237L91.2001 8.73075C91.0248 8.85807 90.9515 9.08375 91.0184 9.28976L92.2268 13.0086C92.3764 13.4693 91.8492 13.8523 91.4573 13.5676L88.2939 11.2693C88.1186 11.1419 87.8814 11.1419 87.7061 11.2693L84.5427 13.5676C84.1508 13.8523 83.6236 13.4693 83.7732 13.0086L84.9816 9.28976C85.0485 9.08375 84.9752 8.85807 84.7999 8.73075L81.6365 6.43237C81.2446 6.14767 81.446 5.52786 81.9304 5.52786H85.8406C86.0572 5.52786 86.2492 5.38838 86.3161 5.18237L87.5245 1.46352Z" fill="#E4E4E4"/>
</svg>
