<svg width="31" height="12" viewBox="0 0 31 12" fill="none" xmlns="http://www.w3.org/2000/svg">
<path fill-rule="evenodd" clip-rule="evenodd" d="M30.1189 6.60539C30.1427 6.8324 30.1657 7.05236 30.2006 7.25L30.2338 7.43848L30.2837 7.7212C30.2795 7.69764 30.2652 7.68802 30.2509 7.67839C30.2366 7.66876 30.2223 7.65914 30.2182 7.63558C30.1786 7.98266 29.9425 8.07287 29.4215 8.26191C28.7499 8.52608 28.0643 8.71073 27.3788 8.89539C27.1502 8.95694 26.9217 9.01849 26.6937 9.08299C25.0568 9.51737 23.4199 9.95175 21.9473 10.7459C21.9556 10.793 21.9067 10.8016 21.9067 10.8016C21.8376 10.8381 21.7562 10.8767 21.6748 10.9154C21.5934 10.954 21.512 10.9926 21.4429 11.0291L21.2435 9.89825C21.2153 9.78985 21.1851 9.67869 21.1551 9.56883C21.0184 9.06663 20.889 8.59165 21.0025 8.53177C21.873 8.03819 22.8579 7.6216 23.8105 7.30788C17.2201 7.42177 10.6359 7.57075 4.0839 7.71899C3.04348 7.74254 2.00387 7.76606 0.965177 7.78942C0.884456 7.80365 0.788782 7.04014 0.702773 6.35375C0.632546 5.79332 0.568764 5.28431 0.524825 5.29206C8.85434 5.08655 17.241 4.91954 25.5789 4.76116C25.1541 4.49595 24.7193 4.24468 24.2844 3.99342C23.8495 3.74215 23.4146 3.49088 22.9899 3.22568C22.8618 3.13942 22.8184 2.57757 22.7909 2.22008C22.7815 2.09887 22.774 2.00116 22.7656 1.95344C22.7572 1.90571 22.7496 1.808 22.7403 1.6868C22.7127 1.32931 22.6694 0.767457 22.5412 0.681197L27.6131 3.72227C27.8377 3.85272 28.0644 3.99495 28.291 4.13717C28.5177 4.2794 28.7444 4.42163 28.9689 4.55208C29.0487 4.60579 29.1393 4.65383 29.2319 4.70299C29.4714 4.83 29.7249 4.9645 29.8433 5.22384C30.0158 5.62124 30.069 6.12884 30.1189 6.60539ZM27.7927 6.17012L27.8905 6.15289L27.7761 6.07588L27.7927 6.17012Z" fill="#339E75"/>
</svg>
