<svg width="30" height="12" viewBox="0 0 30 12" fill="none" xmlns="http://www.w3.org/2000/svg">
<path fill-rule="evenodd" clip-rule="evenodd" d="M0.176981 6.60539C0.153197 6.8324 0.130152 7.05236 0.0953021 7.25L0.062068 7.43848L0.0122169 7.7212C0.0163712 7.69764 0.0306671 7.68802 0.044963 7.67839C0.0592609 7.66876 0.0735567 7.65914 0.077711 7.63558C0.117304 7.98266 0.353379 8.07287 0.874402 8.26191C1.54597 8.52608 2.23156 8.71073 2.91714 8.89539C3.14567 8.95694 3.3742 9.01849 3.6022 9.08299C5.23908 9.51737 6.87595 9.95175 8.3486 10.7459C8.3403 10.793 8.38917 10.8016 8.38917 10.8016C8.45833 10.8381 8.53971 10.8767 8.62109 10.9154C8.70247 10.954 8.78385 10.9926 8.85301 11.0291L9.05242 9.89825C9.08058 9.78985 9.11085 9.67869 9.14076 9.56883C9.27751 9.06663 9.40686 8.59165 9.29336 8.53177C8.42287 8.03819 7.43801 7.6216 6.4854 7.30788C13.0758 7.42177 19.66 7.57075 26.212 7.71899C27.2524 7.74254 28.292 7.76606 29.3307 7.78942C29.4114 7.80365 29.5071 7.04014 29.5931 6.35375C29.6634 5.79332 29.7271 5.28431 29.7711 5.29206C21.4416 5.08655 13.0549 4.91954 4.71703 4.76116C5.14176 4.49595 5.57664 4.24468 6.01151 3.99342C6.44639 3.74215 6.88126 3.49088 7.306 3.22568C7.43412 3.13942 7.47745 2.57757 7.50503 2.22008C7.51438 2.09887 7.52191 2.00116 7.53033 1.95344C7.53874 1.90571 7.54628 1.808 7.55563 1.6868C7.5832 1.32931 7.62654 0.767457 7.75466 0.681197L2.68278 3.72227C2.4582 3.85272 2.23154 3.99495 2.00487 4.13717C1.77821 4.2794 1.55155 4.42163 1.32696 4.55208C1.24718 4.60579 1.15662 4.65383 1.06395 4.70299C0.824517 4.83 0.570964 4.9645 0.452569 5.22384C0.280089 5.62124 0.226908 6.12884 0.176981 6.60539ZM2.50318 6.17012L2.40542 6.15289L2.51979 6.07588L2.50318 6.17012Z" fill="#339E75"/>
</svg>
