<svg width="425" height="442" viewBox="0 0 425 442" fill="none" xmlns="http://www.w3.org/2000/svg">
<path opacity="0.1" d="M24.5049 295.363C23.7725 293.006 23.0264 290.654 22.294 288.297C21.392 285.421 20.5313 282.527 19.5953 279.647C19.1929 278.421 18.6663 277.247 18.2502 276.027C17.7017 274.415 17.167 272.798 16.7013 271.151C16.3423 269.835 16.0322 268.481 15.824 267.138C15.7253 266.517 15.8326 265.846 15.9793 265.23C16.1872 264.373 16.729 263.769 17.5209 263.489C18.9944 262.976 20.4871 262.509 21.9797 262.042C23.4724 261.574 24.9715 261.122 26.4833 260.701C27.9952 260.279 29.4933 259.863 31.0233 259.523C34.7289 258.679 38.4602 257.895 42.1722 257.066C43.0503 256.876 43.9038 256.588 44.8419 256.694C45.3922 256.767 45.8843 256.971 46.3226 257.395C47.4055 258.424 47.8866 259.76 48.2224 261.175C48.7336 263.393 49.2374 265.631 49.7486 267.849C49.9059 268.57 49.4711 269.004 48.8026 268.766C48.539 268.68 48.2701 268.543 48.0213 268.415C47.0466 267.913 46.1449 267.971 45.3355 268.633C43.9617 269.731 42.9888 271.124 42.8124 273.059C42.685 274.454 42.7276 275.867 43.3107 277.214C44.316 279.564 46.9846 281.196 49.2252 280.807C50.2117 280.642 51.0372 280.134 51.3679 279.028C51.4208 278.845 51.4938 278.671 51.5934 278.522C51.7798 278.193 52.046 277.938 52.454 277.981C52.8619 278.024 53.1194 278.327 53.2517 278.719C53.5942 279.648 53.9504 280.571 54.2312 281.509C54.7908 283.456 55.3027 285.405 55.8283 287.348C55.9458 287.782 56.022 288.233 56.0577 288.665C56.1221 289.783 55.7227 290.416 54.747 290.684C52.871 291.205 50.9821 291.696 49.1125 292.232C48.26 292.484 47.4394 292.811 46.5943 293.042C46.175 293.165 45.7034 293.202 45.2551 293.14C44.657 293.07 44.4099 292.638 44.5225 292.018C44.5962 291.575 44.7442 291.155 44.8317 290.707C45.2491 288.688 44.5327 286.986 43.1125 285.581C42.4157 284.89 41.4742 284.66 40.5692 284.594C38.521 284.436 36.6652 284.967 35.141 286.324C34.512 286.875 34.3297 287.793 34.21 288.666C34.0503 289.753 34.1783 290.79 34.6537 291.842C34.8594 292.293 34.8783 292.839 34.946 293.347C35.0279 294.082 35.2128 294.791 35.6598 295.39C36.0015 295.855 35.9373 296.204 35.4489 296.356C33.3117 296.951 31.1745 297.547 29.0245 298.112C28.5849 298.225 28.0996 298.269 27.6375 298.213C26.4008 298.053 25.5287 297.293 24.9479 296.107C24.8318 295.869 24.7368 295.605 24.6345 295.362C24.5601 295.34 24.5325 295.351 24.5049 295.363ZM30.7197 273.158C30.4428 273.31 30.153 273.432 29.9026 273.609C29.0208 274.177 28.5177 275.104 28.0551 276.05C27.4696 277.245 27.597 278.551 28.1289 279.776C28.6864 281.062 29.6896 282.017 30.8209 282.776C31.8385 283.456 32.8923 283.567 33.9912 283.284C34.3278 283.196 34.5994 282.992 34.5838 282.569C34.5683 282.146 34.3374 281.868 33.9304 281.789C33.6457 281.73 33.3535 281.692 33.0668 281.705C32.2277 281.718 31.4508 281.455 30.7988 280.871C29.8414 279.986 29.1483 278.918 29.2885 277.553C29.4435 276.146 30.0663 275.079 31.4082 274.639C32.8531 274.174 34.8834 274.482 35.71 276.639C35.9456 277.237 36.1537 277.847 36.3894 278.446C36.5035 278.756 36.7409 279.049 37.0572 278.952C37.243 278.892 37.4221 278.584 37.4759 278.364C37.6942 277.378 37.3306 276.475 36.8502 275.604C35.6422 273.429 32.939 272.063 30.7197 273.158ZM41.302 275.144C41.1199 274.827 40.959 274.483 40.7355 274.183C39.702 272.847 38.4209 272.081 36.8403 272.03C36.3634 272.017 35.878 272.06 35.5516 272.519C35.3238 272.866 35.4029 273.208 35.8078 273.36C36.0374 273.442 36.2956 273.476 36.5409 273.48C38.8532 273.455 40.5657 275.632 40.084 278C40.0598 278.135 40.0292 278.256 39.9985 278.376C39.5689 280.095 37.8582 281.048 36.2853 280.475C34.5169 279.824 33.3951 277.738 33.9311 276.117C34.0875 275.64 33.9956 275.267 33.7075 275.084C33.4257 274.917 33.0754 275.011 32.8179 275.441C32.1325 276.552 32.1515 277.833 32.7184 279.025C33.5039 280.698 34.8607 281.683 36.5703 282.001C37.6827 282.213 38.7543 282.173 39.6997 281.525C41.6117 280.201 42.2714 277.562 41.302 275.144ZM33.2031 268.445C32.3432 268.717 32.2457 269.528 32.0152 270.215C32.0068 270.272 32.2249 270.52 32.2801 270.497C32.8035 270.313 33.3534 270.153 33.7916 269.843C33.9794 269.71 33.9457 269.206 33.9621 268.859C33.9644 268.286 33.8103 268.189 33.3347 268.372C33.2721 268.416 33.2031 268.445 33.2031 268.445ZM35.9362 269.227C36.1516 269.082 36.3798 268.968 36.5888 268.809C36.645 268.749 36.6648 268.526 36.6191 268.456C36.1942 267.794 35.6681 267.586 34.9536 267.78C34.2188 267.964 34.1734 268.126 34.6885 268.732C34.7279 268.787 34.7874 268.851 34.8268 268.906C35.2483 269.445 35.3089 269.473 35.9362 269.227ZM33.2418 270.736C33.2482 270.752 33.2482 270.752 33.2546 270.767C33.0752 270.842 32.883 270.887 32.7366 271.003C32.674 271.047 32.6404 271.276 32.6861 271.346C33.0982 271.978 33.4691 272.126 34.1359 271.934C34.9056 271.718 34.9806 271.471 34.4474 270.784C34.342 270.649 34.1061 270.552 33.9287 270.555C33.7035 270.56 33.4753 270.674 33.2418 270.736ZM37.0564 269.65C36.6283 269.597 36.3459 269.698 35.6933 270.116C35.4365 270.278 35.1903 271.043 35.3542 271.278C35.6299 271.663 35.9055 271.315 36.1731 271.256C36.3377 271.222 36.4831 271.143 36.6083 271.055C36.7197 270.972 36.8459 270.847 36.8701 270.712C36.9747 270.382 37.005 270.029 37.0564 269.65Z" fill="white"/>
<g opacity="0.2">
<path fill-rule="evenodd" clip-rule="evenodd" d="M384.105 133.091L384.105 133.091L384.105 133.091C384.33 133.426 384.557 133.764 384.833 134.067C385.711 135.029 386.599 135.964 387.49 136.902L387.492 136.903L387.493 136.904L387.494 136.905L387.495 136.907L387.497 136.908C387.935 137.369 388.374 137.832 388.813 138.298C389.712 139.254 390.614 140.207 391.517 141.162L391.519 141.163L391.52 141.165L391.522 141.167L391.524 141.169L391.525 141.171C393.314 143.061 395.105 144.954 396.886 146.875C397.237 147.252 397.591 147.629 397.945 148.007L397.946 148.008L397.947 148.009L397.947 148.009C399.334 149.491 400.729 150.979 402.058 152.509C403.183 153.818 404.267 155.168 405.352 156.518L405.352 156.519C406.002 157.329 406.653 158.139 407.312 158.94L407.313 158.941C408.787 160.751 410.261 162.561 411.694 164.373C412.731 165.704 413.706 167.058 414.187 168.716C416.553 171.082 411.038 175.772 407.984 177.821L407.984 177.822C406.709 178.944 405.434 180.066 404.14 181.169C403.619 181.615 403.057 182.062 402.516 182.488C399.949 185.056 397.418 182.126 396.096 179.67C395.904 179.352 395.743 179.004 395.596 178.639C394.755 176.579 393.303 175.128 391.088 174.594C390.297 174.392 389.334 174.439 388.503 174.659C386.473 175.237 384.545 176.211 382.857 177.593C381.17 178.976 379.656 180.49 378.371 182.233C377.532 183.349 377 184.457 376.75 185.541C376.66 185.625 376.57 185.71 376.48 185.794C375.983 186.259 375.485 186.723 374.986 187.187C374.649 187.497 374.637 187.75 374.916 188.059C376.389 189.738 377.85 191.404 379.308 193.099C379.72 193.569 380.13 194.067 380.497 194.582C380.54 194.645 380.52 194.759 380.499 194.878C380.488 194.94 380.477 195.002 380.474 195.059C380.423 195.048 380.366 195.043 380.309 195.038C380.194 195.028 380.079 195.018 380.017 194.956C379.327 194.186 378.644 193.397 377.963 192.611C377.634 192.231 377.306 191.851 376.978 191.475C376.748 191.21 376.518 190.944 376.288 190.677C375.548 189.819 374.802 188.955 374.03 188.116C373.378 187.405 372.624 187.652 372.309 188.662C371.953 189.779 371.601 190.9 371.249 192.02C370.897 193.141 370.544 194.261 370.189 195.378C369.99 196.004 369.894 196.556 370.63 196.968C370.552 197.046 370.482 197.118 370.415 197.187C370.229 197.378 370.073 197.537 369.88 197.691C368.973 198.492 369.114 199.045 369.893 199.736C369.954 199.782 370.018 199.824 370.083 199.867C370.147 199.909 370.212 199.952 370.273 199.998C370.623 200.289 370.991 200.215 371.343 199.889C371.497 199.749 371.654 199.612 371.811 199.474C371.968 199.337 372.126 199.2 372.28 199.059C372.543 198.822 372.727 198.799 372.964 199.096C373.491 199.785 374.026 200.466 374.56 201.148C375.094 201.829 375.629 202.511 376.156 203.2C376.379 203.511 376.627 203.583 377.008 203.522C377.511 203.438 378.014 203.357 378.516 203.277C378.539 203.273 378.563 203.269 378.586 203.266C377.891 203.879 376.979 204.672 376.154 205.389L376.153 205.389C375.812 205.686 375.485 205.97 375.194 206.223C374.793 206.57 374.397 206.93 374 207.291C373.015 208.187 372.024 209.088 370.919 209.812C367.84 211.822 366.862 211.769 364.547 209.119C362.688 207.007 360.912 204.811 359.137 202.615L359.137 202.615L359.137 202.615C358.103 201.329 357.104 200.008 356.106 198.686C355.773 198.246 355.44 197.805 355.106 197.366C353.657 195.455 355.254 193.056 357.289 192.357C357.944 192.137 358.612 192.025 359.286 191.912L359.287 191.912L359.287 191.912C359.617 191.857 359.949 191.801 360.281 191.732C360.545 191.674 360.82 191.63 361.096 191.586L361.096 191.586C361.792 191.474 362.496 191.36 363.057 191.018C364.728 189.997 365.411 188.282 365.698 186.467C365.928 185.015 365.509 183.755 364.969 182.5C363.87 179.971 362.377 177.721 360.045 176.273C357.461 174.656 353.451 174.81 350.694 177.185C349.506 178.183 348.689 179.343 347.928 180.6C347.899 180.647 347.87 180.695 347.841 180.742C347.565 181.196 347.276 181.669 346.878 182.032C345.705 183.129 344.482 183.168 343.417 182.019C342.743 181.315 342.166 180.533 341.586 179.746L341.586 179.746C341.363 179.443 341.139 179.138 340.908 178.838L340.905 178.833C338.668 175.841 336.432 172.848 334.215 169.874C334.189 169.834 334.158 169.794 334.127 169.753C334.068 169.676 334.007 169.596 333.972 169.506C332.541 167.233 332.633 166.148 334.579 163.973C335.055 163.438 335.576 162.925 336.091 162.417C336.262 162.249 336.432 162.081 336.599 161.914C337.056 161.457 337.514 161.007 337.972 160.558L337.972 160.558C338.884 159.662 339.794 158.77 340.679 157.834C343.397 154.909 346.498 152.468 349.611 150.019L349.611 150.019L349.611 150.019L349.611 150.019L349.611 150.019L349.611 150.019L349.613 150.017L349.615 150.015L349.617 150.014L349.619 150.012C349.96 149.744 350.3 149.476 350.641 149.207C351.967 148.164 353.253 147.034 354.528 145.916L354.528 145.915L354.529 145.915L354.529 145.915L354.529 145.914L354.529 145.914C354.974 145.524 355.416 145.136 355.859 144.752C358.281 142.674 360.662 140.598 363.065 138.5C363.543 138.088 364.021 137.671 364.498 137.253L364.499 137.253C365.668 136.231 366.842 135.204 368.053 134.237C368.338 134.006 368.623 133.775 368.907 133.544L368.907 133.544C370.803 132.004 372.693 130.47 374.722 129.171C376.148 128.242 377.915 128.116 379.397 128.926C379.931 129.207 380.406 129.58 380.882 129.952C381.12 130.139 381.358 130.325 381.603 130.5C381.738 130.594 381.873 130.697 382.008 130.801L382.009 130.801C382.144 130.904 382.279 131.008 382.414 131.102C382.81 131.623 383.249 132.062 383.707 132.52L383.707 132.52C383.845 132.704 383.974 132.897 384.104 133.09L384.104 133.09L384.104 133.091L384.105 133.091L384.105 133.091Z" fill="white"/>
</g>
</svg>
