<svg width="56" height="127" viewBox="0 0 56 127" fill="none" xmlns="http://www.w3.org/2000/svg">
<path opacity="0.1" d="M22.7073 122.163C21.1521 120.908 19.5902 119.662 18.035 118.407C16.1318 116.878 14.2485 115.32 12.3208 113.804C11.4975 113.161 10.6142 112.609 9.78423 111.975C8.68877 111.138 7.59997 110.291 6.5445 109.393C5.70991 108.67 4.89082 107.899 4.14519 107.089C3.79917 106.716 3.56875 106.216 3.38962 105.735C3.14329 105.065 3.23564 104.415 3.64231 103.87C4.40235 102.861 5.19584 101.873 5.98934 100.886C6.78283 99.8991 7.58748 98.9193 8.41443 97.9541C9.24139 96.989 10.0617 96.034 10.9377 95.1156C13.05 92.8774 15.2069 90.6686 17.3303 88.4377C17.835 87.9136 18.2795 87.3354 18.9584 86.9839C19.3612 86.7846 19.7844 86.7002 20.2702 86.7878C21.4625 86.9919 22.3884 87.6737 23.2521 88.4743C24.5956 89.7358 25.9437 91.0148 27.2872 92.2763C27.718 92.6904 27.6209 93.178 27.0642 93.3196C26.8482 93.3807 26.6054 93.4096 26.3804 93.4357C25.4984 93.5373 24.9178 93.9825 24.672 94.7931C24.2423 96.1503 24.216 97.5262 24.9694 98.9073C25.5126 99.9034 26.1783 100.835 27.1776 101.478C28.913 102.606 31.4436 102.5 32.7758 101.229C33.3651 100.674 33.6912 99.9594 33.4155 99.0668C33.3685 98.9197 33.3392 98.7699 33.339 98.6245C33.3161 98.3192 33.3802 98.0276 33.674 97.8726C33.9677 97.7177 34.2776 97.8055 34.5431 98.0092C35.1923 98.48 35.8481 98.9406 36.4595 99.4445C37.7136 100.502 38.9365 101.583 40.1661 102.653C40.4406 102.892 40.695 103.161 40.9139 103.435C41.4611 104.158 41.4778 104.764 40.9421 105.384C39.915 106.58 38.8657 107.762 37.8498 108.966C37.3897 109.519 36.9853 110.109 36.5207 110.645C36.294 110.917 35.9937 111.155 35.6642 111.315C35.2302 111.538 34.869 111.358 34.6654 110.89C34.5155 110.559 34.4257 110.21 34.2825 109.869C33.6535 108.323 32.4044 107.501 30.8153 107.195C30.0353 107.045 29.2984 107.315 28.6596 107.678C27.2108 108.495 26.2016 109.689 25.788 111.289C25.6132 111.943 25.9042 112.642 26.2173 113.284C26.5998 114.087 27.1535 114.727 27.9475 115.221C28.2888 115.431 28.5479 115.79 28.8225 116.101C29.2088 116.559 29.6529 116.952 30.2236 117.154C30.6628 117.312 30.7769 117.576 30.5169 117.898C29.3476 119.262 28.1783 120.626 26.9867 121.975C26.7421 122.25 26.4351 122.498 26.0991 122.668C25.1954 123.119 24.2661 123.001 23.3406 122.464C23.1554 122.357 22.9725 122.222 22.7941 122.104C22.7339 122.123 22.7206 122.143 22.7073 122.163ZM16.8792 104.424C16.7615 104.652 16.6216 104.865 16.5329 105.096C16.1957 105.876 16.2753 106.727 16.3905 107.572C16.5351 108.639 17.2095 109.46 18.1195 110.045C19.0742 110.658 20.1796 110.849 21.2824 110.849C22.2738 110.848 23.0328 110.448 23.6442 109.762C23.8309 109.551 23.9217 109.291 23.7207 109.014C23.5197 108.736 23.2388 108.653 22.9294 108.783C22.7112 108.872 22.4975 108.978 22.3107 109.116C21.7522 109.504 21.1109 109.677 20.4089 109.577C19.366 109.414 18.4184 109.008 17.8974 108.026C17.3675 107.01 17.3055 106.011 18.01 105.111C18.7724 104.146 20.2771 103.439 21.8052 104.517C22.2335 104.813 22.6485 105.13 23.0768 105.426C23.2932 105.583 23.5852 105.674 23.7541 105.466C23.8519 105.341 23.8336 105.054 23.7709 104.882C23.4731 104.12 22.8217 103.677 22.1059 103.307C20.313 102.388 17.8785 102.687 16.8792 104.424ZM24.8931 100.991C24.6277 100.859 24.3645 100.701 24.0792 100.6C22.7817 100.167 21.5743 100.229 20.4884 100.907C20.1613 101.113 19.8543 101.361 19.8418 101.817C19.8447 102.153 20.0522 102.347 20.3929 102.267C20.5844 102.219 20.7736 102.126 20.9405 102.018C22.4847 100.958 24.6181 101.651 25.3611 103.461C25.4059 103.563 25.4395 103.658 25.4731 103.752C25.9591 105.103 25.2377 106.515 23.9216 106.839C22.4385 107.198 20.7436 106.3 20.3735 104.968C20.2636 104.576 20.0337 104.367 19.7575 104.374C19.4924 104.388 19.299 104.609 19.3198 105.015C19.3597 106.071 19.9494 106.924 20.8684 107.471C22.1508 108.242 23.5077 108.293 24.8011 107.737C25.6448 107.377 26.3478 106.868 26.6915 106.005C27.3811 104.253 26.6353 102.181 24.8931 100.991ZM16.4255 100.135C15.9699 100.706 16.2695 101.295 16.4243 101.861C16.4445 101.903 16.703 101.972 16.7297 101.931C16.9986 101.571 17.2964 101.216 17.4516 100.81C17.5181 100.636 17.268 100.312 17.1227 100.071C16.8658 99.6844 16.7188 99.6893 16.481 100.026C16.4589 100.084 16.4255 100.135 16.4255 100.135ZM18.6164 99.4287C18.6963 99.2346 18.7984 99.0551 18.8671 98.8535C18.8781 98.7882 18.7909 98.6293 18.7285 98.6027C18.1443 98.3489 17.6967 98.4461 17.3032 98.8983C16.8919 99.3533 16.9345 99.4829 17.5542 99.6585C17.6054 99.6777 17.6745 99.6942 17.7258 99.7134C18.2519 99.8855 18.3054 99.8771 18.6164 99.4287ZM17.4844 101.659C17.4956 101.666 17.4956 101.666 17.5067 101.674C17.4201 101.805 17.3111 101.922 17.2646 102.066C17.2424 102.124 17.323 102.293 17.3854 102.319C17.9473 102.559 18.2635 102.491 18.6258 102.062C19.046 101.569 18.9855 101.37 18.3167 101.147C18.1851 101.104 17.9825 101.145 17.8646 101.227C17.7155 101.332 17.6134 101.512 17.4844 101.659ZM19.5606 99.2084C19.249 99.3661 19.1046 99.5613 18.8539 100.137C18.7541 100.361 18.9335 100.987 19.1498 101.071C19.5087 101.206 19.537 100.847 19.6904 100.687C19.786 100.59 19.8482 100.472 19.8925 100.356C19.9302 100.25 19.9589 100.109 19.9141 100.007C19.8357 99.7377 19.6971 99.4868 19.5606 99.2084Z" fill="white"/>
<path opacity="0.1" fill-rule="evenodd" clip-rule="evenodd" d="M37.6085 48.6122C37.4784 48.5599 37.35 48.5005 37.2209 48.4408L37.2209 48.4408C36.9981 48.3377 36.773 48.2336 36.533 48.1632C35.7719 47.9401 35.0141 47.7344 34.254 47.5281L34.2538 47.5281L34.2532 47.5279L34.2529 47.5278C33.8773 47.4259 33.501 47.3238 33.1235 47.2193C32.3531 47.0063 31.5822 46.7953 30.8108 46.5841L30.8086 46.5836L30.8067 46.583L30.8048 46.5825L30.8028 46.582L30.802 46.5817C29.2735 46.1633 27.7428 45.7443 26.2088 45.3081C25.9066 45.223 25.6036 45.1385 25.3002 45.0538L25.2978 45.0532L25.2975 45.0531C24.1067 44.7209 22.91 44.387 21.7343 44.011C20.7346 43.6855 19.7433 43.3256 18.752 42.9657L18.7516 42.9656C18.1568 42.7496 17.562 42.5337 16.9654 42.3251L16.9647 42.3249L16.964 42.3247C15.6247 41.8487 14.2855 41.3728 12.9664 40.8831C12.0059 40.5182 11.0699 40.122 10.2954 39.4109C8.31506 38.9276 9.7028 34.7419 10.6442 32.7094L10.6443 32.7091C10.953 31.7218 11.2616 30.7345 11.5862 29.7511C11.717 29.3542 11.868 28.9436 12.0147 28.5505C12.539 26.4022 14.783 27.1267 16.2477 27.987C16.4483 28.0922 16.6419 28.2222 16.8339 28.3656C17.9236 29.1722 19.138 29.4686 20.4601 29.0455C20.9357 28.9005 21.4222 28.5718 21.7852 28.1942C22.6586 27.2514 23.3544 26.1347 23.7957 24.8814C24.237 23.628 24.5462 22.3611 24.6636 21.0474C24.9176 18.4805 23.7249 16.847 21.5906 16.1583C17.1761 15.081 16.9134 14.2401 17.4515 11.8436C17.5113 11.5772 17.5705 11.3344 17.6559 10.9844C17.7438 10.6415 18.1498 9.37096 18.4944 8.29264L18.4945 8.29255L18.4945 8.29252C18.5784 8.02984 18.6587 7.77857 18.7299 7.5549C18.8293 7.24725 18.9215 6.93476 19.0139 6.62147L19.0139 6.62147C19.2434 5.84363 19.4743 5.06081 19.8205 4.33453C20.7875 2.31453 21.3134 2.03269 23.3561 2.68036C24.992 3.19146 26.6108 3.77294 28.2295 4.35443L28.2295 4.35445C29.1744 4.69691 30.1121 5.06906 31.0497 5.44121L31.0497 5.44122C31.3622 5.56527 31.6748 5.68932 31.9876 5.81227C33.3464 6.34897 33.274 8.10252 32.4356 9.10982C32.164 9.4314 31.8517 9.70107 31.5366 9.97314L31.5366 9.97315L31.5366 9.97316L31.5366 9.97317L31.5366 9.97318L31.5365 9.97318L31.5365 9.97323C31.3821 10.1066 31.227 10.2405 31.0757 10.3814C30.9566 10.4952 30.8276 10.6051 30.6979 10.7155L30.6979 10.7155L30.6979 10.7155L30.6979 10.7155L30.6979 10.7156L30.6979 10.7156C30.3709 10.994 30.0402 11.2756 29.8565 11.6313C29.31 12.6912 29.4966 13.7995 29.921 14.8353C30.2605 15.6639 30.8777 16.1874 31.5556 16.6698C32.9275 17.6385 34.416 18.3374 36.088 18.3539C37.9443 18.3781 39.9832 17.0299 40.6669 14.9221C40.9701 14.0266 41.0281 13.1644 41.0265 12.2691L41.0268 12.1679C41.0273 11.8444 41.0279 11.507 41.1201 11.1919C41.384 10.2495 42.0081 9.8425 42.9262 10.1039C43.4997 10.2573 44.047 10.482 44.5978 10.7081L44.5978 10.7081L44.5978 10.7082L44.5978 10.7082L44.5978 10.7082L44.5979 10.7082C44.8102 10.7954 45.0231 10.8828 45.2382 10.9664L45.2402 10.9672C47.3512 11.8179 49.4622 12.6685 51.5572 13.5153C51.5833 13.5281 51.6119 13.5393 51.641 13.5507C51.6961 13.5723 51.7533 13.5947 51.7999 13.6305C53.2639 14.3606 53.5591 14.9547 53.2341 16.7026C53.1549 17.1313 53.0462 17.5633 52.9388 17.9904L52.9388 17.9905C52.9032 18.1321 52.8677 18.2731 52.8335 18.4133C52.7403 18.7953 52.644 19.1743 52.5479 19.5528C52.3561 20.3077 52.165 21.06 52.0004 21.8271C51.5105 24.2096 50.668 26.4607 49.8225 28.7202L49.8211 28.7239C49.7283 28.9718 49.6355 29.2199 49.5431 29.4683C49.1827 30.4308 48.8702 31.4256 48.5607 32.4111C48.4527 32.7549 48.345 33.0976 48.2358 33.4375C47.6325 35.2852 47.0495 37.1192 46.4622 38.9709C46.3436 39.3364 46.2272 39.7041 46.1107 40.0724L46.1104 40.0735L46.1103 40.0735L46.1103 40.0737L46.1103 40.0737L46.1102 40.0738L46.1102 40.0739C45.8249 40.9757 45.5384 41.8812 45.2139 42.768C45.1384 42.978 45.0634 43.1882 44.9884 43.3983C44.4884 44.7995 43.9902 46.1957 43.3447 47.5137C42.8965 48.4484 42.0162 49.0726 40.9888 49.1202C40.6222 49.1426 40.2567 49.0989 39.8911 49.0553C39.7083 49.0335 39.5256 49.0116 39.3426 48.9981C39.2425 48.9923 39.1394 48.9811 39.0363 48.9699C38.9332 48.9588 38.8301 48.9476 38.73 48.9418C38.3594 48.7954 37.992 48.7058 37.6085 48.6122L37.6085 48.6122ZM36.2845 24.4286C36.1898 24.0399 36.0659 23.7224 35.5521 23.7407C35.568 23.6756 35.5818 23.6155 35.5949 23.5588C35.6313 23.4005 35.6618 23.2683 35.7137 23.1272C35.9328 22.4233 35.6843 22.1799 35.0603 22.0668C35.0141 22.062 34.9671 22.0603 34.9201 22.0587C34.8732 22.057 34.8262 22.0553 34.78 22.0506C34.5056 22.0097 34.3375 22.1646 34.2572 22.4453C34.2215 22.5672 34.1831 22.6883 34.1446 22.8095C34.1061 22.9307 34.0677 23.0519 34.032 23.1738C33.9697 23.3806 33.8816 23.4505 33.664 23.3713C33.1718 23.1793 32.6782 22.9936 32.1845 22.8078C31.6909 22.6221 31.1972 22.4363 30.705 22.2444C30.4905 22.1528 30.3383 22.194 30.159 22.3461C29.924 22.5493 29.6878 22.7502 29.452 22.9508C29.085 23.2628 28.719 23.5741 28.3602 23.8919C27.7596 24.4113 27.159 24.9307 26.6053 25.5007C26.16 25.9665 26.2323 26.3498 26.7298 26.641C26.7367 26.6426 26.7413 26.6537 26.7477 26.6691C26.7516 26.6786 26.7563 26.6897 26.7625 26.7012L26.7234 26.8614C26.3492 28.2978 25.9779 29.7219 25.5955 31.1433C25.5233 31.439 25.5879 31.6115 25.839 31.6989C26.0078 31.7597 26.1745 31.8167 26.3413 31.8737C26.508 31.9307 26.6747 31.9877 26.8435 32.0485C27.0946 32.1359 27.1918 32.029 27.2803 31.7634C27.585 30.8061 27.912 29.8544 28.2361 28.915C28.3568 28.5658 28.5232 28.515 28.8324 28.6557L28.8324 28.6557C29.0857 28.7828 29.339 28.9099 29.5983 29.0124C30.0803 29.2214 30.1487 29.3295 29.988 29.8909C29.866 30.3182 29.7391 30.741 29.6122 31.1638C29.4853 31.5866 29.3585 32.0094 29.2364 32.4366C29.117 32.8775 29.1497 32.9377 29.5543 33.0757C29.7526 33.1371 29.9536 33.1992 30.1546 33.2613C30.3556 33.3234 30.5567 33.3856 30.7549 33.447C31.1412 33.563 31.5272 33.6804 31.9131 33.7978C32.685 34.0327 33.4569 34.2675 34.2315 34.4913C34.7957 34.6551 35.1698 34.433 35.3597 33.8004C35.5934 33.0043 35.8173 32.2058 36.0411 31.4073C36.153 31.0081 36.2649 30.6089 36.3781 30.2099C36.4554 29.9415 36.3819 29.8061 36.1389 29.7337C34.8407 29.3255 33.5537 28.92 32.2585 28.4994C31.8956 28.3848 31.5245 28.255 31.1705 28.1034C31.1282 28.0844 31.1026 28.0183 31.076 27.9496C31.0623 27.9142 31.0483 27.8782 31.0316 27.8475C31.0617 27.8374 31.0931 27.8219 31.1246 27.8063C31.1874 27.7752 31.2503 27.7442 31.3025 27.7569C31.905 27.9391 32.5098 28.1338 33.1129 28.328C33.4043 28.4218 33.6952 28.5154 33.9853 28.6075C34.1887 28.6726 34.3925 28.7386 34.5967 28.8047C35.2534 29.0172 35.9149 29.2313 36.5817 29.4239C37.1459 29.5877 37.4606 29.2206 37.3052 28.5951C37.137 27.9011 36.9659 27.2065 36.7949 26.5118C36.6238 25.8172 36.4528 25.1226 36.2845 24.4286Z" fill="white"/>
</svg>
