<svg width="207" height="219" viewBox="0 0 207 219" fill="none" xmlns="http://www.w3.org/2000/svg">
<path d="M121.342 138.223C132.511 141.094 140.247 154.405 142.718 160.701L143.266 169.153L141.609 178.247L142.011 182.914L143.591 183.41L147.632 184.147L152.668 181.724L154.967 174.835L153.465 164.748L153.503 159.953L156.869 151.797L159.314 148.693L167.392 161.649L171.78 168.503L174.092 176.441L175.248 180.41L178.904 179.824L183.811 176.96L183.905 170.713L176.396 158.07L176.769 144.566L179.108 132.882L175.126 119.211L168.901 110.978L162.766 107.981L168.923 102.839L154.196 85.1216L148.514 96.8226L144.305 100.44L140.961 100.457L123.639 93.5419L103.726 85.9458L91.8967 79.8229L86.8276 75.5583L84.7728 68.5024L84.041 61.0613L93.5927 65.9339L100.481 68.2334L104.065 65.7545L100.135 62.1152L89.7399 52.7041L78.2958 47.9041C77.0156 48.4364 74.165 49.4898 73.0039 49.4452C71.8428 49.4007 68.9808 48.2249 67.695 47.6425L71.5742 41.2505L76.4469 31.6988L74.0238 26.6637L67.9783 28.9026C65.796 34.0032 61.2952 44.7223 60.7505 46.7945C60.2058 48.8667 53.185 52.0276 49.7426 53.3489L42.631 56.8552L29.6023 63.0413L28.0564 69.2322L29.6533 73.0727L36.4693 73.4798L46.1882 73.9982L52.5632 74.5337L56.8013 89.0865C57.315 90.8504 54.8459 93.3236 53.5471 94.3397L40.9982 95.6022L34.1094 93.3028L26.3944 89.8088L19.7795 91.7352C18.0155 92.2489 18.1367 95.4029 18.4178 96.9156L17.1118 100.645L27.9695 101.788L35.4276 104.4L38.6043 108.738L23.94 115.878L40.3078 121.158L52.7623 126.142L61.4708 126.477L71.7251 120.62L76.135 119.336L82.6385 120.312C90.8858 125.086 110.173 135.352 121.342 138.223Z" fill="white"/>
<path d="M177.765 79.491C175.327 77.6026 174.846 77.5696 172.391 79.6702C172.402 78.6278 172.459 77.745 172.444 76.8834C172.57 74.0755 172.116 71.4364 170.601 68.9332C168.398 65.4179 165.874 64.8537 162.857 67.7242C162.456 66.8883 162.006 66.1533 161.701 65.3761C159.512 60.5578 157.056 55.9037 152.362 53.2869C151.692 52.8759 150.972 52.5658 150.204 52.3566C148.402 51.8419 146.642 52.0081 145.588 53.7874C144.51 55.487 145.335 57.2386 146.403 58.7462C152.599 67.3339 154.064 76.9533 153.186 87.1684C152.805 91.2628 154.065 92.8879 157.725 93.0345C158.206 93.0675 159.016 93.9575 159.202 94.5962C159.618 96.2938 159.648 98.0171 160.136 99.6935C160.973 102.567 162.841 103.582 165.451 102.822C165.958 102.675 166.872 102.842 167.205 103.177C168.656 104.92 170.176 104.737 171.657 103.613C175.249 101.095 176.905 97.0617 177.987 92.6763C178.641 90.0611 178.935 87.2907 179.325 84.5791C178.764 82.9238 178.276 81.2473 177.765 79.491Z" fill="#F8A846"/>
<path d="M135.21 117.516C137.628 116.639 139.562 115.989 141.354 115.121C143.896 113.861 145.086 110.657 143.985 107.686C142.768 104.317 140.507 101.684 137.317 100.448C132.806 98.7309 128.145 97.5768 123.707 95.8382C119.196 94.1207 114.834 92.1003 110.471 90.08C104.286 87.2045 98.1767 84.0473 91.9429 81.2728C90.4084 80.5938 88.3609 80.5839 86.7197 80.8886C83.1965 81.4816 82.0381 83.9841 83.3947 87.8325C84.8443 92.0003 87.5317 95.2879 90.4133 98.4325C94.5573 102.941 99.1184 106.723 104.708 108.905C105.5 109.194 106.217 109.765 107.151 110.273C103.922 112.685 102.418 115.894 103.169 120.092C103.917 124.551 106.289 128.104 109.73 130.739C112.645 132.921 115.611 135.002 118.625 136.982C125.634 141.609 132.693 146.135 139.751 150.662C140.923 151.446 142.266 152.008 143.635 152.388C147.597 153.573 150.578 151.926 151.874 147.737C154.094 140.509 151.944 134.207 147.573 128.379C144.079 123.94 140.631 119.662 135.21 117.516ZM123.8 125.862C124.239 127.639 123.164 129.078 121.607 128.319C119.976 127.582 118.497 126.281 117.185 125.017C116.756 124.623 116.601 123.282 116.897 122.676C117.192 122.071 118.16 121.616 118.836 121.505C120.692 121.398 123.292 123.845 123.8 125.862ZM116.463 115.788C115.744 115.478 115.465 114.52 116.001 113.931C116.172 113.708 116.366 113.564 116.462 113.623C117.062 113.795 117.613 114.067 118.115 114.441C118.667 114.713 118.827 115.533 118.485 115.979C118.386 116.18 118.192 116.324 118.119 116.345C117.638 116.312 117.11 116.119 116.463 115.788Z" fill="#F8A846"/>
<path d="M66.2894 106.585C62.6405 105.396 62.9467 108.338 62.2081 109.852C61.6173 111.064 62.3257 112.416 63.6455 112.898C68.1793 114.695 72.6571 114.95 76.6631 111.965C78.9937 110.247 79.6352 106.509 78.1541 103.043C75.6391 97.1074 72.2748 91.7652 67.6931 87.6435C65.5692 85.7506 62.8106 84.6487 60.1942 83.7651C59.0659 83.4009 56.7928 84.2361 56.3729 85.2244C55.7068 86.7174 55.7546 89.0418 56.3878 90.676C58.3079 95.9192 60.8571 100.893 65.0818 104.599C65.343 104.956 65.555 105.414 66.2894 106.585Z" fill="#F8A846"/>
<path d="M55.4246 51.7255C53.54 52.2744 51.6553 52.8232 49.7706 53.3721C46.4362 54.3431 44.866 57.052 46.2254 60.6399C46.9748 62.6733 48.3506 64.6975 49.9262 66.0573C55.3202 70.8084 64.4672 71.4355 69.9257 67.7674C75.19 64.2425 74.8989 57.5724 69.3257 53.826C64.8521 50.8853 60.4988 50.2478 55.4246 51.7255Z" fill="#F8A846"/>
<path d="M42.1431 120.891C45.6225 119.877 46.5253 116.497 44.5572 113.519C42.7315 110.76 40.0481 109.376 37.2403 108.375C35.3926 107.701 33.4204 107.409 31.5727 106.735C28.6924 105.755 26.1266 106.935 23.9669 108.43C22.535 109.454 21.6924 111.691 20.9018 113.566C20.6789 114.151 21.5063 115.642 22.1012 116.335C22.6729 116.948 23.5865 117.115 24.4276 117.303C29.4018 118.452 34.3993 119.682 39.3503 120.751C40.4554 121.036 41.5892 120.879 42.1431 120.891Z" fill="#F8A846"/>
<path d="M122.471 126.423C121.223 123.755 120.341 122.886 118.166 123.52C119.052 126.293 120.175 127.178 122.471 126.423Z" fill="#F8A846"/>
<path d="M23.2944 115.032C25.502 111.272 28.0813 113.379 30.7087 113.22C29.7773 112.452 28.7967 111.785 27.5549 110.761C29.3821 111.095 30.8728 111.353 32.2911 111.633C32.3664 111.351 32.5141 111.048 32.5893 110.767C31.5854 110.02 30.6541 109.252 29.1483 108.132C30.8333 108.247 32.0628 108.149 33.1679 108.433C40.2566 110.093 47.2727 111.773 54.3354 113.614C57.146 114.354 59.6283 114.237 61.8891 112.28C64.1732 110.402 66.5298 108.504 68.9096 106.685C72.359 103.948 76.1051 102.771 80.4967 104.35C81.0971 104.521 81.7932 104.752 82.3007 104.604C83.0023 104.313 83.5152 103.644 84.0746 103.135C83.5494 102.681 83.0037 101.888 82.4033 101.716C73.5599 99.7014 66.2332 102.355 60.3328 109.096C58.6751 110.964 56.7207 111.274 54.6008 111.285C48.4818 111.335 42.5762 109.417 36.7458 107.218C33.8422 106.158 31.0289 105.679 28.0104 106.384C24.5337 107.137 23.4395 110.4 21.7503 112.971C20.8928 114.346 21.8597 116.316 23.8031 117.049C25.6741 117.804 27.6436 118.356 29.6157 118.647C34.5462 119.377 39.2018 121.052 43.6289 123.833C45.8541 125.264 48.2502 126.471 50.7216 127.397C57.3439 129.885 63.0321 127.276 68.5576 124.108C70.3753 123.059 72.1465 121.85 74.0832 120.94C76.7475 119.558 79.439 120.16 82.0992 121.463C83.7527 122.281 85.4787 123.077 86.9844 124.198C94.2987 129.602 102.481 132.588 110.739 135.293C118.902 137.939 126.598 141.413 133.254 147.529C136.594 150.627 139.302 154.255 141.088 158.498C142.781 162.422 142.496 166.575 141.948 170.632C141.688 172.439 141.115 174.252 141.023 176.097C140.905 178.123 140.979 180.267 141.392 182.225C141.529 182.964 142.628 183.77 143.42 184.059C145.413 184.691 147.478 185.302 149.453 185.333C150.706 185.315 152.208 184.531 152.99 183.437C154.992 180.862 155.486 177.428 155.522 174.04C155.581 170.732 155.422 167.487 155.168 164.184C154.651 158.358 155.725 154.755 159.307 150.854C163.22 156.729 167.254 162.482 170.923 168.602C172.273 170.807 172.556 173.669 173.3 176.223C173.672 177.501 173.633 178.985 174.271 180.098C174.672 180.934 175.844 181.718 176.639 181.746C177.987 181.787 179.507 181.604 180.646 180.926C182.197 180.041 183.968 178.833 184.756 177.218C185.567 175.682 185.664 173.316 185.202 171.458C184.461 168.643 183.505 165.631 181.842 163.43C176.829 156.749 176.663 149.697 178.381 142.095C180.4 133.366 179.069 124.747 175.326 116.484C173.584 112.661 170.355 110.484 167.1 108.488C166.717 108.253 166.357 108.098 165.664 107.607C167.507 106.377 169.061 105.232 170.661 104.246C176.865 100.707 180.2 95.1464 180.233 87.4292C180.231 85.2645 179.917 83.1044 179.312 81.0288C178.455 77.8144 176.54 76.64 173.214 76.8292C172.812 73.8286 173.112 70.5371 171.309 67.8577C171.092 67.921 170.923 67.8834 170.706 67.9468C170.93 69.5269 171.227 71.0859 171.451 72.666C171.871 76.2677 171.545 79.74 170.257 83.1463C169.785 84.4961 169.841 86.0387 169.465 87.4473C168.941 89.1587 168.177 90.8535 167.58 92.586C167.38 93.2504 167.468 94.091 167.46 94.8728C168.161 94.5819 169.078 94.4882 169.469 93.9413C171.445 91.5471 172.105 88.4106 172.5 85.1778C172.711 83.471 173.139 81.7008 173.877 80.1867C174.567 78.7735 175.962 78.9735 176.572 80.528C177.205 82.1622 178.076 84.0736 177.938 85.7593C177.391 91.9808 176.147 97.972 170.715 101.459C168.314 102.938 165.937 104.496 163.49 105.815C162.473 106.371 161.124 106.331 159.918 106.509C159.097 106.661 158.23 106.654 157.386 106.726C157.288 106.928 157.213 107.21 157.114 107.412C157.903 107.961 158.594 108.713 159.435 108.901C166.451 110.582 171.877 114.631 174.909 121.802C177.917 128.893 178.203 136.084 176.128 143.271C175.555 145.083 175.342 147.05 175.009 148.879C173.989 154.286 174.995 159.362 178.101 164.087C179.95 166.926 181.556 170.009 182.944 173.155C183.438 174.311 183.035 175.9 183.039 177.804C181.821 176.86 181.223 176.428 180.219 175.681C180.352 179.106 177.942 179.202 175.741 180.016C175.462 179.058 174.943 178.083 174.977 177.121C175.223 172.026 173.124 167.788 170.323 163.84C168.971 161.896 167.74 159.83 166.509 157.763C164.358 153.886 164.088 149.721 164.373 145.568C164.571 142.739 164.938 139.948 164.968 137.081C165.094 129.683 162.802 123.163 157.898 117.663C157.398 117.029 156.607 116.74 155.986 116.228C155.791 116.371 155.67 116.493 155.499 116.716C156.184 117.988 156.773 119.202 157.459 120.475C162.443 129.762 162.951 138.794 157.823 147.649C157.258 148.679 156.766 149.689 156.105 150.66C153.022 155.196 152.341 160.417 152.571 166.066C152.75 169.651 152.615 173.241 152.313 176.793C152.224 178.378 151.581 179.95 150.988 181.422C150.716 182.108 149.941 182.42 149.454 182.908C149.124 182.312 148.72 181.736 148.366 181.06C148.131 180.522 147.968 179.963 147.689 179.005C146.924 180.7 146.284 182.013 145.74 183.384C145.548 183.266 145.38 183.228 145.189 183.111C145.029 182.292 144.964 181.531 144.784 180.371C144.126 181.082 143.616 181.491 142.715 182.446C142.537 181.025 142.162 180.009 142.243 179.206C142.534 176.696 143.09 174.283 143.549 171.811C145.405 162.523 143.689 153.93 136.725 147.298C131.717 142.521 126.123 138.434 119.664 136.505C107.272 132.839 95.7498 126.754 84.2533 120.49C82.4808 119.534 80.4388 119.002 78.4694 118.45C75.7313 117.689 73.3392 118.385 71.1769 120.141C67.0956 123.408 62.4482 125.541 57.2427 125.757C53.7251 125.829 50.1199 125.06 46.7171 123.367C42.859 121.459 38.9748 119.732 34.9921 118.208C32.7122 117.399 30.2559 117.335 27.8775 116.729C26.6767 116.386 25.1421 115.707 23.2944 115.032Z" fill="black"/>
<path d="M86.3017 63.2582C89.394 64.6959 92.1963 66.2182 95.1464 67.4375C97.1131 68.2504 99.1318 68.7017 101.197 69.3127C101.797 69.4843 102.543 69.6137 103.027 69.3861C104.189 68.7877 105.761 68.2434 106.158 67.1753C106.479 66.3889 105.463 64.5197 104.532 63.7517C101.38 61.0321 98.1077 58.4345 94.8581 55.9167C91.0342 53.0466 87.1377 50.1976 83.192 47.4495C81.9009 46.5265 80.4157 45.7466 78.9974 45.4668C77.988 45.2411 76.4658 45.6844 75.9761 46.4332C74.7041 48.2759 73.3296 48.4164 71.4819 47.742C70.6175 47.4742 69.7764 47.2861 68.9845 46.9971C71.0416 43.7999 73.2669 40.6404 75.1325 37.3258C76.1638 35.4667 76.9804 33.4102 77.5562 31.3373C78.4302 28.3981 77.7273 26.5243 75.5281 24.9131C74.0456 23.8726 71.4907 24.0104 69.8126 25.5383C68.743 26.456 67.6242 27.4747 66.8159 28.7493C63.7275 33.8056 61.0453 39.1766 59.657 45.2101C59.605 45.5716 59.408 45.9754 59.501 46.2947C59.7103 47.0132 60.0412 47.6097 60.2505 48.3282C60.7606 47.9198 61.439 47.549 61.6852 47.0443C62.8259 43.9408 63.7519 40.6401 64.9652 37.5155C66.3261 34.0881 68.0207 30.9965 70.934 28.8491C71.5891 28.3985 72.3632 28.0864 73.0416 27.7157C73.3056 27.812 73.497 27.9295 73.761 28.0258C73.5243 29.9134 73.7663 32.0945 73.051 33.6885C71.1047 37.806 68.7522 41.6088 66.5911 45.529C66.4434 45.8318 66.1275 46.097 65.9797 46.3999C65.5858 47.2074 65.3601 48.0526 64.9895 48.9399C65.7581 49.1491 66.5035 49.2784 67.2721 49.4876C69.1458 49.9812 71.0948 50.193 72.9425 50.8674C74.358 51.4078 75.4659 51.4316 76.4657 50.2744C77.564 48.9153 78.9385 48.7748 80.3745 49.6557C82.6489 50.9852 84.8509 52.3358 86.9311 53.8085C91.283 56.8712 95.5624 59.9551 99.7925 63.14C100.892 63.9456 101.746 65.2559 102.674 66.2845C102.576 66.4864 102.5 66.7681 102.329 66.9911C99.9278 66.3048 97.5727 65.7783 95.2203 64.9911C90.1326 63.1818 85.3663 60.5862 81.0691 56.9012C80.5439 56.4479 79.8218 56.3984 79.1981 56.147C79.0709 56.7903 78.9437 57.4336 78.7673 58.1778C78.7905 58.2576 78.7413 58.3585 78.7645 58.4384C80.5396 63.7238 81.8073 69.157 84.1391 74.1937C86.5639 79.5497 91.4232 82.4647 96.2907 84.5979C108.999 90.1635 121.635 95.7502 134.468 100.933C141.4 103.677 144.735 102.706 149.392 97.3664C158.924 86.6231 156.451 69.7628 149.569 59.9024C149.166 59.3271 148.568 58.8949 148.092 58.3407C147.971 58.4627 147.753 58.5261 147.631 58.6481C148.691 60.9376 149.679 63.2481 150.739 65.5375C155.19 75.153 153.673 88.845 147.498 96.5323C144.838 99.8185 141.77 100.625 137.909 98.9784C124 93.0697 110.114 87.2408 96.2046 81.3321C94.6933 80.733 93.3558 79.6503 91.8705 78.8704C89.3321 77.4445 87.5473 75.3662 87.1946 72.2647C86.8883 69.3228 86.6545 66.3598 86.3017 63.2582Z" fill="black"/>
<path d="M42.4175 67.5515C41.7992 71.3688 39.6396 72.8638 36.3476 72.0904C34.6654 71.7143 32.9886 70.8169 33.0393 68.2907C33.9611 67.6758 34.8597 66.9812 35.8308 66.2653C38.1121 64.6484 38.0766 63.4463 35.5464 61.2386C40.8983 58.5542 46.1283 55.9919 51.3584 53.4296C51.2654 53.1102 51.0999 52.812 51.0302 52.5725C49.8704 52.9103 48.7366 53.0673 47.6233 53.5647C42.0308 56.2326 36.415 58.8206 30.8922 61.728C28.1787 63.211 28.1882 64.5939 30.3532 67.1677C31.6853 68.7716 31.9383 69.9104 31.0205 72.4293C29.9291 70.8419 29.0265 69.6325 28.0773 68.2635C27.3155 69.6978 27.3743 70.9797 28.5149 72.4662C29.8702 74.1499 31.2803 75.2116 33.3797 74.86C34.6585 74.6608 35.8648 74.4827 37.1408 74.5441C41.0414 74.7072 43.3228 73.0902 43.5499 69.8198C43.6046 69.1976 43.1779 68.5425 42.9919 67.9038C42.8497 67.6854 42.6582 67.568 42.4175 67.5515Z" fill="black"/>
<path d="M24.4293 94.3509C23.3037 93.7261 22.2014 93.1811 20.8843 92.4388C24.1435 91.7494 27.1743 92.1659 30.2488 93.0025C33.0102 93.8438 35.7715 94.6852 38.4836 95.6274C42.4197 96.9926 46.2014 97.0172 50.0227 95.5579C51.5217 95.0348 53.0904 94.7511 54.5894 94.228C54.9519 94.1225 55.1981 93.6178 55.4908 93.2727C55.1571 92.9369 54.7769 92.4414 54.4404 92.3661C53.1876 92.3846 51.6476 92.2268 50.63 92.783C44.7913 95.9556 39.1442 94.6556 33.3945 91.6535C29.1069 89.3514 24.6579 88.6552 20.0419 90.086C18.5921 90.5082 17.4064 91.0268 17.3844 93.1116C17.3762 93.8934 16.5008 94.6679 15.9852 95.5975C18.975 95.3331 21.579 95.0943 24.2788 94.9143C24.3513 94.8932 24.4266 94.6115 24.4293 94.3509Z" fill="black"/>
<path d="M156.181 56.6779C156.391 57.3964 156.385 57.9175 156.669 58.3543C162.866 66.942 163.655 76.6716 162.635 86.6682C162.606 87.1096 162.432 87.5932 162.548 87.9924C162.732 88.8916 162.964 89.69 163.22 90.5681C163.805 89.878 164.8 89.242 165.025 88.3969C166.258 83.4481 165.564 78.3672 164.799 73.3075C164.079 68.4074 161.908 64.1902 159.858 59.8508C159.198 58.3973 158.397 56.7255 156.181 56.6779Z" fill="black"/>
<path d="M57.971 90.9936C57.8603 90.0732 57.8453 89.2116 57.662 88.3124C56.9523 84.7952 56.1701 81.299 55.6053 77.7396C55.02 73.8398 51.5325 71.0449 47.9833 71.8186C46.7278 72.0977 45.4955 72.4565 44.214 72.9163C43.924 73.0008 43.6053 73.5266 43.6026 73.7872C43.6956 74.1066 44.125 74.5011 44.389 74.5974C45.5201 74.701 46.6046 74.645 47.6892 74.589C49.7626 74.4182 51.4654 75.1348 52.2613 77.3278C53.6904 81.1551 54.8529 85.1467 56.137 89.0163C56.3695 89.8146 56.7962 90.4697 57.1736 91.2258C57.4636 91.1414 57.6811 91.0781 57.971 90.9936Z" fill="black"/>
<path d="M36.114 105.587C34.6479 102.983 32.736 101.547 30.4998 101.159C27.9505 100.776 25.3232 100.935 22.7218 100.913C20.9876 100.898 19.3259 100.863 17.8488 99.3011C19.1235 97.1978 21.2243 99.0109 22.7725 98.3868C21.0835 96.3672 18.0787 95.77 16.4497 97.197C15.2584 98.2368 15.4307 100.178 17.0145 100.756C19.1494 101.607 21.3828 102.256 23.6217 102.383C27.6181 102.605 31.4407 103.31 35.0815 105.281C35.2237 105.5 35.5369 105.495 36.114 105.587Z" fill="black"/>
<path d="M54.1172 52.3659C54.7914 54.6811 59.5549 57.5374 60.9349 56.8757C61.3466 56.6692 61.6968 55.4414 61.534 54.8825C60.9241 53.3281 56.9497 51.0214 55.5492 51.3427C54.8735 51.4529 54.4331 52.1007 54.1172 52.3659Z" fill="black"/>
<path d="M51.7277 59.5575C52.3487 60.0695 53.146 59.8373 53.4182 59.1518C53.8121 58.3443 54.0351 57.7597 53.9448 57.1798C53.8286 56.7806 53.4224 56.4659 52.8712 56.1934C52.2968 55.8411 51.6677 56.1109 51.4215 56.6156C51.126 57.2213 51.0973 57.6626 50.9701 58.3059C50.9906 58.6463 51.2026 59.1042 51.7277 59.5575Z" fill="black"/>
</svg>
