<svg width="265" height="217" viewBox="0 0 265 217" fill="none" xmlns="http://www.w3.org/2000/svg">
<path opacity="0.3" d="M230.5 171.421C226.404 173.012 222.32 174.627 218.224 176.218C213.228 178.175 208.195 180.06 203.196 182.077C201.068 182.942 199.049 184.022 196.933 184.911C194.138 186.084 191.332 187.233 188.465 188.263C186.172 189.062 183.805 189.78 181.445 190.315C180.355 190.567 179.15 190.459 178.037 190.275C176.49 190.011 175.351 189.123 174.757 187.751C173.665 185.198 172.651 182.605 171.637 180.011C170.623 177.418 169.636 174.812 168.701 172.179C167.765 169.546 166.842 166.937 166.05 164.261C164.094 157.785 162.243 151.255 160.314 144.765C159.867 143.229 159.251 141.749 159.323 140.07C159.384 139.084 159.687 138.185 160.385 137.354C162.079 135.304 164.392 134.285 166.864 133.515C170.74 132.333 174.653 131.163 178.529 129.982C179.79 129.614 180.613 130.332 180.274 131.549C180.154 132.027 179.943 132.522 179.747 132.979C178.976 134.772 179.189 136.367 180.465 137.722C182.583 140.027 185.177 141.583 188.635 141.658C191.129 141.712 193.633 141.462 195.953 140.261C200.002 138.186 202.571 133.246 201.605 129.315C201.191 127.583 200.186 126.18 198.182 125.729C197.851 125.657 197.533 125.549 197.255 125.391C196.648 125.1 196.162 124.659 196.188 123.929C196.214 123.199 196.721 122.705 197.4 122.421C199.008 121.699 200.604 120.952 202.234 120.338C205.623 119.105 209.021 117.955 212.408 116.782C213.163 116.52 213.955 116.33 214.718 116.213C216.695 115.961 217.869 116.592 218.464 118.292C219.621 121.559 220.726 124.853 221.909 128.107C222.46 129.59 223.143 131.007 223.657 132.479C223.927 133.209 224.051 134.042 223.997 134.846C223.946 135.916 223.208 136.409 222.093 136.285C221.298 136.209 220.534 135.997 219.727 135.897C216.091 135.405 213.157 136.887 210.835 139.582C209.695 140.905 209.402 142.605 209.396 144.22C209.369 147.877 210.54 151.107 213.138 153.647C214.194 154.696 215.846 154.907 217.411 155.012C219.361 155.161 221.188 154.806 222.998 153.832C223.772 153.411 224.74 153.311 225.634 153.128C226.929 152.892 228.166 152.476 229.175 151.608C229.957 150.944 230.585 151.015 230.915 151.864C232.236 155.586 233.557 159.308 234.825 163.057C235.081 163.823 235.217 164.68 235.175 165.507C235.045 167.723 233.803 169.365 231.767 170.543C231.359 170.779 230.902 170.98 230.483 171.191C230.452 171.326 230.476 171.374 230.5 171.421ZM190.301 163.121C190.605 163.594 190.858 164.093 191.203 164.516C192.32 166.012 194.029 166.791 195.766 167.496C197.96 168.389 200.263 168.002 202.374 166.906C204.589 165.758 206.161 163.858 207.368 161.756C208.452 159.865 208.519 157.98 207.88 156.063C207.683 155.476 207.287 155.019 206.538 155.099C205.789 155.179 205.323 155.623 205.233 156.355C205.163 156.868 205.131 157.392 205.191 157.899C205.318 159.388 204.946 160.8 203.988 162.03C202.534 163.839 200.724 165.202 198.282 165.121C195.765 165.019 193.793 164.044 192.846 161.715C191.843 159.207 192.14 155.563 195.868 153.83C196.902 153.337 197.96 152.893 198.993 152.4C199.529 152.16 200.022 151.702 199.81 151.152C199.68 150.83 199.111 150.55 198.714 150.481C196.936 150.215 195.378 150.972 193.89 151.932C190.176 154.345 188.082 159.314 190.301 163.121ZM192.524 144.083C191.983 144.446 191.393 144.774 190.888 145.208C188.643 147.207 187.439 149.577 187.545 152.39C187.579 153.239 187.715 154.095 188.572 154.618C189.215 154.98 189.813 154.798 190.032 154.06C190.15 153.642 190.179 153.179 190.156 152.743C189.827 148.64 193.482 145.331 197.746 145.894C197.99 145.921 198.207 145.96 198.424 146C201.53 146.551 203.433 149.471 202.61 152.335C201.672 155.556 198.106 157.805 195.161 157.053C194.294 156.834 193.644 157.043 193.354 157.577C193.091 158.098 193.301 158.709 194.097 159.113C196.155 160.194 198.426 160.002 200.474 158.848C203.349 157.247 204.931 154.716 205.285 151.641C205.524 149.64 205.321 147.741 204.053 146.142C201.467 142.91 196.699 142.064 192.524 144.083ZM181.626 159.291C182.215 160.785 183.667 160.858 184.916 161.183C185.018 161.19 185.432 160.773 185.384 160.677C184.992 159.771 184.64 158.814 184.036 158.074C183.777 157.757 182.885 157.879 182.267 157.892C181.249 157.959 181.097 158.244 181.479 159.066C181.565 159.172 181.626 159.291 181.626 159.291ZM182.677 154.341C182.394 153.976 182.164 153.585 181.855 153.234C181.742 153.141 181.344 153.133 181.225 153.223C180.101 154.059 179.797 155.019 180.228 156.264C180.646 157.547 180.94 157.607 181.952 156.618C182.045 156.541 182.152 156.427 182.245 156.351C183.149 155.536 183.191 155.425 182.677 154.341ZM185.69 158.94C185.716 158.927 185.716 158.927 185.743 158.914C185.899 159.223 186.003 159.559 186.225 159.804C186.312 159.91 186.722 159.942 186.841 159.852C187.912 159.042 188.129 158.365 187.707 157.205C187.228 155.864 186.781 155.762 185.625 156.793C185.399 156.997 185.255 157.428 185.283 157.743C185.32 158.142 185.55 158.533 185.69 158.94ZM183.29 152.3C183.25 153.066 183.464 153.555 184.286 154.663C184.605 155.099 185.995 155.442 186.392 155.122C187.042 154.585 186.389 154.138 186.251 153.67C186.172 153.382 186.013 153.134 185.841 152.922C185.68 152.735 185.443 152.526 185.2 152.5C184.6 152.355 183.97 152.344 183.29 152.3Z" fill="white"/>
<g opacity="0.2">
<path fill-rule="evenodd" clip-rule="evenodd" d="M114.594 75.6783L114.594 75.6783C114.199 75.9583 113.8 76.241 113.444 76.5825C112.316 77.6649 111.22 78.7588 110.121 79.8562L110.121 79.8566L110.121 79.857L110.12 79.8574L110.12 79.8578L110.119 79.8581L110.119 79.8583L110.119 79.8585L110.119 79.8587L110.119 79.8589C109.576 80.4011 109.032 80.9442 108.483 81.4872C107.359 82.5986 106.239 83.7128 105.117 84.8279L105.114 84.8311L105.113 84.832C102.897 87.0353 100.678 89.242 98.4257 91.4374C97.9822 91.8719 97.539 92.3084 97.0951 92.7455C95.3579 94.456 93.6121 96.1752 91.8147 97.8169C90.2764 99.2073 88.6876 100.55 87.0987 101.892C86.1454 102.697 85.1921 103.503 84.2496 104.318L84.2485 104.319C82.1194 106.143 79.9902 107.967 77.8576 109.742C76.2904 111.027 74.6939 112.239 72.7174 112.865C69.9468 115.778 64.1501 109.295 61.5981 105.69L61.5976 105.689C60.212 104.192 58.8265 102.695 57.4632 101.175C56.9127 100.561 56.3586 99.8999 55.8305 99.2632C52.6708 96.2575 56.1128 93.1307 59.0223 91.4701C59.399 91.2303 59.8114 91.0267 60.2451 90.8392C62.6946 89.7672 64.3935 87.9813 64.9678 85.3046C65.1867 84.3489 65.1021 83.1941 64.8127 82.2026C64.0576 79.7832 62.8308 77.497 61.1203 75.5118C59.4099 73.5266 57.5466 71.7541 55.4149 70.2635C51.2741 67.3092 47.3094 67.7455 44.0363 70.7198C37.8599 77.2125 36.1639 76.8362 32.5933 73.5634C32.1965 73.1996 31.8393 72.8598 31.3246 72.3702C30.8243 71.8833 29.0498 69.9414 27.5438 68.2934L27.5437 68.2933L27.5437 68.2933L27.5432 68.2927L27.5425 68.292C27.1761 67.891 26.8256 67.5075 26.5133 67.1666C26.0847 66.6946 25.6407 66.2302 25.1956 65.7645C24.0905 64.6084 22.9784 63.4449 22.0761 62.1398C19.5705 58.5029 19.6047 57.3268 22.7178 54.4689C25.1979 52.1727 27.7815 49.975 30.3651 47.7773L30.3652 47.7772C31.8785 46.4973 33.4355 45.259 34.9925 44.0207C35.5115 43.6079 36.0305 43.1951 36.5478 42.7808C38.7997 40.9837 41.7277 42.829 42.6276 45.2518C42.9109 46.032 43.0656 46.8309 43.2216 47.6369C43.298 48.032 43.3748 48.4288 43.4673 48.826C43.5451 49.1415 43.6064 49.4701 43.668 49.8002C43.8233 50.6329 43.9803 51.4748 44.4082 52.1383C45.6845 54.1134 47.7632 54.8822 49.9514 55.1732C51.702 55.406 53.2032 54.8644 54.6938 54.1785C57.6974 52.7831 60.3539 50.9233 62.0235 48.0799C63.8873 44.9287 63.5829 40.118 60.6491 36.8795C59.4151 35.4818 57.9975 34.5362 56.4647 33.6599C56.4074 33.6267 56.3498 33.5935 56.2919 33.5601C55.739 33.2416 55.1625 32.9094 54.7142 32.4424C53.3614 31.066 53.278 29.5989 54.6263 28.2852C55.4516 27.455 56.3732 26.7395 57.3008 26.0195L57.3008 26.0195L57.3008 26.0194L57.3009 26.0194L57.3009 26.0194L57.3009 26.0194C57.6585 25.7418 58.017 25.4635 58.3711 25.1777L58.3754 25.1743L58.376 25.1739L58.3766 25.1734L58.3771 25.173L58.3777 25.1725L58.3783 25.1721C61.9043 22.3977 65.4303 19.6233 68.9339 16.8724C68.9816 16.8403 69.0288 16.8024 69.0769 16.7638C69.1679 16.6907 69.2623 16.6149 69.3692 16.5703C72.0552 14.7832 73.3611 14.8616 76.0315 17.1333C76.687 17.6896 77.3192 18.2996 77.9442 18.9025L77.9443 18.9026L77.9444 18.9026L77.9444 18.9027L77.9445 18.9028L77.9445 18.9028C78.1517 19.1027 78.358 19.3017 78.5642 19.4978C79.1248 20.0311 79.6775 20.5669 80.2293 21.1018L80.23 21.1024L80.2306 21.103L80.2313 21.1037L80.2319 21.1043L80.2326 21.1049C81.3355 22.174 82.4346 23.2394 83.5849 24.274C87.1788 27.4508 90.202 31.1015 93.2363 34.7658L93.2364 34.7659C93.5711 35.17 93.9059 35.5743 94.2416 35.9781C95.5337 37.5391 96.928 39.0497 98.3094 40.5463L98.3096 40.5464L98.3098 40.5466L98.3099 40.5468L98.3101 40.547L98.3103 40.5472C98.7924 41.0695 99.2729 41.5901 99.7469 42.1105C102.315 44.9563 104.879 47.7539 107.47 50.5761C107.979 51.1385 108.494 51.699 109.01 52.2604C110.273 53.6339 111.54 55.013 112.739 56.4388C113.023 56.7737 113.309 57.1077 113.594 57.4416L113.595 57.4431C115.501 59.6739 117.4 61.8966 119.02 64.2945C120.179 65.9787 120.382 68.097 119.455 69.9009C119.134 70.5499 118.7 71.1323 118.267 71.7146L118.267 71.7147C118.05 72.0059 117.833 72.2971 117.63 72.5966C117.522 72.7621 117.402 72.9273 117.282 73.0925L117.281 73.0929C117.161 73.2582 117.041 73.4236 116.933 73.5892C116.318 74.0793 115.804 74.6197 115.268 75.1837L115.268 75.1838C115.051 75.3548 114.823 75.5159 114.595 75.678L114.594 75.6783ZM72.6081 53.7083C71.8503 53.4886 71.1856 53.3888 70.7124 54.2855C70.6167 54.1945 70.5275 54.1119 70.4433 54.0338C70.2084 53.8161 70.0122 53.6343 69.8218 53.407C68.8331 52.3412 68.1726 52.5273 67.3667 53.4834C67.3132 53.5578 67.2642 53.6365 67.2152 53.7152C67.1663 53.7939 67.1173 53.8726 67.0638 53.947C66.7246 54.3761 66.8244 54.8156 67.2257 55.2287C67.3991 55.4093 67.5687 55.5941 67.7382 55.7789C67.9077 55.9636 68.0772 56.1483 68.2506 56.329C68.5431 56.6385 68.5761 56.8579 68.227 57.1522C67.4156 57.8056 66.6133 58.4675 65.811 59.1295C65.0086 59.7914 64.2063 60.4534 63.3949 61.1067C63.0277 61.3839 62.9487 61.6846 63.0329 62.1406C63.1498 62.7419 63.2614 63.3431 63.3729 63.9433C63.5465 64.8773 63.7195 65.8088 63.9109 66.7346L63.9109 66.7348C64.2096 68.2718 64.5083 69.8088 64.9396 71.3153C65.2991 72.5344 66.0256 72.7869 67.012 72.2218C67.0217 72.2116 67.0452 72.2146 67.0777 72.2188C67.0978 72.2214 67.1213 72.2244 67.1471 72.225L67.3827 72.4491C69.4721 74.4993 71.5433 76.5323 73.5989 78.5817C74.0339 78.9955 74.3922 79.0545 74.7882 78.7107C75.0579 78.4818 75.319 78.2526 75.5802 78.0234C75.8414 77.7942 76.1026 77.5649 76.3723 77.3359C76.7683 76.9922 76.6809 76.7211 76.3134 76.3089C74.9754 74.8481 73.6687 73.3544 72.38 71.878C71.9013 71.3287 71.9778 70.9942 72.522 70.6036L72.5222 70.6035C72.9882 70.2951 73.4542 69.9867 73.8839 69.6438C74.7147 69.0246 74.9667 69.0137 75.7691 69.8397C76.3801 70.4679 76.9787 71.1 77.5773 71.732C78.1758 72.3641 78.7744 72.9961 79.3853 73.6242C80.0221 74.2614 80.1572 74.2645 80.7903 73.7079C81.0896 73.4295 81.3927 73.1471 81.6959 72.8646C81.9999 72.5814 82.3039 72.2982 82.6041 72.019C83.1818 71.4722 83.7615 70.9273 84.3412 70.3825C85.5006 69.2928 86.6599 68.2031 87.8032 67.0981C88.6372 66.2939 88.6245 65.4362 87.7289 64.4902C86.5969 63.309 85.451 62.1423 84.3051 60.9757C83.7321 60.3923 83.1591 59.809 82.5878 59.2238C82.2047 58.828 81.9008 58.8208 81.5385 59.1653C79.5659 60.9849 77.6089 62.7881 75.6181 64.5904C75.0657 65.0986 74.4795 65.6059 73.8727 66.0623C73.7988 66.1161 73.6605 66.095 73.5168 66.0731C73.4429 66.0619 73.3675 66.0504 73.2986 66.0487C73.311 65.9874 73.3153 65.9184 73.3195 65.8493C73.3281 65.7113 73.3366 65.5733 73.4096 65.4965C74.3128 64.645 75.2395 63.8017 76.1636 62.9608C76.6101 62.5545 77.0559 62.1488 77.4982 61.743C77.8092 61.4592 78.1221 61.1753 78.4357 60.8908C79.4438 59.9764 80.4595 59.0552 81.4434 58.1038C82.2774 57.2997 81.9584 56.4011 80.736 56.0527C79.3839 55.6592 78.0278 55.2698 76.6717 54.8804C75.3159 54.4911 73.96 54.1017 72.6081 53.7083Z" fill="white"/>
</g>
</svg>
