<svg width="207" height="219" viewBox="0 0 207 219" fill="none" xmlns="http://www.w3.org/2000/svg">
<path d="M84.9383 138.223C73.7689 141.094 66.0335 154.405 63.5619 160.701L63.0143 169.153L64.6716 178.247L64.2693 182.914L62.6895 183.41L58.6478 184.147L53.6127 181.724L51.3133 174.835L52.8157 164.748L52.7769 159.953L49.4114 151.797L46.9665 148.693L38.888 161.649L34.4998 168.503L32.1881 176.441L31.0323 180.41L27.3759 179.824L22.4693 176.96L22.3748 170.713L29.884 158.07L29.5109 144.566L27.1728 132.882L31.1539 119.211L37.3788 110.978L43.514 107.981L37.3571 102.839L52.0845 85.1216L57.7665 96.8226L61.9753 100.44L65.3191 100.457L82.6415 93.5419L102.554 85.9458L114.384 79.8229L119.453 75.5583L121.507 68.5024L122.239 61.0613L112.688 65.9339L105.799 68.2334L102.215 65.7545L106.145 62.1152L116.54 52.7041L127.984 47.9041C129.265 48.4364 132.115 49.4898 133.276 49.4452C134.438 49.4007 137.299 48.2249 138.585 47.6425L134.706 41.2505L129.833 31.6988L132.256 26.6637L138.302 28.9026C140.484 34.0032 144.985 44.7223 145.53 46.7945C146.074 48.8667 153.095 52.0276 156.538 53.3489L163.649 56.8552L176.678 63.0413L178.224 69.2322L176.627 73.0727L169.811 73.4798L160.092 73.9982L153.717 74.5337L149.479 89.0865C148.965 90.8504 151.434 93.3236 152.733 94.3397L165.282 95.6022L172.171 93.3028L179.886 89.8088L186.501 91.7352C188.265 92.2489 188.144 95.4029 187.863 96.9156L189.169 100.645L178.311 101.788L170.853 104.4L167.676 108.738L182.34 115.878L165.972 121.158L153.518 126.142L144.81 126.477L134.555 120.62L130.145 119.336L123.642 120.312C115.394 125.086 96.1076 135.352 84.9383 138.223Z" fill="white"/>
<path d="M28.5148 79.49C30.952 77.6017 31.4334 77.5687 33.8884 79.6693C33.8775 78.6269 33.82 77.7441 33.835 76.8824C33.7091 74.0745 34.1631 71.4355 35.6784 68.9323C37.8817 65.417 40.405 64.8528 43.4222 67.7233C43.8229 66.8874 44.2729 66.1524 44.5778 65.3752C46.7674 60.5569 49.2236 55.9028 53.9174 53.286C54.5876 52.8749 55.307 52.5648 56.0756 52.3557C57.8768 51.841 59.6371 52.0072 60.6916 53.7865C61.7694 55.486 60.9447 57.2377 59.8766 58.7453C53.6798 67.333 52.2153 76.9524 53.0936 87.1674C53.474 91.2619 52.2144 92.8869 48.5545 93.0335C48.073 93.0665 47.2634 93.9566 47.0774 94.5952C46.6617 96.2928 46.6316 98.0161 46.1434 99.6926C45.3065 102.567 43.4382 103.581 40.8287 102.821C40.3213 102.674 39.4076 102.841 39.0739 103.176C37.6229 104.919 36.1034 104.736 34.6221 103.612C31.0305 101.094 29.3742 97.0608 28.2922 92.6754C27.6384 90.0601 27.3443 87.2898 26.9544 84.5782C27.5151 82.9228 28.0033 81.2463 28.5148 79.49Z" fill="#F8A846"/>
<path d="M71.0713 117.516C68.6532 116.638 66.7193 115.989 64.9276 115.12C62.3851 113.86 61.1951 110.656 62.296 107.686C63.5132 104.316 65.7739 101.684 68.9646 100.448C73.4752 98.7302 78.1362 97.5761 82.5743 95.8375C87.0849 94.12 91.4477 92.0996 95.8106 90.0793C101.995 87.2038 108.105 84.0466 114.338 81.2721C115.873 80.5931 117.92 80.5832 119.562 80.8879C123.085 81.4809 124.243 83.9833 122.887 87.8318C121.437 91.9996 118.75 95.2872 115.868 98.4318C111.724 102.941 107.163 106.722 101.573 108.905C100.781 109.194 100.065 109.764 99.1305 110.272C102.36 112.684 103.863 115.893 103.112 120.092C102.364 124.55 99.9926 128.103 96.5516 130.738C93.6358 132.92 90.6707 135.001 87.6564 136.981C80.6471 141.609 73.5886 146.135 66.5301 150.661C65.3581 151.445 64.015 152.007 62.646 152.388C58.6838 153.572 55.7036 151.925 54.4069 147.737C52.187 140.508 54.3368 134.206 58.7078 128.378C62.2021 123.939 65.6499 119.661 71.0713 117.516ZM82.4808 125.861C82.0418 127.639 83.1168 129.078 84.6746 128.319C86.3048 127.581 87.7847 126.28 89.0962 125.017C89.5257 124.622 89.6802 123.281 89.3847 122.676C89.0893 122.07 88.121 121.615 87.4453 121.505C85.5894 121.397 82.9895 123.844 82.4808 125.861ZM89.8181 115.787C90.5375 115.477 90.8165 114.519 90.2803 113.93C90.1094 113.707 89.9151 113.564 89.8194 113.622C89.219 113.794 88.6678 114.067 88.1659 114.44C87.6147 114.712 87.4547 115.532 87.7967 115.978C87.8952 116.18 88.0894 116.323 88.1619 116.344C88.6433 116.311 89.1712 116.118 89.8181 115.787Z" fill="#F8A846"/>
<path d="M139.992 106.584C143.641 105.395 143.335 108.337 144.073 109.851C144.664 111.063 143.956 112.415 142.636 112.897C138.102 114.694 133.624 114.949 129.618 111.964C127.288 110.246 126.646 106.508 128.127 103.042C130.642 97.1065 134.006 91.7643 138.588 87.6426C140.712 85.7496 143.471 84.6477 146.087 83.7642C147.215 83.4 149.488 84.2351 149.908 85.2235C150.574 86.7165 150.527 89.0408 149.893 90.6751C147.973 95.9183 145.424 100.892 141.199 104.598C140.938 104.955 140.726 105.413 139.992 106.584Z" fill="#F8A846"/>
<path d="M150.857 51.7243C152.741 52.2732 154.626 52.822 156.511 53.3709C159.845 54.3419 161.415 57.0509 160.056 60.6387C159.306 62.6721 157.931 64.6963 156.355 66.0561C150.961 70.8072 141.814 71.4343 136.356 67.7662C131.091 64.2413 131.382 57.5712 136.956 53.8249C141.429 50.8841 145.782 50.2467 150.857 51.7243Z" fill="#F8A846"/>
<path d="M164.136 120.889C160.657 119.876 159.754 116.495 161.722 113.517C163.548 110.758 166.231 109.375 169.039 108.374C170.887 107.699 172.859 107.408 174.707 106.733C177.587 105.754 180.153 106.934 182.312 108.429C183.744 109.452 184.587 111.689 185.377 113.565C185.6 114.149 184.773 115.64 184.178 116.333C183.606 116.946 182.693 117.113 181.852 117.301C176.877 118.451 171.88 119.68 166.929 120.75C165.824 121.034 164.69 120.877 164.136 120.889Z" fill="#F8A846"/>
<path d="M83.8099 126.422C85.0585 123.754 85.9406 122.885 88.1152 123.518C87.2291 126.291 86.1062 127.177 83.8099 126.422Z" fill="#F8A846"/>
<path d="M182.987 115.032C180.779 111.272 178.2 113.379 175.573 113.22C176.504 112.452 177.485 111.785 178.726 110.761C176.899 111.095 175.408 111.353 173.99 111.633C173.915 111.351 173.767 111.049 173.692 110.767C174.696 110.02 175.627 109.252 177.133 108.132C175.448 108.247 174.218 108.149 173.113 108.433C166.025 110.093 159.009 111.773 151.946 113.614C149.135 114.354 146.653 114.237 144.392 112.28C142.108 110.402 139.751 108.504 137.372 106.685C133.922 103.948 130.176 102.771 125.785 104.35C125.184 104.521 124.488 104.752 123.981 104.604C123.279 104.313 122.766 103.644 122.207 103.135C122.732 102.681 123.278 101.888 123.878 101.716C132.721 99.7015 140.048 102.355 145.948 109.096C147.606 110.964 149.561 111.274 151.68 111.285C157.799 111.335 163.705 109.417 169.535 107.218C172.439 106.158 175.252 105.679 178.271 106.384C181.748 107.137 182.842 110.4 184.531 112.971C185.388 114.346 184.422 116.316 182.478 117.049C180.607 117.804 178.638 118.356 176.666 118.648C171.735 119.377 167.079 121.052 162.652 123.833C160.427 125.264 158.031 126.471 155.56 127.397C148.937 129.885 143.249 127.276 137.724 124.108C135.906 123.059 134.135 121.85 132.198 120.94C129.534 119.558 126.842 120.16 124.182 121.463C122.529 122.281 120.803 123.077 119.297 124.198C111.983 129.602 103.8 132.588 95.5418 135.293C87.3796 137.939 79.6837 141.413 73.0274 147.529C69.6876 150.627 66.9796 154.255 65.1936 158.498C63.5005 162.422 63.7851 166.575 64.3336 170.632C64.5935 172.439 65.1666 174.252 65.2583 176.097C65.376 178.123 65.3022 180.267 64.8892 182.225C64.7525 182.964 63.6529 183.77 62.861 184.059C60.8683 184.691 58.8031 185.302 56.8282 185.333C55.5754 185.315 54.0737 184.531 53.2913 183.437C51.2889 180.862 50.7951 177.428 50.7595 174.04C50.7006 170.732 50.8591 167.487 51.1134 164.184C51.6302 158.358 50.5565 154.755 46.9745 150.854C43.0617 156.729 39.0272 162.482 35.3578 168.602C34.008 170.807 33.725 173.669 32.981 176.224C32.609 177.501 32.6487 178.985 32.0101 180.098C31.6094 180.934 30.4373 181.718 29.6426 181.746C28.2941 181.787 26.7746 181.604 25.6353 180.926C24.0843 180.041 22.3132 178.833 21.5253 177.218C20.7142 175.682 20.6171 173.316 21.0793 171.458C21.8205 168.643 22.7764 165.631 24.4395 163.43C29.4518 156.749 29.6185 149.697 27.9005 142.095C25.8816 133.366 27.2121 124.747 30.9552 116.484C32.6975 112.662 35.9266 110.484 39.1816 108.488C39.5645 108.253 39.9242 108.098 40.6176 107.607C38.774 106.377 37.2202 105.232 35.62 104.246C29.4161 100.707 26.0816 95.1464 26.0485 87.4292C26.0498 85.2645 26.3643 83.1045 26.9688 81.0288C27.8262 77.8144 29.741 76.64 33.0672 76.8292C33.4692 73.8286 33.1696 70.5371 34.9721 67.8577C35.1896 67.921 35.3578 67.8834 35.5753 67.9468C35.351 69.5269 35.0543 71.0859 34.83 72.666C34.4102 76.2677 34.7358 79.74 36.0243 83.1463C36.4962 84.4962 36.4401 86.0387 36.8163 87.4473C37.3402 89.1587 38.1047 90.8536 38.7011 92.5861C38.9008 93.2504 38.8133 94.091 38.8215 94.8728C38.1199 94.5819 37.2035 94.4882 36.8124 93.9413C34.836 91.5471 34.1767 88.4106 33.7813 85.1778C33.5707 83.471 33.1425 81.7009 32.4039 80.1867C31.7146 78.7736 30.3196 78.9736 29.7096 80.528C29.0764 82.1622 28.2053 84.0736 28.3434 85.7593C28.8907 91.9808 30.1341 97.972 35.5666 101.459C37.9669 102.938 40.344 104.496 42.7908 105.815C43.8084 106.371 45.1569 106.331 46.3632 106.509C47.1839 106.661 48.051 106.654 48.8948 106.726C48.9933 106.928 49.0685 107.21 49.167 107.412C48.3779 107.961 47.6872 108.713 46.8461 108.901C39.8299 110.582 34.4044 114.631 31.3725 121.802C28.3638 128.893 28.0781 136.085 30.1531 143.271C30.7262 145.083 30.9396 147.05 31.272 148.879C32.2925 154.286 31.286 159.362 28.1801 164.087C26.3311 166.926 24.7255 170.009 23.3374 173.155C22.8437 174.311 23.2458 175.9 23.2418 177.804C24.4604 176.86 25.058 176.428 26.0619 175.681C25.9293 179.106 28.3392 179.202 30.5398 180.016C30.8188 179.058 31.3385 178.083 31.3042 177.121C31.0579 172.026 33.1572 167.788 35.9581 163.84C37.3107 161.896 38.5416 159.83 39.7724 157.763C41.9237 153.886 42.193 149.721 41.9084 145.568C41.71 142.739 41.3434 139.948 41.3132 137.081C41.1872 129.683 43.4793 123.163 48.3836 117.663C48.8828 117.029 49.6747 116.74 50.2956 116.228C50.4898 116.371 50.6116 116.493 50.7825 116.716C50.0973 117.988 49.5079 119.202 48.8227 120.475C43.8378 129.762 43.3306 138.794 48.4583 147.649C49.0232 148.679 49.5156 149.689 50.1762 150.66C53.2591 155.196 53.9403 160.417 53.7107 166.066C53.5316 169.651 53.6658 173.241 53.9681 176.793C54.0571 178.378 54.6999 179.95 55.2935 181.422C55.5657 182.108 56.3398 182.42 56.8268 182.908C57.1577 182.312 57.5612 181.736 57.9154 181.06C58.1506 180.522 58.3133 179.963 58.5923 179.005C59.3569 180.7 59.997 182.013 60.5414 183.384C60.7329 183.266 60.9011 183.228 61.0926 183.111C61.2526 182.292 61.3168 181.531 61.4973 180.371C62.1552 181.082 62.6654 181.491 63.5667 182.446C63.7444 181.025 64.1192 180.009 64.0384 179.206C63.7471 176.696 63.1917 174.283 62.7321 171.811C60.8759 162.523 62.5921 153.93 69.5562 147.298C74.5645 142.521 80.1582 138.434 86.6177 136.505C99.0088 132.839 110.531 126.754 122.028 120.49C123.8 119.534 125.842 119.002 127.812 118.45C130.55 117.689 132.942 118.385 135.104 120.141C139.186 123.408 143.833 125.541 149.039 125.757C152.556 125.829 156.161 125.06 159.564 123.367C163.422 121.459 167.306 119.732 171.289 118.208C173.569 117.399 176.025 117.335 178.404 116.729C179.605 116.386 181.139 115.707 182.987 115.032Z" fill="black"/>
<path d="M119.978 63.2582C116.885 64.6959 114.083 66.2182 111.133 67.4375C109.166 68.2504 107.148 68.7017 105.082 69.3127C104.482 69.4843 103.737 69.6137 103.252 69.3861C102.09 68.7877 100.518 68.2434 100.122 67.1753C99.8002 66.3889 100.816 64.5197 101.748 63.7517C104.899 61.0321 108.172 58.4345 111.421 55.9167C115.245 53.0466 119.142 50.1976 123.087 47.4495C124.378 46.5265 125.864 45.7466 127.282 45.4668C128.291 45.2411 129.814 45.6844 130.303 46.4332C131.575 48.2759 132.95 48.4164 134.797 47.742C135.662 47.4742 136.503 47.2861 137.295 46.9971C135.238 43.7999 133.012 40.6404 131.147 37.3258C130.116 35.4667 129.299 33.4102 128.723 31.3373C127.849 28.3981 128.552 26.5243 130.751 24.9131C132.234 23.8726 134.789 24.0104 136.467 25.5383C137.536 26.456 138.655 27.4747 139.463 28.7493C142.552 33.8056 145.234 39.1766 146.622 45.2101C146.674 45.5716 146.871 45.9754 146.778 46.2947C146.569 47.0132 146.238 47.6097 146.029 48.3282C145.519 47.9198 144.84 47.549 144.594 47.0443C143.453 43.9408 142.527 40.6401 141.314 37.5155C139.953 34.0881 138.259 30.9965 135.345 28.8491C134.69 28.3985 133.916 28.0864 133.238 27.7157C132.974 27.812 132.782 27.9295 132.518 28.0258C132.755 29.9134 132.513 32.0945 133.228 33.6885C135.175 37.806 137.527 41.6088 139.688 45.529C139.836 45.8318 140.152 46.097 140.3 46.3999C140.693 47.2074 140.919 48.0526 141.29 48.9399C140.521 49.1491 139.776 49.2784 139.007 49.4876C137.133 49.9812 135.185 50.193 133.337 50.8674C131.921 51.4078 130.813 51.4316 129.814 50.2744C128.715 48.9153 127.341 48.7748 125.905 49.6557C123.63 50.9852 121.428 52.3358 119.348 53.8085C114.996 56.8712 110.717 59.9551 106.487 63.14C105.387 63.9456 104.534 65.2559 103.605 66.2845C103.704 66.4864 103.779 66.7681 103.95 66.9911C106.351 66.3048 108.707 65.7783 111.059 64.9911C116.147 63.1818 120.913 60.5862 125.21 56.9012C125.735 56.4479 126.458 56.3984 127.081 56.147C127.208 56.7903 127.336 57.4336 127.512 58.1778C127.489 58.2576 127.538 58.3585 127.515 58.4384C125.74 63.7238 124.472 69.157 122.14 74.1937C119.715 79.5497 114.856 82.4647 109.989 84.5979C97.2802 90.1635 84.6444 95.7502 71.8115 100.933C64.8788 103.677 61.5444 102.706 56.8873 97.3664C47.3556 86.6231 49.8279 69.7628 56.7098 59.9024C57.1133 59.3271 57.711 58.8949 58.1869 58.3407C58.3086 58.4627 58.5261 58.5261 58.6478 58.6481C57.5879 60.9376 56.6005 63.2481 55.5406 65.5375C51.0891 75.153 52.6062 88.845 58.7815 96.5323C61.4417 99.8185 64.5095 100.625 68.3704 98.9784C82.2796 93.0697 96.1655 87.2408 110.075 81.3321C111.586 80.733 112.924 79.6503 114.409 78.8704C116.947 77.4445 118.732 75.3662 119.085 72.2647C119.391 69.3228 119.625 66.3598 119.978 63.2582Z" fill="black"/>
<path d="M163.866 67.5515C164.484 71.3688 166.644 72.8638 169.936 72.0904C171.618 71.7143 173.295 70.817 173.244 68.2907C172.322 67.6759 171.423 66.9812 170.452 66.2654C168.171 64.6484 168.207 63.4463 170.737 61.2386C165.385 58.5542 160.155 55.9919 154.925 53.4296C155.018 53.1103 155.183 52.812 155.253 52.5725C156.413 52.9103 157.547 53.0673 158.66 53.5647C164.252 56.2326 169.868 58.8206 175.391 61.728C178.105 63.211 178.095 64.5939 175.93 67.1677C174.598 68.7716 174.345 69.9104 175.263 72.4293C176.354 70.8419 177.257 69.6325 178.206 68.2635C178.968 69.6978 178.909 70.9797 177.768 72.4662C176.413 74.15 175.003 75.2116 172.904 74.86C171.625 74.6608 170.418 74.4827 169.142 74.5441C165.242 74.7072 162.96 73.0902 162.733 69.8198C162.679 69.1976 163.105 68.5425 163.291 67.9038C163.434 67.6854 163.625 67.568 163.866 67.5515Z" fill="black"/>
<path d="M181.854 94.3509C182.979 93.7261 184.082 93.1811 185.399 92.4388C182.14 91.7495 179.109 92.1659 176.034 93.0026C173.273 93.8439 170.512 94.6852 167.8 95.6274C163.863 96.9926 160.082 97.0172 156.26 95.5579C154.761 95.0348 153.193 94.7512 151.694 94.228C151.331 94.1225 151.085 93.6178 150.792 93.2727C151.126 92.9369 151.506 92.4414 151.843 92.3662C153.096 92.3846 154.636 92.2269 155.653 92.783C161.492 95.9556 167.139 94.6556 172.889 91.6535C177.176 89.3514 181.625 88.6552 186.241 90.086C187.691 90.5082 188.877 91.0268 188.899 93.1116C188.907 93.8935 189.782 94.668 190.298 95.5975C187.308 95.3331 184.704 95.0944 182.004 94.9143C181.932 94.8932 181.857 94.6115 181.854 94.3509Z" fill="black"/>
<path d="M50.1 56.6779C49.8907 57.3964 49.8962 57.9176 49.6118 58.3543C43.415 66.942 42.6261 76.6716 43.6467 86.6683C43.6754 87.1096 43.8491 87.5932 43.7329 87.9924C43.5496 88.8917 43.3172 89.69 43.0614 90.5681C42.476 89.8781 41.4817 89.2421 41.256 88.3969C40.0236 83.4481 40.7169 78.3672 41.4827 73.3075C42.2019 68.4074 44.3737 64.1902 46.4237 59.8508C47.0829 58.3974 47.8843 56.7255 50.1 56.6779Z" fill="black"/>
<path d="M148.31 90.9936C148.421 90.0733 148.436 89.2117 148.619 88.3124C149.329 84.7952 150.111 81.2991 150.676 77.7396C151.261 73.8398 154.749 71.0449 158.298 71.8186C159.553 72.0977 160.786 72.4565 162.067 72.9164C162.357 73.0008 162.676 73.5266 162.679 73.7873C162.586 74.1066 162.156 74.5011 161.892 74.5974C160.761 74.7011 159.677 74.645 158.592 74.589C156.519 74.4182 154.816 75.1348 154.02 77.3278C152.591 81.1552 151.428 85.1468 150.144 89.0163C149.912 89.8146 149.485 90.4697 149.108 91.2258C148.818 91.1414 148.6 91.0781 148.31 90.9936Z" fill="black"/>
<path d="M170.167 105.587C171.633 102.983 173.545 101.547 175.781 101.159C178.331 100.776 180.958 100.935 183.559 100.913C185.294 100.899 186.955 100.863 188.432 99.3011C187.158 97.1978 185.057 99.0109 183.509 98.3868C185.198 96.3672 188.203 95.77 189.832 97.197C191.023 98.2368 190.851 100.178 189.267 100.756C187.132 101.607 184.898 102.256 182.66 102.383C178.663 102.605 174.841 103.31 171.2 105.281C171.058 105.5 170.744 105.495 170.167 105.587Z" fill="black"/>
<path d="M152.164 52.366C151.49 54.6811 146.726 57.5374 145.346 56.8757C144.935 56.6692 144.584 55.4414 144.747 54.8826C145.357 53.3281 149.332 51.0215 150.732 51.3427C151.408 51.4529 151.848 52.1008 152.164 52.366Z" fill="black"/>
<path d="M154.555 59.5575C153.935 60.0695 153.137 59.8373 152.865 59.1518C152.471 58.3443 152.248 57.7598 152.338 57.1798C152.455 56.7807 152.861 56.4659 153.412 56.1934C153.986 55.8411 154.616 56.1109 154.862 56.6156C155.157 57.2213 155.186 57.6627 155.313 58.3059C155.293 58.6464 155.081 59.1043 154.555 59.5575Z" fill="black"/>
</svg>
