<svg width="217" height="217" viewBox="0 0 217 217" fill="none" xmlns="http://www.w3.org/2000/svg">
<path d="M81.6099 122.589C71.6631 119.908 59.7941 126.856 55.103 130.664L50.96 136.995L48.2489 144.794L45.8835 148.246L44.4367 147.937L40.9703 146.732L38.1212 142.634L39.3633 136.266L44.968 129.084L47.0469 125.339L48.0174 117.517L47.4817 114.028L35.5022 120.549L29.0754 123.948L23.7868 129.103L21.1424 131.681L18.5575 129.617L16.0022 125.232L18.6762 120.333L30.0755 113.806L35.7248 103.142L39.0457 93.0297L48.1539 84.1515L56.6151 80.4877L62.7036 80.8557L60.178 74.15L79.4212 66.8522L78.6926 78.4489L80.3739 83.1128L82.9663 84.5967L99.4761 86.8389L118.299 89.6909L130.19 90.1332L136.007 89.0469L140.708 84.4647L144.55 79.0009L134.98 78.5884L128.613 77.3464L126.916 73.8429L131.573 72.7418L143.794 69.9966L154.803 71.298C155.565 72.2749 157.318 74.3477 158.24 74.8238C159.163 75.2998 161.905 75.6444 163.161 75.7571L162.956 69.0811L163.369 59.5114L167.467 56.6623L171.183 61.0621C170.636 65.9876 169.421 76.3014 168.933 78.1522C168.445 80.0029 172.514 85.5484 174.609 88.0899L178.596 93.9439L186.005 104.484L184.484 109.977L181.554 112.261L176.075 109.58L168.291 105.708L163.098 103.321L153.403 112.772C152.227 113.917 153.059 116.926 153.622 118.287L162.824 124.788L169.191 126.03L176.727 126.707L181.022 131.114C182.168 132.289 180.687 134.688 179.803 135.741L179.178 139.215L170.233 135.328L163.285 134.079L158.908 136.054L167.169 148.056L152.12 144.962L140.245 143.359L133.327 139.789L127.93 130.725L125.066 127.787L119.58 125.686C111.068 125.771 91.5568 125.27 81.6099 122.589Z" fill="white"/>
<path d="M63.5732 52.1015C66.2986 51.7053 66.6874 51.8914 67.6724 54.6044C68.1223 53.7891 68.4659 53.0774 68.8566 52.4141C69.9937 50.1755 71.5074 48.3233 73.7865 47.0435C77.0457 45.2794 79.2558 45.9506 80.3392 49.5095C81.0184 49.0358 81.6915 48.6622 82.2704 48.1921C86.092 45.4088 90.0488 42.8705 94.8492 42.9004C95.551 42.8756 96.2468 42.9509 96.9364 43.1263C98.5632 43.5184 99.8587 44.4217 99.896 46.269C99.9865 48.0644 98.5749 49.0637 97.0813 49.7661C88.4862 53.7176 83.1167 60.5526 79.3067 68.8812C77.8016 72.232 76.1075 72.9415 73.1974 71.4457C72.8086 71.2597 71.7876 71.5956 71.3621 72.0103C70.2922 73.1474 69.5109 74.474 68.394 75.5628C66.4792 77.4292 64.5803 77.3965 62.8856 75.6579C62.5561 75.3198 61.7723 75.0478 61.3651 75.1622C59.4705 75.8787 58.3694 75.0684 57.7122 73.5428C56.0273 70.0052 56.5133 66.141 57.6008 62.2554C58.2427 59.9344 59.2325 57.6511 60.122 55.3713C61.2861 54.3309 62.403 53.2421 63.5732 52.1015Z" fill="#F8A846"/>
<path d="M79.9363 100.385C78.4421 98.6391 77.2243 97.2833 76.2131 95.8203C74.7904 93.7223 75.2746 90.7074 77.437 88.8822C79.8653 86.7978 82.7809 85.7453 85.8053 86.1878C90.0677 86.8363 94.1993 87.989 98.4147 88.5892C102.677 89.2376 106.958 89.5857 111.239 89.9337C117.312 90.4182 123.451 90.6505 129.518 91.2351C131.01 91.3821 132.606 92.2748 133.748 93.2336C136.226 95.2443 136.026 97.6995 133.279 100.095C130.319 102.698 126.783 104.072 123.16 105.25C117.955 106.933 112.745 107.867 107.439 107.105C106.696 106.982 105.888 107.11 104.939 107.094C106.388 110.39 106.146 113.546 103.715 116.48C101.173 119.618 97.7663 121.337 93.9318 121.873C90.7051 122.287 87.4844 122.6 84.2699 122.814C76.785 123.329 69.3062 123.744 61.8274 124.158C60.571 124.253 59.2798 124.099 58.0479 123.793C54.4464 122.971 52.8537 120.379 53.6876 116.553C55.1408 109.956 59.5841 106.002 65.5461 103.392C70.2151 101.478 74.7776 99.6682 79.9363 100.385ZM85.1367 111.892C84.0136 113.081 84.2166 114.672 85.7615 114.767C87.3535 114.911 89.0764 114.55 90.6518 114.145C91.1593 114.027 91.869 113.052 91.9057 112.452C91.9424 111.851 91.3897 111.071 90.9128 110.688C89.5171 109.788 86.4193 110.547 85.1367 111.892ZM95.2724 107.286C95.9682 107.361 96.6064 106.739 96.4487 106.045C96.4139 105.797 96.3258 105.6 96.2255 105.604C95.6833 105.473 95.1349 105.442 94.5804 105.512C94.032 105.482 93.5472 106.048 93.6169 106.545C93.6046 106.746 93.6927 106.942 93.7398 106.991C94.1286 107.177 94.6238 107.259 95.2724 107.286Z" fill="#F8A846"/>
<path d="M138.332 122.202C141.692 122.882 140.16 125.035 140.068 126.537C139.995 127.738 138.849 128.479 137.611 128.273C133.296 127.676 129.702 125.905 127.9 121.822C126.844 119.461 127.989 116.273 130.665 114.229C135.231 110.72 140.197 108.046 145.572 106.857C148.056 106.319 150.685 106.676 153.108 107.14C154.146 107.353 155.546 109.002 155.437 109.955C155.299 111.409 154.239 113.195 153.028 114.187C149.229 117.419 145.06 120.165 140.145 121.188C139.785 121.351 139.419 121.614 138.332 122.202Z" fill="#F8A846"/>
<path d="M170.907 84.328C172.131 85.5837 173.355 86.8394 174.579 88.095C176.744 90.3166 176.774 93.1134 174.139 95.3051C172.662 96.5565 170.702 97.5252 168.878 97.8895C162.595 99.2111 155.207 95.6756 152.576 90.4228C150.034 85.3668 153.194 80.3087 159.175 79.8472C163.946 79.5283 167.612 80.9474 170.907 84.328Z" fill="#F8A846"/>
<path d="M150.812 143.939C148.553 141.621 149.338 138.595 152.177 137.146C154.81 135.804 157.505 135.908 160.129 136.365C161.862 136.653 163.524 137.294 165.257 137.582C167.927 138.087 169.403 140.133 170.425 142.245C171.088 143.671 170.759 145.781 170.549 147.587C170.465 148.139 169.166 148.935 168.399 149.212C167.685 149.437 166.901 149.165 166.164 148.941C161.791 147.647 157.365 146.405 153.045 145.059C152.061 144.794 151.248 144.173 150.812 143.939Z" fill="#F8A846"/>
<path d="M85.9236 112.914C88.0676 111.39 89.1356 111.102 90.5479 112.551C88.6392 114.317 87.3768 114.512 85.9236 112.914Z" fill="#F8A846"/>
<path d="M168.041 147.683C167.978 143.788 165.046 144.291 163.073 143.012C164.135 142.825 165.191 142.737 166.607 142.487C165.039 141.943 163.766 141.489 162.541 141.083C162.606 140.83 162.624 140.53 162.69 140.278C163.799 140.139 164.861 139.951 166.524 139.742C165.163 139.091 164.251 138.474 163.266 138.209C157.025 136.382 150.831 134.602 144.53 132.927C142.019 132.266 140.14 131.084 139.243 128.568C138.293 126.103 137.296 123.59 136.246 121.13C134.767 117.485 132.373 114.922 128.264 114.218C127.722 114.087 127.079 113.96 126.749 113.622C126.332 113.087 126.227 112.341 126.016 111.699C126.624 111.578 127.397 111.201 127.94 111.331C135.702 113.655 140.231 118.94 141.854 126.777C142.321 128.958 143.704 130.058 145.348 131C150.083 133.73 155.519 134.836 161.019 135.691C163.743 136.144 166.141 137.008 168.177 138.885C170.55 140.999 169.965 144.017 170.148 146.759C170.21 148.205 168.591 149.312 166.758 149.027C164.972 148.791 163.197 148.354 161.536 147.713C157.381 146.112 153.025 145.366 148.36 145.582C146 145.715 143.606 145.6 141.278 145.233C135.034 144.255 131.759 139.724 128.856 134.831C127.904 133.216 127.059 131.497 125.954 129.937C124.49 127.691 122.133 126.975 119.491 126.819C117.846 126.727 116.153 126.587 114.49 126.796C106.426 127.781 98.7504 126.504 91.1401 124.975C83.6301 123.442 76.1183 122.759 68.2531 124.586C64.2939 125.526 60.5928 127.155 57.3379 129.669C54.2958 131.975 52.6904 135.329 51.3326 138.725C50.7396 140.245 50.388 141.906 49.6477 143.381C48.848 145.008 47.8479 146.642 46.6655 147.983C46.2339 148.498 45.0246 148.641 44.2818 148.517C42.4544 148.132 40.58 147.699 39.0308 146.854C38.0648 146.289 37.2419 145.019 37.1148 143.825C36.6905 140.942 37.8172 138.054 39.2795 135.404C40.6887 132.806 42.2391 130.353 43.8897 127.897C46.8536 123.595 47.6037 120.321 46.5344 115.712C40.908 118.56 35.2407 121.258 29.6963 124.402C27.677 125.523 26.1981 127.624 24.4961 129.283C23.6451 130.112 23.0234 131.283 22.0372 131.868C21.358 132.342 20.1017 132.436 19.4713 132.109C18.4051 131.547 17.304 130.737 16.7165 129.708C15.8997 128.338 15.0542 126.619 15.152 125.017C15.1966 123.467 16.1619 121.584 17.3382 120.343C19.1527 118.48 21.2209 116.559 23.4817 115.579C30.3173 112.589 33.549 107.179 35.5566 100.513C37.8259 92.8384 42.6513 86.7221 49.1959 81.9439C52.2319 79.738 55.7002 79.4654 59.1091 79.3447C59.5102 79.3305 59.8581 79.3681 60.6131 79.2914C59.7205 77.5244 59.0162 75.9506 58.2055 74.4804C54.9383 69.0004 54.7916 63.21 58.1601 57.1952C59.1132 55.5128 60.3078 53.9716 61.6907 52.6237C63.7711 50.5016 65.7764 50.4306 68.2793 52.0407C69.9116 49.8845 71.1264 47.1935 73.7063 45.9031C73.8476 46.048 73.9949 46.0927 74.1361 46.2376C73.2668 47.3675 72.3504 48.4492 71.481 49.5791C69.5705 52.1948 68.2965 55.0378 67.8001 58.2529C67.5733 59.5099 66.8513 60.6846 66.5242 61.9453C66.1788 63.5063 66.0278 65.1604 65.7295 66.7697C65.5925 67.3741 65.1548 67.9892 64.8173 68.6007C64.3998 68.0659 63.7285 67.59 63.6649 66.9927C63.1813 64.2619 64.0482 61.5333 65.1626 58.8459C65.7495 57.4262 66.1952 55.8616 66.2869 54.3595C66.3725 52.9575 65.1999 52.4994 64.042 53.4397C62.8309 54.4319 61.3129 55.5348 60.6789 56.9062C58.368 61.9842 56.6997 67.1893 59.3897 72.2901C60.6057 74.4953 61.7685 76.7524 63.0909 78.854C63.6375 79.7339 64.7037 80.2957 65.5633 80.9647C66.1343 81.4441 66.8117 81.8199 67.4359 82.2474C67.4237 82.4477 67.3583 82.6998 67.3461 82.9001C66.4908 82.9803 65.6232 83.2609 64.8865 83.0371C58.6922 81.258 52.6929 82.02 47.1815 86.262C41.7233 90.4522 38.3382 95.9179 36.7909 102.418C36.4394 104.079 35.7401 105.702 35.1941 107.271C33.6095 111.923 30.5943 115.427 26.1014 117.735C23.4151 119.129 20.8107 120.82 18.3476 122.656C17.4556 123.337 17.0692 124.749 16.2286 126.228C17.5913 126.03 18.2461 125.957 19.3551 125.818C17.7454 128.423 19.5771 129.557 20.93 131.158C21.5683 130.536 22.4009 130.007 22.7977 129.243C24.847 125.174 28.3433 122.801 32.2573 120.964C34.1641 120.047 36.03 118.982 37.8958 117.917C41.2736 115.849 43.3149 112.729 44.9203 109.374C46.0103 107.088 46.9531 104.756 48.1904 102.514C51.3462 96.7064 55.9962 92.6448 62.2284 90.5256C62.8954 90.2522 63.6382 90.3757 64.3462 90.2508C64.4342 90.4475 64.4752 90.5959 64.51 90.8445C63.4175 91.5327 62.4253 92.2173 61.3328 92.9055C53.3723 97.9337 49.0054 104.733 49.0978 113.873C49.0838 114.923 49.0226 115.924 49.1088 116.97C49.5112 121.852 47.7444 126.211 45.0813 130.503C43.3652 133.211 41.8906 136.061 40.5634 138.956C39.9355 140.227 39.7436 141.733 39.5578 143.139C39.4679 143.791 39.9325 144.374 40.0964 144.968C40.616 144.65 41.1828 144.38 41.7556 144.01C42.175 143.695 42.5473 143.332 43.1856 142.71C43.0346 144.364 42.9551 145.666 42.7754 146.972C42.9759 146.964 43.1233 147.009 43.3238 147.002C43.8086 146.435 44.1931 145.872 44.8436 145.05C45.0423 145.892 45.2594 146.434 45.54 147.573C46.3029 146.547 47.0415 145.921 47.3319 145.261C48.2092 143.182 48.8388 141.061 49.5688 138.937C52.2104 130.9 57.3244 124.973 65.656 122.879C71.651 121.368 77.7977 120.651 83.6686 121.992C94.9152 124.591 106.55 124.929 118.244 125.114C120.043 125.151 121.864 125.636 123.638 126.072C126.102 126.685 127.656 128.278 128.565 130.594C130.301 134.93 132.976 138.632 136.928 141.09C139.632 142.693 142.773 143.681 146.164 143.861C150.002 144.075 153.782 144.44 157.549 145.006C159.677 145.381 161.615 146.411 163.731 146.986C164.816 147.247 166.307 147.394 168.041 147.683Z" fill="black"/>
<path d="M141.824 79.7141C138.787 79.4719 135.939 79.4229 133.109 79.0735C131.222 78.8405 129.454 78.3035 127.58 77.8703C127.037 77.7396 126.401 77.5123 126.125 77.1224C125.484 76.1458 124.501 75.0315 124.663 74.0266C124.759 73.2737 126.371 72.2674 127.433 72.0799C131.079 71.3513 134.766 70.7711 138.4 70.2427C142.636 69.6931 146.918 69.1917 151.195 68.7905C152.605 68.6406 154.102 68.6875 155.328 69.0938C156.212 69.3622 157.201 70.3764 157.252 71.174C157.431 73.1662 158.438 73.8799 160.171 74.1683C160.961 74.3402 161.697 74.5639 162.44 74.6875C162.247 71.2969 161.906 67.8616 161.914 64.464C161.93 62.5649 162.199 60.6068 162.663 58.7418C163.276 56.0721 164.647 54.9244 167.066 54.6389C168.676 54.482 170.602 55.7128 171.235 57.6389C171.663 58.8228 172.084 60.1069 172.152 61.4535C172.33 66.7432 172.053 72.0989 170.478 77.4006C170.36 77.7046 170.335 78.1051 170.123 78.3125C169.644 78.7791 169.124 79.0973 168.646 79.5639C168.429 79.022 168.064 78.4354 168.095 77.9347C168.573 75.0199 169.305 72.0463 169.736 69.0833C170.185 65.8199 170.227 62.6708 168.907 59.7198C168.595 59.0813 168.131 58.4982 167.766 57.9116C167.519 57.8704 167.318 57.8775 167.071 57.8363C166.424 59.408 165.277 60.9975 165.132 62.5514C164.834 66.6088 164.991 70.6002 164.947 74.5987C164.929 74.8992 165.058 75.2443 165.039 75.5447C164.99 76.3459 164.794 77.1022 164.692 77.9552C164.002 77.7798 163.366 77.5525 162.676 77.3771C161.002 76.9367 159.394 76.2442 157.661 75.9559C156.322 75.7535 155.451 75.2847 155.182 73.9452C154.926 72.4055 153.919 71.6917 152.415 71.745C150.062 71.7783 147.756 71.86 145.491 72.09C140.76 72.5573 136.076 73.0729 131.387 73.6886C130.177 73.8313 128.938 74.4748 127.763 74.8661C127.751 75.0663 127.685 75.3185 127.72 75.5671C129.889 76.0898 131.952 76.7162 134.127 77.1388C138.879 77.9698 143.726 78.048 148.688 77.0729C149.296 76.9515 149.879 77.2306 150.475 77.3095C150.291 77.8656 150.107 78.4217 149.916 79.0779C149.863 79.1297 149.857 79.2299 149.804 79.2817C146.099 82.6105 142.724 86.2772 138.696 89.1678C134.455 92.2657 129.394 92.3949 124.672 91.9126C112.343 90.6504 100.061 89.4365 87.8039 87.822C81.2066 86.9065 79.0412 84.6849 77.7689 78.4848C75.083 65.9395 84.4209 53.9178 94.1086 49.2781C94.6753 49.0083 95.33 48.9351 95.9439 48.7135C95.9848 48.862 96.126 49.0069 96.167 49.1553C94.336 50.4692 92.552 51.8313 90.721 53.1452C83.0307 58.6635 78.1882 69.9764 79.6085 78.6694C80.2315 82.3945 82.2618 84.3711 85.9881 84.7887C99.4014 86.3123 112.762 87.8877 126.175 89.4112C127.613 89.6101 129.13 89.3566 130.627 89.4035C133.228 89.4113 135.53 88.5804 137.168 86.324C138.7 84.1714 140.185 81.9705 141.824 79.7141Z" fill="black"/>
<path d="M174.057 102.357C172.859 105.597 173.881 107.709 176.78 108.556C178.254 109.003 179.952 109.043 181.024 107.056C180.578 106.173 180.184 105.238 179.744 104.254C178.682 101.993 179.238 101.074 182.176 100.471C179.196 96.0296 176.256 91.7371 173.317 87.4445C173.53 87.2371 173.789 87.078 173.949 86.9225C174.702 87.6952 175.515 88.316 176.162 89.1924C179.336 93.7264 182.564 98.2086 185.58 102.898C187.037 105.245 186.422 106.316 183.606 107.365C181.865 108.026 181.168 108.8 180.773 111.162C182.32 110.408 183.554 109.865 184.894 109.218C184.855 110.668 184.246 111.639 182.705 112.293C180.911 113.006 179.348 113.211 177.87 112.014C176.963 111.297 176.104 110.628 175.084 110.115C171.98 108.526 170.917 106.265 172.179 103.622C172.41 103.115 173.03 102.793 173.456 102.378C173.662 102.271 173.863 102.264 174.057 102.357Z" fill="black"/>
<path d="M176.256 131.105C177.406 131.114 178.503 131.175 179.854 131.177C177.623 129.208 175.083 128.199 172.325 127.497C169.808 126.936 167.291 126.376 164.767 125.916C161.107 125.246 158.156 123.602 155.826 120.787C154.891 119.721 153.796 118.81 152.861 117.744C152.625 117.503 152.656 117.002 152.58 116.605C152.987 116.49 153.501 116.272 153.795 116.362C154.761 116.927 156.028 117.482 156.575 118.362C159.719 123.397 164.681 124.87 170.472 125.064C174.818 125.16 178.584 126.576 181.543 129.719C182.485 130.684 183.179 131.609 182.279 133.24C181.941 133.851 182.281 134.838 182.273 135.788C180.065 134.267 178.145 132.936 176.125 131.609C176.078 131.561 176.144 131.309 176.256 131.105Z" fill="black"/>
<path d="M90.3875 43.8625C89.9088 44.3291 89.6838 44.7367 89.2705 44.9512C80.6754 48.9027 75.7827 56.1206 72.1794 64.342C72.0076 64.6978 71.93 65.1502 71.664 65.4094C71.126 66.028 70.5942 66.5465 70.0091 67.1168C69.8575 66.3227 69.3641 65.3909 69.5603 64.6345C70.7787 60.2447 73.5525 56.5992 76.3733 53.002C79.0877 49.5085 82.6311 47.1848 86.1336 44.7126C87.2854 43.8724 88.6438 42.925 90.3875 43.8625Z" fill="black"/>
<path d="M151.653 113.74C152.144 113.073 152.535 112.41 153.073 111.792C155.171 109.369 157.317 106.995 159.322 104.476C161.492 101.701 165.433 101.062 167.852 103.224C168.706 103.994 169.506 104.815 170.3 105.736C170.488 105.929 170.505 106.478 170.392 106.682C170.18 106.889 169.672 107.007 169.425 106.966C168.5 106.549 167.681 106.028 166.862 105.508C165.325 104.463 163.686 104.271 162.103 105.626C159.308 107.974 156.649 110.566 153.949 113.01C153.417 113.528 152.797 113.85 152.171 114.272C151.983 114.078 151.841 113.934 151.653 113.74Z" fill="black"/>
<path d="M162.227 134.7C164.512 133.32 166.63 133.045 168.539 133.727C170.69 134.55 172.663 135.829 174.695 136.956C176.05 137.708 177.358 138.411 179.193 137.846C179.127 135.65 176.696 136.136 175.767 134.97C177.968 134.142 180.567 135 181.206 136.825C181.675 138.158 180.687 139.592 179.202 139.345C177.168 139.067 175.146 138.589 173.349 137.703C170.144 136.118 166.862 134.985 163.164 134.916C162.958 135.024 162.716 134.882 162.227 134.7Z" fill="black"/>
<path d="M171.641 85.3993C170.098 86.9028 165.138 87.0285 164.356 85.907C164.127 85.5654 164.395 84.4568 164.767 84.0939C165.925 83.1535 170.03 83.1081 170.977 83.9739C171.454 84.3567 171.512 85.0541 171.641 85.3993Z" fill="black"/>
<path d="M170.334 92.0456C169.626 92.1705 169.108 91.6393 169.198 90.9866C169.247 90.1855 169.331 89.6329 169.656 89.2217C169.922 88.9625 170.376 88.8964 170.925 88.927C171.526 88.9057 171.897 89.3922 171.866 89.8929C171.83 90.4937 171.658 90.8496 171.474 91.4057C171.308 91.6613 170.942 91.9241 170.334 92.0456Z" fill="black"/>
</svg>
