<svg width="130" height="138" viewBox="0 0 130 138" fill="none" xmlns="http://www.w3.org/2000/svg">
<path d="M76.1826 86.7842C83.1951 88.5865 88.0516 96.9436 89.6034 100.897L89.9472 106.203L88.9067 111.912L89.1593 114.842L90.1511 115.154L92.6886 115.617L95.8498 114.095L97.2935 109.77L96.3502 103.437L96.3745 100.427L98.4875 95.3061L100.022 93.3574L105.094 101.492L107.85 105.795L109.301 110.779L110.027 113.271L112.322 112.903L115.403 111.104L115.462 107.183L110.747 99.2446L110.982 90.7666L112.45 83.431L109.95 74.848L106.042 69.6788L102.19 67.797L106.056 64.5688L96.8093 53.4454L93.2419 60.7916L90.5995 63.0629L88.5002 63.0736L77.6246 58.732L65.1227 53.9629L57.6959 50.1187L54.5134 47.4413L53.2233 43.0113L52.7638 38.3395L58.7607 41.3988L63.0857 42.8424L65.3356 41.2861L62.8681 39.0012L56.3418 33.0927L49.1568 30.0791C48.3531 30.4133 46.5634 31.0746 45.8344 31.0466C45.1054 31.0186 43.3086 30.2804 42.5013 29.9148L44.9368 25.9017L47.996 19.9048L46.4747 16.7436L42.6792 18.1493C41.3091 21.3516 38.4833 28.0814 38.1413 29.3824C37.7994 30.6834 33.3915 32.6679 31.2302 33.4975L26.7653 35.6988L18.5855 39.5827L17.615 43.4695L18.6175 45.8807L22.8968 46.1363L28.9986 46.4618L33.0011 46.7979L35.6619 55.9347C35.9844 57.0421 34.4342 58.5949 33.6188 59.2328L25.7402 60.0254L21.4152 58.5818L16.5715 56.3881L12.4184 57.5976C11.3109 57.9201 11.387 59.9003 11.5635 60.8501L10.7435 63.1913L17.5604 63.9093L22.2428 65.5492L24.2372 68.2722L15.0306 72.7555L25.3067 76.0703L33.1261 79.1994L38.5935 79.4093L45.0315 75.7324L47.8002 74.9261L51.8833 75.5391C57.0612 78.5365 69.1702 84.9818 76.1826 86.7842Z" fill="white"/>
<path d="M111.602 49.9073C110.072 48.7217 109.769 48.701 108.228 50.0199C108.235 49.3654 108.271 48.8112 108.262 48.2702C108.341 46.5073 108.056 44.8504 107.104 43.2788C105.721 41.0718 104.137 40.7176 102.242 42.5198C101.991 41.995 101.708 41.5335 101.517 41.0456C100.142 38.0205 98.6 35.0985 95.6531 33.4556C95.2324 33.1975 94.7807 33.0028 94.2981 32.8715C93.1673 32.5484 92.0622 32.6527 91.4001 33.7698C90.7234 34.8368 91.2412 35.9366 91.9118 36.8831C95.8023 42.2747 96.7218 48.3141 96.1703 54.7274C95.9315 57.2981 96.7224 58.3183 99.0202 58.4104C99.3224 58.4311 99.8307 58.9899 99.9475 59.3908C100.209 60.4566 100.227 61.5386 100.534 62.5911C101.059 64.3955 102.232 65.0326 103.871 64.5555C104.189 64.4627 104.763 64.5675 104.972 64.7784C105.883 65.8724 106.837 65.7577 107.767 65.0519C110.022 63.4709 111.062 60.9388 111.741 58.1855C112.152 56.5435 112.337 54.8042 112.581 53.1018C112.229 52.0625 111.923 51.01 111.602 49.9073Z" fill="#F8A846"/>
<path d="M84.884 73.785C86.4022 73.2341 87.6164 72.8261 88.7412 72.2811C90.3375 71.49 91.0846 69.4781 90.3935 67.6133C89.6293 65.4978 88.21 63.8451 86.2067 63.0691C83.3748 61.9908 80.4485 61.2662 77.6621 60.1747C74.8302 59.0964 72.0911 57.8279 69.3519 56.5595C65.469 54.7542 61.6334 52.772 57.7196 51.03C56.7562 50.6038 55.4707 50.5975 54.4403 50.7888C52.2284 51.1611 51.501 52.7323 52.3528 55.1484C53.2629 57.7651 54.9501 59.8292 56.7593 61.8034C59.361 64.6343 62.2246 67.0083 65.734 68.3787C66.2312 68.5601 66.6811 68.9185 67.2676 69.237C65.2402 70.7517 64.2965 72.7665 64.7678 75.4022C65.2374 78.2015 66.7263 80.4321 68.8867 82.0866C70.7173 83.4565 72.5789 84.763 74.4714 86.0061C78.872 88.9112 83.3036 91.7529 87.7351 94.5946C88.471 95.0871 89.3142 95.4397 90.1737 95.6787C92.6613 96.4223 94.5324 95.3881 95.3465 92.7587C96.7402 88.2205 95.3905 84.2639 92.6463 80.6045C90.4524 77.818 88.2878 75.1317 84.884 73.785ZM77.7208 79.0246C77.9964 80.1405 77.3215 81.0438 76.3435 80.5675C75.3199 80.1043 74.3909 79.2875 73.5674 78.4942C73.2978 78.2465 73.2008 77.4048 73.3863 77.0245C73.5718 76.6443 74.1797 76.3585 74.6039 76.2893C75.7691 76.2219 77.4014 77.7583 77.7208 79.0246ZM73.1142 72.6997C72.6625 72.505 72.4874 71.9035 72.824 71.5336C72.9313 71.3936 73.0533 71.3038 73.1134 71.3406C73.4903 71.4483 73.8364 71.6194 74.1515 71.8539C74.4975 72.025 74.598 72.5394 74.3833 72.8194C74.3215 72.9462 74.1996 73.036 74.154 73.0493C73.8518 73.0286 73.5203 72.9076 73.1142 72.6997Z" fill="#F8A846"/>
<path d="M41.6143 66.9184C39.3233 66.1719 39.5156 68.0189 39.0519 68.9695C38.681 69.73 39.1257 70.5792 39.9543 70.8816C42.8008 72.01 45.6121 72.17 48.1272 70.2958C49.5904 69.2172 49.9932 66.8707 49.0633 64.6947C47.4843 60.9679 45.3721 57.6139 42.4956 55.0262C41.1621 53.8377 39.4302 53.1459 37.7875 52.5912C37.0791 52.3625 35.652 52.8869 35.3884 53.5074C34.9702 54.4447 35.0002 55.904 35.3977 56.9301C36.6032 60.2219 38.2037 63.3444 40.8561 65.6712C41.0201 65.8953 41.1532 66.1827 41.6143 66.9184Z" fill="#F8A846"/>
<path d="M34.7939 32.4756C33.6106 32.8202 32.4274 33.1648 31.2441 33.5094C29.1507 34.119 28.1649 35.8198 29.0183 38.0723C29.4888 39.349 30.3526 40.6198 31.3418 41.4736C34.7283 44.4565 40.4711 44.8502 43.8982 42.5473C47.2033 40.3342 47.0205 36.1465 43.5214 33.7944C40.7128 31.9481 37.9796 31.5479 34.7939 32.4756Z" fill="#F8A846"/>
<path d="M26.4555 75.9034C28.64 75.2673 29.2068 73.1448 27.9712 71.2754C26.8249 69.5431 25.1402 68.6745 23.3774 68.046C22.2173 67.6226 20.9791 67.4395 19.8191 67.0161C18.0107 66.401 16.3998 67.1419 15.044 68.0805C14.1449 68.7229 13.6159 70.1275 13.1196 71.3051C12.9796 71.6721 13.4991 72.6083 13.8726 73.0432C14.2315 73.428 14.8051 73.5329 15.3332 73.6509C18.4562 74.3726 21.5937 75.1444 24.7021 75.816C25.3959 75.9945 26.1078 75.896 26.4555 75.9034Z" fill="#F8A846"/>
<path d="M76.8891 79.3706C76.1052 77.6959 75.5513 77.1504 74.186 77.548C74.7424 79.289 75.4474 79.8449 76.8891 79.3706Z" fill="#F8A846"/>
<path d="M14.6255 72.2197C16.0115 69.8587 17.6309 71.1813 19.2804 71.0815C18.6957 70.5994 18.08 70.1806 17.3004 69.5377C18.4476 69.7473 19.3835 69.9097 20.274 70.0854C20.3212 69.9085 20.4139 69.7184 20.4612 69.5415C19.8309 69.0726 19.2462 68.5904 18.3008 67.8871C19.3587 67.9596 20.1306 67.8979 20.8244 68.0765C25.2749 69.1184 29.6799 70.1736 34.1141 71.329C35.8786 71.7938 37.4371 71.7205 38.8565 70.4916C40.2906 69.3128 41.7701 68.1207 43.2642 66.9788C45.4298 65.2607 47.7818 64.5214 50.5389 65.5127C50.9159 65.6204 51.353 65.765 51.6715 65.6722C52.112 65.4896 52.4341 65.0696 52.7853 64.7498C52.4555 64.4652 52.113 63.9669 51.736 63.8592C46.1838 62.5944 41.5839 64.2602 37.8794 68.4925C36.8387 69.6656 35.6116 69.8598 34.2807 69.8668C30.439 69.8981 26.7312 68.6943 23.0707 67.3135C21.2478 66.6482 19.4815 66.347 17.5864 66.7902C15.4036 67.2627 14.7166 69.3114 13.6561 70.9252C13.1177 71.7888 13.7248 73.0257 14.9449 73.4859C16.1196 73.9594 17.3561 74.3062 18.5943 74.4893C21.6898 74.9471 24.6127 75.9989 27.3922 77.745C28.7892 78.6431 30.2936 79.4011 31.8452 79.9823C36.0029 81.5445 39.5741 79.9064 43.0432 77.9175C44.1844 77.2589 45.2964 76.5001 46.5123 75.9285C48.1851 75.0608 49.8749 75.4386 51.545 76.2572C52.5832 76.7704 53.6668 77.2704 54.6122 77.9738C59.2043 81.3668 64.3417 83.2418 69.5263 84.9398C74.6508 86.6011 79.4825 88.7825 83.6616 92.6221C85.7584 94.5669 87.4586 96.8447 88.5799 99.5086C89.6429 101.972 89.4642 104.58 89.1198 107.127C88.9566 108.261 88.5968 109.399 88.5393 110.558C88.4654 111.83 88.5117 113.176 88.771 114.405C88.8568 114.87 89.5472 115.375 90.0444 115.557C91.2955 115.954 92.592 116.337 93.832 116.357C94.6185 116.345 95.5614 115.853 96.0525 115.166C97.3097 113.55 97.6197 111.393 97.6421 109.266C97.6791 107.189 97.5795 105.152 97.4199 103.078C97.0954 99.4211 97.7695 97.1587 100.018 94.7095C102.475 98.3982 105.008 102.01 107.312 105.852C108.159 107.237 108.337 109.033 108.804 110.637C109.038 111.439 109.013 112.371 109.414 113.07C109.665 113.594 110.401 114.087 110.9 114.105C111.747 114.13 112.701 114.015 113.416 113.59C114.39 113.034 115.502 112.275 115.996 111.261C116.505 110.298 116.566 108.812 116.276 107.646C115.811 105.878 115.211 103.987 114.167 102.605C111.02 98.411 110.915 93.9829 111.994 89.2103C113.261 83.7303 112.426 78.3189 110.076 73.1311C108.982 70.7311 106.955 69.3641 104.911 68.1106C104.671 67.9631 104.445 67.8658 104.009 67.5576C105.167 66.7855 106.142 66.0665 107.147 65.4477C111.042 63.2259 113.136 59.7346 113.156 54.8894C113.156 53.5304 112.958 52.1742 112.579 50.8711C112.04 48.853 110.838 48.1156 108.75 48.2344C108.497 46.3506 108.686 44.284 107.554 42.6018C107.417 42.6416 107.312 42.618 107.175 42.6578C107.316 43.6498 107.502 44.6286 107.643 45.6207C107.907 47.8819 107.702 50.0619 106.893 52.2005C106.597 53.048 106.632 54.0164 106.396 54.9008C106.067 55.9753 105.587 57.0394 105.213 58.1271C105.087 58.5442 105.142 59.0719 105.137 59.5628C105.578 59.3801 106.153 59.3213 106.399 58.978C107.639 57.4748 108.053 55.5056 108.302 53.476C108.434 52.4044 108.703 51.293 109.166 50.3424C109.599 49.4552 110.475 49.5807 110.858 50.5566C111.255 51.5827 111.802 52.7827 111.716 53.841C111.372 57.7471 110.591 61.5086 107.181 63.698C105.674 64.6262 104.181 65.6046 102.645 66.4325C102.006 66.7817 101.16 66.7564 100.402 66.8682C99.887 66.9639 99.3426 66.9593 98.8128 67.0048C98.751 67.1316 98.7037 67.3085 98.6419 67.4352C99.1373 67.7803 99.571 68.2521 100.099 68.3702C104.504 69.4253 107.91 71.9675 109.814 76.4697C111.703 80.9218 111.882 85.4368 110.579 89.9484C110.22 91.0863 110.086 92.3215 109.877 93.4697C109.236 96.8642 109.868 100.051 111.818 103.018C112.979 104.8 113.987 106.736 114.859 108.711C115.169 109.436 114.916 110.434 114.919 111.63C114.154 111.037 113.778 110.766 113.148 110.297C113.231 112.447 111.718 112.507 110.337 113.018C110.162 112.417 109.835 111.805 109.857 111.201C110.011 108.002 108.693 105.341 106.935 102.863C106.086 101.642 105.313 100.345 104.54 99.0474C103.19 96.6134 103.02 93.9984 103.199 91.3909C103.324 89.6147 103.554 87.8622 103.573 86.0624C103.652 81.4177 102.213 77.324 99.1337 73.8709C98.8203 73.4729 98.3232 73.2914 97.9333 72.97C97.8114 73.0598 97.735 73.1365 97.6276 73.2765C98.0578 74.0755 98.4279 74.8377 98.8581 75.6367C101.988 81.4674 102.306 87.1381 99.0868 92.6972C98.7322 93.3442 98.4231 93.9779 98.0083 94.5881C96.0728 97.4353 95.6451 100.713 95.7892 104.26C95.9016 106.511 95.8174 108.765 95.6276 110.995C95.5718 111.99 95.1682 112.977 94.7955 113.901C94.6246 114.332 94.1386 114.528 93.8329 114.834C93.6251 114.46 93.3718 114.098 93.1494 113.674C93.0017 113.336 92.8995 112.985 92.7244 112.384C92.2444 113.448 91.8425 114.272 91.5007 115.133C91.3805 115.059 91.2749 115.035 91.1547 114.962C91.0542 114.447 91.0139 113.97 90.9005 113.241C90.4875 113.688 90.1672 113.944 89.6013 114.544C89.4897 113.652 89.2545 113.014 89.3051 112.51C89.4881 110.934 89.8367 109.419 90.1253 107.867C91.2907 102.036 90.2132 96.6406 85.8409 92.4767C82.6965 89.4777 79.1846 86.9119 75.1292 85.7006C67.3496 83.3989 60.1154 79.5791 52.8975 75.6458C51.7846 75.0456 50.5026 74.7121 49.2662 74.3653C47.5471 73.8873 46.0453 74.3246 44.6877 75.4268C42.1253 77.4779 39.2075 78.817 35.9394 78.9532C33.7309 78.9982 31.4674 78.5156 29.3311 77.4522C26.9088 76.2546 24.4702 75.1705 21.9697 74.2131C20.5383 73.7057 18.9961 73.6654 17.5029 73.2847C16.749 73.0693 15.7856 72.643 14.6255 72.2197Z" fill="black"/>
<path d="M54.1857 39.7165C56.1271 40.6192 57.8865 41.5749 59.7387 42.3404C60.9734 42.8508 62.2408 43.1341 63.5374 43.5177C63.9143 43.6255 64.3823 43.7067 64.6863 43.5638C65.4162 43.1881 66.4028 42.8464 66.6518 42.1758C66.8537 41.6821 66.2157 40.5085 65.6309 40.0264C63.6526 38.3189 61.5978 36.688 59.5577 35.1073C57.1568 33.3053 54.7105 31.5166 52.2333 29.7913C51.4227 29.2118 50.4902 28.7222 49.5998 28.5465C48.9661 28.4048 48.0104 28.6831 47.7029 29.1533C46.9043 30.3102 46.0414 30.3983 44.8813 29.975C44.3386 29.8068 43.8106 29.6887 43.3134 29.5073C44.6049 27.5 46.002 25.5163 47.1733 23.4353C47.8208 22.2681 48.3334 20.977 48.695 19.6755C49.2437 17.8302 48.8024 16.6538 47.4217 15.6422C46.4909 14.989 44.8869 15.0755 43.8332 16.0348C43.1617 16.6109 42.4593 17.2505 41.9518 18.0507C40.0129 21.2252 38.3289 24.5973 37.4572 28.3853C37.4246 28.6123 37.301 28.8658 37.3593 29.0663C37.4907 29.5174 37.6985 29.8919 37.8299 30.3429C38.1502 30.0866 38.5761 29.8538 38.7306 29.5369C39.4468 27.5884 40.0282 25.5161 40.7899 23.5544C41.6443 21.4026 42.7083 19.4616 44.5373 18.1134C44.9486 17.8305 45.4346 17.6345 45.8605 17.4018C46.0263 17.4623 46.1465 17.536 46.3122 17.5965C46.1636 18.7816 46.3156 20.151 45.8664 21.1517C44.6445 23.7368 43.1675 26.1243 41.8107 28.5856C41.718 28.7757 41.5196 28.9422 41.4269 29.1323C41.1796 29.6393 41.0379 30.1699 40.8052 30.727C41.2877 30.8584 41.7557 30.9396 42.2383 31.0709C43.4147 31.3808 44.6383 31.5138 45.7983 31.9372C46.687 32.2764 47.3826 32.2914 48.0103 31.5649C48.6998 30.7116 49.5628 30.6234 50.4644 31.1764C51.8923 32.0111 53.2748 32.8591 54.5808 33.7837C57.3131 35.7066 59.9998 37.6427 62.6556 39.6423C63.346 40.1481 63.8818 40.9707 64.4648 41.6165C64.403 41.7433 64.3558 41.9201 64.2484 42.0601C62.7406 41.6293 61.262 41.2987 59.7851 40.8045C56.5908 39.6686 53.5984 38.0389 50.9005 35.7254C50.5708 35.4408 50.1174 35.4097 49.7258 35.2519C49.646 35.6558 49.5661 36.0596 49.4553 36.5269C49.4699 36.577 49.439 36.6404 49.4536 36.6905C50.5681 40.0088 51.364 43.42 52.8279 46.5822C54.3503 49.9449 57.4011 51.775 60.4571 53.1143C68.4358 56.6085 76.369 60.116 84.4259 63.37C88.7784 65.0929 90.8719 64.4833 93.7958 61.1307C99.7801 54.3858 98.2279 43.8003 93.9072 37.6096C93.6539 37.2484 93.2787 36.9771 92.9798 36.6291C92.9034 36.7058 92.7669 36.7455 92.6905 36.8222C93.3559 38.2595 93.9758 39.7102 94.6413 41.1475C97.4361 47.1845 96.4836 55.7807 92.6065 60.6071C90.9364 62.6702 89.0103 63.1768 86.5863 62.1428C77.8537 58.4331 69.1357 54.7736 60.403 51.0639C59.4542 50.6877 58.6144 50.008 57.6819 49.5183C56.0883 48.6232 54.9677 47.3183 54.7462 45.3711C54.5539 43.524 54.4071 41.6638 54.1857 39.7165Z" fill="black"/>
<path d="M26.6334 42.4113C26.2452 44.8079 24.8893 45.7465 22.8225 45.261C21.7663 45.0248 20.7136 44.4615 20.7454 42.8754C21.3242 42.4894 21.8884 42.0532 22.498 41.6038C23.9303 40.5886 23.908 39.8339 22.3195 38.4479C25.6795 36.7625 28.9632 35.1538 32.2468 33.5451C32.1884 33.3446 32.0845 33.1574 32.0407 33.007C31.3125 33.2191 30.6007 33.3176 29.9017 33.6299C26.3906 35.3049 22.8648 36.9298 19.3974 38.7551C17.6938 39.6862 17.6998 40.5544 19.059 42.1703C19.8953 43.1773 20.0542 43.8923 19.478 45.4738C18.7928 44.4771 18.2261 43.7178 17.6302 42.8583C17.1518 43.7588 17.1887 44.5636 17.9049 45.4969C18.7558 46.554 19.6411 47.2205 20.9591 46.9998C21.762 46.8748 22.5194 46.7629 23.3205 46.8015C25.7694 46.9039 27.2017 45.8887 27.3443 43.8354C27.3787 43.4448 27.1108 43.0335 26.994 42.6325C26.9047 42.4954 26.7845 42.4216 26.6334 42.4113Z" fill="black"/>
<path d="M15.3396 59.2357C14.6329 58.8434 13.9408 58.5012 13.1139 58.0352C15.1601 57.6024 17.0629 57.8638 18.9932 58.3891C20.7269 58.9173 22.4605 59.4456 24.1633 60.0371C26.6345 60.8942 29.0087 60.9096 31.4079 59.9935C32.349 59.665 33.3339 59.487 34.275 59.1585C34.5026 59.0923 34.6572 58.7754 34.8409 58.5588C34.6314 58.3479 34.3927 58.0368 34.1815 57.9896C33.3949 58.0012 32.4281 57.9021 31.7892 58.2513C28.1235 60.2431 24.578 59.427 20.9682 57.5421C18.2763 56.0968 15.483 55.6597 12.585 56.5581C11.6748 56.8231 10.9303 57.1487 10.9165 58.4576C10.9114 58.9485 10.3618 59.4347 10.0381 60.0184C11.9151 59.8523 13.5501 59.7024 15.2451 59.5894C15.2906 59.5762 15.3378 59.3993 15.3396 59.2357Z" fill="black"/>
<path d="M98.0569 35.5805C98.1883 36.0316 98.1848 36.3589 98.3634 36.6331C102.254 42.0247 102.749 48.1332 102.108 54.4095C102.09 54.6866 101.981 54.9902 102.054 55.2408C102.169 55.8054 102.315 56.3066 102.476 56.8579C102.843 56.4247 103.468 56.0254 103.609 55.4948C104.383 52.3877 103.948 49.1978 103.467 46.0211C103.016 42.9447 101.652 40.297 100.365 37.5726C99.9511 36.6601 99.4479 35.6104 98.0569 35.5805Z" fill="black"/>
<path d="M36.396 57.1293C36.3265 56.5514 36.317 56.0105 36.202 55.4459C35.7564 53.2377 35.2653 51.0427 34.9107 48.808C34.5433 46.3595 32.3537 44.6048 30.1254 45.0906C29.3371 45.2658 28.5635 45.4911 27.7589 45.7798C27.5768 45.8328 27.3768 46.1629 27.375 46.3265C27.4334 46.527 27.703 46.7747 27.8688 46.8352C28.5789 46.9002 29.2598 46.8651 29.9408 46.8299C31.2425 46.7227 32.3116 47.1725 32.8113 48.5494C33.7085 50.9523 34.4383 53.4584 35.2446 55.8878C35.3905 56.389 35.6584 56.8003 35.8954 57.275C36.0774 57.222 36.214 57.1823 36.396 57.1293Z" fill="black"/>
<path d="M22.6735 66.2881C21.7531 64.6531 20.5527 63.7521 19.1487 63.5085C17.5482 63.2678 15.8987 63.3676 14.2655 63.3539C13.1767 63.3447 12.1334 63.3223 11.206 62.3418C12.0064 61.0213 13.3253 62.1596 14.2973 61.7678C13.2369 60.4998 11.3504 60.1249 10.3276 61.0208C9.57973 61.6736 9.68788 62.8926 10.6822 63.2555C12.0226 63.7895 13.4248 64.1968 14.8305 64.2768C17.3395 64.416 19.7395 64.8589 22.0253 66.0963C22.1145 66.2334 22.3112 66.2305 22.6735 66.2881Z" fill="black"/>
<path d="M33.9767 32.8775C34.3999 34.331 37.3907 36.1243 38.2571 35.7088C38.5155 35.5792 38.7354 34.8084 38.6332 34.4575C38.2503 33.4816 35.755 32.0334 34.8757 32.2351C34.4515 32.3042 34.175 32.711 33.9767 32.8775Z" fill="black"/>
<path d="M32.4781 37.3893C32.868 37.7108 33.3686 37.565 33.5395 37.1346C33.7868 36.6276 33.9268 36.2606 33.8701 35.8965C33.7971 35.6459 33.5421 35.4483 33.196 35.2772C32.8354 35.056 32.4404 35.2254 32.2858 35.5423C32.1004 35.9225 32.0823 36.1996 32.0024 36.6035C32.0153 36.8172 32.1484 37.1047 32.4781 37.3893Z" fill="black"/>
</svg>
