<svg width="24" height="24" viewBox="0 0 24 24" fill="none" xmlns="http://www.w3.org/2000/svg">
<path d="M19.875 3H15.75V2.25C15.75 1.00734 14.7427 0 13.5 0H10.5C9.25734 0 8.25 1.00734 8.25 2.25V3H4.125C3.08948 3 2.25 3.83948 2.25 4.875V6.375C2.25 6.78923 2.58577 7.125 3 7.125H21C21.4142 7.125 21.75 6.78923 21.75 6.375V4.875C21.75 3.83948 20.9105 3 19.875 3ZM9.75 2.25C9.75 1.83656 10.0866 1.5 10.5 1.5H13.5C13.9134 1.5 14.25 1.83656 14.25 2.25V3H9.75V2.25Z" fill="#BABABA"/>
<path d="M3.67577 8.625C3.54194 8.625 3.4353 8.73684 3.44168 8.87053L4.06043 21.8569C4.11762 23.0588 5.1048 24 6.30762 24H17.6973C18.9001 24 19.8873 23.0588 19.9445 21.8569L20.5632 8.87053C20.5696 8.73684 20.463 8.625 20.3291 8.625H3.67577ZM15.0025 10.5C15.0025 10.0856 15.3381 9.75 15.7525 9.75C16.1668 9.75 16.5025 10.0856 16.5025 10.5V20.25C16.5025 20.6644 16.1668 21 15.7525 21C15.3381 21 15.0025 20.6644 15.0025 20.25V10.5ZM11.2525 10.5C11.2525 10.0856 11.5881 9.75 12.0025 9.75C12.4168 9.75 12.7525 10.0856 12.7525 10.5V20.25C12.7525 20.6644 12.4168 21 12.0025 21C11.5881 21 11.2525 20.6644 11.2525 20.25V10.5ZM7.50246 10.5C7.50246 10.0856 7.83808 9.75 8.25246 9.75C8.66683 9.75 9.00246 10.0856 9.00246 10.5V20.25C9.00246 20.6644 8.66683 21 8.25246 21C7.83808 21 7.50246 20.6644 7.50246 20.25V10.5Z" fill="#BABABA"/>
</svg>
