<svg width="167" height="32" viewBox="0 0 167 32" fill="none" xmlns="http://www.w3.org/2000/svg">
	<path d="M31.125 0H0V32H31.125V0Z M64.8438 0H33.7188V32H64.8438V0Z M98.5625 0H67.4375V32H98.5625V0Z M132.281 0H101.156V32H132.281V0Z M166.051 0H134.877V32H166.051V0Z" fill="#DCDCE5"/>
	<mask id="mask_1635973262" style="mask-type:alpha" maskUnits="userSpaceOnUse" x="0" y="0" width="50%" height="32">
		<path d="M31.125 0H0V32H31.125V0Z M64.8438 0H33.7188V32H64.8438V0Z M98.5625 0H67.4375V32H98.5625V0Z M132.281 0H101.156V32H132.281V0Z M166.051 0H134.877V32H166.051V0Z" fill="#DCDCE5"/>
	</mask>
	<g mask="url(#mask_1635973262)">
		<path id="green" d="M166 0H0V32H166V0Z" fill="#00B67A"/>
	</g>
	<path id="stars" d="M15.5617 21.5668L20.2953 20.3335L22.273 26.6001L15.5617 21.5668ZM26.4555 13.4668H18.123L15.5617 5.40015L13.0004 13.4668H4.66797L11.4117 18.4668L8.85039 26.5335L15.5941 21.5335L19.7441 18.4668L26.4555 13.4668Z M49.2805 21.5668L54.0141 20.3335L55.9918 26.6001L49.2805 21.5668ZM60.1742 13.4668H51.8418L49.2805 5.40015L46.7191 13.4668H38.3867L45.1305 18.4668L42.5691 26.5335L49.3129 21.5335L53.4629 18.4668L60.1742 13.4668Z M82.9992 21.5668L87.7328 20.3335L89.7106 26.6001L82.9992 21.5668ZM93.893 13.4668H85.5606L82.9992 5.40015L80.4379 13.4668H72.1055L78.8492 18.4668L76.2879 26.5335L83.0316 21.5335L87.1816 18.4668L93.893 13.4668Z M116.718 21.5668L121.452 20.3335L123.429 26.6001L116.718 21.5668ZM127.612 13.4668H119.279L116.718 5.40015L114.157 13.4668H105.824L112.568 18.4668L110.007 26.5335L116.75 21.5335L120.9 18.4668L127.612 13.4668Z M150.437 21.5667L155.17 20.3334L157.148 26.6L150.437 21.5667ZM161.33 13.4667H152.998L150.437 5.40002L147.875 13.4667H139.543L146.287 18.4667L143.725 26.5334L150.469 21.5334L154.619 18.4667L161.33 13.4667Z" fill="white"/>
</svg>
