<svg width="112" height="16" viewBox="0 0 112 16" fill="none" xmlns="http://www.w3.org/2000/svg">
<path d="M44.7436 15.6C43.2436 15.6 41.9236 15.29 40.7836 14.67C39.6636 14.05 38.7836 13.16 38.1436 12C37.5036 10.82 37.1836 9.42 37.1836 7.8C37.1836 6.18 37.4936 4.79 38.1136 3.63C38.7536 2.45 39.6236 1.55 40.7236 0.930001C41.8436 0.31 43.1236 0 44.5636 0C46.0236 0 47.2636 0.3 48.2836 0.900001C49.3036 1.5 50.0836 2.32 50.6236 3.36C51.1636 4.4 51.4336 5.58 51.4336 6.9C51.4336 7.28 51.4236 7.63 51.4036 7.95C51.3836 8.27 51.3536 8.54 51.3136 8.76H40.3336C40.4736 10.16 40.9236 11.23 41.6836 11.97C42.4636 12.69 43.4636 13.05 44.6836 13.05C45.6836 13.05 46.4936 12.86 47.1136 12.48C47.7336 12.1 48.2236 11.57 48.5836 10.89L51.1336 12.09C50.6136 13.19 49.7836 14.05 48.6436 14.67C47.5236 15.29 46.2236 15.6 44.7436 15.6ZM44.5036 2.55C43.4036 2.55 42.4936 2.87 41.7736 3.51C41.0736 4.15 40.6236 5.08 40.4236 6.3H48.3136C48.2336 5.1 47.8536 4.18 47.1736 3.54C46.4936 2.88 45.6036 2.55 44.5036 2.55Z" fill="#fff"/>
<path d="M57.1828 0.300002L60.7528 5.73L64.3228 0.300002H68.0128L62.6428 7.65L68.1028 15.3H64.2928L60.5428 9.66L56.6728 15.3H53.0128L58.6528 7.74L53.3128 0.300002H57.1828Z" fill="#fff"/>
<path d="M79.7433 5.67C79.7433 4.67 79.4633 3.9 78.9033 3.36C78.3633 2.8 77.6133 2.52 76.6533 2.52C75.7533 2.52 74.9733 2.73 74.3133 3.15C73.6733 3.57 73.2133 4.25 72.9333 5.19L70.2333 4.05C70.6133 2.83 71.3533 1.85 72.4533 1.11C73.5733 0.37 75.0133 0 76.7733 0C77.9533 0 79.0033 0.2 79.9233 0.600001C80.8633 0.980001 81.5933 1.57 82.1133 2.37C82.6533 3.15 82.9233 4.14 82.9233 5.34V12.03C82.9233 12.77 83.2933 13.14 84.0333 13.14C84.3933 13.14 84.7433 13.09 85.0833 12.99L84.9033 15.21C84.4433 15.43 83.8633 15.54 83.1633 15.54C82.3633 15.54 81.6733 15.36 81.0933 15C80.5133 14.64 80.1233 14.1 79.9233 13.38C79.4433 14.12 78.7533 14.68 77.8533 15.06C76.9533 15.42 76.0533 15.6 75.1533 15.6C73.7333 15.6 72.5533 15.26 71.6133 14.58C70.6733 13.9 70.2033 12.88 70.2033 11.52C70.2033 10.42 70.5633 9.51 71.2833 8.79C72.0233 8.07 73.0633 7.57 74.4033 7.29L79.7433 6.24V5.67ZM73.4433 11.28C73.4433 11.84 73.6533 12.29 74.0733 12.63C74.5133 12.95 75.0933 13.11 75.8133 13.11C76.4933 13.11 77.1333 13 77.7333 12.78C78.3333 12.56 78.8133 12.2 79.1733 11.7C79.5533 11.2 79.7433 10.55 79.7433 9.75V8.49L75.9633 9.27C75.1033 9.43 74.4633 9.66 74.0433 9.96C73.6433 10.26 73.4433 10.7 73.4433 11.28Z" fill="#fff"/>
<path d="M88.1827 15.3V0.300002H91.0327L91.1827 2.82C91.7027 1.86 92.3927 1.15 93.2527 0.690001C94.1327 0.23 95.0627 0 96.0427 0C97.1227 0 98.1127 0.25 99.0127 0.750001C99.9327 1.23 100.623 1.96 101.083 2.94C101.403 2.28 101.843 1.73 102.403 1.29C102.963 0.850001 103.583 0.530001 104.263 0.330001C104.943 0.11 105.613 0 106.273 0C107.233 0 108.133 0.2 108.973 0.600001C109.813 1 110.493 1.61 111.013 2.43C111.533 3.25 111.793 4.3 111.793 5.58V15.3H108.583V6.09C108.583 4.85 108.283 3.97 107.683 3.45C107.103 2.91 106.373 2.64 105.493 2.64C104.453 2.64 103.543 3.03 102.763 3.81C101.983 4.57 101.593 5.68 101.593 7.14V15.3H98.3827V6.09C98.3827 4.85 98.0827 3.97 97.4827 3.45C96.9027 2.91 96.1727 2.64 95.2927 2.64C94.6927 2.64 94.0927 2.8 93.4927 3.12C92.8927 3.44 92.3927 3.94 91.9927 4.62C91.5927 5.3 91.3927 6.2 91.3927 7.32V15.3H88.1827Z" fill="#fff"/>
<path d="M0 15.3V0.300002H4.56L4.71 3.33C5.17 2.23 5.84 1.4 6.72 0.840001C7.6 0.28 8.64 0 9.84 0C11.38 0 12.63 0.45 13.59 1.35C14.55 2.25 15.03 3.57 15.03 5.31V15.3H9.93V6.66C9.93 5.62 9.73 4.9 9.33 4.5C8.93 4.1 8.42 3.9 7.8 3.9C7.06 3.9 6.42 4.16 5.88 4.68C5.36 5.2 5.1 6.09 5.1 7.35V15.3H0Z" fill="#F8A846"/>
<path d="M25.7435 0C27.3235 0 28.7035 0.31 29.8835 0.930001C31.0835 1.55 32.0135 2.44 32.6735 3.6C33.3535 4.76 33.6935 6.16 33.6935 7.8C33.6935 9.44 33.3535 10.84 32.6735 12C32.0135 13.16 31.0835 14.05 29.8835 14.67C28.7035 15.29 27.3235 15.6 25.7435 15.6C24.1835 15.6 22.8035 15.29 21.6035 14.67C20.4235 14.05 19.4935 13.16 18.8135 12C18.1535 10.84 17.8235 9.44 17.8235 7.8C17.8235 6.16 18.1535 4.76 18.8135 3.6C19.4935 2.44 20.4235 1.55 21.6035 0.930001C22.8035 0.31 24.1835 0 25.7435 0ZM25.7435 3.63C24.8635 3.63 24.1735 3.96 23.6735 4.62C23.1935 5.26 22.9535 6.32 22.9535 7.8C22.9535 9.26 23.1935 10.32 23.6735 10.98C24.1735 11.64 24.8635 11.97 25.7435 11.97C26.6435 11.97 27.3335 11.64 27.8135 10.98C28.3135 10.32 28.5635 9.26 28.5635 7.8C28.5635 6.32 28.3135 5.26 27.8135 4.62C27.3335 3.96 26.6435 3.63 25.7435 3.63Z" fill="#F8A846"/>
</svg>
