<svg xmlns="http://www.w3.org/2000/svg" style="shape-rendering:geometricPrecision;" viewBox="0 0 178 42" fill="#016450"><path d="M56.56,32.4625H52.5875V9.1H57.96v9.94a5.597,5.597,0,0,1,5.53-3.4825c4.84751,0,7.7175,3.85,7.7175,8.68,0,4.865-2.85249,8.68-7.8925,8.68A5.78343,5.78343,0,0,1,57.68,29.47Zm1.295-7.91c0,2.625,1.6625,4.34,3.9375,4.34,2.555,0,3.9725-1.995,3.9725-4.6725s-1.4-4.6725-3.9725-4.6725c-2.2575,0-3.9375,1.6975-3.9375,4.34Zm33.32,3.535c-1.12,3.22-4.0425,4.8125-8.155,4.8125-5.3375,0-9.08249-3.3775-9.08249-8.4175A8.69962,8.69962,0,0,1,82.915,15.54c5.565,0,8.3475,3.78,8.3475,8.19v1.33h-12.005a4.14041,4.14041,0,0,0,7.7875,1.75Zm-4.8475-5.53A3.26554,3.26554,0,0,0,82.915,19.25a3.535,3.535,0,0,0-3.5525,3.3075Zm10.5525,4.34c1.0325,1.5925,3.4125,2.45,5.44249,2.45,1.6625,0,2.78251-.4025,2.78251-1.33,0-.8575-.77-1.155-1.89-1.365l-3.4475-.665C96.46,25.3225,94.29,23.765,94.29,20.8425c0-3.01,2.8525-5.2675,7.1575-5.2675,3.78,0,6.23,1.225,7.9275,3.255l-2.9575,2.2575a6.46206,6.46206,0,0,0-4.97-1.96c-1.155,0-2.2225.4025-2.2225,1.295,0,.595.49.9975,1.4,1.19l4.41.9625c2.8175.63,5.005,2.0475,5.005,4.8125,0,3.3775-3.01,5.53-7.7175,5.53-3.4125,0-7.1575-1.225-8.82-3.64ZM115.3425,15.995V11.9525L120.54,10.92v5.075h6.0725v3.71H120.54v6.4575a2.172,2.172,0,0,0,2.2225,2.45c1.6275,0,2.2225-.77,3.185-2.38l2.59,3.115A7.87107,7.87107,0,0,1,121.835,32.9c-3.64,0-6.49249-1.96-6.49249-6.335v-6.86h-3.08v-3.71Zm24.43,16.905c-5.26749,0-9.2225-3.5525-9.2225-8.68,0-5.075,3.9725-8.68,9.2225-8.68,5.2675,0,9.1875,3.5875,9.1875,8.68C148.96,29.3475,145.04,32.9,139.7725,32.9Zm0-3.885c2.38,0,3.745-1.925,3.745-4.7775s-1.365-4.7775-3.745-4.7775-3.745,1.925-3.745,4.7775C136.0275,27.0725,137.41,29.015,139.7725,29.015Zm29.66249-3.01h.14l2.85251-10.01h4.935l-4.97,16.4675H167.16l-3.045-9.94h-.14l-3.045,9.94h-5.2675l-4.97-16.4675H155.995l2.8525,10.01h.14l3.045-10.01h4.305ZM34.4925,2.695,34.44,2.6425a8.83118,8.83118,0,0,0-12.6,0l-.8225.84L20.195,2.66a8.83118,8.83118,0,0,0-12.6,0l-.0525.0525a9.05238,9.05238,0,0,0,0,12.7225l13.51,13.6325L24.99,25.095,11.48,11.4625a3.42313,3.42313,0,0,1,0-4.7775l.0525-.0525a3.32719,3.32719,0,0,1,4.725,0l4.76,4.8125L24.955,7.4725h0l.8225-.84a3.32719,3.32719,0,0,1,4.725,0l.0525.0525a3.42313,3.42313,0,0,1,0,4.7775l-4.76,4.8125,3.9375,3.9725,4.76-4.8125A9.07371,9.07371,0,0,0,34.4925,2.695ZM21,42A21.01664,21.01664,0,0,1,0,21H5.6a15.4,15.4,0,0,0,30.8,0H42A21.01664,21.01664,0,0,1,21,42Z"/></svg>