<?xml version="1.0" encoding="UTF-8"?>
<svg width="364px" height="136px" viewBox="0 0 364 136" version="1.1" xmlns="http://www.w3.org/2000/svg" xmlns:xlink="http://www.w3.org/1999/xlink">
    <!-- Generator: Sketch 52.6 (67491) - http://www.bohemiancoding.com/sketch -->
    <title>download</title>
    <desc>Created with Sketch.</desc>
    <g id="Page-1" stroke="none" stroke-width="1" fill="none" fill-rule="evenodd">
        <g id="download" transform="translate(-1.000000, -1.000000)" fill="#000000" fill-rule="nonzero">
            <path d="M65,73.1 L83.1,69.9 L83.1,126.3 L109,121.7 L109,65.3 L127.4,62.1 L127.4,39.2 L65,50.2 L65,73.1 Z M181.2,57.5 L160.1,61.2 L160.1,33.4 L134.3,38 L134.3,117.3 L160.1,112.7 L160.1,84.8 L181.2,81.1 L181.2,109 L207.1,104.4 L207.1,25.1 L181.2,29.7 L181.2,57.5 Z M254.8,15.5 C241.6,17.8 231.5,23.5 224.6,32.4 C217.6,41.3 214.1,51.9 214.1,64 C214.1,76.2 217.8,85.4 225.1,91.4 C232.5,97.4 242.4,99.3 254.8,97.1 C267.2,94.9 277,89.5 284.2,81 C291.4,72.5 295,62 295,49.7 C295,37.5 291.6,28.1 284.8,21.7 C278,15.2 268,13.2 254.8,15.5 Z M263.9,68.7 C261.6,71.7 258.3,73.7 254.5,74.3 C246,75.8 241.7,70.6 241.7,58.7 C241.7,46.8 246,40 254.5,38.4 C258.4,37.7 261.5,38.5 263.9,40.7 C266.2,42.9 267.4,47.4 267.4,54.2 C267.4,60.9 266.2,65.7 263.9,68.7 Z M345.1,29.2 L336.9,27.8 C334.6,27.5 332.3,27.1 330.1,26.4 C329.2,26.1 328.6,25.3 328.6,24.3 C328.6,23.1 329.2,21.9 330.2,21.1 C331.5,20.1 333.1,19.4 334.8,19.2 C341.3,18 348.2,19.6 355.4,24 L360.8,3.4 C356.2,2 351.4,1.2 346.5,1 C341.2,0.7 335.9,1 330.6,1.9 C321,3.6 313.4,7.3 307.6,13 C301.9,18.6 298.8,26.3 299,34.3 C298.9,39.4 300.6,44.4 303.9,48.3 C307.2,52.2 312.2,54.5 319,55.4 L327,56.5 C332.2,57.2 334.8,58.5 334.8,60.4 C334.8,63.3 332.8,65.1 328.8,65.8 C321.4,67.1 313.4,65.1 304.9,59.6 L298.8,80 C308.2,84.5 319.5,85.6 333,83.2 C342.6,81.5 350.3,77.8 356.2,72.2 C362.1,66.6 365,59.3 365,50.3 C364.9,38.5 358.3,31.4 345.1,29.2 Z M28.2,110.2 C28.1,109.9 28.1,109.6 28.1,109.3 C28.2,106.8 30,104.6 32.5,104.1 L48.1,101.4 L48.1,84.9 L33,87.6 C31.1,88 29.1,86.8 28.7,84.9 C28.6,84.6 28.6,84.3 28.6,83.9 C28.7,81.4 30.5,79.2 33,78.7 L58.2,74.2 L58.8,74.1 L58.8,51.5 C58.8,51.5 32.7,55.7 23.9,57.2 C12.2,59.3 2.8,68.5 2.8,81.3 C2.8,88.8 8.3,95.5 12.7,97 C4.3,100.7 0.2,109.8 1.1,118.2 C2.1,127.9 10.1,139.1 24.5,136.6 C37.7,134.3 49.2,132.2 59.9,130.3 L59.9,108 L32.6,112.8 C30.6,113.4 28.7,112.1 28.2,110.2 Z" id="Shape"></path>
        </g>
    </g>
</svg>