<svg id="icon_17" xmlns="http://www.w3.org/2000/svg" width="42" height="42" viewBox="0 0 42 42">
  <g id="appointment">
    <path id="Path" d="M32.99,32.331v2.122a2.3,2.3,0,0,0,2.3,2.3h0a2.3,2.3,0,0,0,2.3-2.3V3.281A3.281,3.281,0,0,0,34.3,0H3.281A3.281,3.281,0,0,0,0,3.281V32.331Z" transform="translate(3.595 4.43)" fill="#fff"/>
    <path id="Path-2" data-name="Path" d="M35.766,2.123V0H0V2.123a2.3,2.3,0,0,0,2.3,2.3H38.062A2.3,2.3,0,0,1,35.766,2.123Z" transform="translate(0.82 36.76)" fill="#c7eaff"/>
    <path id="Path-3" data-name="Path" d="M37.488,6.809H0V3.281A3.281,3.281,0,0,1,3.281,0H34.207a3.281,3.281,0,0,1,3.281,3.281Z" transform="translate(3.65 4.43)" fill="#99d399"/>
    <g id="Group" transform="translate(16.242 25.758)">
      <path id="Path-4" data-name="Path" d="M2.3,4.594h0A2.3,2.3,0,0,1,0,2.3H0A2.3,2.3,0,0,1,2.3,0h0a2.3,2.3,0,0,1,2.3,2.3h0A2.3,2.3,0,0,1,2.3,4.594Z" transform="translate(0.02)" fill="#a5ddff"/>
      <path id="Path-5" data-name="Path" d="M2.3,4.594h0A2.3,2.3,0,0,1,0,2.3H0A2.3,2.3,0,0,1,2.3,0h0a2.3,2.3,0,0,1,2.3,2.3h0A2.3,2.3,0,0,1,2.3,4.594Z" transform="translate(7.676)" fill="#a5ddff"/>
    </g>
    <path id="Path-6" data-name="Path" d="M2.3,4.594h0A2.3,2.3,0,0,1,0,2.3H0A2.3,2.3,0,0,1,2.3,0h0a2.3,2.3,0,0,1,2.3,2.3h0A2.3,2.3,0,0,1,2.3,4.594Z" transform="translate(31.575 25.758)" fill="#fe6663"/>
    <g id="Group-2" data-name="Group" transform="translate(8.531 17.227)">
      <path id="Path-7" data-name="Path" d="M2.3,4.594h0A2.3,2.3,0,0,1,0,2.3H0A2.3,2.3,0,0,1,2.3,0h0a2.3,2.3,0,0,1,2.3,2.3h0A2.3,2.3,0,0,1,2.3,4.594Z" transform="translate(0.075)" fill="#a5ddff"/>
      <path id="Path-8" data-name="Path" d="M2.3,4.594h0A2.3,2.3,0,0,1,0,2.3H0A2.3,2.3,0,0,1,2.3,0h0a2.3,2.3,0,0,1,2.3,2.3h0A2.3,2.3,0,0,1,2.3,4.594Z" transform="translate(15.387)" fill="#a5ddff"/>
      <path id="Path-9" data-name="Path" d="M2.3,4.594h0A2.3,2.3,0,0,1,0,2.3H0A2.3,2.3,0,0,1,2.3,0h0a2.3,2.3,0,0,1,2.3,2.3h0A2.3,2.3,0,0,1,2.3,4.594Z" transform="translate(7.731)" fill="#a5ddff"/>
    </g>
    <g id="Group-3" data-name="Group" transform="translate(1.477 17.227)">
      <path id="Path-10" data-name="Path" d="M2.3,4.594h0A2.3,2.3,0,0,1,0,2.3H0A2.3,2.3,0,0,1,2.3,0h0a2.3,2.3,0,0,1,2.3,2.3h0A2.3,2.3,0,0,1,2.3,4.594Z" transform="translate(30.098)" fill="#fe6663"/>
      <circle id="Oval" cx="5.906" cy="5.906" r="5.906" transform="translate(0.039 7.711)" fill="#99d399"/>
    </g>
    <g id="Group-4" data-name="Group" transform="translate(11.156 0.82)">
      <path id="Path-11" data-name="Path" d="M1.641,7.1A1.641,1.641,0,0,1,0,5.455V1.641a1.641,1.641,0,0,1,3.281,0V5.455A1.641,1.641,0,0,1,1.641,7.1Z" transform="translate(0.027)" fill="#fff"/>
      <path id="Path-12" data-name="Path" d="M1.641,7.1A1.641,1.641,0,0,1,0,5.455V1.641a1.641,1.641,0,0,1,3.281,0V5.455A1.641,1.641,0,0,1,1.641,7.1Z" transform="translate(18.73)" fill="#fff"/>
    </g>
    <path id="Shape" d="M38.883,42H3.118A3.121,3.121,0,0,1,0,38.883V36.761a.821.821,0,0,1,.82-.821H3.039a6.727,6.727,0,1,1,8.766,0H20a.82.82,0,0,1,0,1.641H1.641v1.3A1.479,1.479,0,0,0,3.118,40.36h33.02a3.116,3.116,0,0,1-.373-1.477v-1.3H27.043a.82.82,0,1,1,0-1.641h9.542a.821.821,0,0,1,.82.821v2.122a1.477,1.477,0,0,0,2.955,0V7.711A2.464,2.464,0,0,0,37.9,5.25h-3.91V6.276a2.461,2.461,0,0,1-4.922,0V5.25H15.285V6.276a2.461,2.461,0,0,1-4.921,0V5.22a.87.87,0,0,1-.219.03H6.876A2.464,2.464,0,0,0,4.415,7.711v2.707H33.989a.82.82,0,0,1,0,1.64H4.415v9.625a.82.82,0,0,1-1.641,0V7.711a4.106,4.106,0,0,1,4.1-4.1h3.269a.828.828,0,0,1,.219.031V2.461a2.461,2.461,0,1,1,4.921,0V3.609H29.066V2.461a2.461,2.461,0,0,1,4.922,0V3.609H37.9a4.107,4.107,0,0,1,4.1,4.1V38.883A3.121,3.121,0,0,1,38.883,42ZM7.422,25.758a5.086,5.086,0,1,0,5.086,5.086A5.092,5.092,0,0,0,7.422,25.758Zm24.1-24.117a.821.821,0,0,0-.82.82V6.276a.82.82,0,0,0,1.641,0V2.461A.821.821,0,0,0,31.527,1.641Zm-18.7,0a.821.821,0,0,0-.82.82V6.276a.82.82,0,0,0,1.641,0V2.461A.821.821,0,0,0,12.824,1.641Z"/>
    <path id="Path-13" data-name="Path" d="M.82,1.641a.821.821,0,0,0,.82-.82A.821.821,0,0,0,.82,0,.821.821,0,0,0,0,.82a.821.821,0,0,0,.82.82Z" transform="translate(37.016 10.418)"/>
    <path id="Path-14" data-name="Path" d="M.24.24A.821.821,0,0,0,.24,1.4a.822.822,0,0,0,1.16,0A.821.821,0,0,0,1.4.24.822.822,0,0,0,.24.24Z" transform="translate(23.098 35.94)"/>
    <path id="Shape-2" data-name="Shape" d="M3.118,6.234A3.117,3.117,0,1,1,6.234,3.118,3.121,3.121,0,0,1,3.118,6.234Zm0-4.594A1.476,1.476,0,1,0,4.594,3.118,1.479,1.479,0,0,0,3.118,1.641Z" transform="translate(15.442 24.938)"/>
    <path id="Shape-3" data-name="Shape" d="M3.118,6.234A3.117,3.117,0,1,1,6.234,3.118,3.121,3.121,0,0,1,3.118,6.234Zm0-4.594A1.476,1.476,0,1,0,4.594,3.118,1.479,1.479,0,0,0,3.118,1.641Z" transform="translate(23.098 24.938)"/>
    <path id="Shape-4" data-name="Shape" d="M3.118,6.234A3.117,3.117,0,1,1,6.234,3.118,3.121,3.121,0,0,1,3.118,6.234Zm0-4.594A1.476,1.476,0,1,0,4.594,3.118,1.479,1.479,0,0,0,3.118,1.641Z" transform="translate(30.754 24.938)"/>
    <path id="Shape-5" data-name="Shape" d="M3.118,6.234A3.117,3.117,0,1,1,6.234,3.118,3.121,3.121,0,0,1,3.118,6.234Zm0-4.594A1.476,1.476,0,1,0,4.594,3.118,1.479,1.479,0,0,0,3.118,1.641Z" transform="translate(7.786 16.406)"/>
    <path id="Shape-6" data-name="Shape" d="M3.118,6.234A3.117,3.117,0,1,1,6.234,3.118,3.121,3.121,0,0,1,3.118,6.234Zm0-4.594A1.476,1.476,0,1,0,4.594,3.118,1.479,1.479,0,0,0,3.118,1.641Z" transform="translate(23.098 16.406)"/>
    <path id="Shape-7" data-name="Shape" d="M3.118,6.234A3.117,3.117,0,1,1,6.234,3.118,3.121,3.121,0,0,1,3.118,6.234Zm0-4.594A1.476,1.476,0,1,0,4.594,3.118,1.479,1.479,0,0,0,3.118,1.641Z" transform="translate(30.754 16.406)"/>
    <path id="Shape-8" data-name="Shape" d="M3.118,6.234A3.117,3.117,0,1,1,6.234,3.118,3.121,3.121,0,0,1,3.118,6.234Zm0-4.594A1.476,1.476,0,1,0,4.594,3.118,1.479,1.479,0,0,0,3.118,1.641Z" transform="translate(15.442 16.406)"/>
  </g>
  <text id="_20" data-name="20" transform="translate(2.049 25.61)" font-size="6.146" font-family="SegoeUI, Segoe UI"><tspan x="1.809" y="7">20</tspan></text>
</svg>
