<?xml version="1.0" encoding="UTF-8"?>
<svg width="62px" height="62px" viewBox="0 0 62 62" version="1.1" xmlns="http://www.w3.org/2000/svg" xmlns:xlink="http://www.w3.org/1999/xlink">
    <!-- Generator: Sketch 52.6 (67491) - http://www.bohemiancoding.com/sketch -->
    <title>Group 12</title>
    <desc>Created with Sketch.</desc>
    <g id="Marketing-Site" stroke="none" stroke-width="1" fill="none" fill-rule="evenodd">
        <g id="Header-Stats-v1.0" transform="translate(-427.000000, -326.000000)">
            <g id="Group-11" transform="translate(375.000000, 327.000000)">
                <g id="Group-10">
                    <g id="Group-12" transform="translate(53.000000, 0.000000)">
                        <circle id="Oval" stroke="#F1F1F1" stroke-width="0.8" fill="#FFFFFF" cx="30" cy="30" r="30"></circle>
                        <g id="015-company" transform="translate(16.000000, 16.000000)" fill="#4A4A4A" fill-rule="nonzero">
                            <path d="M27.1793047,26.3594297 L26.3043047,26.3594297 L26.3043047,12.4145547 C26.3043047,12.0535625 26.0746172,11.7418437 25.7464375,11.6434062 L18.1014531,9.08414062 L18.1014531,28 L27.1793047,28 C27.6387344,28 27.9996172,27.6390078 27.9996172,27.1797422 C27.9995625,26.7203125 27.6386797,26.3594297 27.1793047,26.3594297 Z M24.6637344,26.3594297 L23.0231641,26.3594297 L23.0231641,23.0782891 L21.3825937,23.0782891 L21.3825937,26.3594297 L19.7420234,26.3594297 L19.7420234,22.2579766 C19.7420234,21.7985469 20.1029062,21.4376641 20.5623359,21.4376641 L23.8434766,21.4376641 C24.3029062,21.4376641 24.6637891,21.7985469 24.6637891,22.2579766 L24.6637891,26.3594297 L24.6637344,26.3594297 Z M23.8434766,19.7971484 L20.5623359,19.7971484 C20.1029063,19.7971484 19.7420234,19.4361562 19.7420234,18.9768359 C19.7420234,18.5174063 20.1029063,18.1565234 20.5623359,18.1565234 L23.8434766,18.1565234 C24.3029062,18.1565234 24.6637891,18.5174063 24.6637891,18.9768359 C24.6637344,19.4361562 24.3028516,19.7971484 23.8434766,19.7971484 Z M23.8434766,16.5160078 L20.5623359,16.5160078 C20.1029063,16.5160078 19.7420234,16.1550156 19.7420234,15.6956953 C19.7420234,15.2362656 20.1029063,14.8753828 20.5623359,14.8753828 L23.8434766,14.8753828 C24.3029062,14.8753828 24.6637891,15.2362656 24.6637891,15.6956953 C24.6637344,16.1550156 24.3028516,16.5160078 23.8434766,16.5160078 Z" id="Shape"></path>
                            <path d="M15.9358828,4.97175 L2.81132031,0.0500390625 C2.2535625,-0.146835938 1.69575,0.263320312 1.69575,0.8211875 L1.69575,26.3594297 L0.82075,26.3594297 C0.361320312,26.3594297 0.0004375,26.7203125 0.0004375,27.1797422 C0.0004375,27.6390625 0.361320312,28 0.82075,28 L16.4608828,28 C16.4608828,22.6732188 16.4608828,19.1358125 16.4608828,5.74289844 C16.4608828,5.3983125 16.2476016,5.08659375 15.9358828,4.97175 Z M8.25797656,26.3594297 L4.97683594,26.3594297 L4.97683594,22.2579766 C4.97683594,21.7985469 5.33771875,21.4376641 5.79714844,21.4376641 L8.25803125,21.4376641 L8.25803125,26.3594297 L8.25797656,26.3594297 Z M7.43771875,19.7971484 L5.79714844,19.7971484 C5.33771875,19.7971484 4.97683594,19.4361562 4.97683594,18.9768359 C4.97683594,18.5174062 5.33771875,18.1565234 5.79714844,18.1565234 L7.43771875,18.1565234 C7.89714844,18.1565234 8.25803125,18.5174062 8.25803125,18.9768359 C8.25797656,19.4361562 7.89714844,19.7971484 7.43771875,19.7971484 Z M7.43771875,16.5160078 L5.79714844,16.5160078 C5.33771875,16.5160078 4.97683594,16.1550156 4.97683594,15.6956953 C4.97683594,15.2362656 5.33771875,14.8753828 5.79714844,14.8753828 L7.43771875,14.8753828 C7.89714844,14.8753828 8.25803125,15.2362656 8.25803125,15.6956953 C8.25797656,16.1550156 7.89714844,16.5160078 7.43771875,16.5160078 Z M7.43771875,13.2348672 L5.79714844,13.2348672 C5.33771875,13.2348672 4.97683594,12.873875 4.97683594,12.4145547 C4.97683594,11.955125 5.33771875,11.5942422 5.79714844,11.5942422 L7.43771875,11.5942422 C7.89714844,11.5942422 8.25803125,11.955125 8.25803125,12.4145547 C8.25797656,12.873875 7.89714844,13.2348672 7.43771875,13.2348672 Z M7.43771875,9.95372656 L5.79714844,9.95372656 C5.33771875,9.95372656 4.97683594,9.59273438 4.97683594,9.13341406 C4.97683594,8.67398437 5.33771875,8.31310156 5.79714844,8.31310156 L7.43771875,8.31310156 C7.89714844,8.31310156 8.25803125,8.67398437 8.25803125,9.13341406 C8.25797656,9.59273438 7.89714844,9.95372656 7.43771875,9.95372656 Z M13.1797422,26.3594297 L9.89860156,26.3594297 L9.89860156,21.4377187 L12.3594844,21.4377187 C12.8189141,21.4377187 13.1797969,21.7986016 13.1797969,22.2580312 L13.1797969,26.3594297 L13.1797422,26.3594297 Z M12.3594297,19.7971484 L10.7188594,19.7971484 C10.2594297,19.7971484 9.89854687,19.4361562 9.89854687,18.9768359 C9.89854687,18.5174062 10.2594297,18.1565234 10.7188594,18.1565234 L12.3594297,18.1565234 C12.8188594,18.1565234 13.1797422,18.5174062 13.1797422,18.9768359 C13.1797422,19.4361562 12.8188594,19.7971484 12.3594297,19.7971484 Z M12.3594297,16.5160078 L10.7188594,16.5160078 C10.2594297,16.5160078 9.89854687,16.1550156 9.89854687,15.6956953 C9.89854687,15.2362656 10.2594297,14.8753828 10.7188594,14.8753828 L12.3594297,14.8753828 C12.8188594,14.8753828 13.1797422,15.2362656 13.1797422,15.6956953 C13.1797422,16.1550156 12.8188594,16.5160078 12.3594297,16.5160078 Z M12.3594297,13.2348672 L10.7188594,13.2348672 C10.2594297,13.2348672 9.89854687,12.873875 9.89854687,12.4145547 C9.89854687,11.955125 10.2594297,11.5942422 10.7188594,11.5942422 L12.3594297,11.5942422 C12.8188594,11.5942422 13.1797422,11.955125 13.1797422,12.4145547 C13.1797422,12.873875 12.8188594,13.2348672 12.3594297,13.2348672 Z M12.3594297,9.95372656 L10.7188594,9.95372656 C10.2594297,9.95372656 9.89854687,9.59273438 9.89854687,9.13341406 C9.89854687,8.67398437 10.2594297,8.31310156 10.7188594,8.31310156 L12.3594297,8.31310156 C12.8188594,8.31310156 13.1797422,8.67398437 13.1797422,9.13341406 C13.1797422,9.59273438 12.8188594,9.95372656 12.3594297,9.95372656 Z" id="Shape"></path>
                        </g>
                    </g>
                </g>
            </g>
        </g>
    </g>
</svg>