<svg xmlns="http://www.w3.org/2000/svg" width="38" height="39" viewBox="0 0 38 39">
  <g id="sticker" transform="translate(0 -0.5)">
    <path id="Shape" d="M11.5,23A11.5,11.5,0,1,1,23,11.5,11.513,11.513,0,0,1,11.5,23Zm0-21.048A9.548,9.548,0,1,0,21.047,11.5,9.559,9.559,0,0,0,11.5,1.952Z" transform="translate(8 7.5)" fill="#288497"/>
    <path id="Shape-2" data-name="Shape" d="M19.115,39a3.225,3.225,0,0,1-2.4-1.085l-.786-.878a1.3,1.3,0,0,0-.969-.429,1.253,1.253,0,0,0-.5.1l-1.08.464a3.2,3.2,0,0,1-1.278.263,3.253,3.253,0,0,1-3.11-2.346l-.326-1.133a1.282,1.282,0,0,0-1.183-.933l-1.174-.048A3.242,3.242,0,0,1,3.932,31.77a3.3,3.3,0,0,1-.674-2.586l.2-1.166a1.3,1.3,0,0,0-.667-1.356L1.758,26.1A3.267,3.267,0,0,1,.646,21.355l.675-.966a1.291,1.291,0,0,0-.008-1.516l-.69-.95a3.266,3.266,0,0,1,1.04-4.764l1.024-.575a1.3,1.3,0,0,0,.643-1.373l-.214-1.157a3.268,3.268,0,0,1,.635-2.593A3.2,3.2,0,0,1,6.107,6.224l1.166-.071A1.288,1.288,0,0,0,8.448,5.2l.31-1.141a3.238,3.238,0,0,1,3.119-2.394,3.3,3.3,0,0,1,1.229.247l1.088.447a1.273,1.273,0,0,0,.483.094,1.294,1.294,0,0,0,.985-.446l.762-.894a3.22,3.22,0,0,1,4.849-.032l.786.878a1.3,1.3,0,0,0,.968.429,1.258,1.258,0,0,0,.5-.1l1.079-.463a3.181,3.181,0,0,1,1.278-.264A3.254,3.254,0,0,1,29,3.911l.341,1.125a1.284,1.284,0,0,0,1.183.934l1.175.048a3.238,3.238,0,0,1,2.373,1.205,3.3,3.3,0,0,1,.675,2.586l-.2,1.165a1.306,1.306,0,0,0,.667,1.357l1.031.558a3.267,3.267,0,0,1,1.111,4.748l-.675.966a1.3,1.3,0,0,0,.008,1.517l.69.958a3.266,3.266,0,0,1-1.04,4.765l-1.024.574a1.3,1.3,0,0,0-.643,1.372l.214,1.157a3.276,3.276,0,0,1-.635,2.594,3.233,3.233,0,0,1-2.357,1.237l-1.174.072a1.286,1.286,0,0,0-1.175.95l-.309,1.141a3.24,3.24,0,0,1-3.119,2.394,3.28,3.28,0,0,1-1.23-.248L23.8,36.638a1.272,1.272,0,0,0-.484-.094,1.3,1.3,0,0,0-.985.445l-.77.894A3.245,3.245,0,0,1,19.115,39Zm-4.159-4.365a3.234,3.234,0,0,1,2.413,1.085l.786.878a1.288,1.288,0,0,0,1.937-.015l.769-.887a3.245,3.245,0,0,1,2.444-1.117,3.3,3.3,0,0,1,1.23.248l1.087.446a1.31,1.31,0,0,0,.492.1,1.29,1.29,0,0,0,1.246-.958l.31-1.133a3.233,3.233,0,0,1,2.937-2.387l1.166-.071a1.3,1.3,0,0,0,1.2-1.533l-.214-1.157A3.249,3.249,0,0,1,34.369,24.7l1.024-.575a1.283,1.283,0,0,0,.634-.854,1.4,1.4,0,0,0-.191-1.045l-.69-.95a3.265,3.265,0,0,1-.031-3.8l.675-.966a1.3,1.3,0,0,0-.453-1.892l-1.032-.558a3.259,3.259,0,0,1-1.666-3.407l.2-1.166A1.294,1.294,0,0,0,31.615,7.98l-1.174-.048a3.249,3.249,0,0,1-2.968-2.346l-.326-1.133a1.3,1.3,0,0,0-1.237-.934,1.256,1.256,0,0,0-.509.1l-1.079.463a3.2,3.2,0,0,1-1.278.264,3.237,3.237,0,0,1-2.413-1.085l-.786-.878a1.286,1.286,0,0,0-1.936.016l-.77.886a3.246,3.246,0,0,1-2.444,1.118,3.3,3.3,0,0,1-1.23-.247l-1.087-.447a1.31,1.31,0,0,0-.492-.1,1.289,1.289,0,0,0-1.246.958l-.31,1.141A3.248,3.248,0,0,1,7.393,8.1l-1.166.072A1.3,1.3,0,0,0,5.027,9.7l.207,1.149a3.251,3.251,0,0,1-1.612,3.432L2.6,14.859a1.282,1.282,0,0,0-.635.854,1.254,1.254,0,0,0,.214,1.046l.691.949a3.264,3.264,0,0,1,.032,3.8l-.675.966a1.251,1.251,0,0,0-.206,1.045,1.274,1.274,0,0,0,.651.846l1.032.559A3.259,3.259,0,0,1,5.369,28.33l-.2,1.165a1.273,1.273,0,0,0,.27,1.03A1.245,1.245,0,0,0,6.385,31l1.174.048A3.249,3.249,0,0,1,10.527,33.4l.326,1.133a1.3,1.3,0,0,0,1.238.933,1.254,1.254,0,0,0,.508-.1l1.079-.463A3.2,3.2,0,0,1,14.956,34.635Z" transform="translate(0 0.5)" fill="#288497"/>
    <path id="Path" d="M8.146.325,3.4,5.26,1.854,3.64a1.048,1.048,0,0,0-1.533,0,1.173,1.173,0,0,0-.009,1.6L2.625,7.667A1.063,1.063,0,0,0,3.4,8h0a1.058,1.058,0,0,0,.762-.333L9.68,1.936a1.173,1.173,0,0,0,.009-1.6A1.066,1.066,0,0,0,8.146.325Z" transform="translate(15 15.5)" fill="#288497"/>
  </g>
</svg>
