<?xml version="1.0" encoding="utf-8"?>
<!-- Generator: Adobe Illustrator 16.0.2, SVG Export Plug-In . SVG Version: 6.00 Build 0)  -->
<!DOCTYPE svg PUBLIC "-//W3C//DTD SVG 1.1//EN" "http://www.w3.org/Graphics/SVG/1.1/DTD/svg11.dtd">
<svg version="1.1" id="Layer_1" xmlns="http://www.w3.org/2000/svg" xmlns:xlink="http://www.w3.org/1999/xlink" x="0px" y="0px"
	 width="108px" height="108px" viewBox="0 0 108 108" enable-background="new 0 0 108 108" xml:space="preserve">
<circle id="Oval_4-2" fill="#99D599" cx="54" cy="31" r="30" style="box-shadow: 0 8px 12px 16px rgba(0,0,0,0.16);"/>
<path id="vs." fill="#FFFFFF" d="M42.82,39l-5.67-15.18h3.09l3.69,10.26c0.08,0.24,0.16,0.535,0.24,0.885
	c0.08,0.35,0.15,0.635,0.21,0.855l0.06,0.33h0.06l0.06-0.33c0.06-0.22,0.135-0.505,0.225-0.855c0.09-0.35,0.175-0.645,0.255-0.885
	l3.69-10.26h3.06L46.18,39H42.82z M53.05,37.14l1.41-2.07c0.164,0.183,0.345,0.351,0.54,0.5c0.471,0.313,0.973,0.575,1.5,0.78
	c0.727,0.325,1.514,0.495,2.311,0.5c0.628,0.015,1.246-0.163,1.77-0.51c0.476-0.295,0.761-0.82,0.75-1.38
	c-0.027-0.549-0.333-1.046-0.811-1.32c-0.605-0.413-1.261-0.749-1.949-1c-0.76-0.29-1.521-0.61-2.28-0.96
	c-0.758-0.349-1.425-0.867-1.95-1.515c-0.543-0.668-0.83-1.509-0.81-2.37c-0.044-1.25,0.542-2.439,1.56-3.165
	c1.148-0.803,2.529-1.209,3.93-1.155c0.918-0.01,1.83,0.132,2.701,0.42c0.615,0.176,1.193,0.46,1.709,0.84l0.48,0.42l-1.17,2.19
	c-0.139-0.133-0.283-0.258-0.436-0.375c-0.999-0.613-2.143-0.949-3.314-0.975c-0.623-0.021-1.238,0.141-1.77,0.465
	c-0.728,0.463-0.941,1.427-0.479,2.154c0.141,0.222,0.336,0.405,0.568,0.531c0.611,0.396,1.266,0.723,1.949,0.975
	c0.76,0.29,1.52,0.61,2.28,0.96c0.758,0.348,1.425,0.867,1.95,1.515c0.543,0.668,0.83,1.509,0.81,2.37
	c0.022,1.235-0.54,2.408-1.515,3.165c-1.139,0.866-2.547,1.302-3.975,1.23c-1.057,0.008-2.104-0.18-3.09-0.555
	c-0.744-0.247-1.436-0.628-2.041-1.125L53.05,37.14z M67.721,39v-3.09h3.059V39H67.721z"/>
</svg>
