<svg xmlns="http://www.w3.org/2000/svg" xmlns:xlink="http://www.w3.org/1999/xlink" width="42" height="42" viewBox="0 0 42 42"><defs><path id="czgja" d="M798.62 483.39v-40.77H817v40.77z"/><path id="czgjb" d="M814.53 483.39v-40.77h2.46v40.77z"/><path id="czgjc" d="M821.01 483.39v-40.77h18.38v40.77z"/><path id="czgjd" d="M802.02 453.24a5.74 5.74 0 1 1 11.48 0 5.74 5.74 0 0 1-11.48 0z"/><path id="czgje" d="M824.58 453.24a5.74 5.74 0 1 1 11.48 0 5.74 5.74 0 0 1-11.48 0z"/><path id="czgjf" d="M836.92 483.39v-40.77h2.46v40.77z"/><path id="czgjg" d="M810.389 480.395h-5.086a1.728 1.728 0 0 1-1.723-1.722c0-.948.775-1.723 1.723-1.723h5.086c.947 0 1.722.775 1.722 1.723 0 .947-.775 1.722-1.722 1.722z"/><path id="czgjh" d="M832.859 480.395h-5.086a1.728 1.728 0 0 1-1.723-1.722c0-.948.775-1.723 1.723-1.723h5.086c.947 0 1.722.775 1.722 1.723 0 .947-.775 1.722-1.722 1.722z"/><path id="czgji" d="M807.757 458.363a5.132 5.132 0 0 1-5.126-5.126c0-2.826 2.3-5.126 5.126-5.126 2.827 0 5.126 2.3 5.126 5.126 0 2.827-2.3 5.126-5.126 5.126zm0-11.483a6.365 6.365 0 0 0-6.357 6.357 6.365 6.365 0 0 0 6.357 6.358 6.365 6.365 0 0 0 6.358-6.358 6.365 6.365 0 0 0-6.358-6.357z"/><path id="czgjj" d="M830.317 458.363a5.132 5.132 0 0 1-5.126-5.126c0-2.826 2.3-5.126 5.126-5.126 2.827 0 5.126 2.3 5.126 5.126 0 2.827-2.3 5.126-5.126 5.126zm0-11.483a6.365 6.365 0 0 0-6.357 6.357 6.365 6.365 0 0 0 6.357 6.358 6.365 6.365 0 0 0 6.358-6.358 6.365 6.365 0 0 0-6.358-6.357z"/><path id="czgjk" d="M816.99 442h-18.375a.615.615 0 0 0-.615.615v40.77c0 .34.275.615.615.615h18.375c.34 0 .615-.275.615-.615v-36.162a.615.615 0 1 0-1.23 0v35.547H799.23v-39.54h17.145v1.381a.615.615 0 1 0 1.23 0v-1.996a.615.615 0 0 0-.615-.615z"/><path id="czgjl" d="M839.38 442h-1.989a.615.615 0 1 0 0 1.23h1.374v39.54H821.62v-1.426a.615.615 0 1 0-1.23 0v2.04c0 .34.275.616.615.616h18.375c.34 0 .615-.275.615-.615v-40.77a.615.615 0 0 0-.615-.615z"/><path id="czgjm" d="M821.005 479.334c.34 0 .615-.275.615-.615V443.23h13.105a.615.615 0 1 0 0-1.23h-13.72a.615.615 0 0 0-.615.615v36.104c0 .34.275.615.615.615z"/><path id="czgjn" d="M810.695 451.03a.615.615 0 0 0-.868.063l-2.61 3.016-1.576-1.446a.615.615 0 0 0-.832.907l2.042 1.874a.615.615 0 0 0 .881-.05l3.026-3.496a.615.615 0 0 0-.063-.868z"/><path id="czgjo" d="M833.125 451.01a.615.615 0 0 0-.868.063l-2.61 3.017-1.576-1.447a.615.615 0 0 0-.832.907l2.042 1.874a.615.615 0 0 0 .881-.05l3.026-3.496a.615.615 0 0 0-.063-.868z"/><path id="czgjp" d="M813.135 462.79h-10.5a.615.615 0 1 0 0 1.23h10.5a.615.615 0 1 0 0-1.23z"/><path id="czgjq" d="M813.135 465.67h-10.5a.615.615 0 1 0 0 1.23h10.5a.615.615 0 1 0 0-1.23z"/><path id="czgjr" d="M813.135 468.54h-10.5a.615.615 0 1 0 0 1.23h10.5a.615.615 0 1 0 0-1.23z"/><path id="czgjs" d="M813.75 472.025a.615.615 0 0 0-.615-.615h-10.5a.615.615 0 1 0 0 1.23h10.5c.34 0 .615-.275.615-.615z"/><path id="czgjt" d="M835.575 462.79h-10.5a.615.615 0 1 0 0 1.23h10.5a.615.615 0 1 0 0-1.23z"/><path id="czgju" d="M835.575 465.67h-10.5a.615.615 0 1 0 0 1.23h10.5a.615.615 0 1 0 0-1.23z"/><path id="czgjv" d="M835.575 468.54h-10.5a.615.615 0 1 0 0 1.23h10.5a.615.615 0 1 0 0-1.23z"/><path id="czgjw" d="M836.19 472.025a.615.615 0 0 0-.615-.615h-10.5a.615.615 0 1 0 0 1.23h10.5c.34 0 .615-.275.615-.615z"/><path id="czgjx" d="M811.491 478.673c0 .613-.497 1.112-1.107 1.112h-5.086a1.111 1.111 0 1 1 0-2.225h5.086c.61 0 1.107.5 1.107 1.113zm-6.193-2.343a2.34 2.34 0 0 0-2.338 2.338 2.34 2.34 0 0 0 2.338 2.338h5.086a2.34 2.34 0 0 0 2.338-2.338 2.34 2.34 0 0 0-2.338-2.338z"/><path id="czgjy" d="M833.971 478.673c0 .613-.497 1.112-1.107 1.112h-5.086a1.111 1.111 0 1 1 0-2.225h5.086c.61 0 1.107.5 1.107 1.113zm-6.193-2.343a2.34 2.34 0 0 0-2.338 2.338 2.34 2.34 0 0 0 2.338 2.338h5.086a2.34 2.34 0 0 0 2.338-2.338 2.34 2.34 0 0 0-2.338-2.338z"/></defs><g><g transform="translate(-798 -442)"><g><use fill="#e5e5e5" xlink:href="#czgja"/></g><g><use fill="#cbcbcb" xlink:href="#czgjb"/></g><g><use fill="#e5e5e5" xlink:href="#czgjc"/></g><g><use fill="#6576d4" xlink:href="#czgjd"/></g><g><use fill="#ff6242" xlink:href="#czgje"/></g><g><use fill="#cbcbcb" xlink:href="#czgjf"/></g><g><g><use fill="#67d4fc" xlink:href="#czgjg"/></g><g><use fill="#67d4fc" xlink:href="#czgjh"/></g></g><g><use xlink:href="#czgji"/></g><g><use xlink:href="#czgjj"/></g><g><use xlink:href="#czgjk"/></g><g><use xlink:href="#czgjl"/></g><g><use xlink:href="#czgjm"/></g><g><use xlink:href="#czgjn"/></g><g><use xlink:href="#czgjo"/></g><g><use xlink:href="#czgjp"/></g><g><use xlink:href="#czgjq"/></g><g><use xlink:href="#czgjr"/></g><g><use xlink:href="#czgjs"/></g><g><use xlink:href="#czgjt"/></g><g><use xlink:href="#czgju"/></g><g><use xlink:href="#czgjv"/></g><g><use xlink:href="#czgjw"/></g><g><use xlink:href="#czgjx"/></g><g><use xlink:href="#czgjy"/></g></g></g></svg>