<svg xmlns="http://www.w3.org/2000/svg" xmlns:xlink="http://www.w3.org/1999/xlink" width="46" height="46" viewBox="0 0 46 46"><defs><path id="c4e7a" d="M1216.34 620.828c.274.267.438.638.438 1.046 0 .972-.275 1.921-.787 2.745l-.86 1.372-.772-1.542a5.11 5.11 0 0 1-.549-2.315v-.26c0-.816.668-1.484 1.484-1.484.408 0 .779.163 1.046.438z"/><path id="c4e7b" d="M1241.257 609.605v.051c0 .698-.274 1.358-.771 1.855l-2.196 2.196-3.71-3.71 2.233-2.232a2.506 2.506 0 0 1 1.766-.735h.097a2.573 2.573 0 0 1 2.581 2.575z"/><path id="c4e7c" d="M1238.286 613.71l-14.096 14.096-3.71-3.71L1234.577 610z"/><path id="c4e7d" d="M1204.16 587.74v7.42h-7.42v37.096h31.161v-8.161l-3.71 3.71-5.193 1.483 1.484-5.193 7.42-7.42V587.74z"/><path id="c4e7e" d="M1224.194 627.81l-5.194 1.484 1.484-5.194z"/><path id="c4e7f" d="M1207.13 612.23a3.71 3.71 0 1 1-7.42 0 3.71 3.71 0 0 1 7.42 0z"/><path id="c4e7g" d="M1204.16 587.74v7.42h-7.42z"/><path id="c4e7h" d="M1238.29 612.66l-2.66-2.66 1.708-1.71a1.747 1.747 0 0 1 1.245-.516h.094c.493 0 .956.19 1.303.538.346.345.536.805.536 1.345 0 .502-.196.974-.55 1.328zm-14.096 14.097l-2.661-2.66 13.047-13.049 2.661 2.662zm-8.835-2.537l-.161.258-.182-.362a4.454 4.454 0 0 1-.468-1.982v-.263a.742.742 0 0 1 1.484 0c0 .832-.232 1.644-.673 2.349zm5.492 1.293l1.926 1.926-2.697.771zm6.31 6.013h-29.677v-35.621h7.42v-7.421h22.257v27.892l-7.338 7.341-1.382 4.84h-1.08a.208.208 0 0 1-.185-.114l-1.2-2.4.641-1.027c.588-.943.9-2.027.9-3.137a2.229 2.229 0 0 0-2.227-2.227 2.229 2.229 0 0 0-2.225 2.227v.262c0 .914.215 1.83.624 2.647l.587 1.173-1.562 2.5a.208.208 0 0 1-.176.097h-.957a.208.208 0 0 1-.202-.158l-.383-1.53a1.69 1.69 0 0 0-1.641-1.28c-.778 0-1.453.526-1.641 1.28l-.383 1.53a.208.208 0 0 1-.202.158h-2.226v1.484h2.226c.777 0 1.453-.527 1.641-1.282l.383-1.53c.046-.185.358-.185.404 0l.383 1.53a1.688 1.688 0 0 0 1.64 1.282h.958a1.68 1.68 0 0 0 1.435-.795l1.08-1.73.795 1.59c.289.577.869.935 1.514.935h1.742l5.478-1.565 2.58-2.58zm-23.742-41.993v4.886h-4.886zM1242 609.607c0-.886-.345-1.72-.972-2.345a3.304 3.304 0 0 0-2.351-.972h-.094a3.22 3.22 0 0 0-2.295.952l-7.643 7.643V587h-24.79l-7.855 7.854V633h32.645v-8.596l9.645-9.645.172.172c.363.363.57.864.57 1.375a1.96 1.96 0 0 1-.57 1.376l-5.365 5.365a2.513 2.513 0 0 0-.742 1.792c0 .677.263 1.314.742 1.79l.96.96 1.048-1.05-.96-.96a1.038 1.038 0 0 1-.306-.74c0-.28.108-.544.307-.742l5.366-5.366a3.452 3.452 0 0 0 1.004-2.425c0-.902-.366-1.786-1.004-2.424l-.173-.172 1.676-1.675c.635-.636.985-1.48.985-2.428z"/><path id="c4e7i" d="M1201.94 628.55h1.484v1.484h-1.484z"/><path id="c4e7j" d="M1224.19 589.97h1.484v1.484h-1.484z"/><path id="c4e7k" d="M1213.81 589.97h8.903v1.484h-8.903z"/><path id="c4e7l" d="M1224.19 592.94h1.484v1.484h-1.484z"/><path id="c4e7m" d="M1213.81 592.94h8.903v1.484h-8.903z"/><path id="c4e7n" d="M1224.19 595.9h1.484v1.484h-1.484z"/><path id="c4e7o" d="M1213.81 595.9h8.903v1.484h-8.903z"/><path id="c4e7p" d="M1198.97 598.87h26.71v1.484h-26.71z"/><path id="c4e7q" d="M1198.97 601.84h26.71v1.484h-26.71z"/><path id="c4e7r" d="M1198.97 604.81h26.71v1.484h-26.71z"/><path id="c4e7s" d="M1209.35 608.52h1.484v1.484h-1.484z"/><path id="c4e7t" d="M1212.32 608.52h13.355v1.484h-13.355z"/><path id="c4e7u" d="M1209.35 611.48h16.323v1.484h-16.323z"/><path id="c4e7v" d="M1209.35 614.45h16.323v1.484h-16.323z"/><path id="c4e7w" d="M1203.422 609.256a2.97 2.97 0 0 1 2.967 2.966 2.97 2.97 0 0 1-2.967 2.966 2.97 2.97 0 0 1-2.968-2.966 2.97 2.97 0 0 1 2.968-2.966zm0 7.417a4.456 4.456 0 0 0 4.451-4.451 4.456 4.456 0 0 0-4.451-4.452 4.456 4.456 0 0 0-4.452 4.452 4.456 4.456 0 0 0 4.452 4.451z"/><path id="c4e7x" d="M1198.97 618.16h10.387v1.484h-10.387z"/><path id="c4e7y" d="M1198.97 621.13h10.387v1.484h-10.387z"/></defs><g><g transform="translate(-1196 -587)"><g><use fill="#e6e9ed" xlink:href="#c4e7a"/></g><g><use fill="#969faa" xlink:href="#c4e7b"/></g><g><use fill="#fcd770" xlink:href="#c4e7c"/></g><g><use fill="#e6e9ed" xlink:href="#c4e7d"/></g><g><use fill="#838f9b" xlink:href="#c4e7e"/></g><g><use fill="#b4dd7f" xlink:href="#c4e7f"/></g><g><use fill="#ef7385" xlink:href="#c4e7g"/></g><g><use xlink:href="#c4e7h"/></g><g><use xlink:href="#c4e7i"/></g><g><use xlink:href="#c4e7j"/></g><g><use xlink:href="#c4e7k"/></g><g><use xlink:href="#c4e7l"/></g><g><use xlink:href="#c4e7m"/></g><g><use xlink:href="#c4e7n"/></g><g><use xlink:href="#c4e7o"/></g><g><use xlink:href="#c4e7p"/></g><g><use xlink:href="#c4e7q"/></g><g><use xlink:href="#c4e7r"/></g><g><use xlink:href="#c4e7s"/></g><g><use xlink:href="#c4e7t"/></g><g><use xlink:href="#c4e7u"/></g><g><use xlink:href="#c4e7v"/></g><g><use xlink:href="#c4e7w"/></g><g><use xlink:href="#c4e7x"/></g><g><use xlink:href="#c4e7y"/></g></g></g></svg>