<svg xmlns="http://www.w3.org/2000/svg" xmlns:xlink="http://www.w3.org/1999/xlink" width="39" height="48" viewBox="0 0 39 48"><defs><path id="6a3ua" d="M1029.472 476.627h-27.126a1.6 1.6 0 0 1-1.596-1.603v-33.67a1.6 1.6 0 0 1 1.596-1.604h27.126a1.6 1.6 0 0 1 1.596 1.603v33.67a1.6 1.6 0 0 1-1.596 1.604z"/><path id="6a3ub" d="M1031.069 475.023v-7.848c-.016.005-.033.006-.048.01a4.28 4.28 0 0 0-2.3-.958l-.046-.004v-7.634c0-2.431-1.968-4.409-4.387-4.409a4.45 4.45 0 0 0-.445.022c-2.248.226-3.944 2.162-3.944 4.502v8.91l-1.717 1.725a6.394 6.394 0 0 0-1.7 6.004l.301 1.284h12.69a1.6 1.6 0 0 0 1.596-1.604z"/><path id="6a3uc" d="M1005.54 449.375a2.4 2.4 0 0 1 2.395-2.405 2.4 2.4 0 0 1 2.395 2.405 2.4 2.4 0 0 1-2.395 2.405 2.4 2.4 0 0 1-2.395-2.405z"/><path id="6a3ud" d="M1005.54 458.195a2.4 2.4 0 0 1 2.395-2.405 2.4 2.4 0 0 1 2.395 2.405 2.4 2.4 0 0 1-2.395 2.405 2.4 2.4 0 0 1-2.395-2.405z"/><path id="6a3ue" d="M1005.54 467.005a2.4 2.4 0 0 1 2.395-2.405 2.4 2.4 0 0 1 2.395 2.405 2.4 2.4 0 0 1-2.395 2.405 2.4 2.4 0 0 1-2.395-2.405z"/><path id="6a3uf" d="M1036.464 470.229a1.999 1.999 0 0 0-2.2 1.994v-.688c0-1.048-.75-2.003-1.789-2.108a1.999 1.999 0 0 0-2.2 1.994v-.687c0-1.049-.75-2.004-1.79-2.108a1.999 1.999 0 0 0-2.2 1.993v-12.025a1.999 1.999 0 0 0-2.2-1.994c-1.038.105-1.789 1.06-1.789 2.108v9.907l-2.418 2.43a4.021 4.021 0 0 0-1.062 3.752l1.67 7.128a5.59 5.59 0 0 0 5.436 4.327h6.747c3.084 0 5.584-2.513 5.584-5.612v-8.303c0-1.049-.75-2.004-1.789-2.108z"/><path id="6a3ug" d="M1027.078 472.567a.8.8 0 0 0 .798-.802v-3.105a1.995 1.995 0 0 0-1.596 1.953v1.152a.8.8 0 0 0 .798.802z"/><path id="6a3uh" d="M1031.068 473.367a.8.8 0 0 0 .798-.802v-3.105a1.995 1.995 0 0 0-1.596 1.953v1.152a.8.8 0 0 0 .798.802z"/><path id="6a3ui" d="M1035.058 474.177a.8.8 0 0 0 .798-.802v-3.105a1.995 1.995 0 0 0-1.596 1.953v1.152a.8.8 0 0 0 .798.802z"/><path id="6a3uj" d="M1022.476 481.925l-1.85-7.9a2.595 2.595 0 0 1 .686-2.42l.984-.99v2.008a.8.8 0 0 0 .798.802.8.8 0 0 0 .798-.802V456.64c-.935.197-1.596 1.087-1.596 2.068v9.907l-2.418 2.43a4.021 4.021 0 0 0-1.062 3.752l1.67 7.128a5.59 5.59 0 0 0 5.436 4.326h1.99a5.59 5.59 0 0 1-5.436-4.326z"/><path id="6a3uk" d="M1010.325 448.625a.75.75 0 0 0-.748.752c0 .911-.738 1.653-1.646 1.653a1.651 1.651 0 0 1-1.645-1.653c0-.912.738-1.654 1.645-1.654a.75.75 0 0 0 .748-.751.75.75 0 0 0-.748-.752 3.153 3.153 0 0 0-3.141 3.157c0 1.74 1.41 3.156 3.141 3.156a3.153 3.153 0 0 0 3.142-3.156.75.75 0 0 0-.748-.752z"/><path id="6a3ul" d="M1010.325 457.435a.75.75 0 0 0-.748.752c0 .911-.738 1.653-1.646 1.653a1.651 1.651 0 0 1-1.645-1.653c0-.912.738-1.654 1.645-1.654a.75.75 0 0 0 .748-.751.75.75 0 0 0-.748-.752 3.153 3.153 0 0 0-3.141 3.157c0 1.74 1.41 3.156 3.141 3.156a3.153 3.153 0 0 0 3.142-3.156.75.75 0 0 0-.748-.752z"/><path id="6a3um" d="M1019.103 459.04h-5.585a.75.75 0 0 0-.748.752.75.75 0 0 0 .748.751h5.585a.75.75 0 0 0 .748-.751.75.75 0 0 0-.748-.752z"/><path id="6a3un" d="M1019.103 455.84h-5.585a.75.75 0 0 0-.748.752.75.75 0 0 0 .748.751h5.585a.75.75 0 0 0 .748-.751.75.75 0 0 0-.748-.752z"/><path id="6a3uo" d="M1018.255 468.612a.75.75 0 0 0-.748-.752h-3.989a.75.75 0 0 0-.748.752.75.75 0 0 0 .748.751h3.99a.75.75 0 0 0 .747-.751z"/><path id="6a3up" d="M1019.103 464.65h-5.585a.75.75 0 0 0-.748.752.75.75 0 0 0 .748.751h5.585a.75.75 0 0 0 .748-.751.75.75 0 0 0-.748-.752z"/><path id="6a3uq" d="M1027.031 450.972a.75.75 0 0 0-.748-.752h-12.765a.75.75 0 0 0-.748.752.75.75 0 0 0 .748.751h12.765a.75.75 0 0 0 .748-.751z"/><path id="6a3ur" d="M1013.518 448.523h9.574a.75.75 0 0 0 .748-.751.75.75 0 0 0-.748-.752h-9.574a.75.75 0 0 0-.748.752.75.75 0 0 0 .748.751z"/><path id="6a3us" d="M1007.931 465.353a.75.75 0 0 0 .748-.751.75.75 0 0 0-.748-.752 3.153 3.153 0 0 0-3.141 3.157c0 1.74 1.41 3.156 3.141 3.156a3.153 3.153 0 0 0 3.142-3.156.75.75 0 0 0-.748-.752.75.75 0 0 0-.748.752c0 .911-.738 1.653-1.646 1.653a1.651 1.651 0 0 1-1.645-1.653c0-.912.738-1.654 1.645-1.654z"/><path id="6a3ut" d="M1015.907 475.877h-13.563a.85.85 0 0 1-.848-.852v-33.67c0-.47.38-.852.848-.852h27.126a.85.85 0 0 1 .848.852v24.852a.75.75 0 0 0 .748.751.75.75 0 0 0 .748-.751v-24.852a2.352 2.352 0 0 0-2.344-2.355h-27.126a2.352 2.352 0 0 0-2.344 2.355v33.67a2.352 2.352 0 0 0 2.344 2.355h13.563a.75.75 0 0 0 .748-.752.75.75 0 0 0-.748-.751z"/><path id="6a3uu" d="M1037.505 480.641c0 2.68-2.17 4.86-4.837 4.86h-6.746a4.823 4.823 0 0 1-4.708-3.747l-1.67-7.128a3.247 3.247 0 0 1 .863-3.049l1.141-1.146v2.594a.75.75 0 0 0 .748.752.75.75 0 0 0 .748-.752V458.71c0-.7.49-1.298 1.116-1.36.36-.037.703.076.967.316.261.238.41.576.41.93v13.227a.75.75 0 0 0 .749.752.75.75 0 0 0 .748-.752v-1.202c0-.354.15-.692.41-.93.265-.24.608-.353.967-.317.626.063 1.116.661 1.116 1.36v1.89a.75.75 0 0 0 .748.752.75.75 0 0 0 .748-.751v-1.203c0-.353.15-.692.41-.93.265-.24.609-.352.968-.316.625.063 1.115.66 1.115 1.36v1.89a.75.75 0 0 0 .748.752.75.75 0 0 0 .748-.752v-1.202c0-.354.15-.692.41-.93.265-.24.609-.353.968-.316.626.062 1.116.66 1.116 1.36v8.303zm-.966-11.159a2.75 2.75 0 0 0-1.94.548c-.438-.739-1.185-1.263-2.05-1.35a2.75 2.75 0 0 0-1.94.548c-.437-.738-1.184-1.262-2.049-1.35a2.752 2.752 0 0 0-1.526.289v-9.572a2.747 2.747 0 0 0-3.023-2.742c-1.381.14-2.463 1.394-2.463 2.857v9.595l-2.198 2.21a4.745 4.745 0 0 0-1.262 4.455l1.67 7.129a6.315 6.315 0 0 0 6.164 4.906h6.746c3.492 0 6.333-2.855 6.333-6.364v-8.303c0-1.462-1.081-2.717-2.462-2.856z"/></defs><g><g transform="translate(-1000 -439)"><g><use fill="#f1f4fb" xlink:href="#6a3ua"/></g><g><use fill="#d5dced" xlink:href="#6a3ub"/></g><g><use fill="#b4e66e" xlink:href="#6a3uc"/></g><g><use fill="#dae169" xlink:href="#6a3ud"/></g><g><use fill="#ffdc64" xlink:href="#6a3ue"/></g><g><use fill="#f0c087" xlink:href="#6a3uf"/></g><g><g><use fill="#e6af78" xlink:href="#6a3ug"/></g><g><use fill="#e6af78" xlink:href="#6a3uh"/></g><g><use fill="#e6af78" xlink:href="#6a3ui"/></g><g><use fill="#e6af78" xlink:href="#6a3uj"/></g></g><g><use xlink:href="#6a3uk"/></g><g><use xlink:href="#6a3ul"/></g><g><use xlink:href="#6a3um"/></g><g><use xlink:href="#6a3un"/></g><g><use xlink:href="#6a3uo"/></g><g><use xlink:href="#6a3up"/></g><g><use xlink:href="#6a3uq"/></g><g><use xlink:href="#6a3ur"/></g><g><use xlink:href="#6a3us"/></g><g><use xlink:href="#6a3ut"/></g><g><use xlink:href="#6a3uu"/></g></g></g></svg>