<svg xmlns="http://www.w3.org/2000/svg" xmlns:xlink="http://www.w3.org/1999/xlink" width="48" height="48" viewBox="0 0 48 48"><defs><path id="3z7aa" d="M206.609 473.656v2.501l4.436 1.107a2.334 2.334 0 0 1 1.757 2.253v6.705H195.77v-6.705c0-1.06.728-1.99 1.757-2.253l4.437-1.107v-2.5l.046-.047c.565.62 1.378.999 2.276.999.898 0 1.711-.38 2.276-.999z"/><path id="3z7ab" d="M207.384 469.967v1.548c0 .805-.31 1.549-.821 2.098a3.07 3.07 0 0 1-2.276.999c-.898 0-1.711-.38-2.276-.999a3.079 3.079 0 0 1-.821-2.098v-1.548a3.096 3.096 0 0 1 3.097-3.097c.851 0 1.626.349 2.19.906.558.565.907 1.34.907 2.19z"/><path id="3z7ac" d="M225.97 480.027v1.549a4.649 4.649 0 0 1-4.645 4.645 4.603 4.603 0 0 1-3.283-1.362 4.603 4.603 0 0 1-1.362-3.283V458.55a6.026 6.026 0 0 1 3.097 0v23.025c0 .851.696 1.548 1.548 1.548.426 0 .813-.17 1.092-.456.286-.28.457-.667.457-1.092v-1.549c0-.851.696-1.548 1.548-1.548.426 0 .813.17 1.092.457.286.279.456.666.456 1.091z"/><path id="3z7ad" d="M218.23 444.42a25.702 25.702 0 0 1 5.419 15.793v.248c-.14.155-.263.318-.387.488a6.16 6.16 0 0 0-3.484-2.392 6.026 6.026 0 0 0-3.097 0 6.16 6.16 0 0 0-3.484 2.392 5.876 5.876 0 0 0-.387-.488v-.248c0-5.72 1.904-11.28 5.42-15.793z"/><path id="3z7ae" d="M229.069 450.389v.225a2.32 2.32 0 0 0 2.322 2.322h1.139a16.208 16.208 0 0 1 1.958 7.742v3.871a6.192 6.192 0 0 0-6.193-6.194c-1.85 0-3.507.813-4.646 2.106v-.248c0-5.72-1.904-11.28-5.419-15.793.519 0 1.03.023 1.54.077a15.68 15.68 0 0 1 4.708 1.17 16.27 16.27 0 0 1 5.032 3.305l-.194.38a2.276 2.276 0 0 0-.247 1.037z"/><path id="3z7af" d="M218.228 444.42a25.702 25.702 0 0 0-5.42 15.793v.248a6.165 6.165 0 0 0-4.644-2.106 6.192 6.192 0 0 0-6.194 6.194v-3.87c0-4.817 2.09-9.144 5.42-12.117l.046-.054a2.32 2.32 0 0 0 3.824-1.765v-.225c0-.178-.023-.364-.062-.534h.062c1.673-.79 3.5-1.308 5.427-1.487a14.403 14.403 0 0 1 1.541-.077z"/><path id="3z7ag" d="M219.777 444.415l-.008.078a14.5 14.5 0 0 0-1.54-.078 14.4 14.4 0 0 0-1.541.078l-.008-.078v-3.097c0-.851.697-1.548 1.548-1.548.426 0 .813.17 1.092.457.286.279.457.666.457 1.091z"/><path id="3z7ah" d="M229.501 448.968l1.882-3.778 2.075 4.157c.162.318.247.674.247 1.038v.224a2.32 2.32 0 0 1-2.322 2.323 2.32 2.32 0 0 1-2.323-2.323v-.224c0-.364.085-.72.248-1.037z"/><path id="3z7ai" d="M211.255 446.515v.224a2.32 2.32 0 0 1-3.824 1.765 2.284 2.284 0 0 1-.821-1.765v-.224c0-.364.085-.72.248-1.037l2.075-4.158 2.075 4.158c.077.162.139.325.185.503.04.17.062.356.062.534z"/><path id="3z7aj" d="M242.225 479.258a6.968 6.968 0 1 1-13.935 0 6.968 6.968 0 0 1 13.935 0z"/><path id="3z7ak" d="M225.187 481.58a3.874 3.874 0 0 1-3.867 3.872 3.874 3.874 0 0 1-3.867-3.871v-22.39c.255-.037.513-.062.773-.062s.518.025.774.063v22.389a2.324 2.324 0 0 0 2.32 2.322c1.279 0 2.32-1.042 2.32-2.322v-1.549a.775.775 0 0 1 1.547 0zm-11.57-22.243a25.077 25.077 0 0 1 4.605-13.585 25.073 25.073 0 0 1 4.605 13.585 6.966 6.966 0 0 0-4.605-1.756 6.963 6.963 0 0 0-4.604 1.756zm-10.87.816a15.485 15.485 0 0 1 4.791-10.663c.42.214.889.346 1.392.346a3.098 3.098 0 0 0 3.095-3.095v-.226c0-.01-.003-.018-.003-.026a15.243 15.243 0 0 1 4.621-1.213 26.644 26.644 0 0 0-4.574 13.51 6.954 6.954 0 0 0-3.913-1.214 6.956 6.956 0 0 0-5.408 2.58zm4.638-13.637c0-.24.057-.479.163-.692l1.381-2.77 1.381 2.77c.107.213.163.453.163.692v.226c0 .854-.692 1.548-1.544 1.548a1.548 1.548 0 0 1-1.544-1.548zm10.068-5.193c0-.427.345-.775.77-.775.424 0 .769.348.769.775v2.36c-.257-.012-.511-.038-.77-.038-.257 0-.514.01-.77.021zm15.306 8.37c.106.215.162.455.162.694v.226c0 .854-.69 1.548-1.539 1.548a1.545 1.545 0 0 1-1.538-1.548v-.226c0-.24.056-.479.162-.692l1.376-2.77zm-4.47 7.896c-1.41 0-2.772.436-3.913 1.215a26.69 26.69 0 0 0-4.575-13.53c3.261.33 6.3 1.688 8.754 3.897-.166.386-.266.8-.266 1.22v.225a3.1 3.1 0 0 0 3.723 3.034 15.52 15.52 0 0 1 1.677 6.517 6.947 6.947 0 0 0-5.4-2.578zm-6.196 22.443v1.549a.775.775 0 0 1-1.548 0v-21.916c.817.39 1.539.978 2.08 1.733l.63.878.628-.878a5.435 5.435 0 0 1 4.404-2.269 5.426 5.426 0 0 1 5.42 5.42h1.548v-3.872c0-2.688-.647-5.35-1.86-7.728a3.079 3.079 0 0 0 1.085-2.336v-.226a3.12 3.12 0 0 0-.326-1.385l-2.77-5.54-2.13 4.259a16.882 16.882 0 0 0-8.71-3.9v-2.498a2.326 2.326 0 0 0-2.322-2.323 2.326 2.326 0 0 0-2.322 2.323v2.484c-1.472.2-2.902.589-4.276 1.167l-2.692-5.382-2.77 5.54a3.114 3.114 0 0 0-.327 1.384v.226c0 .636.194 1.228.524 1.72a17.052 17.052 0 0 0-5.169 12.215v3.871h1.548a5.426 5.426 0 0 1 5.42-5.419c1.739 0 3.385.849 4.403 2.27l.629.877.629-.878a5.44 5.44 0 0 1 2.08-1.733v21.916a5.426 5.426 0 0 0 5.42 5.419 5.426 5.426 0 0 0 5.42-5.42v-1.548a2.326 2.326 0 0 0-2.323-2.322 2.326 2.326 0 0 0-2.323 2.322z"/><path id="3z7al" d="M236.031 475.384v-.774h-1.548v.774a2.326 2.326 0 0 0-2.323 2.323 2.326 2.326 0 0 0 2.323 2.322h1.548a.775.775 0 0 1 0 1.549h-1.548a.775.775 0 0 1-.775-.774v-.775h-1.548v.775a2.326 2.326 0 0 0 2.323 2.322v.774h1.548v-.774a2.326 2.326 0 0 0 2.323-2.322 2.326 2.326 0 0 0-2.323-2.323h-1.548a.775.775 0 0 1 0-1.548h1.548c.427 0 .774.347.774.774v.774h1.549v-.774a2.326 2.326 0 0 0-2.323-2.323z"/><path id="3z7am" d="M235.262 485.455a6.2 6.2 0 0 1-6.194-6.193 6.2 6.2 0 0 1 6.194-6.194 6.2 6.2 0 0 1 6.193 6.194 6.2 6.2 0 0 1-6.193 6.193zm0-13.935c-4.27 0-7.742 3.473-7.742 7.742s3.473 7.742 7.742 7.742 7.742-3.473 7.742-7.742c0-4.27-3.473-7.742-7.742-7.742z"/><path id="3z7an" d="M212.032 485.455h-2.322v-5.42h-1.549v5.42h-7.742v-5.42h-1.548v5.42h-2.323v-5.93c0-.71.483-1.328 1.173-1.501l5.02-1.255v-1.707a3.832 3.832 0 0 0 3.098 0v1.707l5.02 1.256c.69.172 1.173.79 1.173 1.5zm-10.064-15.484c0-1.28 1.04-2.323 2.317-2.323a2.323 2.323 0 0 1 2.318 2.323v1.548c0 1.28-1.04 2.323-2.318 2.323a2.323 2.323 0 0 1-2.317-2.323zm5.42 5.59v-1.743c.48-.645.773-1.435.773-2.299v-1.548a3.876 3.876 0 0 0-3.87-3.871 3.876 3.876 0 0 0-3.872 3.871v1.548c0 .865.294 1.654.775 2.3v1.741l-3.848.962a3.091 3.091 0 0 0-2.346 3.004v7.477h18.58v-7.477a3.091 3.091 0 0 0-2.345-3.004z"/><path id="3z7ao" d="M198.1 459.13h1.548v1.548H198.1z"/><path id="3z7ap" d="M198.1 462.23h1.548v1.548H198.1z"/><path id="3z7aq" d="M236.81 464.55h1.548v1.548h-1.548z"/><path id="3z7ar" d="M236.81 467.65h1.548v1.548h-1.548z"/></defs><g><g transform="translate(-195 -439)"><g><use fill="#5cd6b3" xlink:href="#3z7aa"/></g><g><use fill="#f0d0b4" xlink:href="#3z7ab"/></g><g><use fill="#d3a06c" xlink:href="#3z7ac"/></g><g><use fill="#e6e9ed" xlink:href="#3z7ad"/></g><g><use fill="#fcd770" xlink:href="#3z7ae"/></g><g><use fill="#fcd770" xlink:href="#3z7af"/></g><g><use fill="#e6e9ed" xlink:href="#3z7ag"/></g><g><use fill="#69d6f4" xlink:href="#3z7ah"/></g><g><use fill="#69d6f4" xlink:href="#3z7ai"/></g><g><use fill="#fcd770" xlink:href="#3z7aj"/></g><g><use xlink:href="#3z7ak"/></g><g><use xlink:href="#3z7al"/></g><g><use xlink:href="#3z7am"/></g><g><use xlink:href="#3z7an"/></g><g><use xlink:href="#3z7ao"/></g><g><use xlink:href="#3z7ap"/></g><g><use xlink:href="#3z7aq"/></g><g><use xlink:href="#3z7ar"/></g></g></g></svg>