<?xml version="1.0" encoding="UTF-8"?>
<svg width="62px" height="62px" viewBox="0 0 62 62" version="1.1" xmlns="http://www.w3.org/2000/svg" xmlns:xlink="http://www.w3.org/1999/xlink">
    <!-- Generator: Sketch 52.6 (67491) - http://www.bohemiancoding.com/sketch -->
    <title>Group 16</title>
    <desc>Created with Sketch.</desc>
    <g id="Marketing-Site" stroke="none" stroke-width="1" fill="none" fill-rule="evenodd">
        <g id="Header-Stats-v1.0" transform="translate(-1269.000000, -326.000000)">
            <g id="Group-11" transform="translate(375.000000, 327.000000)">
                <g id="Group-6" transform="translate(842.000000, 0.000000)">
                    <g id="Group-16" transform="translate(53.000000, 0.000000)">
                        <circle id="Oval-Copy-4" stroke="#F1F1F1" stroke-width="0.8" fill="#FFFFFF" cx="30" cy="30" r="30"></circle>
                        <g id="004-coworking" transform="translate(16.000000, 16.000000)" fill="#4A4A4A">
                            <path d="M10.7251462,9.8984375 C10.7251462,10.8029175 11.4598563,11.5390625 12.3625731,11.5390625 C12.7663865,11.5390625 13.1539961,11.3908081 13.4539778,11.1216431 C13.6961806,10.9063111 14.0415753,10.854187 14.3340948,10.9838562 C14.6291728,11.1160889 14.8187135,11.4091797 14.8187135,11.7328186 L14.8187135,14.9333191 C15.0946029,14.8587646 15.3807261,14.8203125 15.6717532,14.8203125 C17.4780397,14.8203125 18.946607,16.2919617 18.946607,18.1015625 C18.946607,19.9111633 17.4780397,21.3828125 15.6717532,21.3828125 C15.3792337,21.3828125 15.0954556,21.3309021 14.8187135,21.2559204 L14.8187135,28 L20.5840339,28 C21.0366715,28 21.4230019,27.6329956 21.4230019,27.1796875 L21.4230019,23.0234375 L23.8588877,23.0234375 C24.3115253,23.0234375 24.6978558,22.6564331 24.6978558,22.203125 L24.6978558,18.1015625 L27.1539961,18.1015625 C27.4258346,18.1015625 27.6793372,17.9661255 27.8319932,17.7409668 C27.9837963,17.5160217 28.0151377,17.229126 27.914291,16.9768372 L25.7378777,11.5766602 L25.7378777,9.078125 C25.7378777,4.1026306 21.6978253,0 16.7320298,0 L14.8187135,0 L14.8187135,8.06384277 C14.8187135,8.3874817 14.6291728,8.68078613 14.3340948,8.81301881 C14.0398697,8.94354245 13.6961806,8.89141848 13.4539778,8.67523191 C13.1539961,8.40606692 12.7663865,8.2578125 12.3625731,8.2578125 C11.4598563,8.2578125 10.7251462,8.99395755 10.7251462,9.8984375 Z" id="Path"></path>
                            <path d="M0.846003899,18.1015625 L3.35672515,18.1015625 L3.35672515,22.203125 C3.35672515,22.6564331 3.72280091,23.0234375 4.1754386,23.0234375 L6.63157895,23.0234375 L6.63157895,27.1796875 C6.63157895,27.6329956 6.99765471,28 7.4502924,28 L13.1812865,28 L13.1812865,19.9047546 C13.1812865,19.2252197 14.038164,18.820404 14.5573222,19.3040466 C14.8611416,19.5868835 15.2568531,19.7421875 15.6717532,19.7421875 C16.57447,19.7421875 17.3091801,19.0060425 17.3091801,18.1015625 C17.3091801,17.1972962 16.57447,16.4609375 15.6717532,16.4609375 C15.2568531,16.4609375 14.8611416,16.6164551 14.5573222,16.899292 C14.3189571,17.1210327 13.9712171,17.1804199 13.672941,17.0505371 C13.3740253,16.9200134 13.1812865,16.6243591 13.1812865,16.2983704 L13.1812865,13.0756531 C12.9158443,13.1444397 12.6416606,13.1796875 12.3625731,13.1796875 C10.5564997,13.1796875 9.0877193,11.708252 9.0877193,9.8984375 C9.0877193,8.08883666 10.5564997,6.6171875 12.3625731,6.6171875 C12.6416606,6.6171875 12.9158443,6.65243529 13.1812865,6.72143555 L13.1812865,0 L11.3022966,0 C6.33650097,0 2.2964486,4.1026306 2.2964486,9.078125 L2.2964486,11.5766602 L0.085709037,16.9768372 C-0.0151376842,17.229126 0.0159905107,17.5160217 0.168006823,17.7411804 C0.320662768,17.9661255 0.574165435,18.1015625 0.846003899,18.1015625 Z" id="Path"></path>
                        </g>
                    </g>
                </g>
            </g>
        </g>
    </g>
</svg>