<svg xmlns="http://www.w3.org/2000/svg" xmlns:xlink="http://www.w3.org/1999/xlink" width="46" height="42" viewBox="0 0 46 42"><defs><path id="923ta" d="M630.548 445.77c4.678 0 8.469 3.771 8.469 8.423 0 5.36.77 10.72.77 10.72s-3.85 2.298-9.239 3.063c-5.389-.765-9.238-3.062-9.238-3.062s.77-5.36.77-10.72c0-4.653 3.791-8.424 8.468-8.424z"/><path id="923tb" d="M627.47 453.427v-2.297c0-2.603 1.865-4.77 4.339-5.257a8.537 8.537 0 0 0-1.26-.103c-4.678 0-8.47 3.771-8.47 8.423 0 5.36-.769 10.72-.769 10.72s3.85 2.298 9.238 3.063V456.49z"/><path id="923tc" d="M639.874 470.464l-5.279-2.1a1.531 1.531 0 0 1-.967-1.422v-2.792h-6.16v2.792c0 .626-.383 1.19-.967 1.422l-5.28 2.1a2.297 2.297 0 0 0-1.451 2.133v3.04c0 .422.345.765.77.765v6.892h20.016v-6.892h.77v-3.805c0-.94-.575-1.784-1.452-2.133z"/><path id="923td" d="M630.548 467.979a9.244 9.244 0 0 0 3.159-.563c-.05-.151-.08-.31-.08-.474v-2.792h-6.158v2.792c0 .164-.03.323-.079.474a9.244 9.244 0 0 0 3.158.563z"/><path id="923te" d="M620.54 475.63v2.297h.77c.425 0 .77.343.77.766v4.594h2.31v-7.657z"/><path id="923tf" d="M630.549 465.68c-3.827 0-6.159-3.086-6.159-6.892v-3.063c2.215 0 2.465-1.584 2.863-2.474a.455.455 0 0 1 .691-.179c3.262 2.448 9.534.617 9.534 5.716 0 3.806-3.102 6.892-6.929 6.892z"/><path id="923tg" d="M627.47 458.79v-5.75a.442.442 0 0 0-.217.212c-.398.89-.648 2.475-2.863 2.475v2.818c0 3.166 1.28 6.056 4.35 6.892 1.322.36 2.585.3 3.734-.03-2.89-.831-5.005-3.476-5.005-6.617z"/><path id="923th" d="M639.874 470.467l-3.284-1.307a6.15 6.15 0 0 1-6.042 4.947 6.15 6.15 0 0 1-6.042-4.947l-3.284 1.307a2.297 2.297 0 0 0-1.452 2.132v10.697h17.707v-6.892h3.85V472.6c0-.939-.576-1.784-1.453-2.132z"/><path id="923ti" d="M637.48 474.87l3.5-3.48c.22.356.35.77.35 1.207v3.805h-3.85v-1.532z"/><path id="923tj" d="M636.59 469.16a6.15 6.15 0 0 1-6.042 4.947 6.15 6.15 0 0 1-6.043-4.947l-2.165.862a8.456 8.456 0 0 0 8.208 6.382 8.456 8.456 0 0 0 8.208-6.382z"/><path id="923tk" d="M597.44 483.29v-8.42h4.62v8.42z"/><path id="923tl" d="M618.064 465.216l-6.767-1.836h-6.159l-6.766 1.836a2.3 2.3 0 0 0-1.702 2.216v7.434h4.62v8.423h18.476v-15.857a2.3 2.3 0 0 0-1.702-2.216z"/><path id="923tm" d="M615.069 464.401l-3.765-1.021h-6.159l-3.765 1.021a6.913 6.913 0 0 0 6.844 5.87 6.913 6.913 0 0 0 6.845-5.87z"/><path id="923tn" d="M604.37 460.7v2.68c0 2.115 1.723 3.829 3.85 3.829 2.125 0 3.849-1.714 3.849-3.829v-2.68h-7.699z"/><path id="923to" d="M604.37 463.302a9.23 9.23 0 0 0 3.85.844 9.23 9.23 0 0 0 3.849-.844V460.7h-7.699z"/><path id="923tp" d="M615.147 451.894V447.3H601.29v4.594c-.85 0-1.54.686-1.54 1.532s.69 1.531 1.54 1.531c0 3.807 3.102 6.892 6.929 6.892 3.826 0 6.928-3.085 6.928-6.892.85 0 1.54-.685 1.54-1.531 0-.846-.69-1.532-1.54-1.532z"/><path id="923tq" d="M605.14 454.957V447.3h-3.85v4.594c-.85 0-1.54.686-1.54 1.532s.69 1.531 1.54 1.531c0 3.807 3.102 6.892 6.929 6.892.668 0 1.313-.1 1.924-.275-2.889-.83-5.004-3.475-5.004-6.617z"/><path id="923tr" d="M614.214 452.22a1.53 1.53 0 0 1 .934-.321c.281 0 .542.08.77.212v-4.807c0-1.145-.64-2.132-1.577-2.657a2.3 2.3 0 0 0-2.273-1.937h-6.159c-2.976 0-5.389 2.4-5.389 5.36v4.041a1.53 1.53 0 0 1 1.059-.184c.75.147 1.5-.266 1.688-1.002l.19-.754a.765.765 0 0 1 .721-.58c1.604-.042 6.153-.274 8.66-1.52l.448 2.674c.103.614.45 1.131.928 1.475z"/><path id="923ts" d="M605.14 447.304c0-2.537 2.067-4.594 4.618-4.594h-3.849c-2.976 0-5.389 2.4-5.389 5.36v4.041a1.492 1.492 0 0 1 1.436-.056c.497.246 1.037-.04 1.172-.577l.328-1.307a.765.765 0 0 1 .722-.58c.253-.006.582-.018.961-.037v-2.25z"/><path id="923tt" d="M596.67 467.434v7.434h4.62v-2.515c0-.851-.286-1.678-.812-2.35l-3.208-4.103c-.373.412-.6.95-.6 1.534z"/><path id="923tu" d="M625.118 478.935l-2.513-.833a.766.766 0 0 1-.527-.727v-1.745h-4.619v1.745c0 .33-.212.623-.526.727l-2.514.833a2.298 2.298 0 0 0-1.579 2.18v2.172h13.858v-2.173c0-.988-.636-1.866-1.58-2.179z"/><path id="923tv" d="M619.765 478.693a7.707 7.707 0 0 0 2.905-.568l-.069-.023a.766.766 0 0 1-.526-.727v-1.745h-4.62v1.745c0 .33-.212.623-.526.727l-.069.023a7.708 7.708 0 0 0 2.905.568z"/><path id="923tw" d="M619.769 459.55c-3.827 0-6.929 3.085-6.929 6.892v2.297h13.858v-2.297c0-3.807-3.102-6.892-6.93-6.892z"/><path id="923tx" d="M622.078 459.95a6.936 6.936 0 0 0-2.31-.4c-3.826 0-6.928 3.085-6.928 6.892v2.297h4.62v-2.297c0-3 1.93-5.544 4.618-6.491z"/><path id="923ty" d="M625.896 467.212h-.053a1.451 1.451 0 0 1-1.455-1.447c0-.41-.41-.698-.799-.56-5.69 2.007-9.21 2.007-9.21 2.007h-.738c-.77 0-1.448.55-1.555 1.31-.134.944.6 1.753 1.524 1.753h.77v.686c0 2.88 2.252 5.308 5.145 5.435 3.087.135 5.633-2.314 5.633-5.355v-.766h.77c.924 0 1.657-.81 1.524-1.754-.108-.759-.786-1.309-1.556-1.309z"/><path id="923tz" d="M624.388 458.02l-4.619 1.969-4.619-1.969v4.594l4.62-1.969 4.618 1.97z"/><path id="923tA" d="M617.46 471.039v-4.149c-1.821.316-3.08.32-3.08.32h-.77c-.85 0-1.54.686-1.54 1.531 0 .846.69 1.532 1.54 1.532h.77v.54c0 2.936 2.273 5.495 5.223 5.583a5.42 5.42 0 0 0 1.705-.222c-2.225-.66-3.849-2.708-3.849-5.135z"/><path id="923tB" d="M625.118 478.936l-1.255-.416a4.62 4.62 0 0 1-4.094 2.471 4.62 4.62 0 0 1-4.094-2.471l-1.256.416a2.298 2.298 0 0 0-1.579 2.18v2.173h13.858v-2.173c0-.99-.637-1.867-1.58-2.18z"/><path id="923tC" d="M608.224 458.696c.785 0 1.537-.37 2.063-1.014a.668.668 0 0 0-.1-.942.676.676 0 0 0-.947.098c-.272.334-.633.518-1.016.518-.384 0-.745-.184-1.017-.518a.676.676 0 0 0-.948-.098.668.668 0 0 0-.099.942c.526.645 1.278 1.014 2.064 1.014z"/><path id="923tD" d="M605.144 454.866c.372 0 .674-.3.674-.67v-.766c0-.37-.302-.67-.674-.67-.372 0-.674.3-.674.67v.766c0 .37.302.67.674.67z"/><path id="923tE" d="M611.304 454.866c.372 0 .674-.3.674-.67v-.766c0-.37-.302-.67-.674-.67-.372 0-.674.3-.674.67v.766c0 .37.302.67.674.67z"/><path id="923tF" d="M630.544 462.526c.785 0 1.537-.37 2.063-1.014a.668.668 0 0 0-.1-.942.676.676 0 0 0-.947.098c-.272.334-.633.518-1.016.518-.384 0-.745-.184-1.017-.518a.676.676 0 0 0-.948-.098.668.668 0 0 0-.098.942c.525.645 1.277 1.014 2.063 1.014z"/><path id="923tG" d="M627.464 458.696c.372 0 .674-.3.674-.67v-.766c0-.37-.302-.67-.674-.67-.372 0-.674.3-.674.67v.766c0 .37.302.67.674.67z"/><path id="923tH" d="M633.624 458.696c.372 0 .674-.3.674-.67v-.766c0-.37-.302-.67-.674-.67-.372 0-.674.3-.674.67v.766c0 .37.302.67.674.67z"/><path id="923tI" d="M630.553 473.445c-1.868 0-3.6-.946-4.609-2.492a2.212 2.212 0 0 0 2.2-2.204 2.2 2.2 0 0 0-.77-1.662v-.638c0-.27-.015-.539-.043-.805a7.651 7.651 0 0 0 5.63.317v.983c0 .907.547 1.71 1.393 2.047l1.454.58a5.484 5.484 0 0 1-5.255 3.874zm-10.788 2.287c-2.598 0-4.712-2.103-4.712-4.69v-.765c0-.37-.301-.67-.673-.67h-.77a.864.864 0 0 1-.865-.862.85.85 0 0 1 .435-.74.669.669 0 0 0 .16-.13c1.664-.048 7.06-.36 10.606-2.376a.669.669 0 0 0 .25-.915.675.675 0 0 0-.919-.25c-3.106 1.768-7.988 2.121-9.763 2.192v-.078c0-1.246.38-2.454 1.067-3.471a.669.669 0 0 0 .87.242l4.314-2.148 4.315 2.148a.676.676 0 0 0 .87-.242 6.207 6.207 0 0 1 1.065 3.471v.978c0 .239.128.46.335.58a.85.85 0 0 1 .435.74.864.864 0 0 1-.865.86h-.77c-.372 0-.673.3-.673.67v.767c0 2.586-2.114 4.69-4.712 4.69zm2.619 3.013l.429.142a3.943 3.943 0 0 1-6.095 0l.428-.142c.59-.196.986-.744.986-1.363v-.534a6.054 6.054 0 0 0 3.266 0v.534c0 .62.396 1.167.986 1.363zm-20.263-13.988l1.664-.497a4.53 4.53 0 1 0 8.447 1.201 7.497 7.497 0 0 0-.065.987v.637a2.197 2.197 0 0 0-.77 1.66 6.25 6.25 0 0 1-3.175.862c-2.931 0-5.467-2.052-6.101-4.85zm6.1-2.233a7.592 7.592 0 0 0 3.176-.692v1.553c0 1.742-1.424 3.159-3.175 3.159a3.17 3.17 0 0 1-3.175-3.15v-1.562a7.589 7.589 0 0 0 3.175.692zm-6.254-7.562c0-.37-.302-.67-.674-.67a.865.865 0 0 1-.866-.861c0-.475.389-.862.866-.862h1.54c.29 0 .547-.184.639-.458l.619-1.845c1.548-.035 6.348-.252 9.051-1.596a.668.668 0 0 0 .302-.9.675.675 0 0 0-.904-.299c-2.9 1.442-8.878 1.46-8.938 1.46a.673.673 0 0 0-.639.46l-.616 1.838h-1.054l-.096.002v-3.16c0-2.587 2.115-4.69 4.715-4.69h6.16c.804 0 1.48.576 1.607 1.37a.67.67 0 0 0 .334.48 2.39 2.39 0 0 1 1.234 2.074v3.926a2.14 2.14 0 0 0-.096-.002h-.77c-.372 0-.674.3-.674.67 0 .37.302.67.674.67h.77c.477 0 .866.387.866.861a.865.865 0 0 1-.866.862c-.372 0-.674.3-.674.67 0 3.43-2.806 6.221-6.255 6.221-3.45 0-6.255-2.79-6.255-6.22zm12.51 6.059a7.57 7.57 0 0 0-1.737 2.55c.003-.061.005-.123.005-.186v-2.35a7.641 7.641 0 0 0 1.732-1.782zm1.347-1.912l2.44 1.208-2.44 1.208zm7.891 0v2.416l-2.438-1.208zm-.962-4.913c0-4.275 3.497-7.753 7.795-7.753s7.795 3.478 7.795 7.753c0 4.5.545 9.05.722 10.41-.604.392-2.15 1.257-4.764 1.826v-1.066a7.586 7.586 0 0 0 3.66-4.895 7.562 7.562 0 0 0 .19-1.68c0-3.788-2.755-4.332-5.418-4.858-1.695-.335-3.448-.68-4.843-1.791a.677.677 0 0 0-.713-.081.67.67 0 0 0-.382.604c0 .018-.03 1.781-2.57 2.413a.67.67 0 1 0 .328 1.3c2.125-.528 2.992-1.714 3.346-2.606 1.461.862 3.098 1.185 4.571 1.476 2.847.562 4.333.975 4.333 3.543 0 .467-.052.932-.155 1.383a6.241 6.241 0 0 1-2.171 3.458 6.205 6.205 0 0 1-3.929 1.38 6.223 6.223 0 0 1-3.64-1.163 7.57 7.57 0 0 0-1.845-2.828v-2.996a.67.67 0 0 0-.32-.57.677.677 0 0 0-.655-.03l-1.455.724c.08-1.395.12-2.723.12-3.953zm17.372 15.647l-5.28-2.1c-.028-.012-.054-.026-.081-.04 3.646-.826 5.373-2.205 5.45-2.268a.668.668 0 0 0 .24-.613c-.008-.053-.764-5.374-.764-10.626 0-5.014-4.101-9.093-9.142-9.093-5.041 0-9.142 4.08-9.142 9.093 0 1.374-.063 3.055-.165 4.645l-1.471.732-4.318-2.147-.038-.016c.205-.596.34-1.224.389-1.875a2.207 2.207 0 0 0 1.561-2.104c0-.666-.299-1.263-.77-1.667v-4.46a3.725 3.725 0 0 0-1.652-3.076 2.96 2.96 0 0 0-2.87-2.188h-6.16c-3.343 0-6.063 2.705-6.063 6.03v3.694a2.192 2.192 0 0 0-.77 1.667c0 .988.658 1.826 1.562 2.104a7.549 7.549 0 0 0 3.058 5.5v1.852l-5.573 1.662a2.951 2.951 0 0 0-2.126 2.843v7.48c0 .37.302.67.674.67h.096v7.752c0 .37.302.67.674.67.372 0 .674-.3.674-.67v-7.753h2.501v7.753c0 .37.302.67.674.67.372 0 .674-.3.674-.67v-11.556c0-.588-.173-1.157-.501-1.646l-1.152-1.718a.676.676 0 0 0-.934-.186.668.668 0 0 0-.187.93l1.152 1.718c.18.268.274.58.274.902v2.463h-3.271v-6.81c0-.724.468-1.35 1.165-1.558l2.314-.69c.805 3.355 3.864 5.804 7.395 5.804 1.268 0 2.5-.311 3.603-.903a2.215 2.215 0 0 0 1.786.903h.096v.096a6.028 6.028 0 0 0 3.08 5.246v1.093a.096.096 0 0 1-.066.09l-2.514.834a2.965 2.965 0 0 0-2.04 2.815v2.173c0 .37.302.67.674.67.372 0 .674-.3.674-.67v-2.173c0-.7.45-1.321 1.118-1.543l.74-.245a5.303 5.303 0 0 0 4.397 2.334 5.3 5.3 0 0 0 4.397-2.334l.74.245a1.626 1.626 0 0 1 1.118 1.543v2.173c0 .37.301.67.674.67.372 0 .673-.3.673-.67v-2.173c0-1.279-.82-2.41-2.04-2.815l-2.513-.833a.095.095 0 0 1-.066-.09v-1.094a6.06 6.06 0 0 0 2.853-3.617 6.856 6.856 0 0 0 4.942 2.104 6.825 6.825 0 0 0 6.504-4.712l2.572 1.023a1.62 1.62 0 0 1 1.028 1.51v3.136h-2.502v-.862c0-.37-.301-.67-.673-.67-.373 0-.674.3-.674.67v8.423c0 .37.301.67.674.67.372 0 .673-.3.673-.67v-6.221h1.732v6.221c0 .37.302.67.674.67.372 0 .674-.3.674-.67v-6.221h.096a.676.676 0 0 0 .674-.67v-3.805c0-1.22-.736-2.302-1.875-2.755z"/><path id="923tJ" d="M621.738 472.05a.676.676 0 0 0-.948.098c-.272.334-.633.518-1.016.518-.384 0-.745-.184-1.017-.518a.676.676 0 0 0-.948-.098.668.668 0 0 0-.099.942c.526.645 1.278 1.014 2.064 1.014.785 0 1.537-.37 2.063-1.014a.668.668 0 0 0-.1-.942z"/><path id="923tK" d="M616.8 469.51c0-.37.302-.67.675-.67.373 0 .675.3.675.67 0 .37-.302.67-.675.67a.673.673 0 0 1-.675-.67z"/><path id="923tL" d="M621.38 469.51c0-.37.302-.67.675-.67.373 0 .675.3.675.67 0 .37-.302.67-.675.67a.673.673 0 0 1-.675-.67z"/></defs><g><g transform="translate(-596 -442)"><g><use fill="#d59f63" xlink:href="#923ta"/></g><g><use fill="#cd915a" xlink:href="#923tb"/></g><g><use fill="#fad7a5" xlink:href="#923tc"/></g><g><g><use fill="#f0c891" xlink:href="#923td"/></g><g><use fill="#f0c891" xlink:href="#923te"/></g></g><g><use fill="#ffe1b4" xlink:href="#923tf"/></g><g><use fill="#fad098" xlink:href="#923tg"/></g><g><use fill="#ff507d" xlink:href="#923th"/></g><g><g><use fill="#d23c69" xlink:href="#923ti"/></g><g><use fill="#d23c69" xlink:href="#923tj"/></g></g><g><use fill="#b48764" xlink:href="#923tk"/></g><g><use fill="#00aaf0" xlink:href="#923tl"/></g><g><use fill="#0096dc" xlink:href="#923tm"/></g><g><use fill="#b48764" xlink:href="#923tn"/></g><g><use fill="#966d50" xlink:href="#923to"/></g><g><use fill="#c39772" xlink:href="#923tp"/></g><g><use fill="#b48764" xlink:href="#923tq"/></g><g><use fill="#64463c" xlink:href="#923tr"/></g><g><use fill="#553732" xlink:href="#923ts"/></g><g><use fill="#0096dc" xlink:href="#923tt"/></g><g><use fill="#e6af78" xlink:href="#923tu"/></g><g><use fill="#d29b6e" xlink:href="#923tv"/></g><g><use fill="#64463c" xlink:href="#923tw"/></g><g><use fill="#553732" xlink:href="#923tx"/></g><g><use fill="#f0c087" xlink:href="#923ty"/></g><g><use fill="#ffdc64" xlink:href="#923tz"/></g><g><use fill="#e6af78" xlink:href="#923tA"/></g><g><use fill="#ffdc64" xlink:href="#923tB"/></g><g><use xlink:href="#923tC"/></g><g><use xlink:href="#923tD"/></g><g><use xlink:href="#923tE"/></g><g><use xlink:href="#923tF"/></g><g><use xlink:href="#923tG"/></g><g><use xlink:href="#923tH"/></g><g><use xlink:href="#923tI"/></g><g><use xlink:href="#923tJ"/></g><g><use xlink:href="#923tK"/></g><g><use xlink:href="#923tL"/></g></g></g></svg>