<svg id="clipboard" xmlns="http://www.w3.org/2000/svg" width="42" height="42" viewBox="0 0 42 42">
  <path id="Path" d="M5.847,0H3.281A3.281,3.281,0,0,0,0,3.281V32.648A3.281,3.281,0,0,0,3.281,35.93H28.219A3.281,3.281,0,0,0,31.5,32.648V3.281A3.281,3.281,0,0,0,28.219,0H25.7" transform="translate(0.82 5.25)" fill="#edf2fa"/>
  <path id="Path-2" data-name="Path" d="M8.531,0V10.705L4.266,7.414,0,10.705V0Z" transform="translate(28.034 26.678)" fill="#4dbaf6"/>
  <circle id="Oval" cx="8.859" cy="8.859" r="8.859" transform="translate(23.461 10.11)" fill="#ff5d5d"/>
  <path id="Path-3" data-name="Path" d="M5,0,6.543,3.129,10,3.63,7.5,6.067l.591,3.44L5,7.884,1.911,9.509,2.5,6.069,0,3.633l3.454-.5Z" transform="translate(27.311 14.215)" fill="#ffb954"/>
  <path id="Path-4" data-name="Path" d="M12.832,8.039h5.543V4.266a1.641,1.641,0,0,0-1.641-1.641H11.813a2.625,2.625,0,0,0-5.25,0H1.641A1.641,1.641,0,0,0,0,4.266V8.039H12.832Z" transform="translate(7.383 0.82)" fill="#4dbaf6"/>
  <g id="Group" transform="translate(5.25 16.078)">
    <path id="Path-5" data-name="Path" d="M3.105,0l-.96,1.944L0,2.255,1.552,3.769,1.185,5.905,3.1,4.9,5.023,5.906,4.657,3.769,6.21,2.257,4.064,1.944Z" transform="translate(0.006)" fill="#ffb954"/>
    <path id="Path-6" data-name="Path" d="M3.105,0l-.96,1.944L0,2.255,1.552,3.769,1.185,5.905,3.1,4.9,5.023,5.906,4.657,3.769,6.21,2.257,4.064,1.944Z" transform="translate(0.006 11.167)" fill="#ffb954"/>
  </g>
  <path id="Path-7" data-name="Path" d="M.819,1.641A.821.821,0,0,0,.819,0,.819.819,0,0,0,0,.82a.821.821,0,0,0,.819.821Z" transform="translate(14.104 27.408)"/>
  <path id="Path-8" data-name="Path" d="M.82,1.641H.832A.82.82,0,1,0,.832,0H.82a.82.82,0,0,0,0,1.641Z" transform="translate(15.702 8.039)"/>
  <path id="Shape" d="M2.731,11.149a.821.821,0,0,1-.809-.958l.517-3.015L.247,5.041A.814.814,0,0,1,.04,4.2.826.826,0,0,1,.7,3.641L3.73,3.2,5.082.457a.821.821,0,0,1,1.471,0L7.908,3.2l3.027.439a.821.821,0,0,1,.455,1.4L9.2,7.174l.517,3.015a.82.82,0,0,1-.809.959.824.824,0,0,1-.381-.094L5.82,9.631,3.113,11.055A.823.823,0,0,1,2.731,11.149ZM5.818,2.674l-.809,1.64a.817.817,0,0,1-.617.448l-1.809.264L3.892,6.3a.82.82,0,0,1,.236.726l-.308,1.8,1.617-.851a.822.822,0,0,1,.764,0l1.618.851-.31-1.8A.82.82,0,0,1,7.746,6.3L9.055,5.024,7.246,4.762a.824.824,0,0,1-.618-.449Z" transform="translate(26.491 13.395)"/>
  <path id="Shape-2" data-name="Shape" d="M29.039,42H4.1A4.106,4.106,0,0,1,0,37.9V8.531a4.106,4.106,0,0,1,4.1-4.1H6.652a2.469,2.469,0,0,1,2.371-1.8h4.2a3.446,3.446,0,0,1,6.693,0h4.2a2.467,2.467,0,0,1,2.372,1.805h2.551a4.106,4.106,0,0,1,4.1,4.1v.794a9.676,9.676,0,0,1,7.59,14.433,9.777,9.777,0,0,1-3.345,3.457V37.383a.814.814,0,0,1-.458.736.819.819,0,0,1-.863-.086l-2.928-2.258,0,.013c0,.024,0,.047,0,.067V37.9A4.106,4.106,0,0,1,29.039,42ZM4.1,6.071A2.463,2.463,0,0,0,1.641,8.531V37.9A2.464,2.464,0,0,0,4.1,40.36H29.039A2.464,2.464,0,0,0,31.5,37.9V35.855a.747.747,0,0,1,.009-.116l-2.975,2.294a.817.817,0,0,1-.862.086.814.814,0,0,1-.459-.736v-4.4H14.924a.82.82,0,1,1,0-1.641h12.29v-2.3h-9.29a.82.82,0,0,1,0-1.641h9.29v-.22a9.7,9.7,0,0,1-4.144-5.368H14.924a.82.82,0,1,1,0-1.641h7.793a9.732,9.732,0,0,1-.076-1.21,9.936,9.936,0,0,1,.061-1.087H14.924a.82.82,0,1,1,0-1.641h8.108A9.7,9.7,0,0,1,31.5,9.325V8.531a2.463,2.463,0,0,0-2.461-2.461H26.578V8.86a.821.821,0,0,1-.82.82H20.215a.82.82,0,1,1,0-1.641h4.722V5.086a.821.821,0,0,0-.82-.82H19.2a.821.821,0,0,1-.82-.821,1.8,1.8,0,0,0-3.61,0,.821.821,0,0,1-.82.821H9.023a.821.821,0,0,0-.82.82V8.039h5.22a.82.82,0,0,1,0,1.641H7.383a.821.821,0,0,1-.82-.82V6.071Zm28.2,27.2a.827.827,0,0,1,.5.171l2.944,2.272V28.023a9.671,9.671,0,0,1-6.89-.016v7.708L31.8,33.443A.828.828,0,0,1,32.3,33.272Zm.02-22.342a8.039,8.039,0,1,0,8.04,8.04A8.048,8.048,0,0,0,32.32,10.931Z"/>
  <path id="Shape-3" data-name="Shape" d="M5.844,7.546a.818.818,0,0,1-.382-.094L3.925,6.644l-1.538.808A.82.82,0,0,1,1.2,6.586l.294-1.711L.248,3.662A.82.82,0,0,1,.7,2.263l1.718-.249L3.191.457a.82.82,0,0,1,1.471,0L5.43,2.015l1.718.25a.815.815,0,0,1,.662.558.826.826,0,0,1-.208.842L6.359,4.876l.293,1.712a.823.823,0,0,1-.327.8A.812.812,0,0,1,5.844,7.546ZM3.925,4.9a.823.823,0,0,1,.382.095l.447.235-.085-.5A.818.818,0,0,1,4.905,4l.362-.353-.5-.073a.823.823,0,0,1-.617-.449l-.224-.454L3.7,3.127a.821.821,0,0,1-.618.448l-.5.073L2.945,4a.82.82,0,0,1,.236.726l-.086.5.448-.235A.817.817,0,0,1,3.925,4.9Z" transform="translate(4.436 15.258)"/>
  <path id="Shape-4" data-name="Shape" d="M5.843,7.546a.807.807,0,0,1-.382-.095L3.924,6.644l-1.537.808A.82.82,0,0,1,1.2,6.586l.294-1.711L.248,3.662A.82.82,0,0,1,.7,2.263l1.718-.249L3.191.457a.82.82,0,0,1,1.471,0L5.43,2.015l1.718.25a.82.82,0,0,1,.455,1.4L6.359,4.876l.293,1.712a.825.825,0,0,1-.327.8A.813.813,0,0,1,5.843,7.546ZM3.925,4.9a.823.823,0,0,1,.382.095l.447.235-.085-.5A.818.818,0,0,1,4.905,4l.362-.353-.5-.073a.823.823,0,0,1-.617-.449l-.224-.454L3.7,3.127a.821.821,0,0,1-.618.448l-.5.073L2.945,4a.82.82,0,0,1,.236.726l-.086.5.448-.235A.817.817,0,0,1,3.925,4.9Z" transform="translate(4.436 26.424)"/>
</svg>
