<svg xmlns="http://www.w3.org/2000/svg" width="36" height="36" viewBox="0 0 36 36">
  <g id="confetti" transform="translate(0)">
    <path id="Shape" d="M.707,36a.7.7,0,0,1-.652-.975L10.476,10.277a1.159,1.159,0,0,1,.33-.651l.018-.017a1.212,1.212,0,0,1,.882-.333,6.492,6.492,0,0,1,3.153,1.4c.386.26.8.555,1.222.877A16.962,16.962,0,0,0,19.452.7a.706.706,0,0,1,1.412,0A20.763,20.763,0,0,1,19.49,8.439a15.891,15.891,0,0,1-2.3,3.989c1.109.913,2.248,1.952,3.387,3.085,1.065,1.06,2.052,2.13,2.936,3.179a20.63,20.63,0,0,1,4.64-1.607.716.716,0,0,1,.148-.016.708.708,0,0,1,.689.557.7.7,0,0,1-.545.833,19.049,19.049,0,0,0-4.021,1.358c.383.493.723.959,1.01,1.383,1.412,2.086,1.743,3.325,1.071,4.019l-.008.008-.007.007-.009.008-.007.006-.036.032a1.155,1.155,0,0,1-.6.285L.981,35.944A.705.705,0,0,1,.707,36Zm4.306-9.113-2.989,7.1,2.943-1.229A4.7,4.7,0,0,0,5.6,30.991,7.731,7.731,0,0,0,5.013,26.887ZM7.87,20.1,5.754,25.128a9.183,9.183,0,0,1,1.076,6.849L8.69,31.2a4.509,4.509,0,0,0,1.254-2.588C10.221,27.041,10.086,24.289,7.87,20.1ZM9.33,16.635l-.764,1.813c2.383,4.136,3.305,7.69,2.74,10.561a7.117,7.117,0,0,1-.365,1.251l1.522-.635A14.112,14.112,0,0,0,14.435,24.5a13.187,13.187,0,0,0-1.888-9.878c-.249-.332-.48-.654-.685-.958-.3-.45-.561-.864-.761-1.231L9.933,15.2A13.372,13.372,0,0,1,12.2,18.476a.7.7,0,0,1-.37.923.707.707,0,0,1-.928-.368A11.791,11.791,0,0,0,9.33,16.635Zm6.358,1.659a15.093,15.093,0,0,1,.135,6.464,17.617,17.617,0,0,1-1.272,4l3.352-1.4c.309-.27,1.858-1.789,1.96-5.121-1.042-.872-2.1-1.842-3.144-2.883C16.384,19.016,16.037,18.66,15.688,18.293ZM21.2,23.3a9.507,9.507,0,0,1-.861,3.036l3.331-1.391c-.381-.207-.786-.455-1.237-.759-.383-.257-.8-.556-1.233-.886h0ZM11.9,10.714a8.184,8.184,0,0,0,1.41,2.561,41.634,41.634,0,0,0,4.408,5.081,41.648,41.648,0,0,0,5.1,4.39,8.25,8.25,0,0,0,2.57,1.4,8.18,8.18,0,0,0-1.409-2.56c-.253-.356-.539-.735-.849-1.127-.187.1-.386.21-.589.327a.706.706,0,0,1-.964-.257.7.7,0,0,1,.258-.96c.127-.074.257-.146.382-.216-.81-.946-1.7-1.9-2.648-2.848-1.1-1.094-2.245-2.136-3.314-3.016-.086.09-.174.18-.262.267a.708.708,0,0,1-1,0,.7.7,0,0,1,0-.994l.087-.089.061-.063c-.223-.169-.451-.336-.677-.5a8.266,8.266,0,0,0-2.57-1.4Z" fill="#80c4d3"/>
    <path id="Path" d="M1.91.588a1,1,0,1,0,.034.086C1.934.647,1.921.614,1.91.588Z" transform="translate(10 19)" fill="#80c4d3"/>
    <path id="Path-2" data-name="Path" d="M.184,3.8A.6.6,0,0,0,.629,4a.6.6,0,0,0,.445-.2,8.525,8.525,0,0,1,5.347-2.41A.677.677,0,0,0,7,.638.652.652,0,0,0,6.32,0,9.772,9.772,0,0,0,.184,2.815.746.746,0,0,0,.184,3.8Z" transform="translate(26 7)" fill="#80c4d3"/>
    <path id="Path-3" data-name="Path" d="M1.284.052,1.2.03A.965.965,0,0,0,.029.752a.993.993,0,0,0,.7,1.2l.049.013A.945.945,0,0,0,1.034,2a.971.971,0,0,0,.933-.734A.994.994,0,0,0,1.284.052Z" transform="translate(34 6)" fill="#80c4d3"/>
    <path id="Path-4" data-name="Path" d="M.667,2.667h.667v.667a.667.667,0,1,0,1.333,0V2.667h.667a.667.667,0,1,0,0-1.333H2.667V.667a.667.667,0,1,0-1.333,0v.667H.667a.667.667,0,1,0,0,1.333Z" transform="translate(4 3)" fill="#80c4d3"/>
    <path id="Path-5" data-name="Path" d="M.667,2.667h.667v.667a.667.667,0,1,0,1.333,0V2.667h.667a.667.667,0,1,0,0-1.333H2.667V.667a.667.667,0,1,0-1.333,0v.667H.667a.667.667,0,1,0,0,1.333Z" transform="translate(21 10)" fill="#80c4d3"/>
    <path id="Path-6" data-name="Path" d="M3.333,1.333H2.667V.667a.667.667,0,1,0-1.333,0v.667H.667a.667.667,0,1,0,0,1.333h.667v.667a.667.667,0,1,0,1.333,0V2.667h.667a.667.667,0,1,0,0-1.333Z" transform="translate(28 28)" fill="#80c4d3"/>
    <path id="Shape-2" data-name="Shape" d="M2,4A2,2,0,1,1,4,2,2,2,0,0,1,2,4ZM2,1.333A.667.667,0,1,0,2.667,2,.668.668,0,0,0,2,1.333Z" transform="translate(25)" fill="#80c4d3"/>
    <path id="Shape-3" data-name="Shape" d="M2,4A2,2,0,1,1,4,2,2,2,0,0,1,2,4ZM2,1.333A.667.667,0,1,0,2.667,2,.668.668,0,0,0,2,1.333Z" transform="translate(30 12)" fill="#80c4d3"/>
    <path id="Shape-4" data-name="Shape" d="M2,4A2,2,0,1,1,4,2,2,2,0,0,1,2,4ZM2,1.333A.667.667,0,1,0,2.667,2,.668.668,0,0,0,2,1.333Z" transform="translate(12 3)" fill="#80c4d3"/>
    <path id="Path-7" data-name="Path" d="M2,1A1,1,0,1,0,1,2,1,1,0,0,0,2,1Z" transform="translate(30 19)" fill="#80c4d3"/>
    <path id="Path-8" data-name="Path" d="M1,2A1,1,0,1,0,0,1,1,1,0,0,0,1,2Z" transform="translate(23 6)" fill="#80c4d3"/>
    <path id="Path-9" data-name="Path" d="M1,0A1,1,0,1,0,2,1,1,1,0,0,0,1,0Z" transform="translate(33 25)" fill="#80c4d3"/>
    <path id="Path-10" data-name="Path" d="M1,2A1,1,0,1,0,0,1,1,1,0,0,0,1,2Z" transform="translate(9 1)" fill="#80c4d3"/>
  </g>
</svg>
