<svg xmlns="http://www.w3.org/2000/svg" xmlns:xlink="http://www.w3.org/1999/xlink" width="46" height="45" viewBox="0 0 46 45"><defs><path id="eskra" d="M1196.25 485.75v-44.5h45.5v44.5zm1.75-40.74v36.992c0 1.061.884 1.93 1.965 1.93h37.997c1.08 0 1.965-.869 1.965-1.93V445.01c0-1.061-.884-1.93-1.965-1.93h-37.997c-1.08 0-1.965.869-1.965 1.93z"/><path id="eskrb" d="M1199.965 443.08h37.997c1.08 0 1.965.869 1.965 1.93v36.992c0 1.061-.884 1.93-1.965 1.93h-37.997c-1.08 0-1.965-.869-1.965-1.93V445.01c0-1.061.884-1.93 1.965-1.93z"/><path id="eskrd" d="M1202.59 447.58h32.756v8.363h-32.756z"/><path id="eskre" d="M1232.394 451.086c0-.29-.065-.482-.196-.643a.576.576 0 0 0-.459-.225.532.532 0 0 0-.426.193c-.098.128-.164.321-.164.61 0 .258.033.483.164.612a.653.653 0 0 0 .459.193c.164 0 .295-.064.426-.193.13-.129.163-.322.196-.547zm.983.676c0 .804-.131 1.383-.459 1.737a1.653 1.653 0 0 1-1.244.547c-.36 0-.656-.097-.885-.29-.23-.193-.36-.482-.426-.836l.852-.097c.033.161.065.29.164.354.098.097.23.129.36.129a.576.576 0 0 0 .459-.225c.13-.161.229-.483.262-.998a1.2 1.2 0 0 1-.852.354c-.36 0-.688-.128-.95-.386-.262-.257-.393-.611-.393-1.03 0-.45.131-.803.426-1.093.295-.29.655-.418 1.08-.418.46 0 .852.16 1.147.515.295.354.459.933.459 1.737zm-4.422.836a.649.649 0 0 0-.197-.483c-.098-.128-.262-.193-.458-.193a.596.596 0 0 0-.492.226.76.76 0 0 0-.163.45c0 .225.065.418.196.547.098.128.262.193.459.193a.6.6 0 0 0 .458-.193c.131-.129.197-.29.197-.547zm-1.212-1.903c0 .16.066.287.165.383.1.095.232.127.397.127s.297-.032.396-.127a.518.518 0 0 0 .166-.383.518.518 0 0 0-.166-.382c-.099-.095-.23-.127-.396-.127-.198 0-.33.031-.43.127-.099.096-.132.223-.132.382zm1.31.874c.262.096.459.225.557.418.131.193.197.386.197.643 0 .418-.164.74-.426.997-.262.258-.623.386-1.081.386-.426 0-.753-.096-1.048-.321a1.257 1.257 0 0 1-.492-1.03c0-.225.066-.45.197-.643.13-.193.327-.354.59-.45-.23-.097-.394-.225-.492-.386a.96.96 0 0 1-.164-.515c0-.321.131-.579.36-.804.263-.225.59-.322 1.049-.322.426 0 .786.097 1.015.322.23.193.36.483.36.804 0 .193-.065.386-.163.547-.099.16-.262.257-.459.354zm-3.636 1.029a.649.649 0 0 0-.196-.483c-.099-.128-.262-.193-.459-.193a.596.596 0 0 0-.491.226.76.76 0 0 0-.164.45c0 .225.066.418.197.547.098.128.262.193.458.193a.6.6 0 0 0 .459-.193c.13-.129.196-.29.196-.547zm-1.212-1.903c0 .16.066.287.164.383.098.095.23.127.393.127.164 0 .295-.032.393-.127a.52.52 0 0 0 .164-.383.52.52 0 0 0-.164-.382c-.098-.095-.23-.127-.393-.127-.196 0-.327.031-.426.127-.098.096-.13.223-.13.382zm1.278.874c.262.096.458.225.557.418.13.193.196.386.196.643 0 .418-.163.74-.426.997-.262.258-.622.386-1.08.386-.426 0-.754-.096-1.049-.321a1.257 1.257 0 0 1-.491-1.03c0-.225.066-.45.197-.643.13-.193.327-.354.59-.45-.23-.097-.394-.225-.492-.386a.96.96 0 0 1-.164-.515c0-.321.131-.579.36-.804.262-.225.59-.322 1.048-.322.426 0 .787.097 1.016.322.23.193.36.483.36.804 0 .193-.065.386-.164.547-.098.16-.262.257-.458.354z"/><path id="eskrf" d="M1210.456 470.102h-6.555c-.721 0-1.311.578-1.311 1.285v6.422c0 .706.59 1.284 1.311 1.284h6.555c.721 0 1.311-.578 1.311-1.284v-6.422c0-.707-.59-1.285-1.31-1.285zm11.131 0h-6.555c-.72 0-1.31.578-1.31 1.285v6.422c0 .706.59 1.284 1.31 1.284h6.555c.722 0 1.311-.578 1.311-1.284v-6.422c0-.707-.59-1.285-1.31-1.285zm0-10.942h-6.555c-.72 0-1.31.579-1.31 1.286v6.43c0 .707.59 1.285 1.31 1.285h6.555c.722 0 1.311-.578 1.311-1.286v-6.43c0-.706-.59-1.285-1.31-1.285zm-11.13 0h-6.556c-.721 0-1.311.579-1.311 1.286v6.43c0 .707.59 1.285 1.311 1.285h6.555c.721 0 1.311-.578 1.311-1.286v-6.43c0-.706-.59-1.285-1.31-1.285z"/><path id="eskrg" d="M1216.47 464.57l.92-.9-.92-.9.92-.901.919.9.919-.868.919.9-.92.901.92.9-.92.902-.918-.901-.92.9-.919-.932zm-8.635-1.543h1.313v1.286h-1.313v1.287h-1.312v-1.287h-1.313v-1.286h1.313v-1.287h1.312zm11.133 13.51a.654.654 0 0 1-.66.643.654.654 0 0 1-.66-.643c0-.354.298-.644.66-.644.363 0 .66.29.66.644zm1.31-2.574v1.287h-3.939v-1.287zm-1.97-1.93c.363 0 .66.29.66.644a.654.654 0 0 1-.66.643.654.654 0 0 1-.66-.643c0-.354.298-.644.66-.644zm-13.098 1.609h3.938v1.286h-3.938z"/><path id="eskrh" d="M1226.17 459.16h7.862c.72 0 1.31.579 1.31 1.287v17.37c0 .707-.59 1.286-1.31 1.286h-7.862c-.72 0-1.31-.579-1.31-1.286v-17.37c0-.708.59-1.287 1.31-1.287z"/><path id="eskri" d="M1228.14 471.068h3.93v-1.293h-3.93zm0-3.538v1.293h3.93v-1.293z"/><path id="eskrj" d="M1237.962 482.97h-37.997c-1.08 0-1.965-.868-1.965-1.93v.965c0 1.061.884 1.93 1.965 1.93h37.997c1.08 0 1.965-.869 1.965-1.93v-.965c0 1.062-.884 1.93-1.965 1.93z"/><path id="eskrk" d="M1202.59 447.58h32.756v1.287h-32.756z"/><clipPath id="eskrc"><use fill="#fff" xlink:href="#eskra"/></clipPath></defs><g><g transform="translate(-1196 -441)"><g><use fill="#efefef" xlink:href="#eskrb"/><use fill="#fff" fill-opacity="0" stroke="#393939" stroke-miterlimit="50" stroke-width="3.5" clip-path="url(&quot;#eskrc&quot;)" xlink:href="#eskrb"/></g><g><use fill="#324d5b" xlink:href="#eskrd"/></g><g><use fill="#aeb5ba" xlink:href="#eskre"/></g><g><use fill="#e2574c" xlink:href="#eskrf"/></g><g><use fill="#fff" xlink:href="#eskrg"/></g><g><use fill="#26a6d1" xlink:href="#eskrh"/></g><g><use fill="#fff" xlink:href="#eskri"/></g><g><use fill="#dcdcdc" xlink:href="#eskrj"/></g><g><use fill="#2e4754" xlink:href="#eskrk"/></g></g></g></svg>