<svg xmlns="http://www.w3.org/2000/svg" xmlns:xlink="http://www.w3.org/1999/xlink" width="45" height="48" viewBox="0 0 45 48"><defs><path id="7ue3a" d="M819.501 586.96c-6.483 0-11.971 9.264-12.911 21.207 2.382-2.242 6.266-2.318 8.604-.004l-.002-.002a.107.107 0 0 0-.01-.01l-.017-.017-.006-.005c.414-12.022 2.221-21.159 4.342-21.159 2.121 0 3.93 9.138 4.342 21.159l-.029.028c2.34-2.308 6.215-2.23 8.598.01-.94-11.943-6.427-21.207-12.91-21.207z"/><path id="7ue3b" d="M819.497 586.94c-11.9 0-21.547 9.507-21.547 21.233h.027c2.38-2.355 6.233-2.355 8.609 0 .94-11.943 6.428-21.206 12.911-21.206 6.484 0 11.97 9.263 12.911 21.205l.001.001c2.376-2.355 6.229-2.355 8.608 0h.028c0-11.726-9.648-21.233-21.548-21.233z"/><path id="7ue3c" d="M823.844 608.129l-.038.037c-2.38-2.355-6.232-2.355-8.608 0l-.038-.037c.413-12.022 2.22-21.159 4.342-21.159 2.12 0 3.928 9.137 4.342 21.159z"/><path id="7ue3d" d="M819.501 594.435a.933.933 0 0 1-.185-.02.947.947 0 0 1-.748-.736.92.92 0 0 1 .142-.702.942.942 0 0 1 .606-.399.946.946 0 0 1 .548.053.948.948 0 0 1 .57.683.918.918 0 0 1-.142.703.93.93 0 0 1-.605.398.96.96 0 0 1-.186.02z"/><path id="7ue3e" d="M836.713 605.477h-.002c-1.256 0-2.461.324-3.519.932-.617-5.296-2.137-10.145-4.342-13.798-.893-1.48-1.878-2.728-2.93-3.726 7.637 2.476 13.315 9.245 14.085 17.397a7.064 7.064 0 0 0-3.292-.806zm-13.47-12.612c-.38-1.875-.792-3.338-1.252-4.42 1.887.826 3.686 2.577 5.224 5.126 2.02 3.348 3.432 7.797 4.043 12.69-2.076-1.004-4.536-.975-6.538.088-.245-5.22-.761-9.957-1.477-13.484zm-2.8 12.655v-8.618a.944.944 0 0 0-.95-.937c-.524 0-.949.42-.949.937v8.618a7 7 0 0 0-2.359.754c.228-4.76.688-9.128 1.317-12.453.872-4.614 1.75-5.662 1.992-5.872.242.21 1.119 1.258 1.992 5.872.628 3.325 1.089 7.693 1.316 12.453a6.994 6.994 0 0 0-2.358-.754zm-12.704.738c.612-4.89 2.023-9.34 4.043-12.687 1.539-2.55 3.337-4.3 5.224-5.126-.46 1.082-.871 2.545-1.251 4.42-.716 3.527-1.233 8.264-1.477 13.484-2.003-1.065-4.463-1.095-6.539-.09zm-5.452-.791a7.07 7.07 0 0 0-3.295.805c.771-8.147 6.453-14.912 14.095-17.387-1.052.998-2.038 2.245-2.932 3.724-2.206 3.651-3.727 8.497-4.345 13.79a7.057 7.057 0 0 0-3.52-.932zm33.12-12.973c-4.25-4.188-9.899-6.494-15.908-6.494-6.01 0-11.66 2.306-15.909 6.494-4.25 4.188-6.59 9.755-6.59 15.677 0 .518.426.937.951.937h.028c.253 0 .495-.099.674-.276a5.13 5.13 0 0 1 3.631-1.49h.002c1.368 0 2.655.529 3.624 1.487.186.186.431.28.678.28a.956.956 0 0 0 .657-.26c2.053-1.933 5.3-1.949 7.251-.041l.02.02.002.002.004.004c.178.175.42.274.673.274h.001a.96.96 0 0 0 .674-.276 5.12 5.12 0 0 1 3.626-1.49h.001c1.371 0 2.66.53 3.632 1.49a.959.959 0 0 0 1.347.001l.03-.03c1.95-1.9 5.195-1.882 7.247.047a.958.958 0 0 0 1.278.031l.007-.005.009-.008a22.104 22.104 0 0 1 .038-.036 5.122 5.122 0 0 1 3.627-1.49h.002c1.37 0 2.66.53 3.63 1.49a.959.959 0 0 0 .675.276h.027c.526 0 .952-.42.952-.937 0-5.922-2.34-11.49-6.59-15.677z"/><path id="7ue3f" d="M812.651 617.523c0 3.287-2.704 5.952-6.04 5.952s-6.041-2.665-6.041-5.952c0-3.288 2.705-5.953 6.04-5.953 3.337 0 6.041 2.665 6.041 5.953z"/><path id="7ue3g" d="M813.936 633.063H799.29v-8.26c0-.73.601-1.323 1.343-1.323h11.96c.74 0 1.341.592 1.343 1.323z"/><path id="7ue3h" d="M838.431 617.523c0 3.287-2.704 5.952-6.04 5.952-3.337 0-6.041-2.665-6.041-5.952 0-3.288 2.704-5.953 6.04-5.953 3.337 0 6.041 2.665 6.041 5.953z"/><path id="7ue3i" d="M839.714 633.063H825.07v-8.402a1.19 1.19 0 0 1 1.199-1.181h12.247a1.19 1.19 0 0 1 1.198 1.181z"/><path id="7ue3j" d="M824.095 620.205c0 2.5-2.056 4.526-4.592 4.526-2.537 0-4.593-2.026-4.593-4.526 0-2.499 2.056-4.525 4.593-4.525 2.536 0 4.592 2.026 4.592 4.525z"/><path id="7ue3k" d="M825.064 633.066H813.93v-7.013c0-.73.601-1.323 1.343-1.323h8.448c.741 0 1.343.592 1.343 1.323z"/><path id="7ue3l" d="M806.584 628.027l2.664-4.547h-5.328z"/><path id="7ue3m" d="M832.384 628.027l2.664-4.547h-5.328z"/><path id="7ue3n" d="M838.763 632.129h-12.748v-7.465c0-.135.11-.244.247-.244h2.912l2.39 4.078c.17.29.485.469.825.469.34 0 .655-.179.824-.47l2.391-4.077h2.912c.137 0 .247.11.247.244zm-23.879-6.076a.39.39 0 0 1 .392-.386h8.456c.209 0 .38.163.39.367v6.095h-9.238zm-14.642-1.247c0-.213.176-.386.392-.386h2.748l2.392 4.078c.17.29.485.469.825.469.34 0 .655-.179.825-.47l2.393-4.077h2.792a.39.39 0 0 1 .393.386v7.323h-12.76zm1.281-7.276c0-2.765 2.285-5.015 5.093-5.015 2.809 0 5.093 2.25 5.093 5.015 0 2.766-2.284 5.015-5.093 5.015-2.808 0-5.093-2.25-5.093-5.015zm6.092 6.89l-1.02 1.734-1.021-1.734zm11.889-7.803c2.01 0 3.645 1.607 3.645 3.582 0 1.976-1.636 3.583-3.645 3.583-2.01 0-3.646-1.607-3.646-3.583 0-1.975 1.636-3.582 3.646-3.582zm7.792.913c0-2.765 2.285-5.015 5.093-5.015s5.093 2.25 5.093 5.015c0 2.766-2.285 5.015-5.093 5.015s-5.093-2.25-5.093-5.015zm6.114 6.89l-1.02 1.734-1.022-1.734zm3.772-1.875a6.826 6.826 0 0 0 2.202-5.015c0-3.799-3.137-6.89-6.992-6.89s-6.992 3.091-6.992 6.89c0 1.975.848 3.758 2.202 5.015h-1.334c-.896 0-1.666.543-1.988 1.313a2.322 2.322 0 0 0-.552-.066h-.047a5.393 5.393 0 0 0 1.366-3.588c0-3.012-2.486-5.462-5.543-5.462s-5.544 2.45-5.544 5.462c0 1.372.516 2.628 1.366 3.588h-.047c-.206 0-.407.027-.597.078a2.3 2.3 0 0 0-2.089-1.325h-1.19a6.826 6.826 0 0 0 2.202-5.015c0-3.799-3.136-6.89-6.991-6.89-3.856 0-6.992 3.091-6.992 6.89 0 1.975.847 3.758 2.202 5.015h-1.19c-1.265 0-2.294 1.014-2.294 2.26v8.261c0 .518.426.938.951.938h40.423c.525 0 .952-.42.952-.938v-8.402c0-1.169-.965-2.119-2.15-2.119z"/></defs><g><g transform="translate(-797 -586)"><g><use fill="#e4eaf8" xlink:href="#7ue3a"/></g><g><use fill="#06b0f2" xlink:href="#7ue3b"/></g><g><use fill="#06b0f2" xlink:href="#7ue3c"/></g><g><use xlink:href="#7ue3d"/></g><g><use xlink:href="#7ue3e"/></g><g><use fill="#fcd5a2" xlink:href="#7ue3f"/></g><g><use fill="#29d4fc" xlink:href="#7ue3g"/></g><g><use fill="#fcd5a2" xlink:href="#7ue3h"/></g><g><use fill="#ff5050" xlink:href="#7ue3i"/></g><g><use fill="#fcd5a2" xlink:href="#7ue3j"/></g><g><use fill="#fec357" xlink:href="#7ue3k"/></g><g><use fill="#e4eaf8" xlink:href="#7ue3l"/></g><g><use fill="#e4eaf8" xlink:href="#7ue3m"/></g><g><use xlink:href="#7ue3n"/></g></g></g></svg>