<?xml version="1.0" encoding="UTF-8"?>
<svg width="62px" height="62px" viewBox="0 0 62 62" version="1.1" xmlns="http://www.w3.org/2000/svg" xmlns:xlink="http://www.w3.org/1999/xlink">
    <!-- Generator: Sketch 52.6 (67491) - http://www.bohemiancoding.com/sketch -->
    <title>Group 15</title>
    <desc>Created with Sketch.</desc>
    <g id="Marketing-Site" stroke="none" stroke-width="1" fill="none" fill-rule="evenodd">
        <g id="Header-Stats-v1.0" transform="translate(-1058.000000, -326.000000)">
            <g id="Group-11" transform="translate(375.000000, 327.000000)">
                <g id="Group-7" transform="translate(631.000000, 0.000000)">
                    <g id="Group-15" transform="translate(53.000000, 0.000000)">
                        <circle id="Oval-Copy-3" stroke="#F1F1F1" stroke-width="0.8" fill="#FFFFFF" cx="30" cy="30" r="30"></circle>
                        <g id="008-hired" transform="translate(16.000000, 16.000000)" fill="#4A4A4A">
                            <path d="M14.0002136,13.0642361 C17.6072388,13.0642361 20.5313111,10.1458638 20.5313111,6.54565666 C20.5313111,2.94566277 17.6072388,0.0272904483 14.0002136,0.0272904483 C10.3931885,0.0272904483 7.4689026,2.94566277 7.4689026,6.54565666 C7.4689026,10.1458638 10.3931885,13.0642361 14.0002136,13.0642361 Z M12.3830872,5.96680065 L13.4717102,7.05308844 L15.5402221,4.30037765 C16.1919861,3.43347953 17.503418,4.41700169 16.8527221,5.28283379 L14.2166138,8.79072248 C13.9186096,9.18728681 13.3345642,9.23184698 12.9803772,8.87835036 L11.223114,7.12451267 C10.4551392,6.35803483 11.6161804,5.20138889 12.3830872,5.96680065 Z" id="Shape" fill-rule="nonzero"></path>
                            <path d="M7.61010742,16.9955531 C7.61010742,18.6180556 6.29226686,19.9333272 4.66680911,19.9333272 C3.0411377,19.9333272 1.72329713,18.6180556 1.72329713,16.9955531 C1.72329713,15.3732639 3.0411377,14.0579922 4.66680911,14.0579922 C6.29226686,14.0579922 7.61010742,15.3732639 7.61010742,16.9955531 Z" id="Path"></path>
                            <path d="M16.943512,16.9955531 C16.943512,18.6180556 15.6256714,19.9333272 14,19.9333272 C12.3743286,19.9333272 11.056488,18.6180556 11.056488,16.9955531 C11.056488,15.3732639 12.3743286,14.0579922 14,14.0579922 C15.6256714,14.0579922 16.943512,15.3732639 16.943512,16.9955531 Z" id="Path"></path>
                            <path d="M26.2767029,16.9955531 C26.2767029,18.6180556 24.9588623,19.9333272 23.3331909,19.9333272 C21.7077331,19.9333272 20.3898926,18.6180556 20.3898926,16.9955531 C20.3898926,15.3732639 21.7077331,14.0579922 23.3331909,14.0579922 C24.9588623,14.0579922 26.2767029,15.3732639 26.2767029,16.9955531 Z" id="Path"></path>
                            <path d="M23.2979431,19.9335405 C20.7272034,19.9525159 18.6704407,22.0773331 18.6668091,24.642422 L18.6668091,24.5910392 C18.6668091,22.0069749 16.558136,19.9143519 13.9647522,19.9335405 C11.3940124,19.9525159 9.33724974,22.0773331 9.33361816,24.642422 L9.33361816,24.5910392 C9.33361816,22.0069749 7.22494505,19.9143519 4.63134766,19.9335405 C2.05825807,19.9525159 -5.68434189e-14,22.0811708 -5.68434189e-14,24.6494578 L-5.68434189e-14,27.1535697 C-5.68434189e-14,27.605781 0.367218031,27.9722832 0.8203125,27.9722832 L8.51287839,27.9722832 C8.96575925,27.9722832 9.33297728,27.6059942 9.33319089,27.1539961 C9.33361816,27.6059942 9.70062253,27.9722832 10.1535034,27.9722832 L17.8462829,27.9722832 C18.2991638,27.9722832 18.6663818,27.6059942 18.6665954,27.1539961 C18.6668091,27.6059942 19.0340271,27.9722832 19.4869079,27.9722832 L27.1796875,27.9722832 C27.6325684,27.9722832 28,27.605781 28,27.1535697 L28,24.5910392 C28,22.0069749 25.8915405,19.9143519 23.2979431,19.9335405 Z" id="Path"></path>
                        </g>
                    </g>
                </g>
            </g>
        </g>
    </g>
</svg>