<?xml version="1.0" encoding="UTF-8"?>
<svg width="62px" height="62px" viewBox="0 0 62 62" version="1.1" xmlns="http://www.w3.org/2000/svg" xmlns:xlink="http://www.w3.org/1999/xlink">
    <!-- Generator: Sketch 52.6 (67491) - http://www.bohemiancoding.com/sketch -->
    <title>Group 14</title>
    <desc>Created with Sketch.</desc>
    <g id="Marketing-Site" stroke="none" stroke-width="1" fill="none" fill-rule="evenodd">
        <g id="Header-Stats-v1.0" transform="translate(-848.000000, -326.000000)">
            <g id="Group-11" transform="translate(375.000000, 327.000000)">
                <g id="Group-8" transform="translate(421.000000, 0.000000)">
                    <g id="Group-14" transform="translate(53.000000, 0.000000)">
                        <circle id="Oval-Copy-2" stroke="#F1F1F1" stroke-width="0.8" fill="#FFFFFF" cx="30" cy="30" r="30"></circle>
                        <g id="shopping-list" transform="translate(19.000000, 16.000000)" fill="#4A4A4A" fill-rule="nonzero">
                            <path d="M21.7416799,0 L1.2457995,0 C0.571717584,0 0.0252103823,0.552001975 0.0252103823,1.23286135 L0.0252103823,26.7671387 C0.0252103823,27.447998 0.571717584,28 1.2457995,28 L21.7416799,28 C22.4157618,28 22.962269,27.447998 22.962269,26.7671387 L22.962269,1.23286135 C22.962269,0.552001975 22.4157618,2.48689958e-15 21.7416799,0 Z M7.86733461,22.2576416 L5.62513244,25.3731201 C5.47590042,25.580249 5.23987022,25.7051758 4.98641273,25.7113281 C4.97998322,25.711499 4.97372293,25.711499 4.96746264,25.711499 C4.72094223,25.711499 4.48744995,25.5985352 4.33280367,25.4033692 L3.37937705,24.2007568 C3.09867877,23.8464844 3.15535986,23.3296875 3.50593661,23.0465088 C3.85651335,22.7629883 4.36816589,22.8202393 4.64852576,23.1741699 L4.7202654,23.2645752 L4.93616116,23.5369873 L6.55199506,21.2920654 C6.8159428,20.9251465 7.32438058,20.8437989 7.68764713,21.1107422 C8.05091368,21.3773438 8.13128235,21.8907227 7.86733461,22.2576416 Z M7.86733461,16.5580078 L5.62513244,19.6734863 C5.47590042,19.8806152 5.23970104,20.005542 4.98641273,20.0115234 C4.97998322,20.0118652 4.97372293,20.0118652 4.96746264,20.0118652 C4.72094223,20.0118652 4.48728077,19.8985596 4.33280367,19.7037354 L3.37937705,18.5007812 C3.09867877,18.1468506 3.15535986,17.6300537 3.50610579,17.3465332 C3.85651335,17.0631836 4.36816589,17.1204346 4.64886417,17.4745361 L4.72043463,17.5649414 L4.93649953,17.8373535 L6.55199506,15.5920898 C6.81628121,15.2253418 7.32438058,15.144165 7.68781631,15.4107666 C8.05091368,15.6775391 8.13128235,16.1910889 7.86733461,16.5580078 Z M7.86733461,10.8580322 L5.62513244,13.9736817 C5.47590042,14.1808105 5.23970104,14.3059082 4.98641273,14.3117188 C4.97998322,14.3118896 4.97372293,14.3118896 4.96746264,14.3118896 C4.72094223,14.3118896 4.48728077,14.1989258 4.33280367,14.0041016 L3.37937705,12.8011475 C3.09867877,12.4472168 3.15535986,11.9304199 3.50610579,11.6468994 C3.85651335,11.3633789 4.36816589,11.4208008 4.64886417,11.7747315 L4.72043463,11.8653076 L4.93649953,12.1375489 L6.55199506,9.89245604 C6.81628121,9.52570802 7.32438058,9.44453125 7.68781631,9.71113281 C8.05091368,9.97773438 8.13128235,10.4912842 7.86733461,10.8580322 Z M7.86733461,5.15839844 L5.62513244,8.27387698 C5.47590042,8.48100584 5.23987022,8.60610354 4.98641273,8.61191406 C4.97998322,8.61225584 4.97372293,8.61225584 4.96746264,8.61225584 C4.72094223,8.61225584 4.48744995,8.49912109 4.33280367,8.30429688 L3.37937705,7.10151365 C3.09867877,6.74741209 3.15535986,6.23078614 3.50593661,5.94726563 C3.85651335,5.66374511 4.36816589,5.72099609 4.64852576,6.07509766 L4.7202654,6.16533203 L4.93616116,6.43791505 L6.55199506,4.19282229 C6.8159428,3.82607422 7.32438058,3.74472656 7.68764713,4.01132813 C8.05091368,4.27792969 8.13128235,4.79165041 7.86733461,5.15839844 Z M19.4740981,24.595874 L10.6863303,24.595874 C10.23745,24.595874 9.87367585,24.2282715 9.87367585,23.774707 C9.87367585,23.3214844 10.2376192,22.9537109 10.6863303,22.9537109 L19.4740981,22.9537109 C19.9231477,22.9537109 20.287091,23.3214844 20.287091,23.774707 C20.287091,24.2282715 19.9231477,24.595874 19.4740981,24.595874 Z M19.4740981,18.6612549 L10.6863303,18.6612549 C10.23745,18.6612549 9.87367585,18.2936523 9.87367585,17.8400879 C9.87367585,17.3868652 10.2376192,17.0189209 10.6863303,17.0189209 L19.4740981,17.0189209 C19.9231477,17.0189209 20.287091,17.3868652 20.287091,17.8400879 C20.287091,18.2936523 19.9231477,18.6612549 19.4740981,18.6612549 Z M19.4740981,12.7266357 L10.6863303,12.7266357 C10.23745,12.7266357 9.87367585,12.3590332 9.87367585,11.9054688 C9.87367585,11.4519043 10.2376192,11.0843018 10.6863303,11.0843018 L19.4740981,11.0843018 C19.9231477,11.0843018 20.287091,11.4519043 20.287091,11.9054688 C20.287091,12.3590332 19.9231477,12.7266357 19.4740981,12.7266357 Z M19.4740981,6.79167479 L10.6863303,6.79167479 C10.23745,6.79167479 9.87367585,6.42407229 9.87367585,5.97084959 C9.87367585,5.51728516 10.2376192,5.14951172 10.6863303,5.14951172 L19.4740981,5.14951172 C19.9231477,5.14951172 20.287091,5.51728516 20.287091,5.97084959 C20.287091,6.42407229 19.9231477,6.79167479 19.4740981,6.79167479 Z" id="Shape"></path>
                        </g>
                    </g>
                </g>
            </g>
        </g>
    </g>
</svg>