<svg xmlns="http://www.w3.org/2000/svg" xmlns:xlink="http://www.w3.org/1999/xlink" width="48" height="48" viewBox="0 0 48 48"><defs><path id="r5gga" d="M633.715 622.388v6.193H623.65v-3.615c.294-.256.511-.604.62-.999l.828-3.027c.673.085 1.331.24 1.982.457l1.308.433c1.107.372 2.26.558 3.43.558.627 0 1.254-.054 1.866-.17z"/><path id="r5ggb" d="M628.823 614.327a1.548 1.548 0 0 1-1.1 2.64h-1.563l.836-3.097h.728c.426 0 .813.17 1.1.457z"/><path id="r5ggc" d="M622.487 613.917l-.82 3.05h-2.454c-.852 0-1.626.348-2.191.906l-.132-.132 2.965-2.965a3.1 3.1 0 0 1 2.191-.906h.263z"/><path id="r5ggd" d="M623.518 610.116l-1.03 3.801-.178-.046h-.263a3.1 3.1 0 0 0-2.19.906l-2.966 2.965-1.06 1.068c-.31.31-.728.48-1.162.48a1.67 1.67 0 0 1-1.169-.48 1.65 1.65 0 0 1-.48-1.161c0-.434.178-.852.488-1.161l5.574-5.582a3.1 3.1 0 0 1 2.191-.906h1.812z"/><path id="r5gge" d="M623.646 609.222v-17.807H605.84v-4.645h27.871v25.548l-.054.078-2.826-1.882a3.072 3.072 0 0 0-1.719-.518h-1.068l1.494-5.52.829-3.081 1.16-4.297a2.049 2.049 0 0 0-1.974-2.586h-.255c-.921 0-1.734.62-1.974 1.517l-1.076 3.995-.837 3.074-1.664 6.155z"/><path id="r5ggf" d="M623.641 609.226l.1.031-.232.86-.433-.116h-1.812a3.1 3.1 0 0 0-2.19.905l-5.575 5.582c-.31.31-.488.728-.488 1.162 0 .449.186.867.48 1.16.302.295.713.481 1.17.481.433 0 .85-.17 1.16-.48l1.061-1.068.132.131a3.117 3.117 0 0 0-.906 2.191c0 .426.349.774.774.774h3.732l-.557 2.06a2.12 2.12 0 0 0-.078.534c0 1.13.921 2.052 2.052 2.052h.255c.511 0 .99-.194 1.355-.52v8.261H595.77V591.42h27.871z"/><path id="r5ggg" d="M598.87 594.52h18.58v6.194h-18.58z"/><path id="r5ggh" d="M604.29 620.06h2.322v7.742h-7.742v-7.742z"/><path id="r5ggi" d="M604.29 606.9h2.322v7.742h-7.742V606.9z"/><path id="r5ggj" d="M631.6 596.572c0 .178-.023.356-.07.534l-1.161 4.297-4.119-1.37 1.076-3.996a2.045 2.045 0 0 1 1.974-1.517h.256c1.13 0 2.044.921 2.044 2.052z"/><path id="r5ggk" d="M630.365 601.4l-.828 3.082-4.127-1.379.836-3.073z"/><path id="r5ggl" d="M623.642 624.966a2.036 2.036 0 0 1-1.355.52h-.255a2.055 2.055 0 0 1-2.052-2.052c0-.178.031-.356.077-.535l.558-2.059h3.027c.488 0 .968.031 1.448.1l-.829 3.028a2.032 2.032 0 0 1-.62.999z"/><path id="r5ggm" d="M628.04 609.998l-1.882 6.968h-4.498l.82-3.05 1.03-3.802.233-.859 1.664-6.155 4.126 1.378z"/><path id="r5ggn" d="M625.09 620.94c-.48-.07-.96-.101-1.447-.101h-6.759a.777.777 0 0 1-.774-.774c0-.852.349-1.626.906-2.192a3.117 3.117 0 0 1 2.19-.905h8.517a1.548 1.548 0 1 0 0-3.097h-.728L628.04 610h1.069c.611 0 1.215.178 1.718.519l2.826 1.881 2.586 1.727c.503.34 1.107.518 1.719.518h5.04v6.194h-2.323c-.89 0-1.773.108-2.632.325l-3.6.898a8.88 8.88 0 0 1-.767.155 9.994 9.994 0 0 1-1.866.17c-1.168 0-2.322-.186-3.429-.557l-1.308-.434a10.365 10.365 0 0 0-1.982-.457z"/><path id="r5ggo" d="M627.728 614.645c.427 0 .774.346.774.77 0 .423-.347.769-.774.769h-.558l.42-1.539zm-.955-13.625l2.656.885-.428 1.58-2.656-.885zm3.052-.612l-2.648-.885.886-3.289c.15-.556.656-.944 1.23-.944h.25a1.275 1.275 0 0 1 1.228 1.61zm-9.424 14.913a2.302 2.302 0 0 1 1.063-.595l-.396 1.458h-1.535zm-.774-3.866a2.307 2.307 0 0 1 1.643-.68h1.263l-.632 2.339a3.832 3.832 0 0 0-2.594 1.12l-4.032 4.037a.87.87 0 0 1-1.228-1.229zm5.945 4.729h-2.9l3.275-12.086 2.66.884zm-5.97 5.429l-.292 1.083a2.815 2.815 0 0 0 1.33 3.177l-.243.971 1.502.376.24-.962h.15c.199 0 .392-.028.582-.068v6.262h-26.323v-40.258h10.065v-4.646h26.322v23.445l-1.674-1.117a3.865 3.865 0 0 0-2.148-.65h-.06l3.223-11.922a2.827 2.827 0 0 0-2.727-3.562h-.25a2.83 2.83 0 0 0-2.728 2.088l-2.152 7.963v-13.148h-16.258v1.549h14.71v17.032h-1.601c-.843 0-1.637.28-2.3.774h-7.712v1.548h6.085l-1.548 1.549h-4.537v1.548h2.99l-1.294 1.294a2.4 2.4 0 0 0-.709 1.71 2.419 2.419 0 0 0 2.417 2.416c.239 0 .469-.046.692-.113-.001.038-.012.074-.012.113a1.55 1.55 0 0 0 1.548 1.548zm3.918 2.153c-.15.556-.657.944-1.232.944h-.251a1.277 1.277 0 0 1-1.232-1.61l.402-1.487h2.438c.151 0 .301.012.452.018zm4.615-1.2c1.188.397 2.425.598 3.677.598.376 0 .75-.033 1.123-.07v4.722h-8.516v-2.536c.272-.314.483-.686.596-1.106l.634-2.352a9.98 9.98 0 0 1 1.182.309zm.978-11.792c.46 0 .905.135 1.289.39l5.406 3.605c.64.425 1.382.65 2.148.65H643v-1.548h-5.043c-.46 0-.906-.135-1.29-.39l-2.183-1.456V586h-29.42v4.645H595V634h29.42v-4.645h10.064v-6.514c.049-.011.099-.015.148-.027l3.6-.9c.8-.2 1.622-.301 2.445-.301H643v-1.548h-2.323c-.949 0-1.898.116-2.82.347l-3.6.9a10.12 10.12 0 0 1-5.631-.216l-1.305-.435a11.6 11.6 0 0 0-3.676-.596h-6.756a2.326 2.326 0 0 1 2.323-2.323h8.516a2.325 2.325 0 0 0 2.323-2.323c0-1.187-.9-2.158-2.051-2.295l.635-2.35z"/><path id="r5ggp" d="M616.68 599.924h-17.032v-4.636h17.033zm1.549-6.184H598.1v7.742h20.129z"/><path id="r5ggq" d="M601.19 596.84h1.548v1.548h-1.548z"/><path id="r5ggr" d="M604.29 596.84h1.548v1.548h-1.548z"/><path id="r5ggs" d="M607.39 596.84h1.548v1.548h-1.548z"/><path id="r5ggt" d="M610.48 596.84h1.548v1.548h-1.548z"/><path id="r5ggu" d="M613.58 596.84h1.548v1.548h-1.548z"/><path id="r5ggv" d="M607.39 610.775h-1.548v3.097h-6.194v-6.194h4.646v-1.548H598.1v9.29h9.29z"/><path id="r5ggw" d="M609.94 603.26l-7.194 7.195-1.001-1.001-1.095 1.094 2.096 2.096 8.29-8.29z"/><path id="r5ggx" d="M605.842 627.032h-6.194v-6.194h4.646v-1.548H598.1v9.29h9.29v-4.645h-1.548z"/><path id="r5ggy" d="M601.745 622.614l-1.095 1.094 2.096 2.096 8.29-8.29-1.096-1.094-7.194 7.195z"/><path id="r5ggz" d="M619.77 628.58h1.548v1.548h-1.548z"/><path id="r5ggA" d="M609.71 628.58h8.516v1.548h-8.516z"/><path id="r5ggB" d="M611.26 606.9h10.065v1.548H611.26z"/></defs><g><g transform="translate(-595 -586)"><g><use fill="#ccd1d9" xlink:href="#r5gga"/></g><g><use fill="#ccd1d9" xlink:href="#r5ggb"/></g><g><use fill="#e6e9ed" xlink:href="#r5ggc"/></g><g><use fill="#f0d0b4" xlink:href="#r5ggd"/></g><g><use fill="#ccd1d9" xlink:href="#r5gge"/></g><g><use fill="#e6e9ed" xlink:href="#r5ggf"/></g><g><use fill="#b4dd7f" xlink:href="#r5ggg"/></g><g><use fill="#ff826e" xlink:href="#r5ggh"/></g><g><use fill="#ff826e" xlink:href="#r5ggi"/></g><g><use fill="#ffeaa7" xlink:href="#r5ggj"/></g><g><use fill="#e6e9ed" xlink:href="#r5ggk"/></g><g><use fill="#fcd770" xlink:href="#r5ggl"/></g><g><use fill="#fcd770" xlink:href="#r5ggm"/></g><g><use fill="#f0d0b4" xlink:href="#r5ggn"/></g><g><use xlink:href="#r5ggo"/></g><g><use xlink:href="#r5ggp"/></g><g><use xlink:href="#r5ggq"/></g><g><use xlink:href="#r5ggr"/></g><g><use xlink:href="#r5ggs"/></g><g><use xlink:href="#r5ggt"/></g><g><use xlink:href="#r5ggu"/></g><g><use xlink:href="#r5ggv"/></g><g><use xlink:href="#r5ggw"/></g><g><use xlink:href="#r5ggx"/></g><g><use xlink:href="#r5ggy"/></g><g><use xlink:href="#r5ggz"/></g><g><use xlink:href="#r5ggA"/></g><g><use xlink:href="#r5ggB"/></g></g></g></svg>