<svg xmlns="http://www.w3.org/2000/svg" width="38.798" height="48" viewBox="0 0 38.798 48">
  <g id="icon_13" transform="translate(-1175.025 -448)">
    <g id="Group_3" data-name="Group 3" transform="translate(1175.025 448)">
      <path id="Rectangle" d="M0,0H19.8l2.319,2.858L25.5,6.6V41H0Z" transform="translate(1.391 1.4)" fill="#fff"/>
      <g id="budget_1_" data-name="budget (1)" transform="translate(0 0)">
        <rect id="Rectangle-2" data-name="Rectangle" width="19.902" height="22.235" rx="3.2" transform="translate(18.118 24.941)" fill="#f2f2f2"/>
        <rect id="Rectangle-3" data-name="Rectangle" width="2.488" height="2.471" transform="translate(19.113 34.147)" fill="#99d399"/>
        <rect id="Rectangle_Copy_14" data-name="Rectangle Copy 14" width="2.488" height="2.471" transform="translate(19.113 41.348)" fill="#99d399"/>
        <rect id="Rectangle_Copy_12" data-name="Rectangle Copy 12" width="2.488" height="2.471" transform="translate(25.812 34.147)" fill="#99d399"/>
        <rect id="Rectangle_Copy_15" data-name="Rectangle Copy 15" width="2.488" height="2.471" transform="translate(25.812 41.348)" fill="#99d399"/>
        <rect id="Rectangle_Copy_13" data-name="Rectangle Copy 13" width="2.488" height="2.471" transform="translate(32.19 34.147)" fill="#99d399"/>
        <rect id="Rectangle_Copy_16" data-name="Rectangle Copy 16" width="2.488" height="2.471" transform="translate(32.19 41.348)" fill="#99d399"/>
        <rect id="Rectangle-4" data-name="Rectangle" width="13.268" height="3.294" transform="translate(21.409 25.682)" fill="#d3ce7e"/>
        <path id="Shape" d="M2.792,9.733a.661.661,0,0,1-.664-.657v-.1A2.353,2.353,0,0,1,0,6.839a.665.665,0,0,1,1.329,0c0,.309.321.62.8.775V5.329C1.137,4.957,0,4.343,0,2.894A2.352,2.352,0,0,1,2.128.762v-.1a.665.665,0,0,1,1.329,0v.1A2.353,2.353,0,0,1,5.585,2.894a.665.665,0,0,1-1.329,0c0-.3-.328-.623-.8-.775V4.4c.99.372,2.128.986,2.128,2.435A2.353,2.353,0,0,1,3.457,8.971v.1A.662.662,0,0,1,2.792,9.733Zm.665-3.894V7.614c.477-.154.8-.465.8-.775C4.255,6.45,4.125,6.162,3.457,5.838ZM2.128,2.119c-.47.152-.8.471-.8.775,0,.389.131.678.8,1Z" transform="translate(3.546 3.507)" fill="#399a3f"/>
        <path id="Path" d="M6.338,0H.665A.661.661,0,0,0,0,.658a.661.661,0,0,0,.665.658H6.338A.661.661,0,0,0,7,.658.661.661,0,0,0,6.338,0Z" transform="translate(12.551 4.91)" fill="#288497"/>
        <path id="Path-2" data-name="Path" d="M1.374,0H.665A.661.661,0,0,0,0,.658a.661.661,0,0,0,.665.658h.709A.661.661,0,0,0,2.039.658.661.661,0,0,0,1.374,0Z" transform="translate(12.253 12.074)" fill="#288497"/>
        <path id="Path-3" data-name="Path" d="M20.52,0H.665A.661.661,0,0,0,0,.658a.661.661,0,0,0,.665.658H20.52a.661.661,0,0,0,.665-.658A.661.661,0,0,0,20.52,0Z" transform="translate(3.546 17.708)"/>
        <path id="Path-4" data-name="Path" d="M2.792,0H.665A.661.661,0,0,0,0,.658a.661.661,0,0,0,.665.658H2.792A.661.661,0,0,0,3.457.658.661.661,0,0,0,2.792,0Z" transform="translate(9.041 22.537)"/>
        <path id="Path-5" data-name="Path" d="M2.083,0H.665A.661.661,0,0,0,0,.658a.661.661,0,0,0,.665.658H2.083A.661.661,0,0,0,2.748.658.661.661,0,0,0,2.083,0Z" transform="translate(3.546 22.537)"/>
        <path id="Path-6" data-name="Path" d="M2.792,0H.665A.661.661,0,0,0,0,.658a.661.661,0,0,0,.665.658H2.792A.661.661,0,0,0,3.457.658.661.661,0,0,0,2.792,0Z" transform="translate(9.041 25.757)"/>
        <path id="Path-7" data-name="Path" d="M2.083,0H.665A.661.661,0,0,0,0,.658a.661.661,0,0,0,.665.658H2.083A.661.661,0,0,0,2.748.658.661.661,0,0,0,2.083,0Z" transform="translate(3.546 25.757)"/>
        <path id="Path-8" data-name="Path" d="M2.792,0H.665A.661.661,0,0,0,0,.658a.661.661,0,0,0,.665.658H2.792A.661.661,0,0,0,3.457.658.661.661,0,0,0,2.792,0Z" transform="translate(9.041 28.977)"/>
        <path id="Path-9" data-name="Path" d="M2.083,0H.665A.661.661,0,0,0,0,.658a.661.661,0,0,0,.665.658H2.083A.661.661,0,0,0,2.748.658.661.661,0,0,0,2.083,0Z" transform="translate(3.546 28.977)"/>
        <path id="Path-10" data-name="Path" d="M2.792,0H.665A.661.661,0,0,0,0,.658a.661.661,0,0,0,.665.658H2.792A.661.661,0,0,0,3.457.658.661.661,0,0,0,2.792,0Z" transform="translate(9.041 32.196)"/>
        <path id="Path-11" data-name="Path" d="M2.083,0H.665A.661.661,0,0,0,0,.658a.661.661,0,0,0,.665.658H2.083A.661.661,0,0,0,2.748.658.661.661,0,0,0,2.083,0Z" transform="translate(3.546 32.196)"/>
        <path id="Path-12" data-name="Path" d="M2.792,0H.665A.661.661,0,0,0,0,.658a.661.661,0,0,0,.665.658H2.792A.661.661,0,0,0,3.457.658.661.661,0,0,0,2.792,0Z" transform="translate(9.041 35.416)"/>
        <path id="Path-13" data-name="Path" d="M2.083,0H.665A.661.661,0,0,0,0,.658a.661.661,0,0,0,.665.658H2.083A.661.661,0,0,0,2.748.658.661.661,0,0,0,2.083,0Z" transform="translate(3.546 35.416)"/>
        <path id="Path-14" data-name="Path" d="M1.374,0H.665A.661.661,0,0,0,0,.658a.661.661,0,0,0,.665.658h.709A.661.661,0,0,0,2.039.658.661.661,0,0,0,1.374,0Z" transform="translate(20.422 12.074)" fill="#288497"/>
        <path id="Path-15" data-name="Path" d="M1.374,0H.665A.661.661,0,0,0,0,.658a.661.661,0,0,0,.665.658h.709A.661.661,0,0,0,2.039.658.661.661,0,0,0,1.374,0Z" transform="translate(24.507 12.074)" fill="#288497"/>
        <path id="Path-16" data-name="Path" d="M1.374,0H.665A.661.661,0,0,0,0,.658a.661.661,0,0,0,.665.658h.709A.661.661,0,0,0,2.039.658.661.661,0,0,0,1.374,0Z" transform="translate(16.338 12.074)" fill="#288497"/>
        <path id="Path-17" data-name="Path" d="M7.756,0H.665A.661.661,0,0,0,0,.658a.661.661,0,0,0,.665.658H7.756A.661.661,0,0,0,8.421.658.661.661,0,0,0,7.756,0Z" transform="translate(12.657 8.854)" fill="#288497"/>
        <path id="Shape-2" data-name="Shape" d="M35.608,48H17.779a3.178,3.178,0,0,1-3.192-3.157V43.189H2.38A2.37,2.37,0,0,1,0,40.835V2.354A2.37,2.37,0,0,1,2.38,0H23.451a.762.762,0,0,1,.538.22l8.1,8.017a.755.755,0,0,1,.222.532V20.843h3.292A3.177,3.177,0,0,1,38.8,24V44.843A3.177,3.177,0,0,1,35.608,48ZM17.779,22.347A1.664,1.664,0,0,0,16.107,24V44.843A1.664,1.664,0,0,0,17.779,46.5H35.608a1.664,1.664,0,0,0,1.671-1.653V24a1.664,1.664,0,0,0-1.671-1.653ZM2.38,1.5a.857.857,0,0,0-.861.852V40.835a.857.857,0,0,0,.861.852H14.587V24a3.178,3.178,0,0,1,3.192-3.157H30.8V9.519H25.883a3.177,3.177,0,0,1-3.191-3.156V1.5ZM24.211,2.566v3.8a1.664,1.664,0,0,0,1.671,1.653h3.839Z" transform="translate(0)"/>
        <path id="Shape-3" data-name="Shape" d="M14.138,5.524H1.374A1.368,1.368,0,0,1,0,4.165V1.359A1.368,1.368,0,0,1,1.374,0H14.138a1.368,1.368,0,0,1,1.374,1.359V4.165A1.368,1.368,0,0,1,14.138,5.524ZM1.374,1.315a.045.045,0,0,0-.045.044V4.165a.044.044,0,0,0,.045.043H14.138a.043.043,0,0,0,.044-.043V1.359a.044.044,0,0,0-.044-.044Z" transform="translate(20.45 24.505)"/>
        <path id="Shape-4" data-name="Shape" d="M2.792,4.121H1.374A1.368,1.368,0,0,1,0,2.762v-1.4A1.368,1.368,0,0,1,1.374,0H2.792A1.368,1.368,0,0,1,4.166,1.359v1.4A1.368,1.368,0,0,1,2.792,4.121ZM1.374,1.316a.044.044,0,0,0-.045.043v1.4a.045.045,0,0,0,.045.044H2.792a.045.045,0,0,0,.045-.044v-1.4a.044.044,0,0,0-.045-.043Z" transform="translate(18.141 33.315)"/>
        <path id="Shape-5" data-name="Shape" d="M2.792,4.121H1.374A1.368,1.368,0,0,1,0,2.762v-1.4A1.368,1.368,0,0,1,1.374,0H2.792A1.368,1.368,0,0,1,4.166,1.359v1.4A1.368,1.368,0,0,1,2.792,4.121ZM1.374,1.316a.044.044,0,0,0-.045.043v1.4a.045.045,0,0,0,.045.044H2.792a.045.045,0,0,0,.045-.044v-1.4a.044.044,0,0,0-.045-.043Z" transform="translate(31.796 33.315)"/>
        <path id="Shape-6" data-name="Shape" d="M2.792,4.121H1.374A1.368,1.368,0,0,1,0,2.762v-1.4A1.368,1.368,0,0,1,1.374,0H2.792A1.368,1.368,0,0,1,4.166,1.359v1.4A1.368,1.368,0,0,1,2.792,4.121ZM1.374,1.316a.044.044,0,0,0-.045.043v1.4a.045.045,0,0,0,.045.044H2.792a.045.045,0,0,0,.045-.044v-1.4a.044.044,0,0,0-.045-.043Z" transform="translate(24.738 33.315)"/>
        <path id="Shape-7" data-name="Shape" d="M2.792,4.121H1.374A1.368,1.368,0,0,1,0,2.762v-1.4A1.368,1.368,0,0,1,1.374,0H2.792A1.368,1.368,0,0,1,4.166,1.359v1.4A1.368,1.368,0,0,1,2.792,4.121ZM1.374,1.315a.045.045,0,0,0-.045.044v1.4a.045.045,0,0,0,.045.044H2.792a.045.045,0,0,0,.045-.044v-1.4a.045.045,0,0,0-.045-.044Z" transform="translate(18.141 40.371)"/>
        <path id="Shape-8" data-name="Shape" d="M2.792,4.121H1.374A1.368,1.368,0,0,1,0,2.762v-1.4A1.368,1.368,0,0,1,1.374,0H2.792A1.368,1.368,0,0,1,4.166,1.359v1.4A1.368,1.368,0,0,1,2.792,4.121ZM1.374,1.315a.045.045,0,0,0-.045.044v1.4a.045.045,0,0,0,.045.044H2.792a.045.045,0,0,0,.045-.044v-1.4a.045.045,0,0,0-.045-.044Z" transform="translate(31.796 40.371)"/>
        <path id="Shape-9" data-name="Shape" d="M2.792,4.121H1.374A1.368,1.368,0,0,1,0,2.762v-1.4A1.368,1.368,0,0,1,1.374,0H2.792A1.368,1.368,0,0,1,4.166,1.359v1.4A1.368,1.368,0,0,1,2.792,4.121ZM1.374,1.315a.045.045,0,0,0-.045.044v1.4a.045.045,0,0,0,.045.044H2.792a.045.045,0,0,0,.045-.044v-1.4a.045.045,0,0,0-.045-.044Z" transform="translate(24.738 40.371)"/>
      </g>
    </g>
  </g>
</svg>
