<svg xmlns="http://www.w3.org/2000/svg" xmlns:xlink="http://www.w3.org/1999/xlink" width="48" height="48" viewBox="0 0 48 48"><defs><path id="6fyha" d="M427.995 603.014v-4.794H415.81v34.782h8.573v-29.988z"/><path id="6fyhb" d="M415.81 593.58h10.12v4.644h-10.12z"/><path id="6fyhc" d="M424.381 593.579h-6.751v-3.649h6.751z"/><path id="6fyhd" d="M395.94 596.98h19.875v36.056H395.94z"/><path id="6fyhe" d="M399.38 609.23h4.12v4.12h-4.12z"/><path id="6fyhf" d="M400.322 612.4h2.241v-2.235h-2.241zm3.186 1.885h-4.12a.937.937 0 0 1-.938-.937v-4.12c0-.518.42-.938.938-.938h4.12c.518 0 .937.42.937.938v4.12c0 .518-.42.937-.937.937z"/><path id="6fyhg" d="M408.25 609.23h4.12v4.12h-4.12z"/><path id="6fyhh" d="M409.182 612.4h2.241v-2.235h-2.241zm3.186 1.885h-4.12a.937.937 0 0 1-.938-.937v-4.12c0-.518.42-.938.938-.938h4.12c.518 0 .937.42.937.938v4.12c0 .518-.42.937-.937.937z"/><path id="6fyhi" d="M399.38 600.83h4.12v4.12h-4.12z"/><path id="6fyhj" d="M400.322 604h2.241v-2.235h-2.241zm3.186 1.886h-4.12a.937.937 0 0 1-.938-.938v-4.12c0-.518.42-.938.938-.938h4.12c.518 0 .937.42.937.938v4.12c0 .518-.42.938-.937.938z"/><path id="6fyhk" d="M408.25 600.83h4.12v4.12h-4.12z"/><path id="6fyhl" d="M409.182 604h2.241v-2.235h-2.241zm3.186 1.886h-4.12a.937.937 0 0 1-.938-.938v-4.12c0-.518.42-.938.938-.938h4.12c.518 0 .937.42.937.938v4.12c0 .518-.42.938-.937.938z"/><path id="6fyhm" d="M399.38 617.63h4.12v4.12h-4.12z"/><path id="6fyhn" d="M400.322 620.803h2.241v-2.241h-2.241zm3.186 1.882h-4.12a.937.937 0 0 1-.938-.937v-4.12c0-.518.42-.938.938-.938h4.12c.518 0 .937.42.937.937v4.12c0 .519-.42.938-.937.938z"/><path id="6fyho" d="M408.25 617.63h4.12v4.12h-4.12z"/><path id="6fyhp" d="M409.182 620.803h2.241v-2.241h-2.241zm3.186 1.882h-4.12a.937.937 0 0 1-.938-.937v-4.12c0-.518.42-.938.938-.938h4.12c.518 0 .937.42.937.937v4.12c0 .519-.42.938-.937.938z"/><path id="6fyhq" d="M399.38 625.44h12.981v4.12H399.38z"/><path id="6fyhr" d="M400.324 628.61h11.098v-2.235h-11.098zm12.045 1.886h-12.982a.938.938 0 0 1-.937-.938v-4.12c0-.518.42-.938.938-.938h12.98c.518 0 .938.42.938.938v4.12c0 .518-.42.938-.937.938z"/><path id="6fyhs" d="M420.148 604.255a.916.916 0 0 1-.359-.072.998.998 0 0 1-.304-.203.946.946 0 0 1-.275-.663.945.945 0 0 1 .417-.78.972.972 0 0 1 .337-.139.946.946 0 0 1 .847.256.944.944 0 0 1 .117 1.184.945.945 0 0 1-.78.417z"/><path id="6fyht" d="M435.244 615.417l.021.187V603.02H424.39v29.988h10.615"/><path id="6fyhu" d="M435.283 633.032a31.162 31.162 0 0 0 3.225-2.037c1.277-.93 2.124-1.74 2.67-2.375.57-.66.886-1.532.886-2.438v-7.797c-2.534-.38-4.934-.841-6.781-2.785h-.042c-1.847 1.944-4.247 2.406-6.781 2.785v7.797c0 .906.316 1.777.885 2.438.546.635 1.394 1.444 2.67 2.375a31.12 31.12 0 0 0 3.226 2.037z"/><path id="6fyhv" d="M441.115 626.184c0 .685-.233 1.334-.657 1.827-.6.698-1.469 1.468-2.511 2.229a29.63 29.63 0 0 1-2.691 1.73 29.629 29.629 0 0 1-2.692-1.73c-1.042-.76-1.91-1.531-2.51-2.23a2.794 2.794 0 0 1-.658-1.826v-6.995c2.132-.355 4.164-.885 5.86-2.32 1.695 1.435 3.728 1.965 5.859 2.32zm-15.792-22.229h9v11.242c-1.576 1.5-3.576 1.904-6.003 2.268a.938.938 0 0 0-.799.927v7.8a4.67 4.67 0 0 0 1.112 3.05c.703.818 1.655 1.667 2.83 2.523.146.106.292.21.438.313h-6.578zm-1.875-.938v29.05h-2.359v-25.346a.937.937 0 1 0-1.875 0v25.347h-2.464V599.16h10.31v2.92h-2.675a.937.937 0 0 0-.937.936zm-26.573-5.102h18v34.181h-18zm21.697-7.047h4.876v1.774h-4.876zm-1.822 3.649h8.246v2.769h-8.246zm25.451 22.943c-2.427-.364-4.427-.768-6.003-2.266v-12.177a.938.938 0 0 0-.937-.937h-6.325v-3.857a.937.937 0 0 0-.938-.937h-1.127v-3.707a.937.937 0 0 0-.938-.937h-.61v-2.711a.937.937 0 0 0-.938-.938h-2.687v-2.056a.938.938 0 0 0-1.875 0v2.056h-2.189a.937.937 0 0 0-.937.938v2.71h-.885a.938.938 0 0 0-.937.938v2.461h-18.938a.937.937 0 0 0-.937.938v36.056c0 .518.42.937.937.937l39.064-.028h.009c.075.019.152.028.23.028h.041c.159 0 .315-.04.454-.117.836-.461 2.091-1.2 3.324-2.1 1.174-.855 2.126-1.703 2.83-2.52a4.667 4.667 0 0 0 1.111-3.05v-7.797a.937.937 0 0 0-.799-.927z"/><path id="6fyhw" d="M435.262 627.405a.936.936 0 0 1-.55-.177l-2.853-2.063a.937.937 0 1 1 1.098-1.52l2.154 1.557 3.146-3.683a.937.937 0 1 1 1.426 1.218l-3.708 4.34a.936.936 0 0 1-.713.328z"/><path id="6fyhx" d="M429.827 615.402a.937.937 0 0 1-.937-.938v-7.747a.938.938 0 0 1 1.875 0v7.747c0 .518-.42.938-.938.938z"/></defs><g><g transform="translate(-395 -586)"><g><use fill="#e4eaf8" xlink:href="#6fyha"/></g><g><use fill="#707487" xlink:href="#6fyhb"/></g><g><use fill="#e4eaf8" xlink:href="#6fyhc"/></g><g><use fill="#fcd5a2" xlink:href="#6fyhd"/></g><g><use fill="#e4eaf8" xlink:href="#6fyhe"/></g><g><use xlink:href="#6fyhf"/></g><g><use fill="#e4eaf8" xlink:href="#6fyhg"/></g><g><use xlink:href="#6fyhh"/></g><g><use fill="#e4eaf8" xlink:href="#6fyhi"/></g><g><use xlink:href="#6fyhj"/></g><g><use fill="#e4eaf8" xlink:href="#6fyhk"/></g><g><use xlink:href="#6fyhl"/></g><g><use fill="#e4eaf8" xlink:href="#6fyhm"/></g><g><use xlink:href="#6fyhn"/></g><g><use fill="#e4eaf8" xlink:href="#6fyho"/></g><g><use xlink:href="#6fyhp"/></g><g><use fill="#707487" xlink:href="#6fyhq"/></g><g><use xlink:href="#6fyhr"/></g><g><use xlink:href="#6fyhs"/></g><g><use fill="#fcd5a2" xlink:href="#6fyht"/></g><g><use fill="#06b0f2" xlink:href="#6fyhu"/></g><g><use xlink:href="#6fyhv"/></g><g><use xlink:href="#6fyhw"/></g><g><use xlink:href="#6fyhx"/></g></g></g></svg>