<svg xmlns="http://www.w3.org/2000/svg" xmlns:xlink="http://www.w3.org/1999/xlink" width="40" height="48" viewBox="0 0 40 48"><defs><path id="z13xa" d="M1032.08 592.964v-6.194h-20v9.29h13.846v22.452l3.077 3.097v2.322h9.23v-30.967z"/><path id="z13xb" d="M1038.234 592.964h-6.154v-6.194z"/><path id="z13xc" d="M1005.924 616.189v17.032h-6.154V596.06h6.154z"/><path id="z13xd" d="M1028.997 623.931v9.29h-23.077V596.06h20v22.452l3.077 3.096z"/><path id="z13xe" d="M1009 599.16h13.846v6.194H1009z"/><path id="z13xf" d="M1022.846 611.547v3.213c0 4.637-2.715 8.84-6.923 10.722-4.208-1.881-6.923-6.085-6.923-10.722v-3.213l6.923-3.097z"/><path id="z13xg" d="M1019.772 614.643v3.096h-2.307v2.323h-3.077v-2.323h-2.308v-3.096h2.308v-2.323h3.077v2.323z"/><path id="z13xh" d="M1009.77 614.761v-2.712l6.152-2.755 6.153 2.755v2.712c0 4.213-2.403 8.052-6.153 9.875-3.75-1.823-6.153-5.662-6.153-9.875zm6.464 11.426c4.484-2.006 7.38-6.492 7.38-11.43v-3.716l-7.692-3.441-7.692 3.44v3.718c0 4.937 2.897 9.423 7.38 11.428l.312.14z"/><path id="z13xi" d="M1012.848 616.97v-1.549h2.308v-2.323h1.539v2.323h2.307v1.548h-2.307v2.323h-1.539v-2.323zm5.385 3.87v-2.322h2.308v-4.645h-2.308v-2.323h-4.615v2.323h-2.308v4.645h2.308v2.322z"/><path id="z13xj" d="M1022.08 626.26h4.615v1.548h-4.615z"/><path id="z13xk" d="M1015.92 629.35h10.77v1.548h-10.77z"/><path id="z13xl" d="M1022.075 604.574h-12.306v-4.636h12.306zm1.54-6.184h-15.385v7.742h15.385z"/><path id="z13xm" d="M1015.15 601.48h1.538v1.548h-1.538z"/><path id="z13xn" d="M1018.23 601.48h1.538v1.548h-1.538z"/><path id="z13xo" d="M1012.08 601.48h1.538v1.548h-1.538z"/><path id="z13xp" d="M1029.762 623.161v-1.869l-3.075-3.096v-2.777h6.151v-1.548h-6.151v-1.548h9.227v-1.549h-9.227v-1.548h9.227v-1.549h-9.227v-1.548h1.538v-1.548h-1.538v-1.549h9.227v-1.548h-9.227v-1.549h9.227v-1.548h-9.227v-3.097h-13.84v-7.742h18.453v6.194h6.152v29.42zm-1.531 9.29h-21.539v-16.257h-1.538v16.258h-4.616v-35.613h4.616v17.806h1.538V596.84h18.462v21.998l3.077 3.096zm4.615-43.808l3.518 3.55h-3.518zm6.154 4.004l-6.605-6.647h-21.087v9.29H999V634h30.77v-9.29h9.23z"/><path id="z13xq" d="M1014.38 589.1h15.385v1.548h-15.385z"/><path id="z13xr" d="M1028.23 592.19h1.538v1.548h-1.538z"/><path id="z13xs" d="M1014.38 592.19h12.308v1.548h-12.308z"/><path id="z13xt" d="M1029.77 604.58h6.154v1.548h-6.154z"/><path id="z13xu" d="M1034.38 613.87h1.538v1.548h-1.538z"/></defs><g><g transform="translate(-999 -586)"><g><use fill="#e6e9ed" xlink:href="#z13xa"/></g><g><use fill="#ff826e" xlink:href="#z13xb"/></g><g><use fill="#fcd770" xlink:href="#z13xc"/></g><g><use fill="#ffeaa7" xlink:href="#z13xd"/></g><g><use fill="#48cfad" xlink:href="#z13xe"/></g><g><use fill="#5cd6b3" xlink:href="#z13xf"/></g><g><use fill="#e6e9ed" xlink:href="#z13xg"/></g><g><use xlink:href="#z13xh"/></g><g><use xlink:href="#z13xi"/></g><g><use xlink:href="#z13xj"/></g><g><use xlink:href="#z13xk"/></g><g><use xlink:href="#z13xl"/></g><g><use xlink:href="#z13xm"/></g><g><use xlink:href="#z13xn"/></g><g><use xlink:href="#z13xo"/></g><g><use xlink:href="#z13xp"/></g><g><use xlink:href="#z13xq"/></g><g><use xlink:href="#z13xr"/></g><g><use xlink:href="#z13xs"/></g><g><use xlink:href="#z13xt"/></g><g><use xlink:href="#z13xu"/></g></g></g></svg>