<?xml version="1.0" encoding="UTF-8"?>
<svg width="62px" height="62px" viewBox="0 0 62 62" version="1.1" xmlns="http://www.w3.org/2000/svg" xmlns:xlink="http://www.w3.org/1999/xlink">
    <!-- Generator: Sketch 52.6 (67491) - http://www.bohemiancoding.com/sketch -->
    <title>Group 13</title>
    <desc>Created with Sketch.</desc>
    <g id="Marketing-Site" stroke="none" stroke-width="1" fill="none" fill-rule="evenodd">
        <g id="Header-Stats-v1.0" transform="translate(-637.000000, -326.000000)">
            <g id="Group-11" transform="translate(375.000000, 327.000000)">
                <g id="Group-9" transform="translate(210.000000, 0.000000)">
                    <g id="Group-13" transform="translate(53.000000, 0.000000)">
                        <circle id="Oval-Copy" stroke="#F1F1F1" stroke-width="0.8" fill="#FFFFFF" cx="30" cy="30" r="30"></circle>
                        <g id="011-clock" transform="translate(16.000000, 16.000000)" fill="#4A4A4A" fill-rule="nonzero">
                            <path d="M23.8995056,4.1004944 C21.2552796,1.4562683 17.7394714,0 14,0 C10.2605286,0 6.74472045,1.4562683 4.1004944,4.1004944 C1.4562683,6.74472045 -2.84217094e-14,10.2605286 -2.84217094e-14,14 C-2.84217094e-14,17.7394714 1.4562683,21.2552796 4.1004944,23.8995056 C6.74472045,26.5437317 10.2605286,28 14,28 C17.7394714,28 21.2552796,26.5437317 23.8995056,23.8995056 C26.5437317,21.2552796 28,17.7394714 28,14 C28,10.2605286 26.5437317,6.74472045 23.8995056,4.1004944 Z M14,24.4683838 C8.22769166,24.4683838 3.53161621,19.7723083 3.53161621,14 C3.53161621,8.22769166 8.22769166,3.53161621 14,3.53161621 C19.7723083,3.53161621 24.4683838,8.22769166 24.4683838,14 C24.4683838,19.7723083 19.7723083,24.4683838 14,24.4683838 Z" id="Shape"></path>
                            <path d="M14,5.17224121 C9.13238528,5.17224121 5.17224121,9.13238528 5.17224121,14 C5.17224121,18.8676147 9.13238528,22.8277588 14,22.8277588 C18.8676147,22.8277588 22.8277588,18.8676147 22.8277588,14 C22.8277588,9.13238528 18.8676147,5.17224121 14,5.17224121 Z M17.5826721,18.5606384 C17.4322815,18.678772 17.2536926,18.7360229 17.0763855,18.7360229 C16.8332825,18.7360229 16.5925293,18.6283569 16.4308167,18.4224243 L13.3548584,14.5067139 C13.2414245,14.3623047 13.1796875,14.1837158 13.1796875,14 L13.1796875,10.7648926 C13.1796875,10.3117981 13.5469055,9.94458008 14,9.94458008 C14.4530945,9.94458008 14.8203125,10.3117981 14.8203125,10.7648926 L14.8203125,13.7163086 L17.7208862,17.4089966 C18.0007324,17.7651062 17.9387818,18.2807923 17.5826721,18.5606384 Z" id="Shape"></path>
                        </g>
                    </g>
                </g>
            </g>
        </g>
    </g>
</svg>