<svg xmlns="http://www.w3.org/2000/svg" xmlns:xlink="http://www.w3.org/1999/xlink" width="48" height="54" viewBox="0 0 48 54"><defs><path id="72ata" d="M436.788 458.694a12.39 12.39 0 0 0 4.143-9.27c0-6.834-5.493-12.374-12.27-12.374-5.895 0-10.818 4.194-12 9.785a9.233 9.233 0 0 0-6.579-2.75c-5.137 0-9.302 4.2-9.302 9.382 0 2.17.73 4.167 1.957 5.757a5.526 5.526 0 0 0-1.957 4.229c0 3.048 2.45 5.52 5.473 5.52h27.761c3.023 0 5.474-2.472 5.474-5.52a5.526 5.526 0 0 0-2.7-4.759z"/><path id="72atb" d="M416.006 477.54c0 2.088-1.678 3.78-3.748 3.78-2.07 0-3.748-1.692-3.748-3.78s1.678-3.78 3.748-3.78c2.07 0 3.748 1.692 3.748 3.78z"/><path id="72atc" d="M404.675 484.53c0 1.16-.933 2.1-2.082 2.1-1.15 0-2.083-.94-2.083-2.1 0-1.16.932-2.1 2.083-2.1 1.15 0 2.082.94 2.082 2.1z"/><path id="72atd" d="M412.066 470.032a1.05 1.05 0 0 1-1.046-1.055 1.05 1.05 0 0 1 1.046-1.055 1.05 1.05 0 0 1 1.046 1.055 1.05 1.05 0 0 1-1.046 1.055zm21.954 0h-18.015a1.05 1.05 0 0 1-1.046-1.055 1.05 1.05 0 0 1 1.046-1.055h18.015c2.441 0 4.428-2.003 4.428-4.465a4.495 4.495 0 0 0-2.186-3.85 1.061 1.061 0 0 1-.162-1.699 11.373 11.373 0 0 0 3.79-8.48c0-6.24-5.034-11.319-11.223-11.319-5.265 0-9.882 3.764-10.976 8.95-.08.379-.359.682-.726.792a1.04 1.04 0 0 1-1.037-.266 8.168 8.168 0 0 0-5.84-2.44c-4.553 0-8.256 3.735-8.256 8.327 0 1.87.6 3.636 1.736 5.109a1.06 1.06 0 0 1-.153 1.455 4.474 4.474 0 0 0-1.583 3.421c0 2.462 1.986 4.465 4.427 4.465h1.729a1.05 1.05 0 0 1 1.045 1.055 1.05 1.05 0 0 1-1.045 1.055h-1.73c-3.594 0-6.518-2.95-6.518-6.575 0-1.618.586-3.159 1.634-4.353a10.387 10.387 0 0 1-1.634-5.632c0-5.755 4.642-10.437 10.348-10.437 2.188 0 4.273.68 6.016 1.941a13.505 13.505 0 0 1 4.133-5.942 13.27 13.27 0 0 1 8.43-3.034c7.342 0 13.315 6.024 13.315 13.429a13.5 13.5 0 0 1-3.582 9.162 6.63 6.63 0 0 1 2.139 4.866c0 3.625-2.924 6.575-6.519 6.575z"/><path id="72ate" d="M412.26 474.81a2.72 2.72 0 0 0-2.708 2.725 2.72 2.72 0 0 0 2.707 2.726 2.72 2.72 0 0 0 2.707-2.726 2.72 2.72 0 0 0-2.707-2.726zm-.006 7.56c-2.644 0-4.794-2.169-4.794-4.835s2.15-4.835 4.794-4.835c2.643 0 4.794 2.17 4.794 4.835 0 2.666-2.15 4.835-4.794 4.835z"/><path id="72atf" d="M402.588 483.49c-.572 0-1.037.469-1.037 1.045s.465 1.046 1.037 1.046c.572 0 1.037-.47 1.037-1.046 0-.576-.465-1.046-1.037-1.046zm0 4.2c-1.725 0-3.128-1.416-3.128-3.155 0-1.74 1.403-3.155 3.128-3.155s3.128 1.415 3.128 3.155c0 1.74-1.403 3.155-3.128 3.155z"/><path id="72atg" d="M395.046 490a1.05 1.05 0 0 1-1.046-1.055 1.05 1.05 0 0 1 1.046-1.055 1.047 1.047 0 0 1 1.046 1.055 1.047 1.047 0 0 1-1.046 1.055z"/><path id="72ath" d="M420.995 460.695a1.05 1.05 0 0 1-1.045-1.055v-2.035c0-.729.588-1.322 1.31-1.322a2.14 2.14 0 0 0 2.129-2.147 2.14 2.14 0 0 0-2.129-2.147h-.265a1.874 1.874 0 0 0-1.863 1.88 1.05 1.05 0 0 1-1.046 1.055 1.05 1.05 0 0 1-1.046-1.055c0-2.2 1.775-3.989 3.955-3.989h.265c2.327 0 4.22 1.91 4.22 4.256a4.254 4.254 0 0 1-3.439 4.184v1.32a1.05 1.05 0 0 1-1.046 1.055z"/><path id="72ati" d="M420.996 464.8a1.05 1.05 0 0 1-1.046-1.055 1.05 1.05 0 0 1 1.046-1.055 1.05 1.05 0 0 1 1.046 1.055 1.05 1.05 0 0 1-1.046 1.055z"/><path id="72atj" d="M428.662 442.74h-.009a1.056 1.056 0 0 1 .01-2.11h.004a1.056 1.056 0 0 1-.004 2.11z"/><path id="72atk" d="M436.346 450.487a1.05 1.05 0 0 1-1.046-1.055 6.69 6.69 0 0 0-3.516-5.906 1.06 1.06 0 0 1-.43-1.427 1.04 1.04 0 0 1 1.414-.435 8.798 8.798 0 0 1 4.624 7.768 1.05 1.05 0 0 1-1.046 1.055z"/></defs><g><g transform="translate(-394 -436)"><g><g><use fill="#9be3ff" xlink:href="#72ata"/></g><g><use fill="#9be3ff" xlink:href="#72atb"/></g><g><use fill="#9be3ff" xlink:href="#72atc"/></g></g><g><use xlink:href="#72atd"/></g><g><use xlink:href="#72ate"/></g><g><use xlink:href="#72atf"/></g><g><use xlink:href="#72atg"/></g><g><use xlink:href="#72ath"/></g><g><use xlink:href="#72ati"/></g><g><use xlink:href="#72atj"/></g><g><use xlink:href="#72atk"/></g></g></g></svg>