<svg xmlns="http://www.w3.org/2000/svg" xmlns:xlink="http://www.w3.org/1999/xlink" width="39" height="48" viewBox="0 0 39 48"><defs><path id="pyyda" d="M226.294 593.861l-3.33-7.161h-18.879a3.331 3.331 0 0 0-3.335 3.327v37.24a3.331 3.331 0 0 0 3.335 3.328h28.851l.935-1.107v-31.907z"/><path id="pyydb" d="M233.877 597.581h-8.515a2.389 2.389 0 0 1-2.392-2.386V586.7z"/><path id="pyydc" d="M226.293 606.61c-8.151 0-14.783 6.616-14.783 14.747 0 3.494 1.225 6.707 3.267 9.237h18.158l.935-1.107v-20.788a14.722 14.722 0 0 0-7.577-2.089z"/><path id="pyydd" d="M238.258 621.365c0 6.592-5.357 11.935-11.964 11.935-6.608 0-11.964-5.343-11.964-11.935 0-6.592 5.356-11.935 11.964-11.935 6.607 0 11.964 5.343 11.964 11.935z"/><path id="pyyde" d="M234.589 621.365c0 4.57-3.714 8.274-8.295 8.274-4.58 0-8.294-3.705-8.294-8.274 0-4.57 3.714-8.275 8.294-8.275 4.581 0 8.295 3.705 8.295 8.275z"/><path id="pyydf" d="M206.255 594.684c.389 0 .705-.315.705-.703v-1.098a.704.704 0 0 0-1.41 0v1.098c0 .388.315.703.705.703z"/><path id="pyydg" d="M219.11 593.98v-1.097a.704.704 0 0 0-1.41 0v1.098a.704.704 0 0 0 1.41 0z"/><path id="pyydh" d="M214.29 593.374a.705.705 0 0 0-.995.067 1.282 1.282 0 0 1-.97.421 1.28 1.28 0 0 1-.97-.422.706.706 0 0 0-.994-.066.702.702 0 0 0-.067.992 2.692 2.692 0 0 0 2.031.902c.788 0 1.529-.328 2.031-.902a.702.702 0 0 0-.067-.992z"/><path id="pyydi" d="M217.3 621.358c0 4.95 4.037 8.978 9 8.978a8.952 8.952 0 0 0 5.243-1.682.702.702 0 0 0 .161-.98.705.705 0 0 0-.983-.162 7.547 7.547 0 0 1-4.422 1.417c-4.185 0-7.59-3.396-7.59-7.571s3.405-7.572 7.59-7.572c4.186 0 7.59 3.397 7.59 7.572a7.51 7.51 0 0 1-1.368 4.336.702.702 0 0 0 .173.98.706.706 0 0 0 .982-.173 8.906 8.906 0 0 0 1.623-5.143c0-4.95-4.037-8.978-9-8.978-4.962 0-8.999 4.028-8.999 8.978z"/><path id="pyydj" d="M226.129 618.605v1.688c-.518-.202-.902-.414-.902-.905 0-.425.338-.694.902-.783zm.586 3.462c.484.213.845.481.845 1.03 0 .525-.35.816-.845.917zm.09 3.62v-.348c1.262-.202 2.13-1 2.13-2.384 0-1.528-1.127-2.034-2.13-2.405v-1.979c.755.057 1.014.416 1.33.416.417 0 .597-.517.597-.775 0-.652-1.194-.866-1.927-.889v-.292c0-.146-.191-.281-.383-.281-.214 0-.383.135-.383.281v.315c-1.127.146-2.186.764-2.186 2.192 0 1.439 1.16 1.877 2.186 2.26v2.237c-.992-.113-1.33-.843-1.758-.843-.35 0-.631.472-.631.787 0 .63 1.025 1.36 2.389 1.393v.315c0 .147.169.281.383.281.192 0 .383-.134.383-.28z"/><path id="pyydk" d="M205.287 605.637c.213.167.511.198.753.077l4.475-2.232a.702.702 0 0 0 .315-.943.706.706 0 0 0-.946-.315l-3.128 1.561.182-.77a.705.705 0 1 0-1.372-.323l-.527 2.232a.703.703 0 0 0 .248.713z"/><path id="pyydl" d="M213.12 603.973c0 .389.316.703.705.703h8.8a.704.704 0 1 0 0-1.406h-8.8a.704.704 0 0 0-.705.703z"/><path id="pyydm" d="M205.287 614.757c.213.167.511.198.753.077l4.475-2.232a.702.702 0 0 0 .315-.943.706.706 0 0 0-.946-.315l-3.128 1.56.182-.77a.704.704 0 1 0-1.372-.323l-.527 2.233a.703.703 0 0 0 .248.713z"/><path id="pyydn" d="M205.287 623.867c.209.164.51.199.753.077l4.475-2.232a.702.702 0 1 0-.63-1.258l-3.13 1.561.183-.77a.704.704 0 1 0-1.372-.322l-.527 2.231a.702.702 0 0 0 .248.713z"/><path id="pyydo" d="M231.721 611.522c3.477 1.913 5.837 5.607 5.837 9.84 0 6.193-5.052 11.232-11.261 11.232-5.497 0-10.396-4.253-11.154-9.685a11.223 11.223 0 0 1-.093-2.124c.3-5.861 5.369-10.655 11.247-10.655 1.874 0 3.77.486 5.424 1.392zm-6.365-14.64a1.688 1.688 0 0 1-1.689-1.684v-6.797l8.51 8.48zm-25.306 2.734v27.655a4.04 4.04 0 0 0 4.04 4.03h14.392A12.624 12.624 0 0 0 226.3 634c6.985 0 12.668-5.67 12.668-12.638 0-3.813-1.701-7.237-4.386-9.556v-14.185a.723.723 0 0 0-.236-.564l-10.878-10.85a.713.713 0 0 0-.498-.207h-18.88a4.04 4.04 0 0 0-4.039 4.03v6.773a.704.704 0 0 0 1.41 0v-6.773a2.63 2.63 0 0 1 2.63-2.624h18.174v7.792c0 1.683 1.411 3.09 3.096 3.09h7.811v12.457a12.758 12.758 0 0 0-6.872-2.021c-3.47 0-6.617 1.399-8.908 3.66h-3.558a.704.704 0 1 0 0 1.406h2.328a12.624 12.624 0 0 0-1.76 3.231c-1.612 4.382-.608 9.437 2.551 12.874H204.09a2.63 2.63 0 0 1-2.63-2.624v-27.655a.704.704 0 0 0-1.41 0z"/></defs><g><g transform="translate(-200 -586)"><g><use fill="#ebebeb" xlink:href="#pyyda"/></g><g><use fill="#d5d4da" xlink:href="#pyydb"/></g><g><use fill="#d5d4da" xlink:href="#pyydc"/></g><g><use fill="#f5e277" xlink:href="#pyydd"/></g><g><use fill="#fab659" xlink:href="#pyyde"/></g><g><use xlink:href="#pyydf"/></g><g><use xlink:href="#pyydg"/></g><g><use xlink:href="#pyydh"/></g><g><use xlink:href="#pyydi"/></g><g><use xlink:href="#pyydj"/></g><g><use xlink:href="#pyydk"/></g><g><use xlink:href="#pyydl"/></g><g><use xlink:href="#pyydm"/></g><g><use xlink:href="#pyydn"/></g><g><use xlink:href="#pyydo"/></g></g></g></svg>