<?xml version="1.0" encoding="utf-8"?>
<!-- Generator: Adobe Illustrator 16.0.2, SVG Export Plug-In . SVG Version: 6.00 Build 0)  -->
<!DOCTYPE svg PUBLIC "-//W3C//DTD SVG 1.0//EN" "http://www.w3.org/TR/2001/REC-SVG-20010904/DTD/svg10.dtd">
<svg version="1.0" id="_x31_" xmlns="http://www.w3.org/2000/svg" xmlns:xlink="http://www.w3.org/1999/xlink" x="0px" y="0px"
	 width="1196px" height="173px" viewBox="0 0 1196 173" enable-background="new 0 0 1196 173" xml:space="preserve">
<g>
	<path fill-rule="evenodd" clip-rule="evenodd" fill="#7DB6C6" d="M291.679,136.104c7.165-7.915,17.998-20.25,15.665-29.498
		c-6.084-1.502-11.685-0.408-17.834,2.665c-9.25,4.623-7.914,4.846-12.998,8.25c0-33.323,37.379-40.666,67.75-40.666
		c0,11.456-9.993,34.287-15.066,41.339c-7.717,10.726-18.049,18.077-36.186,18.077L291.679,136.104z M280.001,75L279,76L280.001,75z
		 M209,51c2.396,1.149,6.629,1.239,9.24,1.76c3.664,0.732,6.066,1.202,8.9,2.099c10.283,3.254,20.59,8.179,26.883,17.117
		c3.162,4.49,6.031,10.988,6.031,18.822c-4.499-1.502-3.129-3.959-10.707-8.146c-3.373-1.863-11.004-5.387-14.42-3.804
		c-2.334,6.667,2.082,14.667,10.834,24.251C215.594,104.766,211.636,71.554,209,51L209,51z M258,65c0-7.834-0.99-11.812,2-15
		c6.178,0.938,7.095,13.021,10.096,12.521c4.498-12.417-1.002-24.083-14.086-33.417C249.428,38.938,245.428,60.604,258,65L258,65z
		 M286.844,75.438c2.002-3.75,11.252-13.417,8.418-19.167c-4.418-1.833-9.5,1.167-19.002,8.583
		c-0.082-22.5,24.097-28.083,40.085-28.083c0,9.454-3.715,20.291-7.526,26.046c-3.385,5.11-4.035,6.026-8.207,8.794
		C295.367,75.085,294.428,74.502,288,76L286.844,75.438z M246.594,91.682c4.416,2.584,13.668,12.585,14.252,17.334h1.998
		c0.151-6.813,4.77-17.068,7.336-21.917c-1.977-3.734-7.42-19.997-6.086-25.663c1.418,5.083,3.473,12.092,5.335,15.336
		c1.407,2.45,1.827,3.681,3.915,5.081c1.416-2.674,7-10.75,11.666-14.5c-9.166,15.002-23.082,36.418-19.081,68.002
		c7.249-1.75,17.415-5.998,29.748-19C288.51,128.021,274.813,138.867,267,143c1.549,6.647,4.957,17.264,8.002,22.999L279,173
		c11.715,0,23.961-3.92,34.143-7.858c4.93-1.903,14.846-8.186,19.105-11.893c10.359-9.015,3.328-2.67,10.49-10.511l8.869-12.131
		c18.944-30.931,13.718-78.06-11.354-102.857C332.066,19.65,326.67,15.352,316,10c-25.563-12.825-52.691-11.543-77.691-0.69
		c-20.578,8.935-38.24,29.13-44.702,50.295c-9.536,31.232-2.147,58.914,15.786,83.002c10.543,14.161,37.176,28.981,55.607,29.393
		c-0.099-4.547-1.172-5.264-1.942-9.057c-0.589-2.884-1.522-6.874-1.856-9.145c-3.896-26.51,3.402-27.951-5.441-47.617
		C254.484,103.346,251.929,99.432,246.594,91.682z M47,26c0-7.242,3.957-22-2-22H0v166h48V71c0-30.13,38.828-42.055,54.631-18.631
		C107.76,59.966,109,70.755,109,83v87h48V71c0-24.995-8.979-48.062-28.584-61.417c-2.964-2.02-5.449-3.24-8.543-4.455
		C91.711-5.936,69.521,1.919,50.248,22.248L47,26z"/>
	<path fill-rule="evenodd" clip-rule="evenodd" fill="#99D199" d="M1005.227,15.223c13.754-13.091,35.521-17.987,54.184-12.633
		c7.529,2.159,17.605,8.074,21.994,14.008c1.984,2.682,5.381,5.835,6.6,10.402c6.672-4.467,2.086-3.883,9.605-9.395
		c1.699-1.247,1.713-1.566,3.129-2.869c13.023-11.99,37.1-17.025,55.867-12.34C1183.309,9.061,1196,32.988,1196,61v109h-47.998V66
		c0-34.551-51-35.19-51,1v103h-48V65c0-32.243-50.998-33.658-50.998,5v100h-48.002V7c0-2.304,0.695-3,2.998-3h45.004l-1,21
		C999.9,22.875,1002.059,18.236,1005.227,15.223z M822.004,135c15.645,0,33.988-18.875,34.998-31c-5.041-0.112-14.912-3-26.998-3
		C817.799,101,798,105.664,798,119C798,135.748,810.361,135,822.004,135L822.004,135z M834.727,0
		c19.535,0.704,39.252,7.62,53.529,21.749C905.051,38.373,905.004,57.343,905.004,83c0,41.707-3.24,43,17,43v44
		c-9.865,0-21.586,0.648-30.83-2.174c-11.57-3.534-24.611-14.832-27.172-25.827l-22.387,21.612
		c-8.699,5.324-19.34,8.531-30.285,9.388h-11.893c-16.285-1.29-31.959-7.955-41.648-20.784c-0.73-0.963-3.918-6.374-4.424-7.58
		c-13.57-32.527,6.893-62.28,38.24-71.033C820.607,65.503,842.291,74,858.004,74c0-9.969-1.578-17.091-6.736-22.262
		C842.16,42.607,837.553,43,825.002,43c-11.553,0-24.357,9.855-26.002,16c-3.008-0.804-22.52-15.817-25.729-18.271
		c-3.115-2.389-4.879-3.934-8.271-5.729c1.141-4.894,2.471-4.522,5.002-8c4.74-6.523,6.283-6.291,10.246-9.752
		C792.371,6.672,809.867,0.652,828.082,0H834.727z M467.002,40.001c-17.512,0-30.74,16.233-31,27.999h63.999
		C498.744,52.917,485.268,40.001,467.002,40.001L467.002,40.001z M420.398,15.399c25.178-16.645,60.686-19.579,86.62-6.417
		c11.183,5.674,15.179,10.722,22.231,18.769c12.268,14.001,17.752,43.31,17.752,63.249c0,4.865,0.676,7-3,7H434.001
		c0.709,8.513,5.552,19.879,10.228,24.772c11.045,11.554,20.119,11.229,33.773,11.229c12.109,0,30.645-11.186,32.998-20.001
		l12.395,8.606c1.308,0.95,2.541,1.626,3.622,2.379c3.446,2.4,12.162,9.994,15.984,11.015c-0.327,3.926-0.099,2.377-2.226,4.775
		C517.893,166.582,504.799,173,467.002,173c-27.926,0-52.992-14.985-65.807-34.194C386.938,117.434,386,104.132,386,80
		C386,56.139,400.764,28.379,420.398,15.399z M618.002,86c-2.299,3.433-4.391,6.588-6.8,10.201
		c-8.28,12.422-48.057,68.891-49.2,73.799h53c0.816-3.058,14.027-21.025,16.805-25.195c3.988-5.987,14.779-20.725,16.195-26.805
		c2.67,1.957,2.246,2.827,4.188,5.811L683.002,170h53l-57-84c7.246-13.694,53.436-75.225,54-82h-49
		c-5.287,0-5.891,3.334-10.602,10.4l-21.416,32.583c-1.555,3.079-1.466,5.174-3.982,7.018c-1.08-4.637-4.354-9.28-6.67-13.33
		L617.002,4h-53.001c0.95,4.073,22.729,35.093,26.8,41.201L618.002,86z"/>
</g>
</svg>
