<?xml version="1.0" encoding="utf-8"?>
<!-- Generator: Adobe Illustrator 16.0.2, SVG Export Plug-In . SVG Version: 6.00 Build 0)  -->
<!DOCTYPE svg PUBLIC "-//W3C//DTD SVG 1.0//EN" "http://www.w3.org/TR/2001/REC-SVG-20010904/DTD/svg10.dtd">
<svg version="1.0" id="Layer_1" xmlns="http://www.w3.org/2000/svg" xmlns:xlink="http://www.w3.org/1999/xlink" x="0px" y="0px"
	 width="200px" height="200px" viewBox="0 0 200 200" enable-background="new 0 0 200 200" xml:space="preserve">
<path fill-rule="evenodd" clip-rule="evenodd" fill="#FFFFFF" d="M117.81,157.155c8.256-9.193,20.738-23.517,18.05-34.258
	c-7.009-1.742-13.462-0.473-20.546,3.096c-10.657,5.369-9.119,5.625-14.977,9.581c0-38.697,43.064-47.225,78.054-47.225
	c0,13.304-11.514,39.816-17.358,48.006c-8.892,12.456-20.794,20.993-41.687,20.993L117.81,157.155z M104.354,86.196l-1.15,1.161
	L104.354,86.196z M22.557,58.326c2.76,1.334,7.638,1.438,10.645,2.042c4.224,0.852,6.991,1.396,10.256,2.438
	c11.843,3.778,23.721,9.498,30.97,19.878c3.645,5.213,6.949,12.759,6.949,21.854c-5.186-1.741-3.605-4.596-12.335-9.457
	c-3.887-2.165-12.678-6.257-16.614-4.417c-2.687,7.743,2.401,17.032,12.48,28.162C30.153,120.761,25.594,82.194,22.557,58.326
	L22.557,58.326z M79.01,74.583c0-9.099-1.14-13.719,2.304-17.42c7.118,1.089,8.173,15.121,11.629,14.541
	c5.184-14.419-1.153-27.968-16.226-38.807C69.133,44.317,64.524,69.479,79.01,74.583L79.01,74.583z M112.241,86.704
	c2.304-4.355,12.961-15.581,9.696-22.257c-5.089-2.129-10.945,1.354-21.891,9.967c-0.094-26.129,27.764-32.612,46.181-32.612
	c0,10.977-4.279,23.563-8.67,30.247c-3.899,5.933-4.648,6.996-9.457,10.209c-6.04,4.035-7.122,3.359-14.527,5.099L112.241,86.704z
	 M65.868,105.567c5.088,3,15.746,14.613,16.417,20.129h2.304c0.176-7.91,5.494-19.821,8.449-25.451
	c-2.275-4.335-8.544-23.221-7.008-29.801c1.632,5.903,4,14.042,6.145,17.806c1.622,2.848,2.105,4.277,4.511,5.902
	c1.63-3.105,8.065-12.483,13.442-16.838c-10.561,17.421-26.593,42.292-21.988,78.97c8.354-2.033,20.067-6.969,34.277-22.064
	c-8.258,13.548-24.041,26.143-33.04,30.942c1.785,7.72,5.71,20.048,9.219,26.707l4.606,8.131c13.497,0,27.604-4.554,39.335-9.126
	c5.679-2.212,17.103-9.505,22.012-13.812c11.934-10.468,3.835-3.101,12.085-12.206l10.218-14.086
	c21.826-35.922,15.806-90.649-13.081-119.448c-9.432-9.403-15.648-14.395-27.941-20.609C116.379-4.18,85.125-2.691,56.324,9.913
	C32.615,20.287,12.266,43.738,4.821,68.318c-10.985,36.269-2.472,68.414,18.188,96.389c12.143,16.444,42.83,33.655,64.065,34.132
	c-0.117-5.277-1.348-6.113-2.24-10.518c-0.677-3.349-1.753-7.98-2.137-10.619c-4.491-30.784,3.922-32.459-6.269-55.296
	C74.959,119.114,72.015,114.567,65.868,105.567z"/>
</svg>
