<svg version="1.0" id="Layer_1" xmlns="http://www.w3.org/2000/svg" xmlns:xlink="http://www.w3.org/1999/xlink" x="0px" y="0px"
	 width="42px" height="84px" viewBox="0 0 42 84" enable-background="new 0 0 42 84" xml:space="preserve">
<g id="Fill_1">
	<path fill="none" d="M21,0l-4.957,16.043H0l12.978,9.915L8.022,42L21,32.085L33.979,42l-4.957-16.042L42,16.043H25.957L21,0z"/>
	<path fill="#E9E9E9" d="M21,6.774l-3.046,9.859l-0.436,1.409h-1.476H5.913l8.28,6.326l1.108,0.846l-0.412,1.334L11.78,36.612
		l8.006-6.116L21,29.568l1.215,0.928l8.006,6.116l-3.11-10.063l-0.411-1.334l1.107-0.846l8.281-6.326H25.957h-1.475l-0.436-1.409
		L21,6.774 M21,0l4.957,16.043H42l-12.979,9.915L33.979,42L21,32.086L8.022,42l4.956-16.042L0,16.043h16.042L21,0z"/>
</g>
<path id="Fill_1_2_" fill="#99D399" d="M21,42l-4.957,16.043H0l12.978,9.915L8.022,84L21,74.085L33.979,84l-4.957-16.042L42,58.043
	H25.957L21,42z"/>
</svg>
