<svg version="1.0" id="Layer_1" xmlns="http://www.w3.org/2000/svg" xmlns:xlink="http://www.w3.org/1999/xlink" x="0px" y="0px"
	 width="42px" height="42px" viewBox="0 42 42 42" enable-background="new 0 42 42 42" xml:space="preserve">
<g id="Fill_1_1_">
	<polygon fill="#FFFFFF" points="21,72.575 10.276,80.768 14.372,67.513 3.547,59.243 16.928,59.243 21,46.064 25.072,59.243 
		38.452,59.243 27.628,67.513 31.724,80.768 	"/>
	<path fill="#E9E9E9" d="M21,50.13l2.664,8.622l0.522,1.691h1.771h8.948l-7.341,5.607l-1.33,1.017l0.494,1.6l2.74,8.867
		l-7.012-5.356L21,71.064l-1.457,1.113l-7.012,5.356l2.74-8.867l0.494-1.6l-1.33-1.017l-7.341-5.607h8.948h1.771l0.522-1.691
		L21,50.13 M21,42l-4.957,16.043H0l12.979,9.915L8.021,84L21,74.085L33.979,84l-4.957-16.042L42,58.043H25.957L21,42L21,42z"/>
</g>
</svg>
