<svg version="1.0" id="Layer_1" xmlns="http://www.w3.org/2000/svg" xmlns:xlink="http://www.w3.org/1999/xlink" x="0px" y="0px"
	 width="42px" height="126px" viewBox="0 0 42 126" enable-background="new 0 0 42 126" xml:space="preserve">
<g id="Fill_1">
	<path fill="none" d="M21,0l-4.957,16.043H0l12.978,9.915L8.022,42L21,32.085L33.979,42l-4.957-16.042L42,16.043H25.957L21,0z"/>
	<path fill="#E9E9E9" d="M21,6.774l-3.046,9.859l-0.436,1.409h-1.476H5.913l8.28,6.326l1.108,0.846l-0.412,1.334L11.78,36.612
		l8.006-6.116L21,29.568l1.215,0.928l8.006,6.116l-3.11-10.063l-0.411-1.334l1.107-0.846l8.281-6.326H25.957h-1.475l-0.436-1.409
		L21,6.774 M21,0l4.957,16.043H42l-12.979,9.915L33.979,42L21,32.086L8.022,42l4.956-16.042L0,16.043h16.042L21,0z"/>
</g>
<g id="Fill_1_1_">
	<polygon fill="#F6FFF6" points="21,72.826 9.9,81.306 14.14,67.587 2.956,59.043 16.781,59.043 21,45.388 25.22,59.043 
		39.044,59.043 27.86,67.587 32.1,81.306 	"/>
	<path fill="#E9E9E9" d="M21,48.774l3.046,9.859l0.436,1.409h1.476h10.131l-8.28,6.326l-1.108,0.847l0.411,1.333l3.11,10.063
		l-8.007-6.116L21,71.568l-1.214,0.928l-8.006,6.116l3.109-10.063l0.412-1.333l-1.108-0.847l-8.28-6.326h10.13h1.475l0.436-1.409
		L21,48.774 M21,42l-4.957,16.043H0l12.979,9.915L8.021,84L21,74.085L33.979,84l-4.957-16.042L42,58.043H25.957L21,42L21,42z"/>
</g>
<path id="Fill_1_2_" fill="#99D399" d="M21,84l-4.957,16.043H0l12.978,9.915L8.022,126L21,116.085L33.979,126l-4.957-16.042
	L42,100.043H25.957L21,84z"/>
</svg>
