<svg width="14" height="12" viewBox="0 0 14 12" fill="none" xmlns="http://www.w3.org/2000/svg">
	<path d="M13.35 1.06621C13.561 1.27819 13.6794 1.5651 13.6794 1.86418C13.6794 2.16326 13.561 2.45017 13.35 2.66215L4.90659 11.6489C4.79953 11.76 4.67118 11.8483 4.52919 11.9087C4.38721 11.969 4.23451 12.0001 4.08023 12.0001C3.92595 12.0001 3.77326 11.969 3.63127 11.9087C3.48929 11.8483 3.36093 11.76 3.25388 11.6489L0.49494 8.67239C0.385376 8.57195 0.296668 8.45092 0.233879 8.3162C0.171091 8.18148 0.135452 8.03572 0.128998 7.88722C0.115964 7.58733 0.222595 7.29454 0.425436 7.07327C0.628276 6.85199 0.910709 6.72036 1.2106 6.70732C1.5105 6.69429 1.80329 6.80092 2.02456 7.00376C2.06438 7.04039 2.10161 7.07975 2.13598 7.12155L4.1256 9.23797L11.7445 1.13518C11.8445 1.02516 11.9652 0.935922 12.0997 0.872563C12.2342 0.809204 12.3799 0.772966 12.5284 0.76592C12.6769 0.758874 12.8253 0.781158 12.9652 0.831499C13.1051 0.88184 13.2337 0.959251 13.3436 1.05931L13.3516 1.06727L13.35 1.06621Z" fill="white"/>
</svg>
