<svg width="10" height="10" viewBox="0 0 10 10" fill="none" xmlns="http://www.w3.org/2000/svg">
	<path fill-rule="evenodd" clip-rule="evenodd" d="M1.48731 1.47808C1.80687 1.15853 2.32497 1.15853 2.64453 1.47808L8.4306 7.26416C8.75015 7.58372 8.75015 8.10182 8.4306 8.42137C8.11104 8.74093 7.59294 8.74093 7.27338 8.42137L1.48731 2.6353C1.16775 2.31574 1.16775 1.79764 1.48731 1.47808Z" fill="black"/>
	<path fill-rule="evenodd" clip-rule="evenodd" d="M8.51269 1.47808C8.19313 1.15853 7.67503 1.15853 7.35547 1.47808L1.5694 7.26416C1.24985 7.58372 1.24985 8.10182 1.5694 8.42137C1.88896 8.74093 2.40706 8.74093 2.72662 8.42137L8.51269 2.6353C8.83225 2.31574 8.83225 1.79764 8.51269 1.47808Z" fill="black"/>
</svg>
