<svg width="16" height="16" viewBox="0 0 16 16" fill="none" xmlns="http://www.w3.org/2000/svg">
	<circle cx="8" cy="8" r="8" fill="#4A4A4A"/>
	<path fill-rule="evenodd" clip-rule="evenodd" d="M4.18444 4.19058C4.53158 3.83993 5.0944 3.83993 5.44154 4.19058L11.7271 10.5398C12.0742 10.8904 12.0742 11.459 11.7271 11.8096C11.3799 12.1603 10.8171 12.1603 10.4699 11.8096L4.18444 5.46043C3.8373 5.10977 3.8373 4.54124 4.18444 4.19058Z" fill="white"/>
	<path fill-rule="evenodd" clip-rule="evenodd" d="M11.8161 4.19058C11.4689 3.83993 10.9061 3.83993 10.5589 4.19058L4.27344 10.5398C3.9263 10.8904 3.9263 11.459 4.27344 11.8096C4.62058 12.1603 5.1834 12.1603 5.53054 11.8096L11.8161 5.46043C12.1632 5.10977 12.1632 4.54124 11.8161 4.19058Z" fill="white"/>
</svg>
