<svg width="10" height="10" viewBox="0 0 10 10" fill="none" xmlns="http://www.w3.org/2000/svg">
	<path fill-rule="evenodd" clip-rule="evenodd" d="M1.18444 1.19058C1.53158 0.839928 2.0944 0.839928 2.44154 1.19058L8.72705 7.53979C9.07419 7.89045 9.07419 8.45898 8.72705 8.80963C8.37991 9.16029 7.81709 9.16029 7.46995 8.80963L1.18444 2.46043C0.837298 2.10977 0.837298 1.54124 1.18444 1.19058Z" fill="white"/>
	<path fill-rule="evenodd" clip-rule="evenodd" d="M8.81605 1.19058C8.46891 0.839928 7.90609 0.839928 7.55895 1.19058L1.27344 7.53979C0.9263 7.89045 0.9263 8.45898 1.27344 8.80963C1.62058 9.16029 2.1834 9.16029 2.53054 8.80963L8.81605 2.46043C9.16319 2.10977 9.16319 1.54124 8.81605 1.19058Z" fill="white"/>
</svg>
