<svg width="14" height="14" viewBox="0 0 14 14" fill="none" xmlns="http://www.w3.org/2000/svg">
	<path d="M0.666667 3.00065H8C8 3.35427 8.14048 3.69341 8.39052 3.94346C8.64057 4.19351 8.97971 4.33398 9.33333 4.33398H10.6667C11.0203 4.33398 11.3594 4.19351 11.6095 3.94346C11.8595 3.69341 12 3.35427 12 3.00065H12.6667C12.8435 3.00065 13.013 2.93041 13.1381 2.80539C13.2631 2.68036 13.3333 2.5108 13.3333 2.33398C13.3333 2.15717 13.2631 1.9876 13.1381 1.86258C13.013 1.73756 12.8435 1.66732 12.6667 1.66732H12C12 1.3137 11.8595 0.974557 11.6095 0.724509C11.3594 0.47446 11.0203 0.333984 10.6667 0.333984H9.33333C8.97971 0.333984 8.64057 0.47446 8.39052 0.724509C8.14048 0.974557 8 1.3137 8 1.66732H0.666667C0.489856 1.66732 0.320286 1.73756 0.195262 1.86258C0.0702379 1.9876 0 2.15717 0 2.33398C0 2.5108 0.0702379 2.68036 0.195262 2.80539C0.320286 2.93041 0.489856 3.00065 0.666667 3.00065ZM9.33333 1.66732H10.6667V2.33398V3.00065H9.33333V1.66732ZM12.6667 6.33398H6.66667C6.66667 5.98036 6.52619 5.64122 6.27614 5.39118C6.02609 5.14113 5.68695 5.00065 5.33333 5.00065H4C3.64638 5.00065 3.30724 5.14113 3.05719 5.39118C2.80714 5.64122 2.66667 5.98036 2.66667 6.33398H0.666667C0.489856 6.33398 0.320286 6.40422 0.195262 6.52925C0.0702379 6.65427 0 6.82384 0 7.00065C0 7.17746 0.0702379 7.34703 0.195262 7.47205C0.320286 7.59708 0.489856 7.66732 0.666667 7.66732H2.66667C2.66667 8.02094 2.80714 8.36008 3.05719 8.61013C3.30724 8.86017 3.64638 9.00065 4 9.00065H5.33333C5.68695 9.00065 6.02609 8.86017 6.27614 8.61013C6.52619 8.36008 6.66667 8.02094 6.66667 7.66732H12.6667C12.8435 7.66732 13.013 7.59708 13.1381 7.47205C13.2631 7.34703 13.3333 7.17746 13.3333 7.00065C13.3333 6.82384 13.2631 6.65427 13.1381 6.52925C13.013 6.40422 12.8435 6.33398 12.6667 6.33398ZM4 7.66732V6.33398H5.33333V7.00065V7.66732H4ZM12.6667 11.0007H10.6667C10.6667 10.647 10.5262 10.3079 10.2761 10.0578C10.0261 9.80779 9.68695 9.66732 9.33333 9.66732H8C7.64638 9.66732 7.30724 9.80779 7.05719 10.0578C6.80714 10.3079 6.66667 10.647 6.66667 11.0007H0.666667C0.489856 11.0007 0.320286 11.0709 0.195262 11.1959C0.0702379 11.3209 0 11.4905 0 11.6673C0 11.8441 0.0702379 12.0137 0.195262 12.1387C0.320286 12.2637 0.489856 12.334 0.666667 12.334H6.66667C6.66667 12.6876 6.80714 13.0267 7.05719 13.2768C7.30724 13.5268 7.64638 13.6673 8 13.6673H9.33333C9.68695 13.6673 10.0261 13.5268 10.2761 13.2768C10.5262 13.0267 10.6667 12.6876 10.6667 12.334H12.6667C12.8435 12.334 13.013 12.2637 13.1381 12.1387C13.2631 12.0137 13.3333 11.8441 13.3333 11.6673C13.3333 11.4905 13.2631 11.3209 13.1381 11.1959C13.013 11.0709 12.8435 11.0007 12.6667 11.0007ZM8 12.334V11.0007H9.33333V11.6673V12.334H8Z" fill="#4A4A4A"/>
</svg>
