<svg version="1.1" id="Layer_1" xmlns="http://www.w3.org/2000/svg" xmlns:xlink="http://www.w3.org/1999/xlink" x="0px" y="0px"
	 width="40px" height="40px" viewBox="0 0 40 40" enable-background="new 0 0 40 40" xml:space="preserve">
<path fill="none" stroke="#12A3E1" stroke-width="2" d="M6,1h28c2.762,0,5,2.239,5,5v28c0,2.762-2.238,5-5,5H6c-2.761,0-5-2.238-5-5
	V6C1,3.239,3.239,1,6,1z"/>
<path fill="#12A3E1" d="M20.707,13.293c-0.391-0.391-1.023-0.391-1.414,0l-6.364,6.363c-0.391,0.391-0.391,1.024,0,1.415
	c0.391,0.39,1.023,0.39,1.414,0L20,15.414l5.656,5.657c0.391,0.39,1.025,0.39,1.416,0c0.389-0.391,0.389-1.024,0-1.415
	L20.707,13.293z M21,27V14h-2v13H21z"/>
</svg>
