<svg width="120" height="24" viewBox="0 0 120 24" fill="none" xmlns="http://www.w3.org/2000/svg">
<path d="M48.7436 19.6C47.2436 19.6 45.9236 19.29 44.7836 18.67C43.6636 18.05 42.7836 17.16 42.1436 16C41.5036 14.82 41.1836 13.42 41.1836 11.8C41.1836 10.18 41.4936 8.79 42.1136 7.63C42.7536 6.45 43.6236 5.55 44.7236 4.93C45.8436 4.31 47.1236 4 48.5636 4C50.0236 4 51.2636 4.3 52.2836 4.9C53.3036 5.5 54.0836 6.32 54.6236 7.36C55.1636 8.4 55.4336 9.58 55.4336 10.9C55.4336 11.28 55.4236 11.63 55.4036 11.95C55.3836 12.27 55.3536 12.54 55.3136 12.76H44.3336C44.4736 14.16 44.9236 15.23 45.6836 15.97C46.4636 16.69 47.4636 17.05 48.6836 17.05C49.6836 17.05 50.4936 16.86 51.1136 16.48C51.7336 16.1 52.2236 15.57 52.5836 14.89L55.1336 16.09C54.6136 17.19 53.7836 18.05 52.6436 18.67C51.5236 19.29 50.2236 19.6 48.7436 19.6ZM48.5036 6.55C47.4036 6.55 46.4936 6.87 45.7736 7.51C45.0736 8.15 44.6236 9.08 44.4236 10.3H52.3136C52.2336 9.1 51.8536 8.18 51.1736 7.54C50.4936 6.88 49.6036 6.55 48.5036 6.55Z" fill="white"/>
<path d="M61.1828 4.3L64.7528 9.73L68.3228 4.3H72.0128L66.6428 11.65L72.1028 19.3H68.2928L64.5428 13.66L60.6728 19.3H57.0128L62.6528 11.74L57.3128 4.3H61.1828Z" fill="white"/>
<path d="M83.7433 9.67C83.7433 8.67 83.4633 7.9 82.9033 7.36C82.3633 6.8 81.6133 6.52 80.6533 6.52C79.7533 6.52 78.9733 6.73 78.3133 7.15C77.6733 7.57 77.2133 8.25 76.9333 9.19L74.2333 8.05C74.6133 6.83 75.3533 5.85 76.4533 5.11C77.5733 4.37 79.0133 4 80.7733 4C81.9533 4 83.0033 4.2 83.9233 4.6C84.8633 4.98 85.5933 5.57 86.1133 6.37C86.6533 7.15 86.9233 8.14 86.9233 9.34V16.03C86.9233 16.77 87.2933 17.14 88.0333 17.14C88.3933 17.14 88.7433 17.09 89.0833 16.99L88.9033 19.21C88.4433 19.43 87.8633 19.54 87.1633 19.54C86.3633 19.54 85.6733 19.36 85.0933 19C84.5133 18.64 84.1233 18.1 83.9233 17.38C83.4433 18.12 82.7533 18.68 81.8533 19.06C80.9533 19.42 80.0533 19.6 79.1533 19.6C77.7333 19.6 76.5533 19.26 75.6133 18.58C74.6733 17.9 74.2033 16.88 74.2033 15.52C74.2033 14.42 74.5633 13.51 75.2833 12.79C76.0233 12.07 77.0633 11.57 78.4033 11.29L83.7433 10.24V9.67ZM77.4433 15.28C77.4433 15.84 77.6533 16.29 78.0733 16.63C78.5133 16.95 79.0933 17.11 79.8133 17.11C80.4933 17.11 81.1333 17 81.7333 16.78C82.3333 16.56 82.8133 16.2 83.1733 15.7C83.5533 15.2 83.7433 14.55 83.7433 13.75V12.49L79.9633 13.27C79.1033 13.43 78.4633 13.66 78.0433 13.96C77.6433 14.26 77.4433 14.7 77.4433 15.28Z" fill="white"/>
<path d="M92.1827 19.3V4.3H95.0327L95.1827 6.82C95.7027 5.86 96.3927 5.15 97.2527 4.69C98.1327 4.23 99.0627 4 100.043 4C101.123 4 102.113 4.25 103.013 4.75C103.933 5.23 104.623 5.96 105.083 6.94C105.403 6.28 105.843 5.73 106.403 5.29C106.963 4.85 107.583 4.53 108.263 4.33C108.943 4.11 109.613 4 110.273 4C111.233 4 112.133 4.2 112.973 4.6C113.813 5 114.493 5.61 115.013 6.43C115.533 7.25 115.793 8.3 115.793 9.58V19.3H112.583V10.09C112.583 8.85 112.283 7.97 111.683 7.45C111.103 6.91 110.373 6.64 109.493 6.64C108.453 6.64 107.543 7.03 106.763 7.81C105.983 8.57 105.593 9.68 105.593 11.14V19.3H102.383V10.09C102.383 8.85 102.083 7.97 101.483 7.45C100.903 6.91 100.173 6.64 99.2927 6.64C98.6927 6.64 98.0927 6.8 97.4927 7.12C96.8927 7.44 96.3927 7.94 95.9927 8.62C95.5927 9.3 95.3927 10.2 95.3927 11.32V19.3H92.1827Z" fill="white"/>
<path d="M4 19.3V4.3H8.56L8.71 7.33C9.17 6.23 9.84 5.4 10.72 4.84C11.6 4.28 12.64 4 13.84 4C15.38 4 16.63 4.45 17.59 5.35C18.55 6.25 19.03 7.57 19.03 9.31V19.3H13.93V10.66C13.93 9.62 13.73 8.9 13.33 8.5C12.93 8.1 12.42 7.9 11.8 7.9C11.06 7.9 10.42 8.16 9.88 8.68C9.36 9.2 9.1 10.09 9.1 11.35V19.3H4Z" fill="#F8A846"/>
<path d="M29.7435 4C31.3235 4 32.7035 4.31 33.8835 4.93C35.0835 5.55 36.0135 6.44 36.6735 7.6C37.3535 8.76 37.6935 10.16 37.6935 11.8C37.6935 13.44 37.3535 14.84 36.6735 16C36.0135 17.16 35.0835 18.05 33.8835 18.67C32.7035 19.29 31.3235 19.6 29.7435 19.6C28.1835 19.6 26.8035 19.29 25.6035 18.67C24.4235 18.05 23.4935 17.16 22.8135 16C22.1535 14.84 21.8235 13.44 21.8235 11.8C21.8235 10.16 22.1535 8.76 22.8135 7.6C23.4935 6.44 24.4235 5.55 25.6035 4.93C26.8035 4.31 28.1835 4 29.7435 4ZM29.7435 7.63C28.8635 7.63 28.1735 7.96 27.6735 8.62C27.1935 9.26 26.9535 10.32 26.9535 11.8C26.9535 13.26 27.1935 14.32 27.6735 14.98C28.1735 15.64 28.8635 15.97 29.7435 15.97C30.6435 15.97 31.3335 15.64 31.8135 14.98C32.3135 14.32 32.5635 13.26 32.5635 11.8C32.5635 10.32 32.3135 9.26 31.8135 8.62C31.3335 7.96 30.6435 7.63 29.7435 7.63Z" fill="#F8A846"/>
</svg>
